<svg width="360" height="640" viewBox="0 0 360 640" fill="none" xmlns="http://www.w3.org/2000/svg">
<g clip-path="url(#clip0)">
<rect width="360" height="640" fill="white"/>
<rect width="360" height="740" fill="white"/>
<path fill-rule="evenodd" clip-rule="evenodd" d="M40 53H27.8L33.4 47.4L32 46L24 54L32 62L33.4 60.6L27.8 55H40V53Z" fill="#024890"/>
<path d="M48.3467 122.691H38.2197L35.9453 129H32.6582L41.8887 104.828H44.6777L53.9248 129H50.6543L48.3467 122.691ZM39.1826 120.068H47.4004L43.2832 108.763L39.1826 120.068ZM60.2842 129H57.2129V103.5H60.2842V129ZM68.3535 111.037L68.4365 113.029C69.7536 111.48 71.5299 110.705 73.7656 110.705C76.278 110.705 77.988 111.668 78.8955 113.594C79.4932 112.73 80.2679 112.033 81.2197 111.502C82.1826 110.971 83.3171 110.705 84.623 110.705C88.5632 110.705 90.5664 112.791 90.6328 116.964V129H87.5615V117.146C87.5615 115.863 87.2682 114.905 86.6816 114.274C86.0951 113.632 85.11 113.312 83.7266 113.312C82.5866 113.312 81.6403 113.655 80.8877 114.341C80.1351 115.016 79.6979 115.929 79.5762 117.08V129H76.4883V117.229C76.4883 114.618 75.21 113.312 72.6533 113.312C70.639 113.312 69.2611 114.169 68.5195 115.885V129H65.4482V111.037H68.3535ZM94.7178 119.853C94.7178 118.093 95.0609 116.51 95.7471 115.104C96.4443 113.699 97.4072 112.614 98.6357 111.851C99.8753 111.087 101.286 110.705 102.869 110.705C105.315 110.705 107.291 111.552 108.796 113.245C110.312 114.938 111.07 117.191 111.07 120.002V120.218C111.07 121.966 110.733 123.538 110.058 124.933C109.394 126.316 108.436 127.395 107.186 128.17C105.946 128.945 104.518 129.332 102.902 129.332C100.467 129.332 98.4919 128.485 96.9756 126.792C95.4704 125.099 94.7178 122.857 94.7178 120.068V119.853ZM97.8057 120.218C97.8057 122.21 98.265 123.809 99.1836 125.016C100.113 126.222 101.353 126.825 102.902 126.825C104.463 126.825 105.702 126.216 106.621 124.999C107.54 123.771 107.999 122.055 107.999 119.853C107.999 117.882 107.529 116.289 106.588 115.071C105.658 113.843 104.419 113.229 102.869 113.229C101.353 113.229 100.13 113.832 99.2002 115.038C98.2705 116.244 97.8057 117.971 97.8057 120.218ZM125.631 124.235C125.631 123.405 125.315 122.763 124.685 122.31C124.065 121.845 122.975 121.446 121.414 121.114C119.865 120.782 118.631 120.384 117.712 119.919C116.804 119.454 116.129 118.901 115.687 118.259C115.255 117.617 115.039 116.853 115.039 115.968C115.039 114.496 115.659 113.251 116.898 112.232C118.149 111.214 119.743 110.705 121.68 110.705C123.716 110.705 125.365 111.231 126.627 112.282C127.9 113.334 128.536 114.678 128.536 116.316H125.448C125.448 115.475 125.089 114.75 124.369 114.142C123.661 113.533 122.764 113.229 121.68 113.229C120.562 113.229 119.688 113.472 119.057 113.959C118.426 114.446 118.11 115.082 118.11 115.868C118.11 116.61 118.404 117.169 118.99 117.545C119.577 117.921 120.634 118.281 122.161 118.624C123.7 118.967 124.945 119.377 125.896 119.853C126.848 120.328 127.551 120.904 128.005 121.579C128.47 122.243 128.702 123.057 128.702 124.02C128.702 125.624 128.06 126.914 126.776 127.888C125.493 128.851 123.827 129.332 121.779 129.332C120.34 129.332 119.068 129.077 117.961 128.568C116.854 128.059 115.985 127.351 115.354 126.443C114.735 125.525 114.425 124.534 114.425 123.472H117.496C117.551 124.501 117.961 125.32 118.725 125.929C119.499 126.526 120.518 126.825 121.779 126.825C122.941 126.825 123.871 126.593 124.568 126.128C125.277 125.652 125.631 125.021 125.631 124.235ZM137.12 106.688V111.037H140.474V113.411H137.12V124.551C137.12 125.27 137.27 125.812 137.568 126.178C137.867 126.532 138.376 126.709 139.096 126.709C139.45 126.709 139.937 126.643 140.557 126.51V129C139.749 129.221 138.963 129.332 138.199 129.332C136.827 129.332 135.792 128.917 135.095 128.087C134.397 127.257 134.049 126.078 134.049 124.551V113.411H130.778V111.037H134.049V106.688H137.12ZM152.263 119.869C152.263 117.113 152.916 114.9 154.222 113.229C155.528 111.546 157.238 110.705 159.352 110.705C161.454 110.705 163.12 111.424 164.349 112.863V103.5H167.42V129H164.598L164.448 127.074C163.22 128.579 161.51 129.332 159.318 129.332C157.238 129.332 155.539 128.48 154.222 126.775C152.916 125.071 152.263 122.846 152.263 120.102V119.869ZM155.334 120.218C155.334 122.254 155.755 123.848 156.596 124.999C157.437 126.15 158.599 126.726 160.082 126.726C162.03 126.726 163.452 125.851 164.349 124.103V115.852C163.43 114.158 162.019 113.312 160.115 113.312C158.61 113.312 157.437 113.893 156.596 115.055C155.755 116.217 155.334 117.938 155.334 120.218ZM171.638 119.853C171.638 118.093 171.981 116.51 172.667 115.104C173.364 113.699 174.327 112.614 175.556 111.851C176.795 111.087 178.206 110.705 179.789 110.705C182.235 110.705 184.211 111.552 185.716 113.245C187.232 114.938 187.99 117.191 187.99 120.002V120.218C187.99 121.966 187.653 123.538 186.978 124.933C186.313 126.316 185.356 127.395 184.105 128.17C182.866 128.945 181.438 129.332 179.822 129.332C177.387 129.332 175.412 128.485 173.896 126.792C172.39 125.099 171.638 122.857 171.638 120.068V119.853ZM174.726 120.218C174.726 122.21 175.185 123.809 176.104 125.016C177.033 126.222 178.273 126.825 179.822 126.825C181.383 126.825 182.622 126.216 183.541 124.999C184.46 123.771 184.919 122.055 184.919 119.853C184.919 117.882 184.449 116.289 183.508 115.071C182.578 113.843 181.339 113.229 179.789 113.229C178.273 113.229 177.05 113.832 176.12 115.038C175.19 116.244 174.726 117.971 174.726 120.218ZM194.997 111.037L195.097 113.295C196.469 111.568 198.262 110.705 200.476 110.705C204.272 110.705 206.187 112.847 206.22 117.13V129H203.148V117.113C203.137 115.818 202.839 114.861 202.252 114.241C201.676 113.621 200.774 113.312 199.546 113.312C198.55 113.312 197.675 113.577 196.923 114.108C196.17 114.64 195.584 115.337 195.163 116.2V129H192.092V111.037H194.997ZM218.556 129.332C216.121 129.332 214.14 128.535 212.612 126.941C211.085 125.337 210.321 123.195 210.321 120.517V119.952C210.321 118.17 210.659 116.582 211.334 115.188C212.02 113.782 212.972 112.686 214.189 111.9C215.418 111.104 216.746 110.705 218.174 110.705C220.509 110.705 222.324 111.474 223.619 113.013C224.914 114.551 225.562 116.754 225.562 119.62V120.898H213.393C213.437 122.669 213.951 124.103 214.937 125.198C215.933 126.283 217.194 126.825 218.722 126.825C219.806 126.825 220.725 126.604 221.478 126.161C222.23 125.718 222.889 125.132 223.453 124.401L225.329 125.862C223.824 128.175 221.566 129.332 218.556 129.332ZM218.174 113.229C216.934 113.229 215.894 113.682 215.053 114.59C214.212 115.486 213.691 116.748 213.492 118.375H222.49V118.143C222.402 116.582 221.981 115.376 221.229 114.523C220.476 113.66 219.458 113.229 218.174 113.229Z" fill="#4A4A4A"/>
<path d="M36.7891 154.336L39.7578 148.625H41.4609L37.5391 155.758V160H36.0391V155.758L32.1172 148.625H33.8359L36.7891 154.336ZM42.3047 155.695C42.3047 154.867 42.4661 154.122 42.7891 153.461C43.1172 152.799 43.5703 152.289 44.1484 151.93C44.7318 151.57 45.3958 151.391 46.1406 151.391C47.2917 151.391 48.2214 151.789 48.9297 152.586C49.6432 153.383 50 154.443 50 155.766V155.867C50 156.69 49.8411 157.43 49.5234 158.086C49.2109 158.737 48.7604 159.245 48.1719 159.609C47.5885 159.974 46.9167 160.156 46.1562 160.156C45.0104 160.156 44.0807 159.758 43.3672 158.961C42.6589 158.164 42.3047 157.109 42.3047 155.797V155.695ZM43.7578 155.867C43.7578 156.805 43.974 157.557 44.4062 158.125C44.8438 158.693 45.4271 158.977 46.1562 158.977C46.8906 158.977 47.474 158.69 47.9062 158.117C48.3385 157.539 48.5547 156.732 48.5547 155.695C48.5547 154.768 48.3333 154.018 47.8906 153.445C47.4531 152.867 46.8698 152.578 46.1406 152.578C45.4271 152.578 44.8516 152.862 44.4141 153.43C43.9766 153.997 43.7578 154.81 43.7578 155.867ZM57.5312 159.164C56.9688 159.826 56.1432 160.156 55.0547 160.156C54.1536 160.156 53.4661 159.896 52.9922 159.375C52.5234 158.849 52.2865 158.073 52.2812 157.047V151.547H53.7266V157.008C53.7266 158.289 54.2474 158.93 55.2891 158.93C56.3932 158.93 57.1276 158.518 57.4922 157.695V151.547H58.9375V160H57.5625L57.5312 159.164ZM61.7422 151.828L60.9219 151.266C61.4062 150.589 61.6562 149.875 61.6719 149.125V148H63.1016V149.016C63.0964 149.536 62.9661 150.057 62.7109 150.578C62.4609 151.094 62.138 151.51 61.7422 151.828ZM69.4297 152.844C69.2109 152.807 68.974 152.789 68.7188 152.789C67.7708 152.789 67.1276 153.193 66.7891 154V160H65.3438V151.547H66.75L66.7734 152.523C67.2474 151.768 67.9193 151.391 68.7891 151.391C69.0703 151.391 69.2839 151.427 69.4297 151.5V152.844ZM74.6172 160.156C73.4714 160.156 72.5391 159.781 71.8203 159.031C71.1016 158.276 70.7422 157.268 70.7422 156.008V155.742C70.7422 154.904 70.901 154.156 71.2188 153.5C71.5417 152.839 71.9896 152.323 72.5625 151.953C73.1406 151.578 73.7656 151.391 74.4375 151.391C75.5365 151.391 76.3906 151.753 77 152.477C77.6094 153.201 77.9141 154.237 77.9141 155.586V156.188H72.1875C72.2083 157.021 72.4505 157.695 72.9141 158.211C73.3828 158.721 73.9766 158.977 74.6953 158.977C75.2057 158.977 75.638 158.872 75.9922 158.664C76.3464 158.456 76.6562 158.18 76.9219 157.836L77.8047 158.523C77.0964 159.612 76.0339 160.156 74.6172 160.156ZM74.4375 152.578C73.8542 152.578 73.3646 152.792 72.9688 153.219C72.5729 153.641 72.3281 154.234 72.2344 155H76.4688V154.891C76.4271 154.156 76.2292 153.589 75.875 153.188C75.5208 152.781 75.0417 152.578 74.4375 152.578ZM84.1797 155.695C84.1797 154.867 84.3411 154.122 84.6641 153.461C84.9922 152.799 85.4453 152.289 86.0234 151.93C86.6068 151.57 87.2708 151.391 88.0156 151.391C89.1667 151.391 90.0964 151.789 90.8047 152.586C91.5182 153.383 91.875 154.443 91.875 155.766V155.867C91.875 156.69 91.7161 157.43 91.3984 158.086C91.0859 158.737 90.6354 159.245 90.0469 159.609C89.4635 159.974 88.7917 160.156 88.0312 160.156C86.8854 160.156 85.9557 159.758 85.2422 158.961C84.5339 158.164 84.1797 157.109 84.1797 155.797V155.695ZM85.6328 155.867C85.6328 156.805 85.849 157.557 86.2812 158.125C86.7188 158.693 87.3021 158.977 88.0312 158.977C88.7656 158.977 89.349 158.69 89.7812 158.117C90.2135 157.539 90.4297 156.732 90.4297 155.695C90.4297 154.768 90.2083 154.018 89.7656 153.445C89.3281 152.867 88.7448 152.578 88.0156 152.578C87.3021 152.578 86.7266 152.862 86.2891 153.43C85.8516 153.997 85.6328 154.81 85.6328 155.867ZM95.5547 151.547L95.6016 152.609C96.2474 151.797 97.0911 151.391 98.1328 151.391C99.9193 151.391 100.82 152.398 100.836 154.414V160H99.3906V154.406C99.3854 153.797 99.2448 153.346 98.9688 153.055C98.6979 152.763 98.2734 152.617 97.6953 152.617C97.2266 152.617 96.8151 152.742 96.4609 152.992C96.1068 153.242 95.8307 153.57 95.6328 153.977V160H94.1875V151.547H95.5547ZM105.086 160H103.641V148H105.086V160ZM110.672 157.883L112.641 151.547H114.188L110.789 161.305C110.263 162.711 109.427 163.414 108.281 163.414L108.008 163.391L107.469 163.289V162.117L107.859 162.148C108.349 162.148 108.729 162.049 109 161.852C109.276 161.654 109.503 161.292 109.68 160.766L110 159.906L106.984 151.547H108.562L110.672 157.883ZM120.07 155.695C120.07 154.867 120.232 154.122 120.555 153.461C120.883 152.799 121.336 152.289 121.914 151.93C122.497 151.57 123.161 151.391 123.906 151.391C125.057 151.391 125.987 151.789 126.695 152.586C127.409 153.383 127.766 154.443 127.766 155.766V155.867C127.766 156.69 127.607 157.43 127.289 158.086C126.977 158.737 126.526 159.245 125.938 159.609C125.354 159.974 124.682 160.156 123.922 160.156C122.776 160.156 121.846 159.758 121.133 158.961C120.424 158.164 120.07 157.109 120.07 155.797V155.695ZM121.523 155.867C121.523 156.805 121.74 157.557 122.172 158.125C122.609 158.693 123.193 158.977 123.922 158.977C124.656 158.977 125.24 158.69 125.672 158.117C126.104 157.539 126.32 156.732 126.32 155.695C126.32 154.768 126.099 154.018 125.656 153.445C125.219 152.867 124.635 152.578 123.906 152.578C123.193 152.578 122.617 152.862 122.18 153.43C121.742 153.997 121.523 154.81 121.523 155.867ZM131.445 151.547L131.492 152.609C132.138 151.797 132.982 151.391 134.023 151.391C135.81 151.391 136.711 152.398 136.727 154.414V160H135.281V154.406C135.276 153.797 135.135 153.346 134.859 153.055C134.589 152.763 134.164 152.617 133.586 152.617C133.117 152.617 132.706 152.742 132.352 152.992C131.997 153.242 131.721 153.57 131.523 153.977V160H130.078V151.547H131.445ZM142.914 160.156C141.768 160.156 140.836 159.781 140.117 159.031C139.398 158.276 139.039 157.268 139.039 156.008V155.742C139.039 154.904 139.198 154.156 139.516 153.5C139.839 152.839 140.286 152.323 140.859 151.953C141.438 151.578 142.062 151.391 142.734 151.391C143.833 151.391 144.688 151.753 145.297 152.477C145.906 153.201 146.211 154.237 146.211 155.586V156.188H140.484C140.505 157.021 140.747 157.695 141.211 158.211C141.68 158.721 142.273 158.977 142.992 158.977C143.503 158.977 143.935 158.872 144.289 158.664C144.643 158.456 144.953 158.18 145.219 157.836L146.102 158.523C145.393 159.612 144.331 160.156 142.914 160.156ZM142.734 152.578C142.151 152.578 141.661 152.792 141.266 153.219C140.87 153.641 140.625 154.234 140.531 155H144.766V154.891C144.724 154.156 144.526 153.589 144.172 153.188C143.818 152.781 143.339 152.578 142.734 152.578ZM157.781 157.758C157.781 157.367 157.633 157.065 157.336 156.852C157.044 156.633 156.531 156.445 155.797 156.289C155.068 156.133 154.487 155.945 154.055 155.727C153.628 155.508 153.31 155.247 153.102 154.945C152.898 154.643 152.797 154.284 152.797 153.867C152.797 153.174 153.089 152.589 153.672 152.109C154.26 151.63 155.01 151.391 155.922 151.391C156.88 151.391 157.656 151.638 158.25 152.133C158.849 152.628 159.148 153.26 159.148 154.031H157.695C157.695 153.635 157.526 153.294 157.188 153.008C156.854 152.721 156.432 152.578 155.922 152.578C155.396 152.578 154.984 152.693 154.688 152.922C154.391 153.151 154.242 153.451 154.242 153.82C154.242 154.169 154.38 154.432 154.656 154.609C154.932 154.786 155.43 154.956 156.148 155.117C156.872 155.279 157.458 155.471 157.906 155.695C158.354 155.919 158.685 156.19 158.898 156.508C159.117 156.82 159.227 157.203 159.227 157.656C159.227 158.411 158.924 159.018 158.32 159.477C157.716 159.93 156.932 160.156 155.969 160.156C155.292 160.156 154.693 160.036 154.172 159.797C153.651 159.557 153.242 159.224 152.945 158.797C152.654 158.365 152.508 157.898 152.508 157.398H153.953C153.979 157.883 154.172 158.268 154.531 158.555C154.896 158.836 155.375 158.977 155.969 158.977C156.516 158.977 156.953 158.867 157.281 158.648C157.615 158.424 157.781 158.128 157.781 157.758ZM163.57 149.5V151.547H165.148V152.664H163.57V157.906C163.57 158.245 163.641 158.5 163.781 158.672C163.922 158.839 164.161 158.922 164.5 158.922C164.667 158.922 164.896 158.891 165.188 158.828V160C164.807 160.104 164.438 160.156 164.078 160.156C163.432 160.156 162.945 159.961 162.617 159.57C162.289 159.18 162.125 158.625 162.125 157.906V152.664H160.586V151.547H162.125V149.5H163.57ZM170.852 160.156C169.706 160.156 168.773 159.781 168.055 159.031C167.336 158.276 166.977 157.268 166.977 156.008V155.742C166.977 154.904 167.135 154.156 167.453 153.5C167.776 152.839 168.224 152.323 168.797 151.953C169.375 151.578 170 151.391 170.672 151.391C171.771 151.391 172.625 151.753 173.234 152.477C173.844 153.201 174.148 154.237 174.148 155.586V156.188H168.422C168.443 157.021 168.685 157.695 169.148 158.211C169.617 158.721 170.211 158.977 170.93 158.977C171.44 158.977 171.872 158.872 172.227 158.664C172.581 158.456 172.891 158.18 173.156 157.836L174.039 158.523C173.331 159.612 172.268 160.156 170.852 160.156ZM170.672 152.578C170.089 152.578 169.599 152.792 169.203 153.219C168.807 153.641 168.562 154.234 168.469 155H172.703V154.891C172.661 154.156 172.464 153.589 172.109 153.188C171.755 152.781 171.276 152.578 170.672 152.578ZM183.469 155.867C183.469 157.154 183.174 158.19 182.586 158.977C181.997 159.763 181.201 160.156 180.195 160.156C179.169 160.156 178.362 159.831 177.773 159.18V163.25H176.328V151.547H177.648L177.719 152.484C178.307 151.755 179.125 151.391 180.172 151.391C181.188 151.391 181.99 151.773 182.578 152.539C183.172 153.305 183.469 154.37 183.469 155.734V155.867ZM182.023 155.703C182.023 154.75 181.82 153.997 181.414 153.445C181.008 152.893 180.451 152.617 179.742 152.617C178.867 152.617 178.211 153.005 177.773 153.781V157.82C178.206 158.591 178.867 158.977 179.758 158.977C180.451 158.977 181 158.703 181.406 158.156C181.818 157.604 182.023 156.786 182.023 155.703ZM195.5 160C195.417 159.833 195.349 159.536 195.297 159.109C194.625 159.807 193.823 160.156 192.891 160.156C192.057 160.156 191.372 159.922 190.836 159.453C190.305 158.979 190.039 158.38 190.039 157.656C190.039 156.776 190.372 156.094 191.039 155.609C191.711 155.12 192.654 154.875 193.867 154.875H195.273V154.211C195.273 153.706 195.122 153.305 194.82 153.008C194.518 152.706 194.073 152.555 193.484 152.555C192.969 152.555 192.536 152.685 192.188 152.945C191.839 153.206 191.664 153.521 191.664 153.891H190.211C190.211 153.469 190.359 153.062 190.656 152.672C190.958 152.276 191.365 151.964 191.875 151.734C192.391 151.505 192.956 151.391 193.57 151.391C194.544 151.391 195.307 151.635 195.859 152.125C196.411 152.609 196.698 153.279 196.719 154.133V158.023C196.719 158.799 196.818 159.417 197.016 159.875V160H195.5ZM193.102 158.898C193.555 158.898 193.984 158.781 194.391 158.547C194.797 158.312 195.091 158.008 195.273 157.633V155.898H194.141C192.37 155.898 191.484 156.417 191.484 157.453C191.484 157.906 191.635 158.26 191.938 158.516C192.24 158.771 192.628 158.898 193.102 158.898ZM206.969 158.008L208.594 151.547H210.039L207.578 160H206.406L204.352 153.594L202.352 160H201.18L198.727 151.547H200.164L201.828 157.875L203.797 151.547H204.961L206.969 158.008ZM217.234 160C217.151 159.833 217.083 159.536 217.031 159.109C216.359 159.807 215.557 160.156 214.625 160.156C213.792 160.156 213.107 159.922 212.57 159.453C212.039 158.979 211.773 158.38 211.773 157.656C211.773 156.776 212.107 156.094 212.773 155.609C213.445 155.12 214.388 154.875 215.602 154.875H217.008V154.211C217.008 153.706 216.857 153.305 216.555 153.008C216.253 152.706 215.807 152.555 215.219 152.555C214.703 152.555 214.271 152.685 213.922 152.945C213.573 153.206 213.398 153.521 213.398 153.891H211.945C211.945 153.469 212.094 153.062 212.391 152.672C212.693 152.276 213.099 151.964 213.609 151.734C214.125 151.505 214.69 151.391 215.305 151.391C216.279 151.391 217.042 151.635 217.594 152.125C218.146 152.609 218.432 153.279 218.453 154.133V158.023C218.453 158.799 218.552 159.417 218.75 159.875V160H217.234ZM214.836 158.898C215.289 158.898 215.719 158.781 216.125 158.547C216.531 158.312 216.826 158.008 217.008 157.633V155.898H215.875C214.104 155.898 213.219 156.417 213.219 157.453C213.219 157.906 213.37 158.26 213.672 158.516C213.974 158.771 214.362 158.898 214.836 158.898ZM223.859 157.883L225.828 151.547H227.375L223.977 161.305C223.451 162.711 222.615 163.414 221.469 163.414L221.195 163.391L220.656 163.289V162.117L221.047 162.148C221.536 162.148 221.917 162.049 222.188 161.852C222.464 161.654 222.69 161.292 222.867 160.766L223.188 159.906L220.172 151.547H221.75L223.859 157.883ZM234.352 160V152.664H233.016V151.547H234.352V150.68C234.352 149.773 234.594 149.073 235.078 148.578C235.562 148.083 236.247 147.836 237.133 147.836C237.466 147.836 237.797 147.88 238.125 147.969L238.047 149.141C237.802 149.094 237.542 149.07 237.266 149.07C236.797 149.07 236.435 149.208 236.18 149.484C235.924 149.755 235.797 150.146 235.797 150.656V151.547H237.602V152.664H235.797V160H234.352ZM243.789 152.844C243.57 152.807 243.333 152.789 243.078 152.789C242.13 152.789 241.487 153.193 241.148 154V160H239.703V151.547H241.109L241.133 152.523C241.607 151.768 242.279 151.391 243.148 151.391C243.43 151.391 243.643 151.427 243.789 151.5V152.844ZM245.086 155.695C245.086 154.867 245.247 154.122 245.57 153.461C245.898 152.799 246.352 152.289 246.93 151.93C247.513 151.57 248.177 151.391 248.922 151.391C250.073 151.391 251.003 151.789 251.711 152.586C252.424 153.383 252.781 154.443 252.781 155.766V155.867C252.781 156.69 252.622 157.43 252.305 158.086C251.992 158.737 251.542 159.245 250.953 159.609C250.37 159.974 249.698 160.156 248.938 160.156C247.792 160.156 246.862 159.758 246.148 158.961C245.44 158.164 245.086 157.109 245.086 155.797V155.695ZM246.539 155.867C246.539 156.805 246.755 157.557 247.188 158.125C247.625 158.693 248.208 158.977 248.938 158.977C249.672 158.977 250.255 158.69 250.688 158.117C251.12 157.539 251.336 156.732 251.336 155.695C251.336 154.768 251.115 154.018 250.672 153.445C250.234 152.867 249.651 152.578 248.922 152.578C248.208 152.578 247.633 152.862 247.195 153.43C246.758 153.997 246.539 154.81 246.539 155.867ZM256.453 151.547L256.492 152.484C257.112 151.755 257.948 151.391 259 151.391C260.182 151.391 260.987 151.844 261.414 152.75C261.695 152.344 262.06 152.016 262.508 151.766C262.961 151.516 263.495 151.391 264.109 151.391C265.964 151.391 266.906 152.372 266.938 154.336V160H265.492V154.422C265.492 153.818 265.354 153.367 265.078 153.07C264.802 152.768 264.339 152.617 263.688 152.617C263.151 152.617 262.706 152.779 262.352 153.102C261.997 153.419 261.792 153.849 261.734 154.391V160H260.281V154.461C260.281 153.232 259.68 152.617 258.477 152.617C257.529 152.617 256.88 153.021 256.531 153.828V160H255.086V151.547H256.453ZM33.5781 186V178.664H32.2422V177.547H33.5781V176.828C33.5781 175.885 33.8464 175.151 34.3828 174.625C34.9245 174.099 35.6875 173.836 36.6719 173.836C37.2552 173.836 37.9922 173.995 38.8828 174.312L38.6406 175.531C37.9896 175.271 37.3698 175.141 36.7812 175.141C36.1615 175.141 35.7135 175.281 35.4375 175.562C35.1667 175.839 35.0312 176.255 35.0312 176.812V177.547H36.7578V178.664H35.0312V186H33.5781ZM39.6016 186H38.1484V177.547H39.6016V186ZM43.8203 177.547L43.8672 178.609C44.513 177.797 45.3568 177.391 46.3984 177.391C48.1849 177.391 49.0859 178.398 49.1016 180.414V186H47.6562V180.406C47.651 179.797 47.5104 179.346 47.2344 179.055C46.9635 178.763 46.5391 178.617 45.9609 178.617C45.4922 178.617 45.0807 178.742 44.7266 178.992C44.3724 179.242 44.0964 179.57 43.8984 179.977V186H42.4531V177.547H43.8203ZM51.4297 181.703C51.4297 180.406 51.737 179.365 52.3516 178.578C52.9661 177.786 53.7708 177.391 54.7656 177.391C55.7552 177.391 56.5391 177.729 57.1172 178.406V174H58.5625V186H57.2344L57.1641 185.094C56.5859 185.802 55.7812 186.156 54.75 186.156C53.7708 186.156 52.9714 185.755 52.3516 184.953C51.737 184.151 51.4297 183.104 51.4297 181.812V181.703ZM52.875 181.867C52.875 182.826 53.0729 183.576 53.4688 184.117C53.8646 184.659 54.4115 184.93 55.1094 184.93C56.026 184.93 56.6953 184.518 57.1172 183.695V179.812C56.6849 179.016 56.0208 178.617 55.125 178.617C54.4167 178.617 53.8646 178.891 53.4688 179.438C53.0729 179.984 52.875 180.794 52.875 181.867ZM62.8828 186H61.4375V177.547H62.8828V186ZM61.3203 175.305C61.3203 175.07 61.3906 174.872 61.5312 174.711C61.6771 174.549 61.8906 174.469 62.1719 174.469C62.4531 174.469 62.6667 174.549 62.8125 174.711C62.9583 174.872 63.0312 175.07 63.0312 175.305C63.0312 175.539 62.9583 175.734 62.8125 175.891C62.6667 176.047 62.4531 176.125 62.1719 176.125C61.8906 176.125 61.6771 176.047 61.5312 175.891C61.3906 175.734 61.3203 175.539 61.3203 175.305ZM67.0703 177.547L67.1172 178.609C67.763 177.797 68.6068 177.391 69.6484 177.391C71.4349 177.391 72.3359 178.398 72.3516 180.414V186H70.9062V180.406C70.901 179.797 70.7604 179.346 70.4844 179.055C70.2135 178.763 69.7891 178.617 69.2109 178.617C68.7422 178.617 68.3307 178.742 67.9766 178.992C67.6224 179.242 67.3464 179.57 67.1484 179.977V186H65.7031V177.547H67.0703ZM74.6875 181.703C74.6875 180.385 74.9922 179.339 75.6016 178.562C76.2109 177.781 77.0182 177.391 78.0234 177.391C79.0547 177.391 79.8594 177.755 80.4375 178.484L80.5078 177.547H81.8281V185.797C81.8281 186.891 81.5026 187.753 80.8516 188.383C80.2057 189.013 79.3359 189.328 78.2422 189.328C77.6328 189.328 77.0365 189.198 76.4531 188.938C75.8698 188.677 75.4245 188.32 75.1172 187.867L75.8672 187C76.487 187.766 77.2448 188.148 78.1406 188.148C78.8438 188.148 79.3906 187.951 79.7812 187.555C80.1771 187.159 80.375 186.602 80.375 185.883V185.156C79.7969 185.823 79.0078 186.156 78.0078 186.156C77.0182 186.156 76.2161 185.758 75.6016 184.961C74.9922 184.164 74.6875 183.078 74.6875 181.703ZM76.1406 181.867C76.1406 182.82 76.3359 183.57 76.7266 184.117C77.1172 184.659 77.6641 184.93 78.3672 184.93C79.2786 184.93 79.9479 184.516 80.375 183.688V179.828C79.9323 179.021 79.2682 178.617 78.3828 178.617C77.6797 178.617 77.1302 178.891 76.7344 179.438C76.3385 179.984 76.1406 180.794 76.1406 181.867ZM91.75 183.883L93.7188 177.547H95.2656L91.8672 187.305C91.3411 188.711 90.5052 189.414 89.3594 189.414L89.0859 189.391L88.5469 189.289V188.117L88.9375 188.148C89.4271 188.148 89.8073 188.049 90.0781 187.852C90.3542 187.654 90.5807 187.292 90.7578 186.766L91.0781 185.906L88.0625 177.547H89.6406L91.75 183.883ZM96.5547 181.695C96.5547 180.867 96.7161 180.122 97.0391 179.461C97.3672 178.799 97.8203 178.289 98.3984 177.93C98.9818 177.57 99.6458 177.391 100.391 177.391C101.542 177.391 102.471 177.789 103.18 178.586C103.893 179.383 104.25 180.443 104.25 181.766V181.867C104.25 182.69 104.091 183.43 103.773 184.086C103.461 184.737 103.01 185.245 102.422 185.609C101.839 185.974 101.167 186.156 100.406 186.156C99.2604 186.156 98.3307 185.758 97.6172 184.961C96.9089 184.164 96.5547 183.109 96.5547 181.797V181.695ZM98.0078 181.867C98.0078 182.805 98.224 183.557 98.6562 184.125C99.0938 184.693 99.6771 184.977 100.406 184.977C101.141 184.977 101.724 184.69 102.156 184.117C102.589 183.539 102.805 182.732 102.805 181.695C102.805 180.768 102.583 180.018 102.141 179.445C101.703 178.867 101.12 178.578 100.391 178.578C99.6771 178.578 99.1016 178.862 98.6641 179.43C98.2266 179.997 98.0078 180.81 98.0078 181.867ZM111.781 185.164C111.219 185.826 110.393 186.156 109.305 186.156C108.404 186.156 107.716 185.896 107.242 185.375C106.773 184.849 106.536 184.073 106.531 183.047V177.547H107.977V183.008C107.977 184.289 108.497 184.93 109.539 184.93C110.643 184.93 111.378 184.518 111.742 183.695V177.547H113.188V186H111.812L111.781 185.164ZM119.977 178.844C119.758 178.807 119.521 178.789 119.266 178.789C118.318 178.789 117.674 179.193 117.336 180V186H115.891V177.547H117.297L117.32 178.523C117.794 177.768 118.466 177.391 119.336 177.391C119.617 177.391 119.831 177.427 119.977 177.5V178.844ZM125.93 181.703C125.93 180.406 126.237 179.365 126.852 178.578C127.466 177.786 128.271 177.391 129.266 177.391C130.255 177.391 131.039 177.729 131.617 178.406V174H133.062V186H131.734L131.664 185.094C131.086 185.802 130.281 186.156 129.25 186.156C128.271 186.156 127.471 185.755 126.852 184.953C126.237 184.151 125.93 183.104 125.93 181.812V181.703ZM127.375 181.867C127.375 182.826 127.573 183.576 127.969 184.117C128.365 184.659 128.911 184.93 129.609 184.93C130.526 184.93 131.195 184.518 131.617 183.695V179.812C131.185 179.016 130.521 178.617 129.625 178.617C128.917 178.617 128.365 178.891 127.969 179.438C127.573 179.984 127.375 180.794 127.375 181.867ZM139.898 178.844C139.68 178.807 139.443 178.789 139.188 178.789C138.24 178.789 137.596 179.193 137.258 180V186H135.812V177.547H137.219L137.242 178.523C137.716 177.768 138.388 177.391 139.258 177.391C139.539 177.391 139.753 177.427 139.898 177.5V178.844ZM145.086 186.156C143.94 186.156 143.008 185.781 142.289 185.031C141.57 184.276 141.211 183.268 141.211 182.008V181.742C141.211 180.904 141.37 180.156 141.688 179.5C142.01 178.839 142.458 178.323 143.031 177.953C143.609 177.578 144.234 177.391 144.906 177.391C146.005 177.391 146.859 177.753 147.469 178.477C148.078 179.201 148.383 180.237 148.383 181.586V182.188H142.656C142.677 183.021 142.919 183.695 143.383 184.211C143.852 184.721 144.445 184.977 145.164 184.977C145.674 184.977 146.107 184.872 146.461 184.664C146.815 184.456 147.125 184.18 147.391 183.836L148.273 184.523C147.565 185.612 146.503 186.156 145.086 186.156ZM144.906 178.578C144.323 178.578 143.833 178.792 143.438 179.219C143.042 179.641 142.797 180.234 142.703 181H146.938V180.891C146.896 180.156 146.698 179.589 146.344 179.188C145.99 178.781 145.51 178.578 144.906 178.578ZM155.781 186C155.698 185.833 155.63 185.536 155.578 185.109C154.906 185.807 154.104 186.156 153.172 186.156C152.339 186.156 151.654 185.922 151.117 185.453C150.586 184.979 150.32 184.38 150.32 183.656C150.32 182.776 150.654 182.094 151.32 181.609C151.992 181.12 152.935 180.875 154.148 180.875H155.555V180.211C155.555 179.706 155.404 179.305 155.102 179.008C154.799 178.706 154.354 178.555 153.766 178.555C153.25 178.555 152.818 178.685 152.469 178.945C152.12 179.206 151.945 179.521 151.945 179.891H150.492C150.492 179.469 150.641 179.062 150.938 178.672C151.24 178.276 151.646 177.964 152.156 177.734C152.672 177.505 153.237 177.391 153.852 177.391C154.826 177.391 155.589 177.635 156.141 178.125C156.693 178.609 156.979 179.279 157 180.133V184.023C157 184.799 157.099 185.417 157.297 185.875V186H155.781ZM153.383 184.898C153.836 184.898 154.266 184.781 154.672 184.547C155.078 184.312 155.372 184.008 155.555 183.633V181.898H154.422C152.651 181.898 151.766 182.417 151.766 183.453C151.766 183.906 151.917 184.26 152.219 184.516C152.521 184.771 152.909 184.898 153.383 184.898ZM161.125 177.547L161.164 178.484C161.784 177.755 162.62 177.391 163.672 177.391C164.854 177.391 165.659 177.844 166.086 178.75C166.367 178.344 166.732 178.016 167.18 177.766C167.633 177.516 168.167 177.391 168.781 177.391C170.635 177.391 171.578 178.372 171.609 180.336V186H170.164V180.422C170.164 179.818 170.026 179.367 169.75 179.07C169.474 178.768 169.01 178.617 168.359 178.617C167.823 178.617 167.378 178.779 167.023 179.102C166.669 179.419 166.464 179.849 166.406 180.391V186H164.953V180.461C164.953 179.232 164.352 178.617 163.148 178.617C162.201 178.617 161.552 179.021 161.203 179.828V186H159.758V177.547H161.125ZM180.211 178.57C180.852 177.784 181.685 177.391 182.711 177.391C184.497 177.391 185.398 178.398 185.414 180.414V186H183.969V180.406C183.964 179.797 183.823 179.346 183.547 179.055C183.276 178.763 182.852 178.617 182.273 178.617C181.805 178.617 181.393 178.742 181.039 178.992C180.685 179.242 180.409 179.57 180.211 179.977V186H178.766V174H180.211V178.57ZM187.695 181.695C187.695 180.867 187.857 180.122 188.18 179.461C188.508 178.799 188.961 178.289 189.539 177.93C190.122 177.57 190.786 177.391 191.531 177.391C192.682 177.391 193.612 177.789 194.32 178.586C195.034 179.383 195.391 180.443 195.391 181.766V181.867C195.391 182.69 195.232 183.43 194.914 184.086C194.602 184.737 194.151 185.245 193.562 185.609C192.979 185.974 192.307 186.156 191.547 186.156C190.401 186.156 189.471 185.758 188.758 184.961C188.049 184.164 187.695 183.109 187.695 181.797V181.695ZM189.148 181.867C189.148 182.805 189.365 183.557 189.797 184.125C190.234 184.693 190.818 184.977 191.547 184.977C192.281 184.977 192.865 184.69 193.297 184.117C193.729 183.539 193.945 182.732 193.945 181.695C193.945 180.768 193.724 180.018 193.281 179.445C192.844 178.867 192.26 178.578 191.531 178.578C190.818 178.578 190.242 178.862 189.805 179.43C189.367 179.997 189.148 180.81 189.148 181.867ZM199.062 177.547L199.102 178.484C199.721 177.755 200.557 177.391 201.609 177.391C202.792 177.391 203.596 177.844 204.023 178.75C204.305 178.344 204.669 178.016 205.117 177.766C205.57 177.516 206.104 177.391 206.719 177.391C208.573 177.391 209.516 178.372 209.547 180.336V186H208.102V180.422C208.102 179.818 207.964 179.367 207.688 179.07C207.411 178.768 206.948 178.617 206.297 178.617C205.76 178.617 205.315 178.779 204.961 179.102C204.607 179.419 204.401 179.849 204.344 180.391V186H202.891V180.461C202.891 179.232 202.289 178.617 201.086 178.617C200.138 178.617 199.49 179.021 199.141 179.828V186H197.695V177.547H199.062ZM215.742 186.156C214.596 186.156 213.664 185.781 212.945 185.031C212.227 184.276 211.867 183.268 211.867 182.008V181.742C211.867 180.904 212.026 180.156 212.344 179.5C212.667 178.839 213.115 178.323 213.688 177.953C214.266 177.578 214.891 177.391 215.562 177.391C216.661 177.391 217.516 177.753 218.125 178.477C218.734 179.201 219.039 180.237 219.039 181.586V182.188H213.312C213.333 183.021 213.576 183.695 214.039 184.211C214.508 184.721 215.102 184.977 215.82 184.977C216.331 184.977 216.763 184.872 217.117 184.664C217.471 184.456 217.781 184.18 218.047 183.836L218.93 184.523C218.221 185.612 217.159 186.156 215.742 186.156ZM215.562 178.578C214.979 178.578 214.49 178.792 214.094 179.219C213.698 179.641 213.453 180.234 213.359 181H217.594V180.891C217.552 180.156 217.354 179.589 217 179.188C216.646 178.781 216.167 178.578 215.562 178.578ZM221.25 185.242C221.25 184.992 221.323 184.784 221.469 184.617C221.62 184.451 221.844 184.367 222.141 184.367C222.438 184.367 222.661 184.451 222.812 184.617C222.969 184.784 223.047 184.992 223.047 185.242C223.047 185.482 222.969 185.682 222.812 185.844C222.661 186.005 222.438 186.086 222.141 186.086C221.844 186.086 221.62 186.005 221.469 185.844C221.323 185.682 221.25 185.482 221.25 185.242Z" fill="#4A4A4A"/>
<rect width="360" height="24" fill="#024890"/>
<mask id="mask0" mask-type="alpha" maskUnits="userSpaceOnUse" x="307" y="7" width="46" height="10">
<path fill-rule="evenodd" clip-rule="evenodd" d="M317 7H307V17H317V7ZM325 12C325 9.23858 327.239 7 330 7C332.761 7 335 9.23858 335 12C335 14.7614 332.761 17 330 17C327.239 17 325 14.7614 325 12ZM347 17L353 7H341L347 17Z" fill="white"/>
</mask>
<g mask="url(#mask0)">
<rect x="260" width="100" height="24" fill="#91C9EF"/>
</g>
<path d="M32.4967 323.5H255.823H311.5" stroke="black" stroke-opacity="0.12"/>
<path d="M54.0625 313H52.5547L46.8281 304.234V313H45.3203V301.625H46.8281L52.5703 310.43V301.625H54.0625V313ZM61.7188 313C61.6354 312.833 61.5677 312.536 61.5156 312.109C60.8438 312.807 60.0417 313.156 59.1094 313.156C58.276 313.156 57.5911 312.922 57.0547 312.453C56.5234 311.979 56.2578 311.38 56.2578 310.656C56.2578 309.776 56.5911 309.094 57.2578 308.609C57.9297 308.12 58.8724 307.875 60.0859 307.875H61.4922V307.211C61.4922 306.706 61.3411 306.305 61.0391 306.008C60.737 305.706 60.2917 305.555 59.7031 305.555C59.1875 305.555 58.7552 305.685 58.4062 305.945C58.0573 306.206 57.8828 306.521 57.8828 306.891H56.4297C56.4297 306.469 56.5781 306.062 56.875 305.672C57.1771 305.276 57.5833 304.964 58.0938 304.734C58.6094 304.505 59.1745 304.391 59.7891 304.391C60.763 304.391 61.526 304.635 62.0781 305.125C62.6302 305.609 62.9167 306.279 62.9375 307.133V311.023C62.9375 311.799 63.0365 312.417 63.2344 312.875V313H61.7188ZM59.3203 311.898C59.7734 311.898 60.2031 311.781 60.6094 311.547C61.0156 311.312 61.3099 311.008 61.4922 310.633V308.898H60.3594C58.5885 308.898 57.7031 309.417 57.7031 310.453C57.7031 310.906 57.8542 311.26 58.1562 311.516C58.4583 311.771 58.8464 311.898 59.3203 311.898ZM66.5625 304.547L66.6016 305.484C67.2214 304.755 68.0573 304.391 69.1094 304.391C70.2917 304.391 71.0964 304.844 71.5234 305.75C71.8047 305.344 72.1693 305.016 72.6172 304.766C73.0703 304.516 73.6042 304.391 74.2188 304.391C76.0729 304.391 77.0156 305.372 77.0469 307.336V313H75.6016V307.422C75.6016 306.818 75.4635 306.367 75.1875 306.07C74.9115 305.768 74.4479 305.617 73.7969 305.617C73.2604 305.617 72.8151 305.779 72.4609 306.102C72.1068 306.419 71.901 306.849 71.8438 307.391V313H70.3906V307.461C70.3906 306.232 69.7891 305.617 68.5859 305.617C67.638 305.617 66.9896 306.021 66.6406 306.828V313H65.1953V304.547H66.5625ZM82.7422 313.156C81.5964 313.156 80.6641 312.781 79.9453 312.031C79.2266 311.276 78.8672 310.268 78.8672 309.008V308.742C78.8672 307.904 79.026 307.156 79.3438 306.5C79.6667 305.839 80.1146 305.323 80.6875 304.953C81.2656 304.578 81.8906 304.391 82.5625 304.391C83.6615 304.391 84.5156 304.753 85.125 305.477C85.7344 306.201 86.0391 307.237 86.0391 308.586V309.188H80.3125C80.3333 310.021 80.5755 310.695 81.0391 311.211C81.5078 311.721 82.1016 311.977 82.8203 311.977C83.3307 311.977 83.763 311.872 84.1172 311.664C84.4714 311.456 84.7812 311.18 85.0469 310.836L85.9297 311.523C85.2214 312.612 84.1589 313.156 82.7422 313.156ZM82.5625 305.578C81.9792 305.578 81.4896 305.792 81.0938 306.219C80.6979 306.641 80.4531 307.234 80.3594 308H84.5938V307.891C84.5521 307.156 84.3542 306.589 84 306.188C83.6458 305.781 83.1667 305.578 82.5625 305.578Z" fill="black" fill-opacity="0.38"/>
<path d="M32.4967 386.5H255.823H311.5" stroke="black" stroke-opacity="0.12"/>
<path d="M46.8203 371.547V376H45.3203V364.625H49.5156C50.7604 364.625 51.7344 364.943 52.4375 365.578C53.1458 366.214 53.5 367.055 53.5 368.102C53.5 369.206 53.1536 370.057 52.4609 370.656C51.7734 371.25 50.7865 371.547 49.5 371.547H46.8203ZM46.8203 370.32H49.5156C50.3177 370.32 50.9323 370.133 51.3594 369.758C51.7865 369.378 52 368.831 52 368.117C52 367.44 51.7865 366.898 51.3594 366.492C50.9323 366.086 50.3464 365.875 49.6016 365.859H46.8203V370.32ZM60.3125 376C60.2292 375.833 60.1615 375.536 60.1094 375.109C59.4375 375.807 58.6354 376.156 57.7031 376.156C56.8698 376.156 56.1849 375.922 55.6484 375.453C55.1172 374.979 54.8516 374.38 54.8516 373.656C54.8516 372.776 55.1849 372.094 55.8516 371.609C56.5234 371.12 57.4661 370.875 58.6797 370.875H60.0859V370.211C60.0859 369.706 59.9349 369.305 59.6328 369.008C59.3307 368.706 58.8854 368.555 58.2969 368.555C57.7812 368.555 57.349 368.685 57 368.945C56.651 369.206 56.4766 369.521 56.4766 369.891H55.0234C55.0234 369.469 55.1719 369.062 55.4688 368.672C55.7708 368.276 56.1771 367.964 56.6875 367.734C57.2031 367.505 57.7682 367.391 58.3828 367.391C59.3568 367.391 60.1198 367.635 60.6719 368.125C61.224 368.609 61.5104 369.279 61.5312 370.133V374.023C61.5312 374.799 61.6302 375.417 61.8281 375.875V376H60.3125ZM57.9141 374.898C58.3672 374.898 58.7969 374.781 59.2031 374.547C59.6094 374.312 59.9036 374.008 60.0859 373.633V371.898H58.9531C57.1823 371.898 56.2969 372.417 56.2969 373.453C56.2969 373.906 56.4479 374.26 56.75 374.516C57.0521 374.771 57.4401 374.898 57.9141 374.898ZM68.7188 373.758C68.7188 373.367 68.5703 373.065 68.2734 372.852C67.9818 372.633 67.4688 372.445 66.7344 372.289C66.0052 372.133 65.4245 371.945 64.9922 371.727C64.5651 371.508 64.2474 371.247 64.0391 370.945C63.8359 370.643 63.7344 370.284 63.7344 369.867C63.7344 369.174 64.026 368.589 64.6094 368.109C65.1979 367.63 65.9479 367.391 66.8594 367.391C67.8177 367.391 68.5938 367.638 69.1875 368.133C69.7865 368.628 70.0859 369.26 70.0859 370.031H68.6328C68.6328 369.635 68.4635 369.294 68.125 369.008C67.7917 368.721 67.3698 368.578 66.8594 368.578C66.3333 368.578 65.9219 368.693 65.625 368.922C65.3281 369.151 65.1797 369.451 65.1797 369.82C65.1797 370.169 65.3177 370.432 65.5938 370.609C65.8698 370.786 66.3672 370.956 67.0859 371.117C67.8099 371.279 68.3958 371.471 68.8438 371.695C69.2917 371.919 69.6224 372.19 69.8359 372.508C70.0547 372.82 70.1641 373.203 70.1641 373.656C70.1641 374.411 69.862 375.018 69.2578 375.477C68.6536 375.93 67.8698 376.156 66.9062 376.156C66.2292 376.156 65.6302 376.036 65.1094 375.797C64.5885 375.557 64.1797 375.224 63.8828 374.797C63.5911 374.365 63.4453 373.898 63.4453 373.398H64.8906C64.9167 373.883 65.1094 374.268 65.4688 374.555C65.8333 374.836 66.3125 374.977 66.9062 374.977C67.4531 374.977 67.8906 374.867 68.2188 374.648C68.5521 374.424 68.7188 374.128 68.7188 373.758ZM76.9688 373.758C76.9688 373.367 76.8203 373.065 76.5234 372.852C76.2318 372.633 75.7188 372.445 74.9844 372.289C74.2552 372.133 73.6745 371.945 73.2422 371.727C72.8151 371.508 72.4974 371.247 72.2891 370.945C72.0859 370.643 71.9844 370.284 71.9844 369.867C71.9844 369.174 72.276 368.589 72.8594 368.109C73.4479 367.63 74.1979 367.391 75.1094 367.391C76.0677 367.391 76.8438 367.638 77.4375 368.133C78.0365 368.628 78.3359 369.26 78.3359 370.031H76.8828C76.8828 369.635 76.7135 369.294 76.375 369.008C76.0417 368.721 75.6198 368.578 75.1094 368.578C74.5833 368.578 74.1719 368.693 73.875 368.922C73.5781 369.151 73.4297 369.451 73.4297 369.82C73.4297 370.169 73.5677 370.432 73.8438 370.609C74.1198 370.786 74.6172 370.956 75.3359 371.117C76.0599 371.279 76.6458 371.471 77.0938 371.695C77.5417 371.919 77.8724 372.19 78.0859 372.508C78.3047 372.82 78.4141 373.203 78.4141 373.656C78.4141 374.411 78.112 375.018 77.5078 375.477C76.9036 375.93 76.1198 376.156 75.1562 376.156C74.4792 376.156 73.8802 376.036 73.3594 375.797C72.8385 375.557 72.4297 375.224 72.1328 374.797C71.8411 374.365 71.6953 373.898 71.6953 373.398H73.1406C73.1667 373.883 73.3594 374.268 73.7188 374.555C74.0833 374.836 74.5625 374.977 75.1562 374.977C75.7031 374.977 76.1406 374.867 76.4688 374.648C76.8021 374.424 76.9688 374.128 76.9688 373.758ZM87.7812 374.008L89.4062 367.547H90.8516L88.3906 376H87.2188L85.1641 369.594L83.1641 376H81.9922L79.5391 367.547H80.9766L82.6406 373.875L84.6094 367.547H85.7734L87.7812 374.008ZM91.9453 371.695C91.9453 370.867 92.1068 370.122 92.4297 369.461C92.7578 368.799 93.2109 368.289 93.7891 367.93C94.3724 367.57 95.0365 367.391 95.7812 367.391C96.9323 367.391 97.862 367.789 98.5703 368.586C99.2839 369.383 99.6406 370.443 99.6406 371.766V371.867C99.6406 372.69 99.4818 373.43 99.1641 374.086C98.8516 374.737 98.401 375.245 97.8125 375.609C97.2292 375.974 96.5573 376.156 95.7969 376.156C94.651 376.156 93.7214 375.758 93.0078 374.961C92.2995 374.164 91.9453 373.109 91.9453 371.797V371.695ZM93.3984 371.867C93.3984 372.805 93.6146 373.557 94.0469 374.125C94.4844 374.693 95.0677 374.977 95.7969 374.977C96.5312 374.977 97.1146 374.69 97.5469 374.117C97.9792 373.539 98.1953 372.732 98.1953 371.695C98.1953 370.768 97.974 370.018 97.5312 369.445C97.0938 368.867 96.5104 368.578 95.7812 368.578C95.0677 368.578 94.4922 368.862 94.0547 369.43C93.6172 369.997 93.3984 370.81 93.3984 371.867ZM105.539 368.844C105.32 368.807 105.083 368.789 104.828 368.789C103.88 368.789 103.237 369.193 102.898 370V376H101.453V367.547H102.859L102.883 368.523C103.357 367.768 104.029 367.391 104.898 367.391C105.18 367.391 105.393 367.427 105.539 367.5V368.844ZM106.367 371.703C106.367 370.406 106.674 369.365 107.289 368.578C107.904 367.786 108.708 367.391 109.703 367.391C110.693 367.391 111.477 367.729 112.055 368.406V364H113.5V376H112.172L112.102 375.094C111.523 375.802 110.719 376.156 109.688 376.156C108.708 376.156 107.909 375.755 107.289 374.953C106.674 374.151 106.367 373.104 106.367 371.812V371.703ZM107.812 371.867C107.812 372.826 108.01 373.576 108.406 374.117C108.802 374.659 109.349 374.93 110.047 374.93C110.964 374.93 111.633 374.518 112.055 373.695V369.812C111.622 369.016 110.958 368.617 110.062 368.617C109.354 368.617 108.802 368.891 108.406 369.438C108.01 369.984 107.812 370.794 107.812 371.867Z" fill="black" fill-opacity="0.38"/>
<path d="M0 584H360V640H0V584Z" fill="#024890"/>
<path d="M121.125 613.76C121.025 614.822 120.633 615.651 119.949 616.248C119.266 616.84 118.356 617.137 117.222 617.137C116.429 617.137 115.729 616.95 115.123 616.576C114.521 616.198 114.057 615.662 113.729 614.97C113.4 614.277 113.229 613.473 113.216 612.557V611.627C113.216 610.688 113.382 609.861 113.715 609.146C114.048 608.43 114.524 607.879 115.144 607.491C115.768 607.104 116.488 606.91 117.304 606.91C118.402 606.91 119.286 607.209 119.956 607.806C120.626 608.403 121.016 609.246 121.125 610.335H119.402C119.32 609.619 119.111 609.104 118.773 608.79C118.441 608.471 117.951 608.312 117.304 608.312C116.552 608.312 115.973 608.587 115.567 609.139C115.166 609.686 114.961 610.49 114.952 611.552V612.434C114.952 613.509 115.144 614.329 115.526 614.895C115.914 615.46 116.479 615.742 117.222 615.742C117.901 615.742 118.411 615.59 118.753 615.284C119.095 614.979 119.311 614.471 119.402 613.76H121.125ZM127.584 613.165H125.656V617H123.927V607.047H127.427C128.575 607.047 129.462 607.304 130.086 607.819C130.71 608.334 131.022 609.079 131.022 610.055C131.022 610.72 130.861 611.278 130.537 611.729C130.218 612.176 129.771 612.52 129.197 612.762L131.433 616.911V617H129.58L127.584 613.165ZM125.656 611.777H127.434C128.017 611.777 128.473 611.632 128.801 611.34C129.129 611.044 129.293 610.64 129.293 610.13C129.293 609.597 129.14 609.184 128.835 608.893C128.534 608.601 128.083 608.451 127.481 608.441H125.656V611.777ZM139.73 612.557H135.643V615.619H140.421V617H133.913V607.047H140.373V608.441H135.643V611.189H139.73V612.557ZM148.65 614.683H144.795L143.988 617H142.19L145.95 607.047H147.502L151.269 617H149.464L148.65 614.683ZM145.28 613.288H148.165L146.723 609.159L145.28 613.288ZM160.024 608.441H156.921V617H155.205V608.441H152.129V607.047H160.024V608.441ZM168.404 612.557H164.316V615.619H169.095V617H162.587V607.047H169.047V608.441H164.316V611.189H168.404V612.557ZM182.061 614.683H178.205L177.398 617H175.601L179.36 607.047H180.912L184.679 617H182.874L182.061 614.683ZM178.69 613.288H181.575L180.133 609.159L178.69 613.288ZM194.508 613.76C194.408 614.822 194.016 615.651 193.332 616.248C192.648 616.84 191.739 617.137 190.604 617.137C189.812 617.137 189.112 616.95 188.506 616.576C187.904 616.198 187.439 615.662 187.111 614.97C186.783 614.277 186.612 613.473 186.599 612.557V611.627C186.599 610.688 186.765 609.861 187.098 609.146C187.43 608.43 187.907 607.879 188.526 607.491C189.151 607.104 189.871 606.91 190.687 606.91C191.785 606.91 192.669 607.209 193.339 607.806C194.009 608.403 194.398 609.246 194.508 610.335H192.785C192.703 609.619 192.493 609.104 192.156 608.79C191.824 608.471 191.334 608.312 190.687 608.312C189.935 608.312 189.356 608.587 188.95 609.139C188.549 609.686 188.344 610.49 188.335 611.552V612.434C188.335 613.509 188.526 614.329 188.909 614.895C189.297 615.46 189.862 615.742 190.604 615.742C191.284 615.742 191.794 615.59 192.136 615.284C192.478 614.979 192.694 614.471 192.785 613.76H194.508ZM204.904 613.76C204.804 614.822 204.412 615.651 203.729 616.248C203.045 616.84 202.136 617.137 201.001 617.137C200.208 617.137 199.508 616.95 198.902 616.576C198.301 616.198 197.836 615.662 197.508 614.97C197.18 614.277 197.009 613.473 196.995 612.557V611.627C196.995 610.688 197.161 609.861 197.494 609.146C197.827 608.43 198.303 607.879 198.923 607.491C199.547 607.104 200.267 606.91 201.083 606.91C202.181 606.91 203.065 607.209 203.735 607.806C204.405 608.403 204.795 609.246 204.904 610.335H203.182C203.1 609.619 202.89 609.104 202.553 608.79C202.22 608.471 201.73 608.312 201.083 608.312C200.331 608.312 199.752 608.587 199.347 609.139C198.946 609.686 198.741 610.49 198.731 611.552V612.434C198.731 613.509 198.923 614.329 199.306 614.895C199.693 615.46 200.258 615.742 201.001 615.742C201.68 615.742 202.19 615.59 202.532 615.284C202.874 614.979 203.09 614.471 203.182 613.76H204.904ZM215.649 612.283C215.649 613.258 215.481 614.115 215.144 614.854C214.806 615.587 214.323 616.152 213.694 616.549C213.07 616.941 212.35 617.137 211.534 617.137C210.728 617.137 210.007 616.941 209.374 616.549C208.745 616.152 208.257 615.59 207.911 614.86C207.569 614.131 207.396 613.29 207.392 612.338V611.777C207.392 610.807 207.562 609.95 207.904 609.207C208.251 608.464 208.736 607.897 209.36 607.505C209.989 607.108 210.709 606.91 211.521 606.91C212.332 606.91 213.049 607.106 213.674 607.498C214.303 607.885 214.788 608.446 215.13 609.18C215.472 609.909 215.645 610.759 215.649 611.729V612.283ZM213.92 611.764C213.92 610.661 213.71 609.815 213.291 609.228C212.876 608.64 212.286 608.346 211.521 608.346C210.773 608.346 210.188 608.64 209.764 609.228C209.344 609.811 209.13 610.638 209.121 611.709V612.283C209.121 613.377 209.333 614.222 209.757 614.819C210.185 615.416 210.778 615.715 211.534 615.715C212.3 615.715 212.888 615.423 213.298 614.84C213.713 614.257 213.92 613.404 213.92 612.283V611.764ZM225.902 607.047V613.698C225.902 614.756 225.563 615.594 224.884 616.214C224.209 616.829 223.309 617.137 222.184 617.137C221.044 617.137 220.14 616.834 219.47 616.228C218.8 615.617 218.465 614.771 218.465 613.691V607.047H220.188V613.705C220.188 614.37 220.356 614.879 220.693 615.229C221.031 615.58 221.527 615.756 222.184 615.756C223.514 615.756 224.18 615.054 224.18 613.65V607.047H225.902ZM236.9 617H235.171L230.734 609.938V617H229.005V607.047H230.734L235.185 614.136V607.047H236.9V617ZM247.181 608.441H244.077V617H242.361V608.441H239.285V607.047H247.181V608.441Z" fill="white"/>
<mask id="mask1" mask-type="alpha" maskUnits="userSpaceOnUse" x="282" y="359" width="22" height="15">
<path fill-rule="evenodd" clip-rule="evenodd" d="M293 359C288 359 283.73 362.11 282 366.5C283.73 370.89 288 374 293 374C298 374 302.27 370.89 304 366.5C302.27 362.11 298 359 293 359ZM293 371.5C290.24 371.5 288 369.26 288 366.5C288 363.74 290.24 361.5 293 361.5C295.76 361.5 298 363.74 298 366.5C298 369.26 295.76 371.5 293 371.5ZM290 366.5C290 364.84 291.34 363.5 293 363.5C294.66 363.5 296 364.84 296 366.5C296 368.16 294.66 369.5 293 369.5C291.34 369.5 290 368.16 290 366.5Z" fill="white"/>
</mask>
<g mask="url(#mask1)">
<rect x="281" y="354" width="24" height="24" fill="black" fill-opacity="0.54"/>
</g>
<path d="M46.4434 393.469L49.2324 400.43L52.0215 393.469H53.4805V402H52.3555V398.678L52.4609 395.092L49.6602 402H48.7988L46.0039 395.109L46.1152 398.678V402H44.9902V393.469H46.4434ZM59.6109 401.373C59.1891 401.869 58.5699 402.117 57.7535 402.117C57.0777 402.117 56.5621 401.922 56.2066 401.531C55.8551 401.137 55.6773 400.555 55.6734 399.785V395.66H56.7574V399.756C56.7574 400.717 57.148 401.197 57.9293 401.197C58.7574 401.197 59.3082 400.889 59.5816 400.271V395.66H60.6656V402H59.6344L59.6109 401.373ZM66.4094 400.318C66.4094 400.025 66.298 399.799 66.0754 399.639C65.8566 399.475 65.4719 399.334 64.9211 399.217C64.3742 399.1 63.9387 398.959 63.6145 398.795C63.2941 398.631 63.0559 398.436 62.8996 398.209C62.7473 397.982 62.6711 397.713 62.6711 397.4C62.6711 396.881 62.8898 396.441 63.3273 396.082C63.7687 395.723 64.3312 395.543 65.0148 395.543C65.7336 395.543 66.3156 395.729 66.7609 396.1C67.2102 396.471 67.4348 396.945 67.4348 397.523H66.3449C66.3449 397.227 66.218 396.971 65.9641 396.756C65.7141 396.541 65.3977 396.434 65.0148 396.434C64.6203 396.434 64.3117 396.52 64.0891 396.691C63.8664 396.863 63.7551 397.088 63.7551 397.365C63.7551 397.627 63.8586 397.824 64.0656 397.957C64.2727 398.09 64.6457 398.217 65.1848 398.338C65.7277 398.459 66.1672 398.604 66.5031 398.771C66.8391 398.939 67.0871 399.143 67.2473 399.381C67.4113 399.615 67.4934 399.902 67.4934 400.242C67.4934 400.809 67.2668 401.264 66.8137 401.607C66.3605 401.947 65.7727 402.117 65.05 402.117C64.5422 402.117 64.093 402.027 63.7023 401.848C63.3117 401.668 63.0051 401.418 62.7824 401.098C62.5637 400.773 62.4543 400.424 62.4543 400.049H63.5383C63.5578 400.412 63.7023 400.701 63.9719 400.916C64.2453 401.127 64.6047 401.232 65.05 401.232C65.4602 401.232 65.7883 401.15 66.0344 400.986C66.2844 400.818 66.4094 400.596 66.4094 400.318ZM70.7762 394.125V395.66H71.9598V396.498H70.7762V400.43C70.7762 400.684 70.8289 400.875 70.9344 401.004C71.0398 401.129 71.2195 401.191 71.4734 401.191C71.5984 401.191 71.7703 401.168 71.9891 401.121V402C71.7039 402.078 71.4266 402.117 71.157 402.117C70.6727 402.117 70.3074 401.971 70.0613 401.678C69.8152 401.385 69.6922 400.969 69.6922 400.43V396.498H68.5379V395.66H69.6922V394.125H70.7762ZM82.375 398.9C82.375 399.869 82.1523 400.648 81.707 401.238C81.2617 401.824 80.6641 402.117 79.9141 402.117C79.1133 402.117 78.4941 401.834 78.0566 401.268L78.0039 402H77.0078V393H78.0918V396.357C78.5293 395.814 79.1328 395.543 79.9023 395.543C80.6719 395.543 81.2754 395.834 81.7129 396.416C82.1543 396.998 82.375 397.795 82.375 398.807V398.9ZM81.291 398.777C81.291 398.039 81.1484 397.469 80.8633 397.066C80.5781 396.664 80.168 396.463 79.6328 396.463C78.918 396.463 78.4043 396.795 78.0918 397.459V400.201C78.4238 400.865 78.9414 401.197 79.6445 401.197C80.1641 401.197 80.5684 400.996 80.8574 400.594C81.1465 400.191 81.291 399.586 81.291 398.777ZM86.777 402.117C85.9176 402.117 85.2184 401.836 84.6793 401.273C84.1402 400.707 83.8707 399.951 83.8707 399.006V398.807C83.8707 398.178 83.9898 397.617 84.2281 397.125C84.4703 396.629 84.8063 396.242 85.2359 395.965C85.6695 395.684 86.1383 395.543 86.6422 395.543C87.4664 395.543 88.107 395.814 88.5641 396.357C89.0211 396.9 89.2496 397.678 89.2496 398.689V399.141H84.9547C84.9703 399.766 85.152 400.271 85.4996 400.658C85.8512 401.041 86.2965 401.232 86.8355 401.232C87.2184 401.232 87.5426 401.154 87.8082 400.998C88.0738 400.842 88.3063 400.635 88.5055 400.377L89.1676 400.893C88.6363 401.709 87.8395 402.117 86.777 402.117ZM86.6422 396.434C86.2047 396.434 85.8375 396.594 85.5406 396.914C85.2438 397.23 85.0602 397.676 84.9898 398.25H88.1656V398.168C88.1344 397.617 87.9859 397.191 87.7203 396.891C87.4547 396.586 87.0953 396.434 86.6422 396.434ZM99.6531 398.9C99.6531 399.869 99.4305 400.648 98.9852 401.238C98.5398 401.824 97.9422 402.117 97.1922 402.117C96.3914 402.117 95.7723 401.834 95.3348 401.268L95.282 402H94.2859V393H95.3699V396.357C95.8074 395.814 96.4109 395.543 97.1805 395.543C97.95 395.543 98.5535 395.834 98.991 396.416C99.4324 396.998 99.6531 397.795 99.6531 398.807V398.9ZM98.5691 398.777C98.5691 398.039 98.4266 397.469 98.1414 397.066C97.8563 396.664 97.4461 396.463 96.9109 396.463C96.1961 396.463 95.6824 396.795 95.3699 397.459V400.201C95.702 400.865 96.2195 401.197 96.9227 401.197C97.4422 401.197 97.8465 400.996 98.1355 400.594C98.4246 400.191 98.5691 399.586 98.5691 398.777ZM104.055 402.117C103.196 402.117 102.496 401.836 101.957 401.273C101.418 400.707 101.149 399.951 101.149 399.006V398.807C101.149 398.178 101.268 397.617 101.506 397.125C101.748 396.629 102.084 396.242 102.514 395.965C102.948 395.684 103.416 395.543 103.92 395.543C104.745 395.543 105.385 395.814 105.842 396.357C106.299 396.9 106.528 397.678 106.528 398.689V399.141H102.233C102.248 399.766 102.43 400.271 102.778 400.658C103.129 401.041 103.575 401.232 104.114 401.232C104.496 401.232 104.821 401.154 105.086 400.998C105.352 400.842 105.584 400.635 105.784 400.377L106.446 400.893C105.914 401.709 105.118 402.117 104.055 402.117ZM103.92 396.434C103.483 396.434 103.116 396.594 102.819 396.914C102.522 397.23 102.338 397.676 102.268 398.25H105.444V398.168C105.412 397.617 105.264 397.191 104.998 396.891C104.733 396.586 104.373 396.434 103.92 396.434ZM109.658 394.125V395.66H110.842V396.498H109.658V400.43C109.658 400.684 109.711 400.875 109.816 401.004C109.922 401.129 110.102 401.191 110.355 401.191C110.48 401.191 110.652 401.168 110.871 401.121V402C110.586 402.078 110.309 402.117 110.039 402.117C109.555 402.117 109.189 401.971 108.943 401.678C108.697 401.385 108.574 400.969 108.574 400.43V396.498H107.42V395.66H108.574V394.125H109.658ZM118.127 400.506L119.345 395.66H120.429L118.584 402H117.705L116.164 397.195L114.664 402H113.785L111.945 395.66H113.023L114.271 400.406L115.748 395.66H116.621L118.127 400.506ZM124.568 402.117C123.708 402.117 123.009 401.836 122.47 401.273C121.931 400.707 121.661 399.951 121.661 399.006V398.807C121.661 398.178 121.78 397.617 122.019 397.125C122.261 396.629 122.597 396.242 123.027 395.965C123.46 395.684 123.929 395.543 124.433 395.543C125.257 395.543 125.898 395.814 126.355 396.357C126.812 396.9 127.04 397.678 127.04 398.689V399.141H122.745C122.761 399.766 122.943 400.271 123.29 400.658C123.642 401.041 124.087 401.232 124.626 401.232C125.009 401.232 125.333 401.154 125.599 400.998C125.864 400.842 126.097 400.635 126.296 400.377L126.958 400.893C126.427 401.709 125.63 402.117 124.568 402.117ZM124.433 396.434C123.995 396.434 123.628 396.594 123.331 396.914C123.034 397.23 122.851 397.676 122.78 398.25H125.956V398.168C125.925 397.617 125.777 397.191 125.511 396.891C125.245 396.586 124.886 396.434 124.433 396.434ZM131.331 402.117C130.471 402.117 129.772 401.836 129.233 401.273C128.694 400.707 128.425 399.951 128.425 399.006V398.807C128.425 398.178 128.544 397.617 128.782 397.125C129.024 396.629 129.36 396.242 129.79 395.965C130.223 395.684 130.692 395.543 131.196 395.543C132.02 395.543 132.661 395.814 133.118 396.357C133.575 396.9 133.804 397.678 133.804 398.689V399.141H129.509C129.524 399.766 129.706 400.271 130.054 400.658C130.405 401.041 130.85 401.232 131.389 401.232C131.772 401.232 132.096 401.154 132.362 400.998C132.628 400.842 132.86 400.635 133.059 400.377L133.721 400.893C133.19 401.709 132.393 402.117 131.331 402.117ZM131.196 396.434C130.759 396.434 130.391 396.594 130.095 396.914C129.798 397.23 129.614 397.676 129.544 398.25H132.72V398.168C132.688 397.617 132.54 397.191 132.274 396.891C132.009 396.586 131.649 396.434 131.196 396.434ZM136.489 395.66L136.524 396.457C137.008 395.848 137.641 395.543 138.422 395.543C139.762 395.543 140.438 396.299 140.45 397.811V402H139.366V397.805C139.362 397.348 139.256 397.01 139.049 396.791C138.846 396.572 138.528 396.463 138.094 396.463C137.743 396.463 137.434 396.557 137.168 396.744C136.903 396.932 136.696 397.178 136.547 397.482V402H135.463V395.66H136.489ZM150.004 393.463V394.383H149.804C148.961 394.398 148.289 394.648 147.789 395.133C147.289 395.617 147 396.299 146.921 397.178C147.371 396.662 147.984 396.404 148.761 396.404C149.504 396.404 150.095 396.666 150.537 397.189C150.982 397.713 151.205 398.389 151.205 399.217C151.205 400.096 150.964 400.799 150.484 401.326C150.007 401.854 149.367 402.117 148.562 402.117C147.746 402.117 147.084 401.805 146.576 401.18C146.068 400.551 145.814 399.742 145.814 398.754V398.338C145.814 396.768 146.148 395.568 146.816 394.74C147.488 393.908 148.486 393.482 149.81 393.463H150.004ZM148.58 397.307C148.209 397.307 147.867 397.418 147.554 397.641C147.242 397.863 147.025 398.143 146.904 398.479V398.877C146.904 399.58 147.062 400.146 147.379 400.576C147.695 401.006 148.089 401.221 148.562 401.221C149.05 401.221 149.433 401.041 149.711 400.682C149.992 400.322 150.132 399.852 150.132 399.27C150.132 398.684 149.99 398.211 149.705 397.852C149.423 397.488 149.048 397.307 148.58 397.307ZM160.29 402C160.227 401.875 160.177 401.652 160.137 401.332C159.634 401.855 159.032 402.117 158.333 402.117C157.708 402.117 157.194 401.941 156.792 401.59C156.393 401.234 156.194 400.785 156.194 400.242C156.194 399.582 156.444 399.07 156.944 398.707C157.448 398.34 158.155 398.156 159.065 398.156H160.12V397.658C160.12 397.279 160.007 396.979 159.78 396.756C159.554 396.529 159.22 396.416 158.778 396.416C158.391 396.416 158.067 396.514 157.805 396.709C157.544 396.904 157.413 397.141 157.413 397.418H156.323C156.323 397.102 156.434 396.797 156.657 396.504C156.884 396.207 157.188 395.973 157.571 395.801C157.958 395.629 158.382 395.543 158.843 395.543C159.573 395.543 160.145 395.727 160.559 396.094C160.973 396.457 161.188 396.959 161.204 397.6V400.518C161.204 401.1 161.278 401.562 161.427 401.906V402H160.29ZM158.491 401.174C158.831 401.174 159.153 401.086 159.458 400.91C159.762 400.734 159.983 400.506 160.12 400.225V398.924H159.27C157.942 398.924 157.278 399.312 157.278 400.09C157.278 400.43 157.391 400.695 157.618 400.887C157.845 401.078 158.136 401.174 158.491 401.174ZM164.329 395.66L164.364 396.457C164.848 395.848 165.481 395.543 166.262 395.543C167.602 395.543 168.278 396.299 168.289 397.811V402H167.205V397.805C167.202 397.348 167.096 397.01 166.889 396.791C166.686 396.572 166.368 396.463 165.934 396.463C165.582 396.463 165.274 396.557 165.008 396.744C164.743 396.932 164.536 397.178 164.387 397.482V402H163.303V395.66H164.329ZM170.061 398.777C170.061 397.805 170.291 397.023 170.752 396.434C171.213 395.84 171.816 395.543 172.562 395.543C173.305 395.543 173.893 395.797 174.326 396.305V393H175.41V402H174.414L174.361 401.32C173.928 401.852 173.324 402.117 172.551 402.117C171.816 402.117 171.217 401.816 170.752 401.215C170.291 400.613 170.061 399.828 170.061 398.859V398.777ZM171.145 398.9C171.145 399.619 171.293 400.182 171.59 400.588C171.887 400.994 172.297 401.197 172.82 401.197C173.508 401.197 174.01 400.889 174.326 400.271V397.359C174.002 396.762 173.504 396.463 172.832 396.463C172.301 396.463 171.887 396.668 171.59 397.078C171.293 397.488 171.145 398.096 171.145 398.9ZM186.353 402H180.763V401.221L183.716 397.939C184.154 397.443 184.454 397.041 184.618 396.732C184.786 396.42 184.87 396.098 184.87 395.766C184.87 395.32 184.736 394.955 184.466 394.67C184.196 394.385 183.837 394.242 183.388 394.242C182.849 394.242 182.429 394.396 182.128 394.705C181.831 395.01 181.683 395.436 181.683 395.982H180.599C180.599 395.197 180.851 394.562 181.355 394.078C181.863 393.594 182.54 393.352 183.388 393.352C184.181 393.352 184.808 393.561 185.269 393.979C185.73 394.393 185.96 394.945 185.96 395.637C185.96 396.477 185.425 397.477 184.355 398.637L182.07 401.115H186.353V402ZM193.251 398.361C193.251 399.631 193.034 400.574 192.6 401.191C192.167 401.809 191.489 402.117 190.567 402.117C189.657 402.117 188.983 401.816 188.546 401.215C188.108 400.609 187.882 399.707 187.866 398.508V397.061C187.866 395.807 188.083 394.875 188.516 394.266C188.95 393.656 189.63 393.352 190.555 393.352C191.473 393.352 192.149 393.646 192.583 394.236C193.016 394.822 193.239 395.729 193.251 396.955V398.361ZM192.167 396.879C192.167 395.961 192.038 395.293 191.78 394.875C191.522 394.453 191.114 394.242 190.555 394.242C190.001 394.242 189.596 394.451 189.343 394.869C189.089 395.287 188.958 395.93 188.95 396.797V398.531C188.95 399.453 189.083 400.135 189.348 400.576C189.618 401.014 190.024 401.232 190.567 401.232C191.102 401.232 191.499 401.025 191.757 400.611C192.018 400.197 192.155 399.545 192.167 398.654V396.879ZM201.07 401.232C201.457 401.232 201.795 401.115 202.084 400.881C202.373 400.646 202.533 400.354 202.564 400.002H203.59C203.57 400.365 203.445 400.711 203.215 401.039C202.984 401.367 202.676 401.629 202.289 401.824C201.906 402.02 201.5 402.117 201.07 402.117C200.207 402.117 199.52 401.83 199.008 401.256C198.5 400.678 198.246 399.889 198.246 398.889V398.707C198.246 398.09 198.359 397.541 198.586 397.061C198.812 396.58 199.137 396.207 199.559 395.941C199.984 395.676 200.486 395.543 201.064 395.543C201.775 395.543 202.365 395.756 202.834 396.182C203.307 396.607 203.559 397.16 203.59 397.84H202.564C202.533 397.43 202.377 397.094 202.096 396.832C201.818 396.566 201.475 396.434 201.064 396.434C200.514 396.434 200.086 396.633 199.781 397.031C199.48 397.426 199.33 397.998 199.33 398.748V398.953C199.33 399.684 199.48 400.246 199.781 400.641C200.082 401.035 200.512 401.232 201.07 401.232ZM206.293 396.428C206.773 395.838 207.398 395.543 208.168 395.543C209.507 395.543 210.183 396.299 210.195 397.811V402H209.111V397.805C209.107 397.348 209.002 397.01 208.795 396.791C208.591 396.572 208.273 396.463 207.839 396.463C207.488 396.463 207.179 396.557 206.914 396.744C206.648 396.932 206.441 397.178 206.293 397.482V402H205.209V393H206.293V396.428ZM216.132 402C216.07 401.875 216.019 401.652 215.98 401.332C215.476 401.855 214.874 402.117 214.175 402.117C213.55 402.117 213.036 401.941 212.634 401.59C212.236 401.234 212.036 400.785 212.036 400.242C212.036 399.582 212.286 399.07 212.786 398.707C213.29 398.34 213.997 398.156 214.907 398.156H215.962V397.658C215.962 397.279 215.849 396.979 215.622 396.756C215.396 396.529 215.062 396.416 214.62 396.416C214.234 396.416 213.909 396.514 213.648 396.709C213.386 396.904 213.255 397.141 213.255 397.418H212.165C212.165 397.102 212.277 396.797 212.499 396.504C212.726 396.207 213.03 395.973 213.413 395.801C213.8 395.629 214.224 395.543 214.685 395.543C215.415 395.543 215.988 395.727 216.402 396.094C216.816 396.457 217.03 396.959 217.046 397.6V400.518C217.046 401.1 217.12 401.562 217.269 401.906V402H216.132ZM214.333 401.174C214.673 401.174 214.995 401.086 215.3 400.91C215.605 400.734 215.825 400.506 215.962 400.225V398.924H215.113C213.784 398.924 213.12 399.312 213.12 400.09C213.12 400.43 213.234 400.695 213.46 400.887C213.687 401.078 213.978 401.174 214.333 401.174ZM222.21 396.633C222.046 396.605 221.868 396.592 221.677 396.592C220.966 396.592 220.483 396.895 220.229 397.5V402H219.145V395.66H220.2L220.218 396.393C220.573 395.826 221.077 395.543 221.729 395.543C221.94 395.543 222.1 395.57 222.21 395.625V396.633ZM227.291 402C227.229 401.875 227.178 401.652 227.139 401.332C226.635 401.855 226.034 402.117 225.334 402.117C224.709 402.117 224.196 401.941 223.793 401.59C223.395 401.234 223.196 400.785 223.196 400.242C223.196 399.582 223.446 399.07 223.946 398.707C224.45 398.34 225.157 398.156 226.067 398.156H227.121V397.658C227.121 397.279 227.008 396.979 226.782 396.756C226.555 396.529 226.221 396.416 225.78 396.416C225.393 396.416 225.069 396.514 224.807 396.709C224.545 396.904 224.414 397.141 224.414 397.418H223.325C223.325 397.102 223.436 396.797 223.659 396.504C223.885 396.207 224.19 395.973 224.573 395.801C224.959 395.629 225.383 395.543 225.844 395.543C226.575 395.543 227.147 395.727 227.561 396.094C227.975 396.457 228.19 396.959 228.205 397.6V400.518C228.205 401.1 228.28 401.562 228.428 401.906V402H227.291ZM225.493 401.174C225.832 401.174 226.155 401.086 226.459 400.91C226.764 400.734 226.985 400.506 227.121 400.225V398.924H226.272C224.944 398.924 224.28 399.312 224.28 400.09C224.28 400.43 224.393 400.695 224.62 400.887C224.846 401.078 225.137 401.174 225.493 401.174ZM232.848 401.232C233.234 401.232 233.572 401.115 233.861 400.881C234.15 400.646 234.311 400.354 234.342 400.002H235.367C235.348 400.365 235.223 400.711 234.992 401.039C234.762 401.367 234.453 401.629 234.066 401.824C233.684 402.02 233.277 402.117 232.848 402.117C231.984 402.117 231.297 401.83 230.785 401.256C230.277 400.678 230.023 399.889 230.023 398.889V398.707C230.023 398.09 230.137 397.541 230.363 397.061C230.59 396.58 230.914 396.207 231.336 395.941C231.762 395.676 232.264 395.543 232.842 395.543C233.553 395.543 234.143 395.756 234.611 396.182C235.084 396.607 235.336 397.16 235.367 397.84H234.342C234.311 397.43 234.154 397.094 233.873 396.832C233.596 396.566 233.252 396.434 232.842 396.434C232.291 396.434 231.863 396.633 231.559 397.031C231.258 397.426 231.107 397.998 231.107 398.748V398.953C231.107 399.684 231.258 400.246 231.559 400.641C231.859 401.035 232.289 401.232 232.848 401.232ZM238.457 394.125V395.66H239.64V396.498H238.457V400.43C238.457 400.684 238.509 400.875 238.615 401.004C238.72 401.129 238.9 401.191 239.154 401.191C239.279 401.191 239.451 401.168 239.67 401.121V402C239.384 402.078 239.107 402.117 238.837 402.117C238.353 402.117 237.988 401.971 237.742 401.678C237.496 401.385 237.373 400.969 237.373 400.43V396.498H236.218V395.66H237.373V394.125H238.457ZM243.943 402.117C243.083 402.117 242.384 401.836 241.845 401.273C241.306 400.707 241.036 399.951 241.036 399.006V398.807C241.036 398.178 241.155 397.617 241.394 397.125C241.636 396.629 241.972 396.242 242.402 395.965C242.835 395.684 243.304 395.543 243.808 395.543C244.632 395.543 245.273 395.814 245.73 396.357C246.187 396.9 246.415 397.678 246.415 398.689V399.141H242.12C242.136 399.766 242.318 400.271 242.665 400.658C243.017 401.041 243.462 401.232 244.001 401.232C244.384 401.232 244.708 401.154 244.974 400.998C245.239 400.842 245.472 400.635 245.671 400.377L246.333 400.893C245.802 401.709 245.005 402.117 243.943 402.117ZM243.808 396.434C243.37 396.434 243.003 396.594 242.706 396.914C242.409 397.23 242.226 397.676 242.155 398.25H245.331V398.168C245.3 397.617 245.152 397.191 244.886 396.891C244.62 396.586 244.261 396.434 243.808 396.434ZM251.139 396.633C250.975 396.605 250.798 396.592 250.606 396.592C249.895 396.592 249.413 396.895 249.159 397.5V402H248.075V395.66H249.13L249.147 396.393C249.503 395.826 250.007 395.543 250.659 395.543C250.87 395.543 251.03 395.57 251.139 395.625V396.633ZM256.233 400.318C256.233 400.025 256.121 399.799 255.899 399.639C255.68 399.475 255.295 399.334 254.745 399.217C254.198 399.1 253.762 398.959 253.438 398.795C253.118 398.631 252.879 398.436 252.723 398.209C252.571 397.982 252.495 397.713 252.495 397.4C252.495 396.881 252.713 396.441 253.151 396.082C253.592 395.723 254.155 395.543 254.838 395.543C255.557 395.543 256.139 395.729 256.584 396.1C257.034 396.471 257.258 396.945 257.258 397.523H256.168C256.168 397.227 256.041 396.971 255.788 396.756C255.538 396.541 255.221 396.434 254.838 396.434C254.444 396.434 254.135 396.52 253.913 396.691C253.69 396.863 253.579 397.088 253.579 397.365C253.579 397.627 253.682 397.824 253.889 397.957C254.096 398.09 254.469 398.217 255.008 398.338C255.551 398.459 255.991 398.604 256.327 398.771C256.663 398.939 256.911 399.143 257.071 399.381C257.235 399.615 257.317 399.902 257.317 400.242C257.317 400.809 257.09 401.264 256.637 401.607C256.184 401.947 255.596 402.117 254.873 402.117C254.366 402.117 253.916 402.027 253.526 401.848C253.135 401.668 252.829 401.418 252.606 401.098C252.387 400.773 252.278 400.424 252.278 400.049H253.362C253.381 400.412 253.526 400.701 253.795 400.916C254.069 401.127 254.428 401.232 254.873 401.232C255.284 401.232 255.612 401.15 255.858 400.986C256.108 400.818 256.233 400.596 256.233 400.318Z" fill="#9E9E9E"/>
<path fill-rule="evenodd" clip-rule="evenodd" d="M40 53H27.8L33.4 47.4L32 46L24 54L32 62L33.4 60.6L27.8 55H40V53Z" fill="#024890"/>
<path d="M32.4967 269.5H255.823H311.5" stroke="black" stroke-opacity="0.12"/>
<path d="M49.1797 251.844C48.9609 251.807 48.724 251.789 48.4688 251.789C47.5208 251.789 46.8776 252.193 46.5391 253V259H45.0938V250.547H46.5L46.5234 251.523C46.9974 250.768 47.6693 250.391 48.5391 250.391C48.8203 250.391 49.0339 250.427 49.1797 250.5V251.844ZM49.9766 254.695C49.9766 253.867 50.138 253.122 50.4609 252.461C50.7891 251.799 51.2422 251.289 51.8203 250.93C52.4036 250.57 53.0677 250.391 53.8125 250.391C54.9635 250.391 55.8932 250.789 56.6016 251.586C57.3151 252.383 57.6719 253.443 57.6719 254.766V254.867C57.6719 255.69 57.513 256.43 57.1953 257.086C56.8828 257.737 56.4323 258.245 55.8438 258.609C55.2604 258.974 54.5885 259.156 53.8281 259.156C52.6823 259.156 51.7526 258.758 51.0391 257.961C50.3307 257.164 49.9766 256.109 49.9766 254.797V254.695ZM51.4297 254.867C51.4297 255.805 51.6458 256.557 52.0781 257.125C52.5156 257.693 53.099 257.977 53.8281 257.977C54.5625 257.977 55.1458 257.69 55.5781 257.117C56.0104 256.539 56.2266 255.732 56.2266 254.695C56.2266 253.768 56.0052 253.018 55.5625 252.445C55.125 251.867 54.5417 251.578 53.8125 251.578C53.099 251.578 52.5234 251.862 52.0859 252.43C51.6484 252.997 51.4297 253.81 51.4297 254.867ZM66.6406 254.867C66.6406 256.159 66.3438 257.198 65.75 257.984C65.1562 258.766 64.3594 259.156 63.3594 259.156C62.2917 259.156 61.4661 258.779 60.8828 258.023L60.8125 259H59.4844V247H60.9297V251.477C61.513 250.753 62.3177 250.391 63.3438 250.391C64.3698 250.391 65.1745 250.779 65.7578 251.555C66.3464 252.331 66.6406 253.393 66.6406 254.742V254.867ZM65.1953 254.703C65.1953 253.719 65.0052 252.958 64.625 252.422C64.2448 251.885 63.6979 251.617 62.9844 251.617C62.0312 251.617 61.3464 252.06 60.9297 252.945V256.602C61.3724 257.487 62.0625 257.93 63 257.93C63.6927 257.93 64.2318 257.661 64.6172 257.125C65.0026 256.589 65.1953 255.781 65.1953 254.703ZM71.9766 259.156C70.8307 259.156 69.8984 258.781 69.1797 258.031C68.4609 257.276 68.1016 256.268 68.1016 255.008V254.742C68.1016 253.904 68.2604 253.156 68.5781 252.5C68.901 251.839 69.349 251.323 69.9219 250.953C70.5 250.578 71.125 250.391 71.7969 250.391C72.8958 250.391 73.75 250.753 74.3594 251.477C74.9688 252.201 75.2734 253.237 75.2734 254.586V255.188H69.5469C69.5677 256.021 69.8099 256.695 70.2734 257.211C70.7422 257.721 71.3359 257.977 72.0547 257.977C72.5651 257.977 72.9974 257.872 73.3516 257.664C73.7057 257.456 74.0156 257.18 74.2812 256.836L75.1641 257.523C74.4557 258.612 73.3932 259.156 71.9766 259.156ZM71.7969 251.578C71.2135 251.578 70.724 251.792 70.3281 252.219C69.9323 252.641 69.6875 253.234 69.5938 254H73.8281V253.891C73.7865 253.156 73.5885 252.589 73.2344 252.188C72.8802 251.781 72.401 251.578 71.7969 251.578ZM81.0391 251.844C80.8203 251.807 80.5833 251.789 80.3281 251.789C79.3802 251.789 78.737 252.193 78.3984 253V259H76.9531V250.547H78.3594L78.3828 251.523C78.8568 250.768 79.5286 250.391 80.3984 250.391C80.6797 250.391 80.8932 250.427 81.0391 250.5V251.844ZM84.7266 248.5V250.547H86.3047V251.664H84.7266V256.906C84.7266 257.245 84.7969 257.5 84.9375 257.672C85.0781 257.839 85.3177 257.922 85.6562 257.922C85.8229 257.922 86.0521 257.891 86.3438 257.828V259C85.9635 259.104 85.5938 259.156 85.2344 259.156C84.5885 259.156 84.1016 258.961 83.7734 258.57C83.4453 258.18 83.2812 257.625 83.2812 256.906V251.664H81.7422V250.547H83.2812V248.5H84.7266ZM100.484 255.078C100.422 256.339 100.109 257.333 99.5469 258.062C98.9844 258.792 98.2318 259.156 97.2891 259.156C96.3151 259.156 95.6901 258.719 95.4141 257.844C95.1328 258.286 94.8099 258.617 94.4453 258.836C94.0859 259.049 93.7135 259.156 93.3281 259.156C92.5885 259.156 92.0286 258.854 91.6484 258.25C91.2682 257.646 91.1276 256.81 91.2266 255.742C91.3047 254.883 91.5 254.117 91.8125 253.445C92.1302 252.768 92.5365 252.237 93.0312 251.852C93.5312 251.466 94.0547 251.273 94.6016 251.273C95.0234 251.273 95.401 251.331 95.7344 251.445C96.0677 251.555 96.4427 251.773 96.8594 252.102L96.4531 256.43C96.3542 257.633 96.6875 258.234 97.4531 258.234C98.0417 258.234 98.5182 257.943 98.8828 257.359C99.2474 256.776 99.4453 256.016 99.4766 255.078C99.5755 253.052 99.1979 251.508 98.3438 250.445C97.4948 249.383 96.2005 248.852 94.4609 248.852C93.4141 248.852 92.4844 249.112 91.6719 249.633C90.8594 250.148 90.2188 250.896 89.75 251.875C89.2812 252.854 89.0182 253.984 88.9609 255.266C88.8984 256.557 89.0547 257.68 89.4297 258.633C89.8047 259.581 90.375 260.305 91.1406 260.805C91.9115 261.31 92.8411 261.562 93.9297 261.562C94.3984 261.562 94.8672 261.505 95.3359 261.391C95.8099 261.276 96.2031 261.128 96.5156 260.945L96.8047 261.844C96.4818 262.047 96.0521 262.214 95.5156 262.344C94.9844 262.474 94.4453 262.539 93.8984 262.539C92.5964 262.539 91.4766 262.245 90.5391 261.656C89.6016 261.073 88.8984 260.229 88.4297 259.125C87.9661 258.026 87.7656 256.74 87.8281 255.266C87.8906 253.833 88.2109 252.547 88.7891 251.406C89.3672 250.26 90.151 249.378 91.1406 248.758C92.1302 248.133 93.2474 247.82 94.4922 247.82C95.7891 247.82 96.901 248.112 97.8281 248.695C98.7552 249.279 99.4453 250.12 99.8984 251.219C100.352 252.318 100.547 253.604 100.484 255.078ZM92.4688 255.742C92.3958 256.482 92.4635 257.049 92.6719 257.445C92.8854 257.841 93.2214 258.039 93.6797 258.039C93.9922 258.039 94.2917 257.906 94.5781 257.641C94.8698 257.375 95.1094 256.995 95.2969 256.5L95.3047 256.43L95.6641 252.5C95.3724 252.349 95.0599 252.273 94.7266 252.273C94.1172 252.273 93.612 252.583 93.2109 253.203C92.8151 253.823 92.5677 254.669 92.4688 255.742ZM102.031 254.703C102.031 253.385 102.336 252.339 102.945 251.562C103.555 250.781 104.362 250.391 105.367 250.391C106.398 250.391 107.203 250.755 107.781 251.484L107.852 250.547H109.172V258.797C109.172 259.891 108.846 260.753 108.195 261.383C107.549 262.013 106.68 262.328 105.586 262.328C104.977 262.328 104.38 262.198 103.797 261.938C103.214 261.677 102.768 261.32 102.461 260.867L103.211 260C103.831 260.766 104.589 261.148 105.484 261.148C106.188 261.148 106.734 260.951 107.125 260.555C107.521 260.159 107.719 259.602 107.719 258.883V258.156C107.141 258.823 106.352 259.156 105.352 259.156C104.362 259.156 103.56 258.758 102.945 257.961C102.336 257.164 102.031 256.078 102.031 254.703ZM103.484 254.867C103.484 255.82 103.68 256.57 104.07 257.117C104.461 257.659 105.008 257.93 105.711 257.93C106.622 257.93 107.292 257.516 107.719 256.688V252.828C107.276 252.021 106.612 251.617 105.727 251.617C105.023 251.617 104.474 251.891 104.078 252.438C103.682 252.984 103.484 253.794 103.484 254.867ZM112.719 250.547L112.758 251.484C113.378 250.755 114.214 250.391 115.266 250.391C116.448 250.391 117.253 250.844 117.68 251.75C117.961 251.344 118.326 251.016 118.773 250.766C119.227 250.516 119.76 250.391 120.375 250.391C122.229 250.391 123.172 251.372 123.203 253.336V259H121.758V253.422C121.758 252.818 121.62 252.367 121.344 252.07C121.068 251.768 120.604 251.617 119.953 251.617C119.417 251.617 118.971 251.779 118.617 252.102C118.263 252.419 118.057 252.849 118 253.391V259H116.547V253.461C116.547 252.232 115.945 251.617 114.742 251.617C113.794 251.617 113.146 252.021 112.797 252.828V259H111.352V250.547H112.719ZM130.609 259C130.526 258.833 130.458 258.536 130.406 258.109C129.734 258.807 128.932 259.156 128 259.156C127.167 259.156 126.482 258.922 125.945 258.453C125.414 257.979 125.148 257.38 125.148 256.656C125.148 255.776 125.482 255.094 126.148 254.609C126.82 254.12 127.763 253.875 128.977 253.875H130.383V253.211C130.383 252.706 130.232 252.305 129.93 252.008C129.628 251.706 129.182 251.555 128.594 251.555C128.078 251.555 127.646 251.685 127.297 251.945C126.948 252.206 126.773 252.521 126.773 252.891H125.32C125.32 252.469 125.469 252.062 125.766 251.672C126.068 251.276 126.474 250.964 126.984 250.734C127.5 250.505 128.065 250.391 128.68 250.391C129.654 250.391 130.417 250.635 130.969 251.125C131.521 251.609 131.807 252.279 131.828 253.133V257.023C131.828 257.799 131.927 258.417 132.125 258.875V259H130.609ZM128.211 257.898C128.664 257.898 129.094 257.781 129.5 257.547C129.906 257.312 130.201 257.008 130.383 256.633V254.898H129.25C127.479 254.898 126.594 255.417 126.594 256.453C126.594 256.906 126.745 257.26 127.047 257.516C127.349 257.771 127.737 257.898 128.211 257.898ZM135.664 259H134.219V250.547H135.664V259ZM134.102 248.305C134.102 248.07 134.172 247.872 134.312 247.711C134.458 247.549 134.672 247.469 134.953 247.469C135.234 247.469 135.448 247.549 135.594 247.711C135.74 247.872 135.812 248.07 135.812 248.305C135.812 248.539 135.74 248.734 135.594 248.891C135.448 249.047 135.234 249.125 134.953 249.125C134.672 249.125 134.458 249.047 134.312 248.891C134.172 248.734 134.102 248.539 134.102 248.305ZM139.555 259H138.109V247H139.555V259ZM141.906 258.242C141.906 257.992 141.979 257.784 142.125 257.617C142.276 257.451 142.5 257.367 142.797 257.367C143.094 257.367 143.318 257.451 143.469 257.617C143.625 257.784 143.703 257.992 143.703 258.242C143.703 258.482 143.625 258.682 143.469 258.844C143.318 259.005 143.094 259.086 142.797 259.086C142.5 259.086 142.276 259.005 142.125 258.844C141.979 258.682 141.906 258.482 141.906 258.242ZM149.484 257.977C150 257.977 150.451 257.82 150.836 257.508C151.221 257.195 151.435 256.805 151.477 256.336H152.844C152.818 256.82 152.651 257.281 152.344 257.719C152.036 258.156 151.625 258.505 151.109 258.766C150.599 259.026 150.057 259.156 149.484 259.156C148.333 259.156 147.417 258.773 146.734 258.008C146.057 257.237 145.719 256.185 145.719 254.852V254.609C145.719 253.786 145.87 253.055 146.172 252.414C146.474 251.773 146.906 251.276 147.469 250.922C148.036 250.568 148.706 250.391 149.477 250.391C150.424 250.391 151.211 250.674 151.836 251.242C152.466 251.81 152.802 252.547 152.844 253.453H151.477C151.435 252.906 151.227 252.458 150.852 252.109C150.482 251.755 150.023 251.578 149.477 251.578C148.742 251.578 148.172 251.844 147.766 252.375C147.365 252.901 147.164 253.664 147.164 254.664V254.938C147.164 255.911 147.365 256.661 147.766 257.188C148.167 257.714 148.74 257.977 149.484 257.977ZM154.086 254.695C154.086 253.867 154.247 253.122 154.57 252.461C154.898 251.799 155.352 251.289 155.93 250.93C156.513 250.57 157.177 250.391 157.922 250.391C159.073 250.391 160.003 250.789 160.711 251.586C161.424 252.383 161.781 253.443 161.781 254.766V254.867C161.781 255.69 161.622 256.43 161.305 257.086C160.992 257.737 160.542 258.245 159.953 258.609C159.37 258.974 158.698 259.156 157.938 259.156C156.792 259.156 155.862 258.758 155.148 257.961C154.44 257.164 154.086 256.109 154.086 254.797V254.695ZM155.539 254.867C155.539 255.805 155.755 256.557 156.188 257.125C156.625 257.693 157.208 257.977 157.938 257.977C158.672 257.977 159.255 257.69 159.688 257.117C160.12 256.539 160.336 255.732 160.336 254.695C160.336 253.768 160.115 253.018 159.672 252.445C159.234 251.867 158.651 251.578 157.922 251.578C157.208 251.578 156.633 251.862 156.195 252.43C155.758 252.997 155.539 253.81 155.539 254.867ZM164.953 250.547L164.992 251.484C165.612 250.755 166.448 250.391 167.5 250.391C168.682 250.391 169.487 250.844 169.914 251.75C170.195 251.344 170.56 251.016 171.008 250.766C171.461 250.516 171.995 250.391 172.609 250.391C174.464 250.391 175.406 251.372 175.438 253.336V259H173.992V253.422C173.992 252.818 173.854 252.367 173.578 252.07C173.302 251.768 172.839 251.617 172.188 251.617C171.651 251.617 171.206 251.779 170.852 252.102C170.497 252.419 170.292 252.849 170.234 253.391V259H168.781V253.461C168.781 252.232 168.18 251.617 166.977 251.617C166.029 251.617 165.38 252.021 165.031 252.828V259H163.586V250.547H164.953Z" fill="black"/>
</g>
<defs>
<clipPath id="clip0">
<rect width="360" height="640" fill="white"/>
</clipPath>
</defs>
</svg>
