<svg width="68" height="68" viewBox="0 0 68 68" fill="none" xmlns="http://www.w3.org/2000/svg">
<path d="M31.4 51.4001L22.5 59.7001C20.9 61.3001 19.5 62.4001 17.3 62.8001C13.6 63.5001 10.4 62.5001 7.80001 59.9001C5.70001 57.8001 4.60001 55.1001 4.60001 52.2001C4.60001 49.3001 5.70001 46.5001 7.80001 44.5001L22 30.2001C24.7 27.5001 28.5 26.4001 32.3 27.3001C33.4 27.6001 34.5 28.0001 35.4 28.6001C36.7 29.4001 37.8 30.4001 38.6 31.6001C39.3 32.6001 40.6 32.8001 41.5 32.0001C41.6 32.0001 41.6 31.9001 41.6 31.9001C42.4 31.3001 42.6 30.1001 42 29.3001C40.9 27.6001 39.3 26.1001 37.5 25.0001C36.3 24.3001 35.1 23.7001 33.7 23.4001C28.5 22.1001 23.3 23.6001 19.7 27.2001L4.60001 42.4001C-1.09999 48.1001 -1.09999 57.3001 4.60001 62.9001C7.30001 65.6001 11 67.2001 14.9 67.2001C18.8 67.2001 22.4 65.7001 25.2 62.9001L33.8 54.1001C36.1 51.8001 32.8 49.5001 31.4 51.4001Z" fill="black"/>
<path d="M36.2 16.5L45.1 8.19995C46.7 6.59995 48.1 5.49995 50.3 5.09995C54 4.39995 57.2 5.39995 59.8 7.99995C61.9 10.1 63 12.8 63 15.7C63 18.6 61.9 21.4 59.8 23.4L45.6 37.7C42.9 40.4 39.1 41.4999 35.3 40.5999C34.2 40.2999 33.1 39.8999 32.2 39.2999C30.9 38.4999 29.8 37.4999 29 36.2999C28.3 35.2999 27 35.1 26.1 35.9C26 35.9 26 36 26 36C25.2 36.6 25 37.7999 25.6 38.5999C26.7 40.2999 28.3 41.8 30.1 42.9C31.3 43.6 32.5 44.2 33.9 44.5C39.1 45.8 44.3 44.3 47.9 40.7L63 25.5C68.7 19.8 68.7 10.6 63 4.99995C60.3 2.29995 56.6 0.699951 52.7 0.699951C48.8 0.699951 45.2 2.19995 42.4 4.99995L33.8 13.7999C31.5 16.0999 34.8 18.4 36.2 16.5Z" fill="black"/>
</svg>
