<?xml version="1.0" encoding="UTF-8"?>
<svg width="376px" height="305px" viewBox="0 0 376 305" version="1.1" xmlns="http://www.w3.org/2000/svg" xmlns:xlink="http://www.w3.org/1999/xlink">
    <!-- Generator: Sketch 55.1 (78136) - https://sketchapp.com -->
    <title>videoExcerpt2</title>
    <desc>Created with Sketch.</desc>
    <g id="Other-Writings" stroke="none" stroke-width="1" fill="none" fill-rule="evenodd">
        <g id="1024-Desktop" transform="translate(-531.000000, -2210.000000)">
            <g id="videoExcerpt2" transform="translate(531.000000, 2210.000000)">
                <rect id="Rectangle-Copy-9" fill="#5E83C8" x="0" y="0" width="376" height="305"></rect>
                <path d="M41.078,140 L41.078,130.872 L43.332,130.872 L44.802,134.932 C44.8953338,135.202668 44.9839996,135.480332 45.068,135.765 C45.1520004,136.049668 45.2406662,136.331999 45.334,136.612 L45.39,136.612 C45.4833338,136.331999 45.5696663,136.049668 45.649,135.765 C45.7283337,135.480332 45.8146662,135.202668 45.908,134.932 L47.35,130.872 L49.59,130.872 L49.59,140 L47.714,140 L47.714,136.654 C47.714,136.429999 47.7233332,136.182668 47.742,135.912 C47.7606668,135.641332 47.7839999,135.368335 47.812,135.093 C47.8400001,134.817665 47.8679999,134.547001 47.896,134.281 C47.9240001,134.014999 47.9519999,133.770001 47.98,133.546 L47.924,133.546 L47.182,135.716 L45.88,139.202 L44.746,139.202 L43.444,135.716 L42.716,133.546 L42.66,133.546 C42.6880001,133.770001 42.7159999,134.014999 42.744,134.281 C42.7720001,134.547001 42.7999999,134.817665 42.828,135.093 C42.8560001,135.368335 42.8793332,135.641332 42.898,135.912 C42.9166668,136.182668 42.926,136.429999 42.926,136.654 L42.926,140 L41.078,140 Z M52.348,142.716 C52.1333323,142.716 51.9513341,142.704333 51.802,142.681 C51.6526659,142.657667 51.5080007,142.622667 51.368,142.576 L51.732,141.008 C51.7973337,141.026667 51.8719996,141.045333 51.956,141.064 C52.0400004,141.082667 52.119333,141.092 52.194,141.092 C52.5393351,141.092 52.8053324,141.008001 52.992,140.84 C53.1786676,140.671999 53.3186662,140.452668 53.412,140.182 L53.51,139.818 L50.836,133.056 L52.908,133.056 L53.902,136.038 C54.0046672,136.355335 54.0979996,136.677332 54.182,137.004 C54.2660004,137.330668 54.3546662,137.666665 54.448,138.012 L54.504,138.012 C54.578667,137.685332 54.6556663,137.356335 54.735,137.025 C54.8143337,136.693665 54.8959996,136.364668 54.98,136.038 L55.82,133.056 L57.794,133.056 L55.386,140.07 C55.2179992,140.508669 55.0430009,140.893665 54.861,141.225 C54.6789991,141.556335 54.4690012,141.831666 54.231,142.051 C53.9929988,142.270334 53.7223348,142.435999 53.419,142.548 C53.1156651,142.660001 52.7586687,142.716 52.348,142.716 Z M63.422,140 L60.664,130.872 L62.848,130.872 L63.94,135.128 C64.0800007,135.632003 64.2036661,136.119664 64.311,136.591 C64.4183339,137.062336 64.5419993,137.549997 64.682,138.054 L64.738,138.054 C64.8686673,137.549997 64.9899994,137.062336 65.102,136.591 C65.2140006,136.119664 65.3353327,135.632003 65.466,135.128 L66.544,130.872 L68.644,130.872 L65.9,140 L63.422,140 Z M69.456,140 L69.456,133.056 L71.514,133.056 L71.514,140 L69.456,140 Z M70.478,132.034 C70.1326649,132.034 69.8480011,131.933668 69.624,131.733 C69.3999989,131.532332 69.288,131.273335 69.288,130.956 C69.288,130.638665 69.3999989,130.382001 69.624,130.186 C69.8480011,129.989999 70.1326649,129.892 70.478,129.892 C70.8326684,129.892 71.1196656,129.989999 71.339,130.186 C71.5583344,130.382001 71.668,130.638665 71.668,130.956 C71.668,131.273335 71.5583344,131.532332 71.339,131.733 C71.1196656,131.933668 70.8326684,132.034 70.478,132.034 Z M75.798,140.168 C75.3686645,140.168 74.9790018,140.084001 74.629,139.916 C74.2789983,139.747999 73.9803346,139.507668 73.733,139.195 C73.4856654,138.882332 73.294334,138.502002 73.159,138.054 C73.023666,137.605998 72.956,137.097336 72.956,136.528 C72.956,135.958664 73.0376658,135.450002 73.201,135.002 C73.3643342,134.553998 73.5789987,134.173668 73.845,133.861 C74.1110013,133.548332 74.4189983,133.308001 74.769,133.14 C75.1190018,132.971999 75.4759982,132.888 75.84,132.888 C76.232002,132.888 76.5539987,132.953333 76.806,133.084 C77.0580013,133.214667 77.3053321,133.391999 77.548,133.616 L77.464,132.552 L77.464,130.186 L79.522,130.186 L79.522,140 L77.842,140 L77.702,139.314 L77.646,139.314 C77.4033321,139.556668 77.1186683,139.759666 76.792,139.923 C76.4653317,140.086334 76.1340017,140.168 75.798,140.168 Z M76.33,138.488 C76.5540011,138.488 76.7569991,138.441334 76.939,138.348 C77.1210009,138.254666 77.2959992,138.091335 77.464,137.858 L77.464,135.016 C77.2773324,134.847999 77.086001,134.731334 76.89,134.666 C76.693999,134.600666 76.5026676,134.568 76.316,134.568 C75.9893317,134.568 75.7000013,134.724332 75.448,135.037 C75.1959987,135.349668 75.07,135.83733 75.07,136.5 C75.07,137.19067 75.1796656,137.694665 75.399,138.012 C75.6183344,138.329335 75.9286647,138.488 76.33,138.488 Z M84.45,140.168 C83.9553309,140.168 83.4933355,140.086334 83.064,139.923 C82.6346645,139.759666 82.2613349,139.521668 81.944,139.209 C81.6266651,138.896332 81.3793342,138.516002 81.202,138.068 C81.0246658,137.619998 80.936,137.10667 80.936,136.528 C80.936,135.967997 81.0293324,135.461669 81.216,135.009 C81.4026676,134.556331 81.6476651,134.173668 81.951,133.861 C82.2543348,133.548332 82.601998,133.308001 82.994,133.14 C83.386002,132.971999 83.7919979,132.888 84.212,132.888 C84.7066691,132.888 85.1383315,132.971999 85.507,133.14 C85.8756685,133.308001 86.1836654,133.541332 86.431,133.84 C86.6783346,134.138668 86.8626661,134.490998 86.984,134.897 C87.1053339,135.303002 87.166,135.743998 87.166,136.22 C87.166,136.406668 87.1566668,136.583999 87.138,136.752 C87.1193332,136.920001 87.1006668,137.046 87.082,137.13 L82.924,137.13 C83.0173338,137.634003 83.2249984,138.004999 83.547,138.243 C83.8690016,138.481001 84.263331,138.6 84.73,138.6 C85.2246691,138.6 85.7239975,138.446002 86.228,138.138 L86.914,139.384 C86.5593316,139.626668 86.1650022,139.817999 85.731,139.958 C85.2969978,140.098001 84.8700021,140.168 84.45,140.168 Z M82.91,135.772 L85.416,135.772 C85.416,135.379998 85.3273342,135.062668 85.15,134.82 C84.9726658,134.577332 84.6740021,134.456 84.254,134.456 C83.9273317,134.456 83.6403346,134.563332 83.393,134.778 C83.1456654,134.992668 82.984667,135.323998 82.91,135.772 Z M91.576,140.168 C91.1373311,140.168 90.7126687,140.086334 90.302,139.923 C89.8913313,139.759666 89.5296682,139.524002 89.217,139.216 C88.9043318,138.907998 88.6546676,138.527669 88.468,138.075 C88.2813324,137.622331 88.188,137.10667 88.188,136.528 C88.188,135.94933 88.2813324,135.433669 88.468,134.981 C88.6546676,134.528331 88.9043318,134.148002 89.217,133.84 C89.5296682,133.531998 89.8913313,133.296334 90.302,133.133 C90.7126687,132.969666 91.1373311,132.888 91.576,132.888 C92.0146689,132.888 92.436998,132.969666 92.843,133.133 C93.249002,133.296334 93.6083318,133.531998 93.921,133.84 C94.2336682,134.148002 94.4833324,134.528331 94.67,134.981 C94.8566676,135.433669 94.95,135.94933 94.95,136.528 C94.95,137.10667 94.8566676,137.622331 94.67,138.075 C94.4833324,138.527669 94.2336682,138.907998 93.921,139.216 C93.6083318,139.524002 93.249002,139.759666 92.843,139.923 C92.436998,140.086334 92.0146689,140.168 91.576,140.168 Z M91.576,138.502 C91.9960021,138.502 92.3133323,138.324668 92.528,137.97 C92.7426677,137.615332 92.85,137.13467 92.85,136.528 C92.85,135.92133 92.7426677,135.440668 92.528,135.086 C92.3133323,134.731332 91.9960021,134.554 91.576,134.554 C91.1466645,134.554 90.8270011,134.731332 90.617,135.086 C90.406999,135.440668 90.302,135.92133 90.302,136.528 C90.302,137.13467 90.406999,137.615332 90.617,137.97 C90.8270011,138.324668 91.1466645,138.502 91.576,138.502 Z M44.732,158.168 C44.1533304,158.168 43.6213358,158.060668 43.136,157.846 C42.6506642,157.631332 42.2283351,157.321002 41.869,156.915 C41.5096649,156.508998 41.2296677,156.00967 41.029,155.417 C40.8283323,154.82433 40.728,154.15467 40.728,153.408 C40.728,152.670663 40.8306656,152.008003 41.036,151.42 C41.2413344,150.831997 41.5259982,150.332669 41.89,149.922 C42.2540018,149.511331 42.6833309,149.196334 43.178,148.977 C43.6726691,148.757666 44.2139971,148.648 44.802,148.648 C45.3620028,148.648 45.8543312,148.762332 46.279,148.991 C46.7036688,149.219668 47.051332,149.483332 47.322,149.782 L46.692,150.538 C46.4493321,150.276665 46.1740015,150.066667 45.866,149.908 C45.5579985,149.749333 45.208002,149.67 44.816,149.67 C44.3773311,149.67 43.9806684,149.756332 43.626,149.929 C43.2713316,150.101668 42.9680013,150.348998 42.716,150.671 C42.4639987,150.993002 42.270334,151.382664 42.135,151.84 C41.999666,152.297336 41.932,152.810664 41.932,153.38 C41.932,153.95867 41.999666,154.478998 42.135,154.941 C42.270334,155.403002 42.4593321,155.797332 42.702,156.124 C42.9446679,156.450668 43.2409983,156.702666 43.591,156.88 C43.9410017,157.057334 44.3353311,157.146 44.774,157.146 C45.2220022,157.146 45.6139983,157.055001 45.95,156.873 C46.2860017,156.690999 46.6033318,156.436668 46.902,156.11 L47.546,156.838 C47.1819982,157.258002 46.7713356,157.584666 46.314,157.818 C45.8566644,158.051334 45.3293363,158.168 44.732,158.168 Z M51.788,158.168 C51.3679979,158.168 50.9690019,158.088667 50.591,157.93 C50.2129981,157.771333 49.8793348,157.540335 49.59,157.237 C49.3006652,156.933665 49.0696675,156.560336 48.897,156.117 C48.7243325,155.673664 48.638,155.172003 48.638,154.612 C48.638,154.042664 48.7243325,153.536336 48.897,153.093 C49.0696675,152.649664 49.3006652,152.274002 49.59,151.966 C49.8793348,151.657998 50.2129981,151.424667 50.591,151.266 C50.9690019,151.107333 51.3679979,151.028 51.788,151.028 C52.2080021,151.028 52.6069981,151.107333 52.985,151.266 C53.3630019,151.424667 53.6966652,151.657998 53.986,151.966 C54.2753348,152.274002 54.5063325,152.649664 54.679,153.093 C54.8516675,153.536336 54.938,154.042664 54.938,154.612 C54.938,155.172003 54.8516675,155.673664 54.679,156.117 C54.5063325,156.560336 54.2753348,156.933665 53.986,157.237 C53.6966652,157.540335 53.3630019,157.771333 52.985,157.93 C52.6069981,158.088667 52.2080021,158.168 51.788,158.168 Z M51.788,157.216 C52.0773348,157.216 52.3433321,157.153001 52.586,157.027 C52.8286679,156.900999 53.0363325,156.723668 53.209,156.495 C53.3816675,156.266332 53.5146662,155.993335 53.608,155.676 C53.7013338,155.358665 53.748,155.004002 53.748,154.612 C53.748,154.219998 53.7013338,153.863002 53.608,153.541 C53.5146662,153.218998 53.3816675,152.941334 53.209,152.708 C53.0363325,152.474666 52.8286679,152.295001 52.586,152.169 C52.3433321,152.042999 52.0773348,151.98 51.788,151.98 C51.4986652,151.98 51.2326679,152.042999 50.99,152.169 C50.7473321,152.295001 50.5396675,152.474666 50.367,152.708 C50.1943325,152.941334 50.0613338,153.218998 49.968,153.541 C49.8746662,153.863002 49.828,154.219998 49.828,154.612 C49.828,155.004002 49.8746662,155.358665 49.968,155.676 C50.0613338,155.993335 50.1943325,156.266332 50.367,156.495 C50.5396675,156.723668 50.7473321,156.900999 50.99,157.027 C51.2326679,157.153001 51.4986652,157.216 51.788,157.216 Z M56.73,160.87 L56.73,151.196 L57.682,151.196 L57.78,151.98 L57.822,151.98 C58.1300015,151.718665 58.4683315,151.494668 58.837,151.308 C59.2056685,151.121332 59.5906647,151.028 59.992,151.028 C60.4306689,151.028 60.8179983,151.109666 61.154,151.273 C61.4900017,151.436334 61.7699989,151.669665 61.994,151.973 C62.2180011,152.276335 62.3883328,152.640331 62.505,153.065 C62.6216673,153.489669 62.68,153.967997 62.68,154.5 C62.68,155.07867 62.6006675,155.594331 62.442,156.047 C62.2833325,156.499669 62.068668,156.884665 61.798,157.202 C61.527332,157.519335 61.2146684,157.759666 60.86,157.923 C60.5053316,158.086334 60.132002,158.168 59.74,158.168 C59.4226651,158.168 59.1076682,158.098001 58.795,157.958 C58.4823318,157.817999 58.1673349,157.626668 57.85,157.384 L57.878,158.574 L57.878,160.87 L56.73,160.87 Z M59.544,157.202 C59.8240014,157.202 60.0829988,157.139001 60.321,157.013 C60.5590012,156.886999 60.7643325,156.709668 60.937,156.481 C61.1096675,156.252332 61.2449995,155.970002 61.343,155.634 C61.4410005,155.297998 61.49,154.920002 61.49,154.5 C61.49,154.126665 61.4573337,153.786002 61.392,153.478 C61.3266663,153.169998 61.2216674,152.906334 61.077,152.687 C60.9323326,152.467666 60.7456678,152.297334 60.517,152.176 C60.2883322,152.054666 60.0153349,151.994 59.698,151.994 C59.4086652,151.994 59.1170015,152.073333 58.823,152.232 C58.5289985,152.390667 58.2140017,152.619332 57.878,152.918 L57.878,156.488 C58.1860015,156.749335 58.4846652,156.933666 58.774,157.041 C59.0633348,157.148334 59.3199989,157.202 59.544,157.202 Z M64.612,160.926 C64.4533325,160.926 64.3086673,160.914333 64.178,160.891 C64.0473327,160.867667 63.9260006,160.832667 63.814,160.786 L64.038,159.876 L64.29,159.939 C64.3833338,159.962333 64.4719996,159.974 64.556,159.974 C64.948002,159.974 65.2676654,159.836335 65.515,159.561 C65.7623346,159.285665 65.9559993,158.938002 66.096,158.518 L66.25,158.014 L63.52,151.196 L64.71,151.196 L66.096,154.962 C66.1986672,155.260668 66.3083328,155.575665 66.425,155.907 C66.5416673,156.238335 66.6513328,156.562665 66.754,156.88 L66.81,156.88 C66.9126672,156.571998 67.0106662,156.250002 67.104,155.914 C67.1973338,155.577998 67.2906662,155.260668 67.384,154.962 L68.602,151.196 L69.722,151.196 L67.16,158.56 C67.0386661,158.896002 66.9033341,159.208665 66.754,159.498 C66.6046659,159.787335 66.4273344,160.036999 66.222,160.247 C66.0166656,160.457001 65.7833346,160.622666 65.522,160.744 C65.2606654,160.865334 64.9573351,160.926 64.612,160.926 Z M75.406,158.168 C74.8366638,158.168 74.3630019,158.000002 73.985,157.664 C73.6069981,157.327998 73.418,156.852003 73.418,156.236 C73.418,155.48933 73.74933,154.917669 74.412,154.521 C75.07467,154.124331 76.1339927,153.846667 77.59,153.688 C77.59,153.473332 77.5690002,153.263334 77.527,153.058 C77.4849998,152.852666 77.4126672,152.670667 77.31,152.512 C77.2073328,152.353333 77.0650009,152.225 76.883,152.127 C76.7009991,152.029 76.4700014,151.98 76.19,151.98 C75.797998,151.98 75.4293351,152.054666 75.084,152.204 C74.7386649,152.353334 74.430668,152.521332 74.16,152.708 L73.712,151.91 C74.0293349,151.704666 74.4166644,151.506334 74.874,151.315 C75.3313356,151.123666 75.8353306,151.028 76.386,151.028 C77.2166708,151.028 77.8186648,151.282331 78.192,151.791 C78.5653352,152.299669 78.752,152.978662 78.752,153.828 L78.752,158 L77.8,158 L77.702,157.188 L77.66,157.188 C77.3333317,157.458668 76.9833352,157.689666 76.61,157.881 C76.2366648,158.072334 75.8353355,158.168 75.406,158.168 Z M75.742,157.244 C76.0686683,157.244 76.3766652,157.167001 76.666,157.013 C76.9553348,156.858999 77.2633317,156.632668 77.59,156.334 L77.59,154.444 C77.0206638,154.518667 76.5423353,154.607333 76.155,154.71 C75.7676647,154.812667 75.4550012,154.933999 75.217,155.074 C74.9789988,155.214001 74.8063339,155.374999 74.699,155.557 C74.5916661,155.739001 74.538,155.937332 74.538,156.152 C74.538,156.544002 74.6546655,156.823999 74.888,156.992 C75.1213345,157.160001 75.4059983,157.244 75.742,157.244 Z M80.894,158 L80.894,151.196 L81.846,151.196 L81.944,152.176 L81.986,152.176 C82.3126683,151.849332 82.6556649,151.576334 83.015,151.357 C83.3743351,151.137666 83.7919976,151.028 84.268,151.028 C84.9866703,151.028 85.511665,151.251998 85.843,151.7 C86.174335,152.148002 86.34,152.810662 86.34,153.688 L86.34,158 L85.192,158 L85.192,153.842 C85.192,153.197997 85.0893344,152.733668 84.884,152.449 C84.6786656,152.164332 84.3520022,152.022 83.904,152.022 C83.5493316,152.022 83.236668,152.110666 82.966,152.288 C82.695332,152.465334 82.3873351,152.726665 82.042,153.072 L82.042,158 L80.894,158 Z M90.876,158.168 C90.017329,158.168 89.3336692,157.860003 88.825,157.244 C88.3163308,156.627997 88.062,155.750672 88.062,154.612 C88.062,154.061331 88.1436658,153.564336 88.307,153.121 C88.4703342,152.677664 88.687332,152.302002 88.958,151.994 C89.228668,151.685998 89.5413316,151.448001 89.896,151.28 C90.2506684,151.111999 90.623998,151.028 91.016,151.028 C91.408002,151.028 91.7486652,151.097999 92.038,151.238 C92.3273348,151.378001 92.6213318,151.569332 92.92,151.812 L92.864,150.65 L92.864,148.032 L94.026,148.032 L94.026,158 L93.074,158 L92.976,157.202 L92.934,157.202 C92.663332,157.463335 92.3530018,157.689666 92.003,157.881 C91.6529982,158.072334 91.2773353,158.168 90.876,158.168 Z M91.128,157.202 C91.4453349,157.202 91.7439986,157.125001 92.024,156.971 C92.3040014,156.816999 92.5839986,156.581335 92.864,156.264 L92.864,152.708 C92.5746652,152.446665 92.2970013,152.262334 92.031,152.155 C91.7649987,152.047666 91.4920014,151.994 91.212,151.994 C90.941332,151.994 90.6870012,152.056999 90.449,152.183 C90.2109988,152.309001 90.0033342,152.486332 89.826,152.715 C89.6486658,152.943668 89.5086672,153.216665 89.406,153.534 C89.3033328,153.851335 89.252,154.205998 89.252,154.598 C89.252,155.419337 89.4153317,156.058664 89.742,156.516 C90.0686683,156.973336 90.5306637,157.202 91.128,157.202 Z M99.122,160.87 L99.122,151.196 L100.074,151.196 L100.172,151.98 L100.214,151.98 C100.522002,151.718665 100.860331,151.494668 101.229,151.308 C101.597669,151.121332 101.982665,151.028 102.384,151.028 C102.822669,151.028 103.209998,151.109666 103.546,151.273 C103.882002,151.436334 104.161999,151.669665 104.386,151.973 C104.610001,152.276335 104.780333,152.640331 104.897,153.065 C105.013667,153.489669 105.072,153.967997 105.072,154.5 C105.072,155.07867 104.992667,155.594331 104.834,156.047 C104.675333,156.499669 104.460668,156.884665 104.19,157.202 C103.919332,157.519335 103.606668,157.759666 103.252,157.923 C102.897332,158.086334 102.524002,158.168 102.132,158.168 C101.814665,158.168 101.499668,158.098001 101.187,157.958 C100.874332,157.817999 100.559335,157.626668 100.242,157.384 L100.27,158.574 L100.27,160.87 L99.122,160.87 Z M101.936,157.202 C102.216001,157.202 102.474999,157.139001 102.713,157.013 C102.951001,156.886999 103.156332,156.709668 103.329,156.481 C103.501668,156.252332 103.637,155.970002 103.735,155.634 C103.833,155.297998 103.882,154.920002 103.882,154.5 C103.882,154.126665 103.849334,153.786002 103.784,153.478 C103.718666,153.169998 103.613667,152.906334 103.469,152.687 C103.324333,152.467666 103.137668,152.297334 102.909,152.176 C102.680332,152.054666 102.407335,151.994 102.09,151.994 C101.800665,151.994 101.509001,152.073333 101.215,152.232 C100.920999,152.390667 100.606002,152.619332 100.27,152.918 L100.27,156.488 C100.578002,156.749335 100.876665,156.933666 101.166,157.041 C101.455335,157.148334 101.711999,157.202 101.936,157.202 Z M108.46,158.168 C107.890664,158.168 107.417002,158.000002 107.039,157.664 C106.660998,157.327998 106.472,156.852003 106.472,156.236 C106.472,155.48933 106.80333,154.917669 107.466,154.521 C108.12867,154.124331 109.187993,153.846667 110.644,153.688 C110.644,153.473332 110.623,153.263334 110.581,153.058 C110.539,152.852666 110.466667,152.670667 110.364,152.512 C110.261333,152.353333 110.119001,152.225 109.937,152.127 C109.754999,152.029 109.524001,151.98 109.244,151.98 C108.851998,151.98 108.483335,152.054666 108.138,152.204 C107.792665,152.353334 107.484668,152.521332 107.214,152.708 L106.766,151.91 C107.083335,151.704666 107.470664,151.506334 107.928,151.315 C108.385336,151.123666 108.889331,151.028 109.44,151.028 C110.270671,151.028 110.872665,151.282331 111.246,151.791 C111.619335,152.299669 111.806,152.978662 111.806,153.828 L111.806,158 L110.854,158 L110.756,157.188 L110.714,157.188 C110.387332,157.458668 110.037335,157.689666 109.664,157.881 C109.290665,158.072334 108.889335,158.168 108.46,158.168 Z M108.796,157.244 C109.122668,157.244 109.430665,157.167001 109.72,157.013 C110.009335,156.858999 110.317332,156.632668 110.644,156.334 L110.644,154.444 C110.074664,154.518667 109.596335,154.607333 109.209,154.71 C108.821665,154.812667 108.509001,154.933999 108.271,155.074 C108.032999,155.214001 107.860334,155.374999 107.753,155.557 C107.645666,155.739001 107.592,155.937332 107.592,156.152 C107.592,156.544002 107.708665,156.823999 107.942,156.992 C108.175334,157.160001 108.459998,157.244 108.796,157.244 Z M115.726,158.168 C115.240664,158.168 114.778669,158.079334 114.34,157.902 C113.901331,157.724666 113.518668,157.500668 113.192,157.23 L113.766,156.46 C114.064668,156.702668 114.370332,156.898666 114.683,157.048 C114.995668,157.197334 115.357331,157.272 115.768,157.272 C116.216002,157.272 116.551999,157.169334 116.776,156.964 C117.000001,156.758666 117.112,156.506668 117.112,156.208 C117.112,156.030666 117.065334,155.876667 116.972,155.746 C116.878666,155.615333 116.759667,155.501 116.615,155.403 C116.470333,155.305 116.304668,155.218667 116.118,155.144 L115.558,154.92 C115.315332,154.836 115.072668,154.740334 114.83,154.633 C114.587332,154.525666 114.370334,154.395001 114.179,154.241 C113.987666,154.086999 113.831334,153.907334 113.71,153.702 C113.588666,153.496666 113.528,153.249335 113.528,152.96 C113.528,152.689332 113.581666,152.435001 113.689,152.197 C113.796334,151.958999 113.950332,151.753668 114.151,151.581 C114.351668,151.408332 114.596665,151.273 114.886,151.175 C115.175335,151.077 115.501998,151.028 115.866,151.028 C116.295335,151.028 116.689665,151.102666 117.049,151.252 C117.408335,151.401334 117.718665,151.583332 117.98,151.798 L117.434,152.526 C117.200666,152.348666 116.958001,152.204001 116.706,152.092 C116.453999,151.979999 116.178668,151.924 115.88,151.924 C115.450665,151.924 115.135668,152.021999 114.935,152.218 C114.734332,152.414001 114.634,152.642665 114.634,152.904 C114.634,153.062667 114.676,153.200333 114.76,153.317 C114.844,153.433667 114.955999,153.536333 115.096,153.625 C115.236001,153.713667 115.396999,153.793 115.579,153.863 C115.761001,153.933 115.949999,154.005333 116.146,154.08 C116.388668,154.173334 116.633665,154.271333 116.881,154.374 C117.128335,154.476667 117.349999,154.604999 117.546,154.759 C117.742001,154.913001 117.902999,155.101999 118.029,155.326 C118.155001,155.550001 118.218,155.820665 118.218,156.138 C118.218,156.418001 118.164334,156.679332 118.057,156.922 C117.949666,157.164668 117.791001,157.379332 117.581,157.566 C117.370999,157.752668 117.109668,157.899666 116.797,158.007 C116.484332,158.114334 116.127335,158.168 115.726,158.168 Z M121.956,158.168 C121.591998,158.168 121.286335,158.112001 121.039,158 C120.791665,157.887999 120.591001,157.734001 120.437,157.538 C120.282999,157.341999 120.173334,157.104001 120.108,156.824 C120.042666,156.543999 120.01,156.236002 120.01,155.9 L120.01,152.134 L119.002,152.134 L119.002,151.266 L120.066,151.196 L120.206,149.292 L121.172,149.292 L121.172,151.196 L123.006,151.196 L123.006,152.134 L121.172,152.134 L121.172,155.914 C121.172,156.334002 121.248999,156.658332 121.403,156.887 C121.557001,157.115668 121.829998,157.23 122.222,157.23 C122.343334,157.23 122.473999,157.211334 122.614,157.174 C122.754001,157.136666 122.879999,157.094667 122.992,157.048 L123.216,157.916 C123.029332,157.981334 122.826334,158.039666 122.607,158.091 C122.387666,158.142334 122.170668,158.168 121.956,158.168 Z M127.304,158.168 C126.846664,158.168 126.419669,158.086334 126.023,157.923 C125.626331,157.759666 125.281001,157.526335 124.987,157.223 C124.692999,156.919665 124.462001,156.548669 124.294,156.11 C124.125999,155.671331 124.042,155.172003 124.042,154.612 C124.042,154.051997 124.128332,153.550336 124.301,153.107 C124.473668,152.663664 124.702332,152.288002 124.987,151.98 C125.271668,151.671998 125.595998,151.436334 125.96,151.273 C126.324002,151.109666 126.701998,151.028 127.094,151.028 C127.523335,151.028 127.908332,151.102666 128.249,151.252 C128.589668,151.401334 128.874332,151.615999 129.103,151.896 C129.331668,152.176001 129.506666,152.511998 129.628,152.904 C129.749334,153.296002 129.81,153.734664 129.81,154.22 C129.81,154.341334 129.807667,154.460333 129.803,154.577 C129.798333,154.693667 129.786667,154.794 129.768,154.878 L125.176,154.878 C125.222667,155.606004 125.448998,156.182331 125.855,156.607 C126.261002,157.031669 126.790663,157.244 127.444,157.244 C127.770668,157.244 128.071665,157.195 128.347,157.097 C128.622335,156.999 128.885999,156.870667 129.138,156.712 L129.544,157.468 C129.245332,157.654668 128.914002,157.817999 128.55,157.958 C128.185998,158.098001 127.770669,158.168 127.304,158.168 Z M125.162,154.052 L128.802,154.052 C128.802,153.36133 128.655001,152.836335 128.361,152.477 C128.066999,152.117665 127.654003,151.938 127.122,151.938 C126.879332,151.938 126.648334,151.984666 126.429,152.078 C126.209666,152.171334 126.011334,152.308999 125.834,152.491 C125.656666,152.673001 125.509667,152.894665 125.393,153.156 C125.276333,153.417335 125.199334,153.715998 125.162,154.052 Z M134.402,160.926 C134.243333,160.926 134.098667,160.914333 133.968,160.891 C133.837333,160.867667 133.716001,160.832667 133.604,160.786 L133.828,159.876 L134.08,159.939 C134.173334,159.962333 134.262,159.974 134.346,159.974 C134.738002,159.974 135.057665,159.836335 135.305,159.561 C135.552335,159.285665 135.745999,158.938002 135.886,158.518 L136.04,158.014 L133.31,151.196 L134.5,151.196 L135.886,154.962 C135.988667,155.260668 136.098333,155.575665 136.215,155.907 C136.331667,156.238335 136.441333,156.562665 136.544,156.88 L136.6,156.88 C136.702667,156.571998 136.800666,156.250002 136.894,155.914 C136.987334,155.577998 137.080666,155.260668 137.174,154.962 L138.392,151.196 L139.512,151.196 L136.95,158.56 C136.828666,158.896002 136.693334,159.208665 136.544,159.498 C136.394666,159.787335 136.217334,160.036999 136.012,160.247 C135.806666,160.457001 135.573335,160.622666 135.312,160.744 C135.050665,160.865334 134.747335,160.926 134.402,160.926 Z M143.474,158.168 C143.053998,158.168 142.655002,158.088667 142.277,157.93 C141.898998,157.771333 141.565335,157.540335 141.276,157.237 C140.986665,156.933665 140.755668,156.560336 140.583,156.117 C140.410332,155.673664 140.324,155.172003 140.324,154.612 C140.324,154.042664 140.410332,153.536336 140.583,153.093 C140.755668,152.649664 140.986665,152.274002 141.276,151.966 C141.565335,151.657998 141.898998,151.424667 142.277,151.266 C142.655002,151.107333 143.053998,151.028 143.474,151.028 C143.894002,151.028 144.292998,151.107333 144.671,151.266 C145.049002,151.424667 145.382665,151.657998 145.672,151.966 C145.961335,152.274002 146.192332,152.649664 146.365,153.093 C146.537668,153.536336 146.624,154.042664 146.624,154.612 C146.624,155.172003 146.537668,155.673664 146.365,156.117 C146.192332,156.560336 145.961335,156.933665 145.672,157.237 C145.382665,157.540335 145.049002,157.771333 144.671,157.93 C144.292998,158.088667 143.894002,158.168 143.474,158.168 Z M143.474,157.216 C143.763335,157.216 144.029332,157.153001 144.272,157.027 C144.514668,156.900999 144.722332,156.723668 144.895,156.495 C145.067668,156.266332 145.200666,155.993335 145.294,155.676 C145.387334,155.358665 145.434,155.004002 145.434,154.612 C145.434,154.219998 145.387334,153.863002 145.294,153.541 C145.200666,153.218998 145.067668,152.941334 144.895,152.708 C144.722332,152.474666 144.514668,152.295001 144.272,152.169 C144.029332,152.042999 143.763335,151.98 143.474,151.98 C143.184665,151.98 142.918668,152.042999 142.676,152.169 C142.433332,152.295001 142.225668,152.474666 142.053,152.708 C141.880332,152.941334 141.747334,153.218998 141.654,153.541 C141.560666,153.863002 141.514,154.219998 141.514,154.612 C141.514,155.004002 141.560666,155.358665 141.654,155.676 C141.747334,155.993335 141.880332,156.266332 142.053,156.495 C142.225668,156.723668 142.433332,156.900999 142.676,157.027 C142.918668,157.153001 143.184665,157.216 143.474,157.216 Z M150.404,158.168 C149.675996,158.168 149.146335,157.944002 148.815,157.496 C148.483665,157.047998 148.318,156.385338 148.318,155.508 L148.318,151.196 L149.48,151.196 L149.48,155.354 C149.48,155.998003 149.580332,156.462332 149.781,156.747 C149.981668,157.031668 150.305998,157.174 150.754,157.174 C151.108668,157.174 151.421332,157.083001 151.692,156.901 C151.962668,156.718999 152.261332,156.427335 152.588,156.026 L152.588,151.196 L153.736,151.196 L153.736,158 L152.784,158 L152.686,156.936 L152.644,156.936 C152.326665,157.309335 151.993002,157.607999 151.643,157.832 C151.292998,158.056001 150.880002,158.168 150.404,158.168 Z M156.032,158 L156.032,151.196 L156.984,151.196 L157.082,152.428 L157.124,152.428 C157.357335,151.998665 157.639665,151.658001 157.971,151.406 C158.302335,151.153999 158.663998,151.028 159.056,151.028 C159.326668,151.028 159.569332,151.074666 159.784,151.168 L159.56,152.176 C159.447999,152.138666 159.345334,152.110667 159.252,152.092 C159.158666,152.073333 159.042001,152.064 158.902,152.064 C158.612665,152.064 158.311668,152.180665 157.999,152.414 C157.686332,152.647334 157.413335,153.05333 157.18,153.632 L157.18,158 L156.032,158 Z M165.286,158 L165.286,154.444 L162.528,148.816 L163.774,148.816 L164.964,151.406 C165.113334,151.742002 165.257999,152.073332 165.398,152.4 C165.538001,152.726668 165.687333,153.062665 165.846,153.408 L165.902,153.408 C166.060667,153.062665 166.219333,152.726668 166.378,152.4 C166.536667,152.073332 166.685999,151.742002 166.826,151.406 L168.002,148.816 L169.22,148.816 L166.462,154.444 L166.462,158 L165.286,158 Z M173,158.168 C172.579998,158.168 172.181002,158.088667 171.803,157.93 C171.424998,157.771333 171.091335,157.540335 170.802,157.237 C170.512665,156.933665 170.281668,156.560336 170.109,156.117 C169.936332,155.673664 169.85,155.172003 169.85,154.612 C169.85,154.042664 169.936332,153.536336 170.109,153.093 C170.281668,152.649664 170.512665,152.274002 170.802,151.966 C171.091335,151.657998 171.424998,151.424667 171.803,151.266 C172.181002,151.107333 172.579998,151.028 173,151.028 C173.420002,151.028 173.818998,151.107333 174.197,151.266 C174.575002,151.424667 174.908665,151.657998 175.198,151.966 C175.487335,152.274002 175.718332,152.649664 175.891,153.093 C176.063668,153.536336 176.15,154.042664 176.15,154.612 C176.15,155.172003 176.063668,155.673664 175.891,156.117 C175.718332,156.560336 175.487335,156.933665 175.198,157.237 C174.908665,157.540335 174.575002,157.771333 174.197,157.93 C173.818998,158.088667 173.420002,158.168 173,158.168 Z M173,157.216 C173.289335,157.216 173.555332,157.153001 173.798,157.027 C174.040668,156.900999 174.248332,156.723668 174.421,156.495 C174.593668,156.266332 174.726666,155.993335 174.82,155.676 C174.913334,155.358665 174.96,155.004002 174.96,154.612 C174.96,154.219998 174.913334,153.863002 174.82,153.541 C174.726666,153.218998 174.593668,152.941334 174.421,152.708 C174.248332,152.474666 174.040668,152.295001 173.798,152.169 C173.555332,152.042999 173.289335,151.98 173,151.98 C172.710665,151.98 172.444668,152.042999 172.202,152.169 C171.959332,152.295001 171.751668,152.474666 171.579,152.708 C171.406332,152.941334 171.273334,153.218998 171.18,153.541 C171.086666,153.863002 171.04,154.219998 171.04,154.612 C171.04,155.004002 171.086666,155.358665 171.18,155.676 C171.273334,155.993335 171.406332,156.266332 171.579,156.495 C171.751668,156.723668 171.959332,156.900999 172.202,157.027 C172.444668,157.153001 172.710665,157.216 173,157.216 Z M179.93,158.168 C179.201996,158.168 178.672335,157.944002 178.341,157.496 C178.009665,157.047998 177.844,156.385338 177.844,155.508 L177.844,151.196 L179.006,151.196 L179.006,155.354 C179.006,155.998003 179.106332,156.462332 179.307,156.747 C179.507668,157.031668 179.831998,157.174 180.28,157.174 C180.634668,157.174 180.947332,157.083001 181.218,156.901 C181.488668,156.718999 181.787332,156.427335 182.114,156.026 L182.114,151.196 L183.262,151.196 L183.262,158 L182.31,158 L182.212,156.936 L182.17,156.936 C181.852665,157.309335 181.519002,157.607999 181.169,157.832 C180.818998,158.056001 180.406002,158.168 179.93,158.168 Z M187.7,158.168 C187.335998,158.168 187.030335,158.112001 186.783,158 C186.535665,157.887999 186.335001,157.734001 186.181,157.538 C186.026999,157.341999 185.917334,157.104001 185.852,156.824 C185.786666,156.543999 185.754,156.236002 185.754,155.9 L185.754,152.134 L184.746,152.134 L184.746,151.266 L185.81,151.196 L185.95,149.292 L186.916,149.292 L186.916,151.196 L188.75,151.196 L188.75,152.134 L186.916,152.134 L186.916,155.914 C186.916,156.334002 186.992999,156.658332 187.147,156.887 C187.301001,157.115668 187.573998,157.23 187.966,157.23 C188.087334,157.23 188.217999,157.211334 188.358,157.174 C188.498001,157.136666 188.623999,157.094667 188.736,157.048 L188.96,157.916 C188.773332,157.981334 188.570334,158.039666 188.351,158.091 C188.131666,158.142334 187.914668,158.168 187.7,158.168 Z M192.278,158.168 C191.549996,158.168 191.020335,157.944002 190.689,157.496 C190.357665,157.047998 190.192,156.385338 190.192,155.508 L190.192,151.196 L191.354,151.196 L191.354,155.354 C191.354,155.998003 191.454332,156.462332 191.655,156.747 C191.855668,157.031668 192.179998,157.174 192.628,157.174 C192.982668,157.174 193.295332,157.083001 193.566,156.901 C193.836668,156.718999 194.135332,156.427335 194.462,156.026 L194.462,151.196 L195.61,151.196 L195.61,158 L194.658,158 L194.56,156.936 L194.518,156.936 C194.200665,157.309335 193.867002,157.607999 193.517,157.832 C193.166998,158.056001 192.754002,158.168 192.278,158.168 Z M200.916,158.168 C200.598665,158.168 200.269668,158.091001 199.929,157.937 C199.588332,157.782999 199.268668,157.570668 198.97,157.3 L198.928,157.3 L198.83,158 L197.906,158 L197.906,148.032 L199.054,148.032 L199.054,150.748 L199.026,151.98 C199.334002,151.709332 199.669998,151.483001 200.034,151.301 C200.398002,151.118999 200.771331,151.028 201.154,151.028 C201.592669,151.028 201.979998,151.109666 202.316,151.273 C202.652002,151.436334 202.934332,151.669665 203.163,151.973 C203.391668,152.276335 203.564333,152.640331 203.681,153.065 C203.797667,153.489669 203.856,153.963331 203.856,154.486 C203.856,155.06467 203.776667,155.582664 203.618,156.04 C203.459333,156.497336 203.244668,156.884665 202.974,157.202 C202.703332,157.519335 202.390668,157.759666 202.036,157.923 C201.681332,158.086334 201.308002,158.168 200.916,158.168 Z M200.72,157.202 C201.000001,157.202 201.258999,157.139001 201.497,157.013 C201.735001,156.886999 201.940332,156.709668 202.113,156.481 C202.285668,156.252332 202.421,155.970002 202.519,155.634 C202.617,155.297998 202.666,154.920002 202.666,154.5 C202.666,154.126665 202.633334,153.786002 202.568,153.478 C202.502666,153.169998 202.397667,152.906334 202.253,152.687 C202.108333,152.467666 201.921668,152.297334 201.693,152.176 C201.464332,152.054666 201.191335,151.994 200.874,151.994 C200.323331,151.994 199.71667,152.301997 199.054,152.918 L199.054,156.488 C199.352668,156.749335 199.648999,156.933666 199.943,157.041 C200.237001,157.148334 200.495999,157.202 200.72,157.202 Z M208.406,158.168 C207.948664,158.168 207.521669,158.086334 207.125,157.923 C206.728331,157.759666 206.383001,157.526335 206.089,157.223 C205.794999,156.919665 205.564001,156.548669 205.396,156.11 C205.227999,155.671331 205.144,155.172003 205.144,154.612 C205.144,154.051997 205.230332,153.550336 205.403,153.107 C205.575668,152.663664 205.804332,152.288002 206.089,151.98 C206.373668,151.671998 206.697998,151.436334 207.062,151.273 C207.426002,151.109666 207.803998,151.028 208.196,151.028 C208.625335,151.028 209.010332,151.102666 209.351,151.252 C209.691668,151.401334 209.976332,151.615999 210.205,151.896 C210.433668,152.176001 210.608666,152.511998 210.73,152.904 C210.851334,153.296002 210.912,153.734664 210.912,154.22 C210.912,154.341334 210.909667,154.460333 210.905,154.577 C210.900333,154.693667 210.888667,154.794 210.87,154.878 L206.278,154.878 C206.324667,155.606004 206.550998,156.182331 206.957,156.607 C207.363002,157.031669 207.892663,157.244 208.546,157.244 C208.872668,157.244 209.173665,157.195 209.449,157.097 C209.724335,156.999 209.987999,156.870667 210.24,156.712 L210.646,157.468 C210.347332,157.654668 210.016002,157.817999 209.652,157.958 C209.287998,158.098001 208.872669,158.168 208.406,158.168 Z M206.264,154.052 L209.904,154.052 C209.904,153.36133 209.757001,152.836335 209.463,152.477 C209.168999,152.117665 208.756003,151.938 208.224,151.938 C207.981332,151.938 207.750334,151.984666 207.531,152.078 C207.311666,152.171334 207.113334,152.308999 206.936,152.491 C206.758666,152.673001 206.611667,152.894665 206.495,153.156 C206.378333,153.417335 206.301334,153.715998 206.264,154.052 Z M218.038,158.168 C217.617998,158.168 217.219002,158.088667 216.841,157.93 C216.462998,157.771333 216.129335,157.540335 215.84,157.237 C215.550665,156.933665 215.319668,156.560336 215.147,156.117 C214.974332,155.673664 214.888,155.172003 214.888,154.612 C214.888,154.042664 214.974332,153.536336 215.147,153.093 C215.319668,152.649664 215.550665,152.274002 215.84,151.966 C216.129335,151.657998 216.462998,151.424667 216.841,151.266 C217.219002,151.107333 217.617998,151.028 218.038,151.028 C218.458002,151.028 218.856998,151.107333 219.235,151.266 C219.613002,151.424667 219.946665,151.657998 220.236,151.966 C220.525335,152.274002 220.756332,152.649664 220.929,153.093 C221.101668,153.536336 221.188,154.042664 221.188,154.612 C221.188,155.172003 221.101668,155.673664 220.929,156.117 C220.756332,156.560336 220.525335,156.933665 220.236,157.237 C219.946665,157.540335 219.613002,157.771333 219.235,157.93 C218.856998,158.088667 218.458002,158.168 218.038,158.168 Z M218.038,157.216 C218.327335,157.216 218.593332,157.153001 218.836,157.027 C219.078668,156.900999 219.286332,156.723668 219.459,156.495 C219.631668,156.266332 219.764666,155.993335 219.858,155.676 C219.951334,155.358665 219.998,155.004002 219.998,154.612 C219.998,154.219998 219.951334,153.863002 219.858,153.541 C219.764666,153.218998 219.631668,152.941334 219.459,152.708 C219.286332,152.474666 219.078668,152.295001 218.836,152.169 C218.593332,152.042999 218.327335,151.98 218.038,151.98 C217.748665,151.98 217.482668,152.042999 217.24,152.169 C216.997332,152.295001 216.789668,152.474666 216.617,152.708 C216.444332,152.941334 216.311334,153.218998 216.218,153.541 C216.124666,153.863002 216.078,154.219998 216.078,154.612 C216.078,155.004002 216.124666,155.358665 216.218,155.676 C216.311334,155.993335 216.444332,156.266332 216.617,156.495 C216.789668,156.723668 216.997332,156.900999 217.24,157.027 C217.482668,157.153001 217.748665,157.216 218.038,157.216 Z M222.98,158 L222.98,151.196 L223.932,151.196 L224.03,152.428 L224.072,152.428 C224.305335,151.998665 224.587665,151.658001 224.919,151.406 C225.250335,151.153999 225.611998,151.028 226.004,151.028 C226.274668,151.028 226.517332,151.074666 226.732,151.168 L226.508,152.176 C226.395999,152.138666 226.293334,152.110667 226.2,152.092 C226.106666,152.073333 225.990001,152.064 225.85,152.064 C225.560665,152.064 225.259668,152.180665 224.947,152.414 C224.634332,152.647334 224.361335,153.05333 224.128,153.632 L224.128,158 L222.98,158 Z M232.43,158 L229.49,148.816 L230.736,148.816 L232.206,153.772 C232.374001,154.322669 232.520999,154.831331 232.647,155.298 C232.773001,155.764669 232.924666,156.268664 233.102,156.81 L233.158,156.81 C233.326001,156.268664 233.475333,155.764669 233.606,155.298 C233.736667,154.831331 233.881333,154.322669 234.04,153.772 L235.51,148.816 L236.7,148.816 L233.788,158 L232.43,158 Z M237.848,158 L237.848,151.196 L238.996,151.196 L238.996,158 L237.848,158 Z M238.436,149.796 C238.211999,149.796 238.023001,149.726001 237.869,149.586 C237.714999,149.445999 237.638,149.268668 237.638,149.054 C237.638,148.829999 237.714999,148.650334 237.869,148.515 C238.023001,148.379666 238.211999,148.312 238.436,148.312 C238.660001,148.312 238.848999,148.379666 239.003,148.515 C239.157001,148.650334 239.234,148.829999 239.234,149.054 C239.234,149.268668 239.157001,149.445999 239.003,149.586 C238.848999,149.726001 238.660001,149.796 238.436,149.796 Z M241.292,158 L241.292,151.196 L242.244,151.196 L242.342,152.176 L242.384,152.176 C242.682668,151.849332 243.006998,151.576334 243.357,151.357 C243.707002,151.137666 244.087331,151.028 244.498,151.028 C245.020669,151.028 245.428999,151.142332 245.723,151.371 C246.017001,151.599668 246.233999,151.919331 246.374,152.33 C246.728668,151.937998 247.085665,151.623001 247.445,151.385 C247.804335,151.146999 248.193998,151.028 248.614,151.028 C249.314004,151.028 249.834332,151.251998 250.175,151.7 C250.515668,152.148002 250.686,152.810662 250.686,153.688 L250.686,158 L249.538,158 L249.538,153.842 C249.538,153.197997 249.435334,152.733668 249.23,152.449 C249.024666,152.164332 248.707335,152.022 248.278,152.022 C247.764664,152.022 247.195336,152.371997 246.57,153.072 L246.57,158 L245.422,158 L245.422,153.842 C245.422,153.197997 245.319334,152.733668 245.114,152.449 C244.908666,152.164332 244.586669,152.022 244.148,152.022 C243.634664,152.022 243.065336,152.371997 242.44,153.072 L242.44,158 L241.292,158 Z M255.656,158.168 C255.198664,158.168 254.771669,158.086334 254.375,157.923 C253.978331,157.759666 253.633001,157.526335 253.339,157.223 C253.044999,156.919665 252.814001,156.548669 252.646,156.11 C252.477999,155.671331 252.394,155.172003 252.394,154.612 C252.394,154.051997 252.480332,153.550336 252.653,153.107 C252.825668,152.663664 253.054332,152.288002 253.339,151.98 C253.623668,151.671998 253.947998,151.436334 254.312,151.273 C254.676002,151.109666 255.053998,151.028 255.446,151.028 C255.875335,151.028 256.260332,151.102666 256.601,151.252 C256.941668,151.401334 257.226332,151.615999 257.455,151.896 C257.683668,152.176001 257.858666,152.511998 257.98,152.904 C258.101334,153.296002 258.162,153.734664 258.162,154.22 C258.162,154.341334 258.159667,154.460333 258.155,154.577 C258.150333,154.693667 258.138667,154.794 258.12,154.878 L253.528,154.878 C253.574667,155.606004 253.800998,156.182331 254.207,156.607 C254.613002,157.031669 255.142663,157.244 255.796,157.244 C256.122668,157.244 256.423665,157.195 256.699,157.097 C256.974335,156.999 257.237999,156.870667 257.49,156.712 L257.896,157.468 C257.597332,157.654668 257.266002,157.817999 256.902,157.958 C256.537998,158.098001 256.122669,158.168 255.656,158.168 Z M253.514,154.052 L257.154,154.052 C257.154,153.36133 257.007001,152.836335 256.713,152.477 C256.418999,152.117665 256.006003,151.938 255.474,151.938 C255.231332,151.938 255.000334,151.984666 254.781,152.078 C254.561666,152.171334 254.363334,152.308999 254.186,152.491 C254.008666,152.673001 253.861667,152.894665 253.745,153.156 C253.628333,153.417335 253.551334,153.715998 253.514,154.052 Z M262.488,158.168 C262.067998,158.168 261.669002,158.088667 261.291,157.93 C260.912998,157.771333 260.579335,157.540335 260.29,157.237 C260.000665,156.933665 259.769668,156.560336 259.597,156.117 C259.424332,155.673664 259.338,155.172003 259.338,154.612 C259.338,154.042664 259.424332,153.536336 259.597,153.093 C259.769668,152.649664 260.000665,152.274002 260.29,151.966 C260.579335,151.657998 260.912998,151.424667 261.291,151.266 C261.669002,151.107333 262.067998,151.028 262.488,151.028 C262.908002,151.028 263.306998,151.107333 263.685,151.266 C264.063002,151.424667 264.396665,151.657998 264.686,151.966 C264.975335,152.274002 265.206332,152.649664 265.379,153.093 C265.551668,153.536336 265.638,154.042664 265.638,154.612 C265.638,155.172003 265.551668,155.673664 265.379,156.117 C265.206332,156.560336 264.975335,156.933665 264.686,157.237 C264.396665,157.540335 264.063002,157.771333 263.685,157.93 C263.306998,158.088667 262.908002,158.168 262.488,158.168 Z M262.488,157.216 C262.777335,157.216 263.043332,157.153001 263.286,157.027 C263.528668,156.900999 263.736332,156.723668 263.909,156.495 C264.081668,156.266332 264.214666,155.993335 264.308,155.676 C264.401334,155.358665 264.448,155.004002 264.448,154.612 C264.448,154.219998 264.401334,153.863002 264.308,153.541 C264.214666,153.218998 264.081668,152.941334 263.909,152.708 C263.736332,152.474666 263.528668,152.295001 263.286,152.169 C263.043332,152.042999 262.777335,151.98 262.488,151.98 C262.198665,151.98 261.932668,152.042999 261.69,152.169 C261.447332,152.295001 261.239668,152.474666 261.067,152.708 C260.894332,152.941334 260.761334,153.218998 260.668,153.541 C260.574666,153.863002 260.528,154.219998 260.528,154.612 C260.528,155.004002 260.574666,155.358665 260.668,155.676 C260.761334,155.993335 260.894332,156.266332 261.067,156.495 C261.239668,156.723668 261.447332,156.900999 261.69,157.027 C261.932668,157.153001 262.198665,157.216 262.488,157.216 Z M271.448,158.168 C271.009331,158.168 270.696668,158.037335 270.51,157.776 C270.323332,157.514665 270.23,157.132003 270.23,156.628 L270.23,148.032 L271.378,148.032 L271.378,156.712 C271.378,156.898668 271.410666,157.029333 271.476,157.104 C271.541334,157.178667 271.616,157.216 271.7,157.216 L271.805,157.216 C271.837667,157.216 271.886666,157.206667 271.952,157.188 L272.106,158.056 C272.031333,158.093334 271.942667,158.121333 271.84,158.14 C271.737333,158.158667 271.606667,158.168 271.448,158.168 Z M273.8,158 L273.8,151.196 L274.948,151.196 L274.948,158 L273.8,158 Z M274.388,149.796 C274.163999,149.796 273.975001,149.726001 273.821,149.586 C273.666999,149.445999 273.59,149.268668 273.59,149.054 C273.59,148.829999 273.666999,148.650334 273.821,148.515 C273.975001,148.379666 274.163999,148.312 274.388,148.312 C274.612001,148.312 274.800999,148.379666 274.955,148.515 C275.109001,148.650334 275.186,148.829999 275.186,149.054 C275.186,149.268668 275.109001,149.445999 274.955,149.586 C274.800999,149.726001 274.612001,149.796 274.388,149.796 Z M277.244,158 L277.244,151.196 L278.196,151.196 L278.294,152.176 L278.336,152.176 C278.662668,151.849332 279.005665,151.576334 279.365,151.357 C279.724335,151.137666 280.141998,151.028 280.618,151.028 C281.33667,151.028 281.861665,151.251998 282.193,151.7 C282.524335,152.148002 282.69,152.810662 282.69,153.688 L282.69,158 L281.542,158 L281.542,153.842 C281.542,153.197997 281.439334,152.733668 281.234,152.449 C281.028666,152.164332 280.702002,152.022 280.254,152.022 C279.899332,152.022 279.586668,152.110666 279.316,152.288 C279.045332,152.465334 278.737335,152.726665 278.392,153.072 L278.392,158 L277.244,158 Z M284.902,158 L284.902,148.032 L286.036,148.032 L286.036,154.78 L286.078,154.78 L288.976,151.196 L290.25,151.196 L287.968,153.926 L290.558,158 L289.298,158 L287.31,154.724 L286.036,156.208 L286.036,158 L284.902,158 Z M297.642,158.168 C297.324665,158.168 296.995668,158.091001 296.655,157.937 C296.314332,157.782999 295.994668,157.570668 295.696,157.3 L295.654,157.3 L295.556,158 L294.632,158 L294.632,148.032 L295.78,148.032 L295.78,150.748 L295.752,151.98 C296.060002,151.709332 296.395998,151.483001 296.76,151.301 C297.124002,151.118999 297.497331,151.028 297.88,151.028 C298.318669,151.028 298.705998,151.109666 299.042,151.273 C299.378002,151.436334 299.660332,151.669665 299.889,151.973 C300.117668,152.276335 300.290333,152.640331 300.407,153.065 C300.523667,153.489669 300.582,153.963331 300.582,154.486 C300.582,155.06467 300.502667,155.582664 300.344,156.04 C300.185333,156.497336 299.970668,156.884665 299.7,157.202 C299.429332,157.519335 299.116668,157.759666 298.762,157.923 C298.407332,158.086334 298.034002,158.168 297.642,158.168 Z M297.446,157.202 C297.726001,157.202 297.984999,157.139001 298.223,157.013 C298.461001,156.886999 298.666332,156.709668 298.839,156.481 C299.011668,156.252332 299.147,155.970002 299.245,155.634 C299.343,155.297998 299.392,154.920002 299.392,154.5 C299.392,154.126665 299.359334,153.786002 299.294,153.478 C299.228666,153.169998 299.123667,152.906334 298.979,152.687 C298.834333,152.467666 298.647668,152.297334 298.419,152.176 C298.190332,152.054666 297.917335,151.994 297.6,151.994 C297.049331,151.994 296.44267,152.301997 295.78,152.918 L295.78,156.488 C296.078668,156.749335 296.374999,156.933666 296.669,157.041 C296.963001,157.148334 297.221999,157.202 297.446,157.202 Z M305.132,158.168 C304.674664,158.168 304.247669,158.086334 303.851,157.923 C303.454331,157.759666 303.109001,157.526335 302.815,157.223 C302.520999,156.919665 302.290001,156.548669 302.122,156.11 C301.953999,155.671331 301.87,155.172003 301.87,154.612 C301.87,154.051997 301.956332,153.550336 302.129,153.107 C302.301668,152.663664 302.530332,152.288002 302.815,151.98 C303.099668,151.671998 303.423998,151.436334 303.788,151.273 C304.152002,151.109666 304.529998,151.028 304.922,151.028 C305.351335,151.028 305.736332,151.102666 306.077,151.252 C306.417668,151.401334 306.702332,151.615999 306.931,151.896 C307.159668,152.176001 307.334666,152.511998 307.456,152.904 C307.577334,153.296002 307.638,153.734664 307.638,154.22 C307.638,154.341334 307.635667,154.460333 307.631,154.577 C307.626333,154.693667 307.614667,154.794 307.596,154.878 L303.004,154.878 C303.050667,155.606004 303.276998,156.182331 303.683,156.607 C304.089002,157.031669 304.618663,157.244 305.272,157.244 C305.598668,157.244 305.899665,157.195 306.175,157.097 C306.450335,156.999 306.713999,156.870667 306.966,156.712 L307.372,157.468 C307.073332,157.654668 306.742002,157.817999 306.378,157.958 C306.013998,158.098001 305.598669,158.168 305.132,158.168 Z M302.99,154.052 L306.63,154.052 C306.63,153.36133 306.483001,152.836335 306.189,152.477 C305.894999,152.117665 305.482003,151.938 304.95,151.938 C304.707332,151.938 304.476334,151.984666 304.257,152.078 C304.037666,152.171334 303.839334,152.308999 303.662,152.491 C303.484666,152.673001 303.337667,152.894665 303.221,153.156 C303.104333,153.417335 303.027334,153.715998 302.99,154.052 Z M310.536,158.168 C310.097331,158.168 309.784668,158.037335 309.598,157.776 C309.411332,157.514665 309.318,157.132003 309.318,156.628 L309.318,148.032 L310.466,148.032 L310.466,156.712 C310.466,156.898668 310.498666,157.029333 310.564,157.104 C310.629334,157.178667 310.704,157.216 310.788,157.216 L310.893,157.216 C310.925667,157.216 310.974666,157.206667 311.04,157.188 L311.194,158.056 C311.119333,158.093334 311.030667,158.121333 310.928,158.14 C310.825333,158.158667 310.694667,158.168 310.536,158.168 Z M315.534,158.168 C315.113998,158.168 314.715002,158.088667 314.337,157.93 C313.958998,157.771333 313.625335,157.540335 313.336,157.237 C313.046665,156.933665 312.815668,156.560336 312.643,156.117 C312.470332,155.673664 312.384,155.172003 312.384,154.612 C312.384,154.042664 312.470332,153.536336 312.643,153.093 C312.815668,152.649664 313.046665,152.274002 313.336,151.966 C313.625335,151.657998 313.958998,151.424667 314.337,151.266 C314.715002,151.107333 315.113998,151.028 315.534,151.028 C315.954002,151.028 316.352998,151.107333 316.731,151.266 C317.109002,151.424667 317.442665,151.657998 317.732,151.966 C318.021335,152.274002 318.252332,152.649664 318.425,153.093 C318.597668,153.536336 318.684,154.042664 318.684,154.612 C318.684,155.172003 318.597668,155.673664 318.425,156.117 C318.252332,156.560336 318.021335,156.933665 317.732,157.237 C317.442665,157.540335 317.109002,157.771333 316.731,157.93 C316.352998,158.088667 315.954002,158.168 315.534,158.168 Z M315.534,157.216 C315.823335,157.216 316.089332,157.153001 316.332,157.027 C316.574668,156.900999 316.782332,156.723668 316.955,156.495 C317.127668,156.266332 317.260666,155.993335 317.354,155.676 C317.447334,155.358665 317.494,155.004002 317.494,154.612 C317.494,154.219998 317.447334,153.863002 317.354,153.541 C317.260666,153.218998 317.127668,152.941334 316.955,152.708 C316.782332,152.474666 316.574668,152.295001 316.332,152.169 C316.089332,152.042999 315.823335,151.98 315.534,151.98 C315.244665,151.98 314.978668,152.042999 314.736,152.169 C314.493332,152.295001 314.285668,152.474666 314.113,152.708 C313.940332,152.941334 313.807334,153.218998 313.714,153.541 C313.620666,153.863002 313.574,154.219998 313.574,154.612 C313.574,155.004002 313.620666,155.358665 313.714,155.676 C313.807334,155.993335 313.940332,156.266332 314.113,156.495 C314.285668,156.723668 314.493332,156.900999 314.736,157.027 C314.978668,157.153001 315.244665,157.216 315.534,157.216 Z M321.554,158 L319.664,151.196 L320.84,151.196 L321.848,155.13 C321.922667,155.456668 321.992666,155.773998 322.058,156.082 C322.123334,156.390002 322.188666,156.702665 322.254,157.02 L322.31,157.02 C322.384667,156.702665 322.459333,156.387668 322.534,156.075 C322.608667,155.762332 322.688,155.447335 322.772,155.13 L323.822,151.196 L324.942,151.196 L326.006,155.13 C326.09,155.456668 326.171666,155.773998 326.251,156.082 C326.330334,156.390002 326.407333,156.702665 326.482,157.02 L326.538,157.02 C326.612667,156.702665 326.682666,156.390002 326.748,156.082 C326.813334,155.773998 326.883333,155.456668 326.958,155.13 L327.952,151.196 L329.044,151.196 L327.224,158 L325.824,158 L324.844,154.346 C324.76,154.019332 324.683,153.697335 324.613,153.38 C324.543,153.062665 324.466,152.731335 324.382,152.386 L324.326,152.386 C324.251333,152.731335 324.176667,153.064998 324.102,153.387 C324.027333,153.709002 323.943334,154.033332 323.85,154.36 L322.898,158 L321.554,158 Z M331.13,158.168 C330.896666,158.168 330.698334,158.086334 330.535,157.923 C330.371666,157.759666 330.29,157.552001 330.29,157.3 C330.29,157.029332 330.371666,156.812334 330.535,156.649 C330.698334,156.485666 330.896666,156.404 331.13,156.404 C331.354001,156.404 331.547666,156.485666 331.711,156.649 C331.874334,156.812334 331.956,157.029332 331.956,157.3 C331.956,157.552001 331.874334,157.759666 331.711,157.923 C331.547666,158.086334 331.354001,158.168 331.13,158.168 Z M41.26,176 L41.26,166.816 L42.66,166.816 L44.424,171.716 C44.5360006,172.033335 44.6456661,172.352998 44.753,172.675 C44.8603339,172.997002 44.9699994,173.316665 45.082,173.634 L45.138,173.634 C45.2500006,173.316665 45.3549995,172.997002 45.453,172.675 C45.5510005,172.352998 45.6559994,172.033335 45.768,171.716 L47.504,166.816 L48.918,166.816 L48.918,176 L47.826,176 L47.826,170.946 C47.826,170.535331 47.8446665,170.082669 47.882,169.588 C47.9193335,169.093331 47.9519999,168.640669 47.98,168.23 L47.924,168.23 L47.196,170.316 L45.46,175.076 L44.69,175.076 L42.954,170.316 L42.226,168.23 L42.17,168.23 C42.1980001,168.640669 42.2283332,169.093331 42.261,169.588 C42.2936668,170.082669 42.31,170.535331 42.31,170.946 L42.31,176 L41.26,176 Z M52.894,176.168 C52.3246638,176.168 51.8510019,176.000002 51.473,175.664 C51.0949981,175.327998 50.906,174.852003 50.906,174.236 C50.906,173.48933 51.23733,172.917669 51.9,172.521 C52.56267,172.124331 53.6219927,171.846667 55.078,171.688 C55.078,171.473332 55.0570002,171.263334 55.015,171.058 C54.9729998,170.852666 54.9006672,170.670667 54.798,170.512 C54.6953328,170.353333 54.5530009,170.225 54.371,170.127 C54.1889991,170.029 53.9580014,169.98 53.678,169.98 C53.285998,169.98 52.9173351,170.054666 52.572,170.204 C52.2266649,170.353334 51.918668,170.521332 51.648,170.708 L51.2,169.91 C51.5173349,169.704666 51.9046644,169.506334 52.362,169.315 C52.8193356,169.123666 53.3233306,169.028 53.874,169.028 C54.7046708,169.028 55.3066648,169.282331 55.68,169.791 C56.0533352,170.299669 56.24,170.978662 56.24,171.828 L56.24,176 L55.288,176 L55.19,175.188 L55.148,175.188 C54.8213317,175.458668 54.4713352,175.689666 54.098,175.881 C53.7246648,176.072334 53.3233355,176.168 52.894,176.168 Z M53.23,175.244 C53.5566683,175.244 53.8646652,175.167001 54.154,175.013 C54.4433348,174.858999 54.7513317,174.632668 55.078,174.334 L55.078,172.444 C54.5086638,172.518667 54.0303353,172.607333 53.643,172.71 C53.2556647,172.812667 52.9430012,172.933999 52.705,173.074 C52.4669988,173.214001 52.2943339,173.374999 52.187,173.557 C52.0796661,173.739001 52.026,173.937332 52.026,174.152 C52.026,174.544002 52.1426655,174.823999 52.376,174.992 C52.6093345,175.160001 52.8939983,175.244 53.23,175.244 Z M57.43,176 L59.656,172.444 L57.598,169.196 L58.844,169.196 L59.754,170.694 C59.8566672,170.880668 59.9639994,171.069666 60.076,171.261 C60.1880006,171.452334 60.3046661,171.641332 60.426,171.828 L60.482,171.828 C60.5846672,171.641332 60.6873328,171.452334 60.79,171.261 C60.8926672,171.069666 60.9953328,170.880668 61.098,170.694 L61.924,169.196 L63.128,169.196 L61.07,172.57 L63.282,176 L62.036,176 L61.042,174.418 L60.678,173.802 C60.5566661,173.596666 60.4306673,173.396001 60.3,173.2 L60.244,173.2 C60.1226661,173.396001 60.0060006,173.594332 59.894,173.795 C59.7819994,173.995668 59.6700006,174.203332 59.558,174.418 L58.634,176 L57.43,176 Z M67.384,176 L67.384,175.048 L69.428,175.048 L69.428,168.468 L67.804,168.468 L67.804,167.726 C68.2146687,167.651333 68.5716652,167.560334 68.875,167.453 C69.1783348,167.345666 69.4513321,167.217334 69.694,167.068 L70.576,167.068 L70.576,175.048 L72.424,175.048 L72.424,176 L67.384,176 Z M78.654,176 L76.204,169.196 L77.394,169.196 L78.682,173.06 C78.7846672,173.396002 78.8896661,173.731998 78.997,174.068 C79.1043339,174.404002 79.2093328,174.735332 79.312,175.062 L79.368,175.062 C79.4706672,174.735332 79.5733328,174.404002 79.676,174.068 L79.984,173.06 L81.272,169.196 L82.406,169.196 L79.998,176 L78.654,176 Z M83.722,176 L83.722,169.196 L84.87,169.196 L84.87,176 L83.722,176 Z M84.31,167.796 C84.0859989,167.796 83.8970008,167.726001 83.743,167.586 C83.5889992,167.445999 83.512,167.268668 83.512,167.054 C83.512,166.829999 83.5889992,166.650334 83.743,166.515 C83.8970008,166.379666 84.0859989,166.312 84.31,166.312 C84.5340011,166.312 84.7229992,166.379666 84.877,166.515 C85.0310008,166.650334 85.108,166.829999 85.108,167.054 C85.108,167.268668 85.0310008,167.445999 84.877,167.586 C84.7229992,167.726001 84.5340011,167.796 84.31,167.796 Z M89.49,176.168 C88.631329,176.168 87.9476692,175.860003 87.439,175.244 C86.9303308,174.627997 86.676,173.750672 86.676,172.612 C86.676,172.061331 86.7576658,171.564336 86.921,171.121 C87.0843342,170.677664 87.301332,170.302002 87.572,169.994 C87.842668,169.685998 88.1553316,169.448001 88.51,169.28 C88.8646684,169.111999 89.237998,169.028 89.63,169.028 C90.022002,169.028 90.3626652,169.097999 90.652,169.238 C90.9413348,169.378001 91.2353318,169.569332 91.534,169.812 L91.478,168.65 L91.478,166.032 L92.64,166.032 L92.64,176 L91.688,176 L91.59,175.202 L91.548,175.202 C91.277332,175.463335 90.9670018,175.689666 90.617,175.881 C90.2669983,176.072334 89.8913353,176.168 89.49,176.168 Z M89.742,175.202 C90.0593349,175.202 90.3579986,175.125001 90.638,174.971 C90.9180014,174.816999 91.1979986,174.581335 91.478,174.264 L91.478,170.708 C91.1886652,170.446665 90.9110013,170.262334 90.645,170.155 C90.3789987,170.047666 90.1060014,169.994 89.826,169.994 C89.555332,169.994 89.3010012,170.056999 89.063,170.183 C88.8249988,170.309001 88.6173342,170.486332 88.44,170.715 C88.2626658,170.943668 88.1226672,171.216665 88.02,171.534 C87.9173328,171.851335 87.866,172.205998 87.866,172.598 C87.866,173.419337 88.0293317,174.058664 88.356,174.516 C88.6826683,174.973336 89.1446637,175.202 89.742,175.202 Z M97.694,176.168 C97.2366644,176.168 96.8096686,176.086334 96.413,175.923 C96.0163314,175.759666 95.6710015,175.526335 95.377,175.223 C95.0829985,174.919665 94.8520008,174.548669 94.684,174.11 C94.5159992,173.671331 94.432,173.172003 94.432,172.612 C94.432,172.051997 94.5183325,171.550336 94.691,171.107 C94.8636675,170.663664 95.0923319,170.288002 95.377,169.98 C95.6616681,169.671998 95.9859982,169.436334 96.35,169.273 C96.7140018,169.109666 97.091998,169.028 97.484,169.028 C97.9133355,169.028 98.2983316,169.102666 98.639,169.252 C98.9796684,169.401334 99.2643322,169.615999 99.493,169.896 C99.7216678,170.176001 99.8966661,170.511998 100.018,170.904 C100.139334,171.296002 100.2,171.734664 100.2,172.22 C100.2,172.341334 100.197667,172.460333 100.193,172.577 C100.188333,172.693667 100.176667,172.794 100.158,172.878 L95.566,172.878 C95.6126669,173.606004 95.838998,174.182331 96.245,174.607 C96.651002,175.031669 97.1806634,175.244 97.834,175.244 C98.1606683,175.244 98.4616653,175.195 98.737,175.097 C99.0123347,174.999 99.2759987,174.870667 99.528,174.712 L99.934,175.468 C99.6353318,175.654668 99.3040018,175.817999 98.94,175.958 C98.5759982,176.098001 98.160669,176.168 97.694,176.168 Z M95.552,172.052 L99.192,172.052 C99.192,171.36133 99.0450015,170.836335 98.751,170.477 C98.4569985,170.117665 98.0440027,169.938 97.512,169.938 C97.2693321,169.938 97.0383344,169.984666 96.819,170.078 C96.5996656,170.171334 96.4013342,170.308999 96.224,170.491 C96.0466658,170.673001 95.8996673,170.894665 95.783,171.156 C95.6663328,171.417335 95.5893335,171.715998 95.552,172.052 Z M104.526,176.168 C104.105998,176.168 103.707002,176.088667 103.329,175.93 C102.950998,175.771333 102.617335,175.540335 102.328,175.237 C102.038665,174.933665 101.807668,174.560336 101.635,174.117 C101.462332,173.673664 101.376,173.172003 101.376,172.612 C101.376,172.042664 101.462332,171.536336 101.635,171.093 C101.807668,170.649664 102.038665,170.274002 102.328,169.966 C102.617335,169.657998 102.950998,169.424667 103.329,169.266 C103.707002,169.107333 104.105998,169.028 104.526,169.028 C104.946002,169.028 105.344998,169.107333 105.723,169.266 C106.101002,169.424667 106.434665,169.657998 106.724,169.966 C107.013335,170.274002 107.244332,170.649664 107.417,171.093 C107.589668,171.536336 107.676,172.042664 107.676,172.612 C107.676,173.172003 107.589668,173.673664 107.417,174.117 C107.244332,174.560336 107.013335,174.933665 106.724,175.237 C106.434665,175.540335 106.101002,175.771333 105.723,175.93 C105.344998,176.088667 104.946002,176.168 104.526,176.168 Z M104.526,175.216 C104.815335,175.216 105.081332,175.153001 105.324,175.027 C105.566668,174.900999 105.774332,174.723668 105.947,174.495 C106.119668,174.266332 106.252666,173.993335 106.346,173.676 C106.439334,173.358665 106.486,173.004002 106.486,172.612 C106.486,172.219998 106.439334,171.863002 106.346,171.541 C106.252666,171.218998 106.119668,170.941334 105.947,170.708 C105.774332,170.474665 105.566668,170.295001 105.324,170.169 C105.081332,170.042999 104.815335,169.98 104.526,169.98 C104.236665,169.98 103.970668,170.042999 103.728,170.169 C103.485332,170.295001 103.277668,170.474665 103.105,170.708 C102.932332,170.941334 102.799334,171.218998 102.706,171.541 C102.612666,171.863002 102.566,172.219998 102.566,172.612 C102.566,173.004002 102.612666,173.358665 102.706,173.676 C102.799334,173.993335 102.932332,174.266332 103.105,174.495 C103.277668,174.723668 103.485332,174.900999 103.728,175.027 C103.970668,175.153001 104.236665,175.216 104.526,175.216 Z M110.07,176.168 C109.836666,176.168 109.638334,176.086334 109.475,175.923 C109.311666,175.759666 109.23,175.552001 109.23,175.3 C109.23,175.029332 109.311666,174.812334 109.475,174.649 C109.638334,174.485666 109.836666,174.404 110.07,174.404 C110.294001,174.404 110.487666,174.485666 110.651,174.649 C110.814334,174.812334 110.896,175.029332 110.896,175.3 C110.896,175.552001 110.814334,175.759666 110.651,175.923 C110.487666,176.086334 110.294001,176.168 110.07,176.168 Z" id="MyVideoCopyandpasteyourYoutubeorVimeolinkbelow.Max1video." fill="#FFFFFF" fill-rule="nonzero"></path>
            </g>
        </g>
    </g>
</svg>