<?xml version="1.0" encoding="UTF-8"?>
<svg width="375px" height="304px" viewBox="0 0 375 304" version="1.1" xmlns="http://www.w3.org/2000/svg" xmlns:xlink="http://www.w3.org/1999/xlink">
    <!-- Generator: Sketch 55.1 (78136) - https://sketchapp.com -->
    <title>actionableHeadings</title>
    <desc>Created with Sketch.</desc>
    <defs>
        <rect id="path-1" x="0" y="0" width="375" height="304"></rect>
    </defs>
    <g id="KB-Case-Study" stroke="none" stroke-width="1" fill="none" fill-rule="evenodd">
        <g id="1024-Desktop" transform="translate(-531.000000, -3454.000000)">
            <g id="actionableHeadings" transform="translate(531.000000, 3454.000000)">
                <mask id="mask-2" fill="white">
                    <use xlink:href="#path-1"></use>
                </mask>
                <use id="Mask" fill="#5E83C8" xlink:href="#path-1"></use>
                <path d="M46.576,129.288 C45.5199947,129.288 44.5000049,129.088002 43.516,128.688 C42.5319951,128.287998 41.6640038,127.720004 40.912,126.984 L42.544,125.088 C43.1040028,125.616003 43.7439964,126.043998 44.464,126.372 C45.1840036,126.700002 45.9039964,126.864 46.624,126.864 C47.5200045,126.864 48.1999977,126.680002 48.664,126.312 C49.1280023,125.943998 49.36,125.456003 49.36,124.848 C49.36,124.527998 49.3000006,124.256001 49.18,124.032 C49.0599994,123.807999 48.8920011,123.612001 48.676,123.444 C48.4599989,123.275999 48.2040015,123.120001 47.908,122.976 C47.6119985,122.831999 47.2880018,122.688001 46.936,122.544 L44.776,121.608 C44.3919981,121.447999 44.0120019,121.248001 43.636,121.008 C43.2599981,120.767999 42.9200015,120.480002 42.616,120.144 C42.3119985,119.807998 42.0680009,119.416002 41.884,118.968 C41.6999991,118.519998 41.608,118.008003 41.608,117.432 C41.608,116.807997 41.7399987,116.228003 42.004,115.692 C42.2680013,115.155997 42.6319977,114.688002 43.096,114.288 C43.5600023,113.887998 44.1159968,113.576001 44.764,113.352 C45.412,113.127999 46.1199962,113.016 46.888,113.016 C47.8000046,113.016 48.6799958,113.195998 49.528,113.556 C50.3760042,113.916002 51.103997,114.399997 51.712,115.008 L50.296,116.784 C49.7839974,116.367998 49.2560027,116.040001 48.712,115.8 C48.1679973,115.559999 47.5600034,115.44 46.888,115.44 C46.1359962,115.44 45.5360022,115.603998 45.088,115.932 C44.6399978,116.260002 44.416,116.711997 44.416,117.288 C44.416,117.592002 44.4839993,117.851999 44.62,118.068 C44.7560007,118.284001 44.9399988,118.475999 45.172,118.644 C45.4040012,118.812001 45.6719985,118.963999 45.976,119.1 C46.2800015,119.236001 46.5919984,119.367999 46.912,119.496 L49.048,120.384 C49.5120023,120.576001 49.9359981,120.799999 50.32,121.056 C50.7040019,121.312001 51.0359986,121.607998 51.316,121.944 C51.5960014,122.280002 51.8159992,122.667998 51.976,123.108 C52.1360008,123.548002 52.216,124.055997 52.216,124.632 C52.216,125.272003 52.0880013,125.871997 51.832,126.432 C51.5759987,126.992003 51.2040024,127.483998 50.716,127.908 C50.2279976,128.332002 49.6360035,128.667999 48.94,128.916 C48.2439965,129.164001 47.4560044,129.288 46.576,129.288 Z M59.872,129.288 C59.0559959,129.288 58.2960035,129.148001 57.592,128.868 C56.8879965,128.587999 56.2720026,128.184003 55.744,127.656 C55.2159974,127.127997 54.8040015,126.484004 54.508,125.724 C54.2119985,124.963996 54.064,124.096005 54.064,123.12 C54.064,122.159995 54.2159985,121.296004 54.52,120.528 C54.8240015,119.759996 55.2279975,119.112003 55.732,118.584 C56.2360025,118.055997 56.8159967,117.648001 57.472,117.36 C58.1280033,117.071999 58.7999966,116.928 59.488,116.928 C60.288004,116.928 60.991997,117.063999 61.6,117.336 C62.208003,117.608001 62.715998,117.991998 63.124,118.488 C63.532002,118.984002 63.839999,119.575997 64.048,120.264 C64.256001,120.952003 64.36,121.703996 64.36,122.52 C64.36,122.792001 64.3480001,123.047999 64.324,123.288 C64.2999999,123.528001 64.2720002,123.719999 64.24,123.864 L56.752,123.864 C56.8800006,124.920005 57.2519969,125.731997 57.868,126.3 C58.4840031,126.868003 59.2719952,127.152 60.232,127.152 C60.7440026,127.152 61.2199978,127.076001 61.66,126.924 C62.1000022,126.771999 62.5359978,126.560001 62.968,126.288 L63.904,128.016 C63.3439972,128.384002 62.7200034,128.687999 62.032,128.928 C61.3439966,129.168001 60.6240038,129.288 59.872,129.288 Z M56.728,121.992 L61.96,121.992 C61.96,121.079995 61.764002,120.364003 61.372,119.844 C60.979998,119.323997 60.3760041,119.064 59.56,119.064 C58.8559965,119.064 58.2400026,119.311998 57.712,119.808 C57.1839974,120.304002 56.8560006,121.031995 56.728,121.992 Z M71.152,129.288 C70.4639966,129.288 69.8840024,129.184001 69.412,128.976 C68.9399976,128.767999 68.5560015,128.476002 68.26,128.1 C67.9639985,127.723998 67.7480007,127.276003 67.612,126.756 C67.4759993,126.235997 67.408,125.656003 67.408,125.016 L67.408,119.4 L65.728,119.4 L65.728,117.336 L67.552,117.216 L67.888,114 L70.192,114 L70.192,117.216 L73.192,117.216 L73.192,119.4 L70.192,119.4 L70.192,125.016 C70.192,126.392007 70.7439945,127.08 71.848,127.08 C72.056001,127.08 72.2679989,127.056 72.484,127.008 C72.7000011,126.96 72.8959991,126.896 73.072,126.816 L73.552,128.856 C73.2319984,128.968001 72.868002,129.068 72.46,129.156 C72.051998,129.244 71.6160023,129.288 71.152,129.288 Z M79.816,129.288 C79.1279966,129.288 78.5480024,129.184001 78.076,128.976 C77.6039976,128.767999 77.2200015,128.476002 76.924,128.1 C76.6279985,127.723998 76.4120007,127.276003 76.276,126.756 C76.1399993,126.235997 76.072,125.656003 76.072,125.016 L76.072,119.4 L74.392,119.4 L74.392,117.336 L76.216,117.216 L76.552,114 L78.856,114 L78.856,117.216 L81.856,117.216 L81.856,119.4 L78.856,119.4 L78.856,125.016 C78.856,126.392007 79.4079945,127.08 80.512,127.08 C80.720001,127.08 80.9319989,127.056 81.148,127.008 C81.3640011,126.96 81.5599991,126.896 81.736,126.816 L82.216,128.856 C81.8959984,128.968001 81.532002,129.068 81.124,129.156 C80.715998,129.244 80.2800023,129.288 79.816,129.288 Z M84.328,129 L84.328,117.216 L87.088,117.216 L87.088,129 L84.328,129 Z M85.72,115.152 C85.2239975,115.152 84.8160016,115.008 84.496,114.72 C84.1759984,114.431999 84.016,114.056002 84.016,113.592 C84.016,113.127998 84.1759984,112.748001 84.496,112.452 C84.8160016,112.155999 85.2239975,112.008 85.72,112.008 C86.2160025,112.008 86.6239984,112.155999 86.944,112.452 C87.2640016,112.748001 87.424,113.127998 87.424,113.592 C87.424,114.056002 87.2640016,114.431999 86.944,114.72 C86.6239984,115.008 86.2160025,115.152 85.72,115.152 Z M90.616,129 L90.616,117.216 L92.896,117.216 L93.088,118.8 L93.184,118.8 C93.7120026,118.287997 94.2839969,117.848002 94.9,117.48 C95.5160031,117.111998 96.2319959,116.928 97.048,116.928 C98.3120063,116.928 99.2319971,117.331996 99.808,118.14 C100.384003,118.948004 100.672,120.103992 100.672,121.608 L100.672,129 L97.912,129 L97.912,121.968 C97.912,120.991995 97.7680014,120.304002 97.48,119.904 C97.1919986,119.503998 96.7200033,119.304 96.064,119.304 C95.5519974,119.304 95.100002,119.428 94.708,119.676 C94.315998,119.924001 93.8720025,120.287998 93.376,120.768 L93.376,129 L90.616,129 Z M108.16,134.208 C107.455996,134.208 106.804003,134.144001 106.204,134.016 C105.603997,133.887999 105.088002,133.696001 104.656,133.44 C104.223998,133.183999 103.884001,132.864002 103.636,132.48 C103.387999,132.095998 103.264,131.648003 103.264,131.136 C103.264,130.639998 103.407999,130.180002 103.696,129.756 C103.984001,129.331998 104.399997,128.952002 104.944,128.616 L104.944,128.52 C104.639998,128.327999 104.388001,128.072002 104.188,127.752 C103.987999,127.431998 103.888,127.032002 103.888,126.552 C103.888,126.087998 104.019999,125.668002 104.284,125.292 C104.548001,124.915998 104.847998,124.608001 105.184,124.368 L105.184,124.272 C104.783998,123.967998 104.428002,123.548003 104.116,123.012 C103.803998,122.475997 103.648,121.856004 103.648,121.152 C103.648,120.479997 103.775999,119.880003 104.032,119.352 C104.288001,118.823997 104.627998,118.380002 105.052,118.02 C105.476002,117.659998 105.967997,117.388001 106.528,117.204 C107.088003,117.019999 107.679997,116.928 108.304,116.928 C108.624002,116.928 108.931999,116.956 109.228,117.012 C109.524001,117.068 109.791999,117.136 110.032,117.216 L114.256,117.216 L114.256,119.256 L112.096,119.256 C112.288001,119.480001 112.447999,119.763998 112.576,120.108 C112.704001,120.452002 112.768,120.831998 112.768,121.248 C112.768,121.904003 112.652001,122.479998 112.42,122.976 C112.187999,123.472002 111.872002,123.887998 111.472,124.224 C111.071998,124.560002 110.600003,124.815999 110.056,124.992 C109.511997,125.168001 108.928003,125.256 108.304,125.256 C108.047999,125.256 107.784001,125.232 107.512,125.184 C107.239999,125.136 106.968001,125.056001 106.696,124.944 C106.519999,125.104001 106.380001,125.263999 106.276,125.424 C106.171999,125.584001 106.12,125.799999 106.12,126.072 C106.12,126.408002 106.259999,126.671999 106.54,126.864 C106.820001,127.056001 107.319996,127.152 108.04,127.152 L110.128,127.152 C111.552007,127.152 112.627996,127.379998 113.356,127.836 C114.084004,128.292002 114.448,129.031995 114.448,130.056 C114.448,130.632003 114.300001,131.175997 114.004,131.688 C113.707999,132.200003 113.288003,132.639998 112.744,133.008 C112.199997,133.376002 111.540004,133.667999 110.764,133.884 C109.987996,134.100001 109.120005,134.208 108.16,134.208 Z M108.304,123.528 C108.864003,123.528 109.343998,123.324 109.744,122.916 C110.144002,122.507998 110.344,121.920004 110.344,121.152 C110.344,120.415996 110.148002,119.844002 109.756,119.436 C109.363998,119.027998 108.880003,118.824 108.304,118.824 C107.727997,118.824 107.24,119.023998 106.84,119.424 C106.439998,119.824 106.24,120.399996 106.24,121.152 C106.24,121.920004 106.439998,122.507998 106.84,122.916 C107.24,123.324 107.727997,123.528 108.304,123.528 Z M108.592,132.408 C109.552005,132.408 110.323997,132.220002 110.908,131.844 C111.492003,131.467998 111.784,131.024003 111.784,130.512 C111.784,130.047998 111.604002,129.736001 111.244,129.576 C110.883998,129.415999 110.368003,129.336 109.696,129.336 L108.088,129.336 C107.447997,129.336 106.912002,129.280001 106.48,129.168 C105.871997,129.632002 105.568,130.151997 105.568,130.728 C105.568,131.256003 105.835997,131.668 106.372,131.964 C106.908003,132.260001 107.647995,132.408 108.592,132.408 Z M124.84,129.288 C123.575994,129.288 122.656003,128.884004 122.08,128.076 C121.503997,127.267996 121.216,126.112008 121.216,124.608 L121.216,117.216 L123.976,117.216 L123.976,124.248 C123.976,125.224005 124.119999,125.911998 124.408,126.312 C124.696001,126.712002 125.159997,126.912 125.8,126.912 C126.312003,126.912 126.763998,126.784001 127.156,126.528 C127.548002,126.271999 127.967998,125.856003 128.416,125.28 L128.416,117.216 L131.176,117.216 L131.176,129 L128.92,129 L128.704,127.272 L128.632,127.272 C128.119997,127.880003 127.564003,128.367998 126.964,128.736 C126.363997,129.104002 125.656004,129.288 124.84,129.288 Z M134.68,133.656 L134.68,117.216 L136.96,117.216 L137.152,118.464 L137.248,118.464 C137.744002,118.047998 138.295997,117.688002 138.904,117.384 C139.512003,117.079998 140.143997,116.928 140.8,116.928 C141.536004,116.928 142.187997,117.067999 142.756,117.348 C143.324003,117.628001 143.807998,118.031997 144.208,118.56 C144.608002,119.088003 144.911999,119.719996 145.12,120.456 C145.328001,121.192004 145.432,122.015995 145.432,122.928 C145.432,123.936005 145.292001,124.835996 145.012,125.628 C144.731999,126.420004 144.360002,127.083997 143.896,127.62 C143.431998,128.156003 142.896003,128.567999 142.288,128.856 C141.68,129.144001 141.048003,129.288 140.392,129.288 C139.879997,129.288 139.368003,129.176001 138.856,128.952 C138.343997,128.727999 137.848002,128.408002 137.368,127.992 L137.44,129.96 L137.44,133.656 L134.68,133.656 Z M139.816,127.008 C140.600004,127.008 141.255997,126.668003 141.784,125.988 C142.312003,125.307997 142.576,124.296007 142.576,122.952 C142.576,121.767994 142.376002,120.848003 141.976,120.192 C141.575998,119.535997 140.928004,119.208 140.032,119.208 C139.199996,119.208 138.336004,119.647996 137.44,120.528 L137.44,126.024 C137.872002,126.392002 138.287998,126.647999 138.688,126.792 C139.088002,126.936001 139.463998,127.008 139.816,127.008 Z M153.808,133.848 C153.487998,133.848 153.208001,133.828 152.968,133.788 C152.727999,133.748 152.496001,133.688 152.272,133.608 L152.776,131.448 C152.888001,131.48 153.019999,131.516 153.172,131.556 C153.324001,131.596 153.471999,131.616 153.616,131.616 C154.240003,131.616 154.739998,131.428002 155.116,131.052 C155.492002,130.675998 155.775999,130.192003 155.968,129.6 L156.184,128.856 L151.552,117.216 L154.36,117.216 L156.4,123 C156.576001,123.512003 156.747999,124.051997 156.916,124.62 C157.084001,125.188003 157.255999,125.751997 157.432,126.312 L157.528,126.312 C157.672001,125.767997 157.819999,125.212003 157.972,124.644 C158.124001,124.075997 158.271999,123.528003 158.416,123 L160.192,117.216 L162.856,117.216 L158.584,129.528 C158.343999,130.200003 158.080001,130.799997 157.792,131.328 C157.503999,131.856003 157.172002,132.307998 156.796,132.684 C156.419998,133.060002 155.988002,133.347999 155.5,133.548 C155.011998,133.748001 154.448003,133.848 153.808,133.848 Z M169.72,129.288 C168.983996,129.288 168.280003,129.152001 167.608,128.88 C166.935997,128.607999 166.340003,128.208003 165.82,127.68 C165.299997,127.151997 164.888002,126.504004 164.584,125.736 C164.279998,124.967996 164.128,124.096005 164.128,123.12 C164.128,122.143995 164.279998,121.272004 164.584,120.504 C164.888002,119.735996 165.299997,119.088003 165.82,118.56 C166.340003,118.031997 166.935997,117.628001 167.608,117.348 C168.280003,117.067999 168.983996,116.928 169.72,116.928 C170.456004,116.928 171.163997,117.067999 171.844,117.348 C172.524003,117.628001 173.119997,118.031997 173.632,118.56 C174.144003,119.088003 174.555998,119.735996 174.868,120.504 C175.180002,121.272004 175.336,122.143995 175.336,123.12 C175.336,124.096005 175.180002,124.967996 174.868,125.736 C174.555998,126.504004 174.144003,127.151997 173.632,127.68 C173.119997,128.208003 172.524003,128.607999 171.844,128.88 C171.163997,129.152001 170.456004,129.288 169.72,129.288 Z M169.72,127.032 C170.584004,127.032 171.263998,126.676004 171.76,125.964 C172.256002,125.251996 172.504,124.304006 172.504,123.12 C172.504,121.919994 172.256002,120.964004 171.76,120.252 C171.263998,119.539996 170.584004,119.184 169.72,119.184 C168.855996,119.184 168.180002,119.539996 167.692,120.252 C167.203998,120.964004 166.96,121.919994 166.96,123.12 C166.96,124.304006 167.203998,125.251996 167.692,125.964 C168.180002,126.676004 168.855996,127.032 169.72,127.032 Z M181.576,129.288 C180.311994,129.288 179.392003,128.884004 178.816,128.076 C178.239997,127.267996 177.952,126.112008 177.952,124.608 L177.952,117.216 L180.712,117.216 L180.712,124.248 C180.712,125.224005 180.855999,125.911998 181.144,126.312 C181.432001,126.712002 181.895997,126.912 182.536,126.912 C183.048003,126.912 183.499998,126.784001 183.892,126.528 C184.284002,126.271999 184.703998,125.856003 185.152,125.28 L185.152,117.216 L187.912,117.216 L187.912,129 L185.656,129 L185.44,127.272 L185.368,127.272 C184.855997,127.880003 184.300003,128.367998 183.7,128.736 C183.099997,129.104002 182.392004,129.288 181.576,129.288 Z M191.416,129 L191.416,117.216 L193.696,117.216 L193.888,119.304 L193.984,119.304 C194.400002,118.535996 194.903997,117.948002 195.496,117.54 C196.088003,117.131998 196.695997,116.928 197.32,116.928 C197.880003,116.928 198.327998,117.007999 198.664,117.168 L198.184,119.568 C197.975999,119.504 197.784001,119.456 197.608,119.424 C197.431999,119.392 197.216001,119.376 196.96,119.376 C196.495998,119.376 196.008003,119.555998 195.496,119.916 C194.983997,120.276002 194.544002,120.903996 194.176,121.8 L194.176,129 L191.416,129 Z M208.024,129.288 C206.983995,129.288 206.144003,128.972003 205.504,128.34 C204.863997,127.707997 204.544,126.872005 204.544,125.832 C204.544,125.207997 204.675999,124.652002 204.94,124.164 C205.204001,123.675998 205.619997,123.256002 206.188,122.904 C206.756003,122.551998 207.475996,122.256001 208.348,122.016 C209.220004,121.775999 210.263994,121.592001 211.48,121.464 C211.464,121.159998 211.42,120.868001 211.348,120.588 C211.276,120.307999 211.156001,120.060001 210.988,119.844 C210.819999,119.627999 210.600001,119.460001 210.328,119.34 C210.055999,119.219999 209.720002,119.16 209.32,119.16 C208.743997,119.16 208.180003,119.271999 207.628,119.496 C207.075997,119.720001 206.536003,119.991998 206.008,120.312 L205,118.464 C205.656003,118.047998 206.391996,117.688002 207.208,117.384 C208.024004,117.079998 208.903995,116.928 209.848,116.928 C211.320007,116.928 212.419996,117.363996 213.148,118.236 C213.876004,119.108004 214.24,120.367992 214.24,122.016 L214.24,129 L211.96,129 L211.768,127.704 L211.672,127.704 C211.143997,128.152002 210.580003,128.527998 209.98,128.832 C209.379997,129.136002 208.728004,129.288 208.024,129.288 Z M208.912,127.128 C209.392002,127.128 209.827998,127.016001 210.22,126.792 C210.612002,126.567999 211.031998,126.248002 211.48,125.832 L211.48,123.192 C210.679996,123.288 210.008003,123.415999 209.464,123.576 C208.919997,123.736001 208.480002,123.915999 208.144,124.116 C207.807998,124.316001 207.568001,124.543999 207.424,124.8 C207.279999,125.056001 207.208,125.327999 207.208,125.616 C207.208,126.144003 207.367998,126.527999 207.688,126.768 C208.008002,127.008001 208.415998,127.128 208.912,127.128 Z M222.472,129.288 C221.671996,129.288 220.924003,129.152001 220.228,128.88 C219.531997,128.607999 218.928003,128.208003 218.416,127.68 C217.903997,127.151997 217.504001,126.504004 217.216,125.736 C216.927999,124.967996 216.784,124.096005 216.784,123.12 C216.784,122.143995 216.943998,121.272004 217.264,120.504 C217.584002,119.735996 218.015997,119.088003 218.56,118.56 C219.104003,118.031997 219.731996,117.628001 220.444,117.348 C221.156004,117.067999 221.903996,116.928 222.688,116.928 C223.456004,116.928 224.115997,117.055999 224.668,117.312 C225.220003,117.568001 225.711998,117.879998 226.144,118.248 L224.8,120.048 C224.479998,119.775999 224.164002,119.564001 223.852,119.412 C223.539998,119.259999 223.200002,119.184 222.832,119.184 C221.871995,119.184 221.096003,119.539996 220.504,120.252 C219.911997,120.964004 219.616,121.919994 219.616,123.12 C219.616,124.304006 219.907997,125.251996 220.492,125.964 C221.076003,126.676004 221.831995,127.032 222.76,127.032 C223.224002,127.032 223.659998,126.932001 224.068,126.732 C224.476002,126.531999 224.847998,126.296001 225.184,126.024 L226.312,127.848 C225.751997,128.328002 225.140003,128.687999 224.476,128.928 C223.811997,129.168001 223.144003,129.288 222.472,129.288 Z M233.56,129.288 C232.759996,129.288 232.012003,129.152001 231.316,128.88 C230.619997,128.607999 230.016003,128.208003 229.504,127.68 C228.991997,127.151997 228.592001,126.504004 228.304,125.736 C228.015999,124.967996 227.872,124.096005 227.872,123.12 C227.872,122.143995 228.031998,121.272004 228.352,120.504 C228.672002,119.735996 229.103997,119.088003 229.648,118.56 C230.192003,118.031997 230.819996,117.628001 231.532,117.348 C232.244004,117.067999 232.991996,116.928 233.776,116.928 C234.544004,116.928 235.203997,117.055999 235.756,117.312 C236.308003,117.568001 236.799998,117.879998 237.232,118.248 L235.888,120.048 C235.567998,119.775999 235.252002,119.564001 234.94,119.412 C234.627998,119.259999 234.288002,119.184 233.92,119.184 C232.959995,119.184 232.184003,119.539996 231.592,120.252 C230.999997,120.964004 230.704,121.919994 230.704,123.12 C230.704,124.304006 230.995997,125.251996 231.58,125.964 C232.164003,126.676004 232.919995,127.032 233.848,127.032 C234.312002,127.032 234.747998,126.932001 235.156,126.732 C235.564002,126.531999 235.935998,126.296001 236.272,126.024 L237.4,127.848 C236.839997,128.328002 236.228003,128.687999 235.564,128.928 C234.899997,129.168001 234.232003,129.288 233.56,129.288 Z M244.552,129.288 C243.815996,129.288 243.112003,129.152001 242.44,128.88 C241.767997,128.607999 241.172003,128.208003 240.652,127.68 C240.131997,127.151997 239.720002,126.504004 239.416,125.736 C239.111998,124.967996 238.96,124.096005 238.96,123.12 C238.96,122.143995 239.111998,121.272004 239.416,120.504 C239.720002,119.735996 240.131997,119.088003 240.652,118.56 C241.172003,118.031997 241.767997,117.628001 242.44,117.348 C243.112003,117.067999 243.815996,116.928 244.552,116.928 C245.288004,116.928 245.995997,117.067999 246.676,117.348 C247.356003,117.628001 247.951997,118.031997 248.464,118.56 C248.976003,119.088003 249.387998,119.735996 249.7,120.504 C250.012002,121.272004 250.168,122.143995 250.168,123.12 C250.168,124.096005 250.012002,124.967996 249.7,125.736 C249.387998,126.504004 248.976003,127.151997 248.464,127.68 C247.951997,128.208003 247.356003,128.607999 246.676,128.88 C245.995997,129.152001 245.288004,129.288 244.552,129.288 Z M244.552,127.032 C245.416004,127.032 246.095998,126.676004 246.592,125.964 C247.088002,125.251996 247.336,124.304006 247.336,123.12 C247.336,121.919994 247.088002,120.964004 246.592,120.252 C246.095998,119.539996 245.416004,119.184 244.552,119.184 C243.687996,119.184 243.012002,119.539996 242.524,120.252 C242.035998,120.964004 241.792,121.919994 241.792,123.12 C241.792,124.304006 242.035998,125.251996 242.524,125.964 C243.012002,126.676004 243.687996,127.032 244.552,127.032 Z M256.408,129.288 C255.143994,129.288 254.224003,128.884004 253.648,128.076 C253.071997,127.267996 252.784,126.112008 252.784,124.608 L252.784,117.216 L255.544,117.216 L255.544,124.248 C255.544,125.224005 255.687999,125.911998 255.976,126.312 C256.264001,126.712002 256.727997,126.912 257.368,126.912 C257.880003,126.912 258.331998,126.784001 258.724,126.528 C259.116002,126.271999 259.535998,125.856003 259.984,125.28 L259.984,117.216 L262.744,117.216 L262.744,129 L260.488,129 L260.272,127.272 L260.2,127.272 C259.687997,127.880003 259.132003,128.367998 258.532,128.736 C257.931997,129.104002 257.224004,129.288 256.408,129.288 Z M266.248,129 L266.248,117.216 L268.528,117.216 L268.72,118.8 L268.816,118.8 C269.344003,118.287997 269.915997,117.848002 270.532,117.48 C271.148003,117.111998 271.863996,116.928 272.68,116.928 C273.944006,116.928 274.863997,117.331996 275.44,118.14 C276.016003,118.948004 276.304,120.103992 276.304,121.608 L276.304,129 L273.544,129 L273.544,121.968 C273.544,120.991995 273.400001,120.304002 273.112,119.904 C272.823999,119.503998 272.352003,119.304 271.696,119.304 C271.183997,119.304 270.732002,119.428 270.34,119.676 C269.947998,119.924001 269.504002,120.287998 269.008,120.768 L269.008,129 L266.248,129 Z M283.84,129.288 C283.151997,129.288 282.572002,129.184001 282.1,128.976 C281.627998,128.767999 281.244001,128.476002 280.948,128.1 C280.651999,127.723998 280.436001,127.276003 280.3,126.756 C280.163999,126.235997 280.096,125.656003 280.096,125.016 L280.096,119.4 L278.416,119.4 L278.416,117.336 L280.24,117.216 L280.576,114 L282.88,114 L282.88,117.216 L285.88,117.216 L285.88,119.4 L282.88,119.4 L282.88,125.016 C282.88,126.392007 283.431994,127.08 284.536,127.08 C284.744001,127.08 284.955999,127.056 285.172,127.008 C285.388001,126.96 285.583999,126.896 285.76,126.816 L286.24,128.856 C285.919998,128.968001 285.556002,129.068 285.148,129.156 C284.739998,129.244 284.304002,129.288 283.84,129.288 Z M41.992,160 L41.992,144.304 L45.136,144.304 L47.92,151.984 C48.0960009,152.480002 48.2639992,152.987997 48.424,153.508 C48.5840008,154.028003 48.7519991,154.543997 48.928,155.056 L49.024,155.056 C49.2000009,154.543997 49.3639992,154.028003 49.516,153.508 C49.6680008,152.987997 49.8319991,152.480002 50.008,151.984 L52.72,144.304 L55.888,144.304 L55.888,160 L53.32,160 L53.32,152.824 C53.32,152.455998 53.3319999,152.056002 53.356,151.624 C53.3800001,151.191998 53.4079998,150.756002 53.44,150.316 C53.4720002,149.875998 53.5119998,149.444002 53.56,149.02 C53.6080002,148.595998 53.6479998,148.200002 53.68,147.832 L53.584,147.832 L52.312,151.48 L49.744,158.536 L48.088,158.536 L45.496,151.48 L44.248,147.832 L44.152,147.832 C44.1840002,148.200002 44.2199998,148.595998 44.26,149.02 C44.3000002,149.444002 44.3399998,149.875998 44.38,150.316 C44.4200002,150.756002 44.4519999,151.191998 44.476,151.624 C44.5000001,152.056002 44.512,152.455998 44.512,152.824 L44.512,160 L41.992,160 Z M62.488,160.288 C61.4479948,160.288 60.6080032,159.972003 59.968,159.34 C59.3279968,158.707997 59.008,157.872005 59.008,156.832 C59.008,156.207997 59.1399987,155.652002 59.404,155.164 C59.6680013,154.675998 60.0839972,154.256002 60.652,153.904 C61.2200028,153.551998 61.9399956,153.256001 62.812,153.016 C63.6840044,152.775999 64.7279939,152.592001 65.944,152.464 C65.9279999,152.159998 65.8840004,151.868001 65.812,151.588 C65.7399996,151.307999 65.6200008,151.060001 65.452,150.844 C65.2839992,150.627999 65.0640014,150.460001 64.792,150.34 C64.5199986,150.219999 64.184002,150.16 63.784,150.16 C63.2079971,150.16 62.6440028,150.271999 62.092,150.496 C61.5399972,150.720001 61.0000026,150.991998 60.472,151.312 L59.464,149.464 C60.1200033,149.047998 60.8559959,148.688002 61.672,148.384 C62.4880041,148.079998 63.3679953,147.928 64.312,147.928 C65.7840074,147.928 66.8839964,148.363996 67.612,149.236 C68.3400036,150.108004 68.704,151.367992 68.704,153.016 L68.704,160 L66.424,160 L66.232,158.704 L66.136,158.704 C65.6079974,159.152002 65.044003,159.527998 64.444,159.832 C63.843997,160.136002 63.1920035,160.288 62.488,160.288 Z M63.376,158.128 C63.8560024,158.128 64.291998,158.016001 64.684,157.792 C65.076002,157.567999 65.4959978,157.248002 65.944,156.832 L65.944,154.192 C65.143996,154.288 64.4720027,154.415999 63.928,154.576 C63.3839973,154.736001 62.9440017,154.915999 62.608,155.116 C62.2719983,155.316001 62.0320007,155.543999 61.888,155.8 C61.7439993,156.056001 61.672,156.327999 61.672,156.616 C61.672,157.144003 61.8319984,157.527999 62.152,157.768 C62.4720016,158.008001 62.8799975,158.128 63.376,158.128 Z M72.016,160 L72.016,148.216 L74.296,148.216 L74.488,149.8 L74.584,149.8 C75.1120026,149.287997 75.6839969,148.848002 76.3,148.48 C76.9160031,148.111998 77.6319959,147.928 78.448,147.928 C79.7120063,147.928 80.6319971,148.331996 81.208,149.14 C81.7840029,149.948004 82.072,151.103992 82.072,152.608 L82.072,160 L79.312,160 L79.312,152.968 C79.312,151.991995 79.1680014,151.304002 78.88,150.904 C78.5919986,150.503998 78.1200033,150.304 77.464,150.304 C76.9519974,150.304 76.500002,150.428 76.108,150.676 C75.715998,150.924001 75.2720025,151.287998 74.776,151.768 L74.776,160 L72.016,160 Z M88.312,160.288 C87.2719948,160.288 86.4320032,159.972003 85.792,159.34 C85.1519968,158.707997 84.832,157.872005 84.832,156.832 C84.832,156.207997 84.9639987,155.652002 85.228,155.164 C85.4920013,154.675998 85.9079972,154.256002 86.476,153.904 C87.0440028,153.551998 87.7639956,153.256001 88.636,153.016 C89.5080044,152.775999 90.5519939,152.592001 91.768,152.464 C91.7519999,152.159998 91.7080004,151.868001 91.636,151.588 C91.5639996,151.307999 91.4440008,151.060001 91.276,150.844 C91.1079992,150.627999 90.8880014,150.460001 90.616,150.34 C90.3439986,150.219999 90.008002,150.16 89.608,150.16 C89.0319971,150.16 88.4680028,150.271999 87.916,150.496 C87.3639972,150.720001 86.8240026,150.991998 86.296,151.312 L85.288,149.464 C85.9440033,149.047998 86.6799959,148.688002 87.496,148.384 C88.3120041,148.079998 89.1919953,147.928 90.136,147.928 C91.6080074,147.928 92.7079964,148.363996 93.436,149.236 C94.1640036,150.108004 94.528,151.367992 94.528,153.016 L94.528,160 L92.248,160 L92.056,158.704 L91.96,158.704 C91.4319974,159.152002 90.868003,159.527998 90.268,159.832 C89.667997,160.136002 89.0160035,160.288 88.312,160.288 Z M89.2,158.128 C89.6800024,158.128 90.115998,158.016001 90.508,157.792 C90.900002,157.567999 91.3199978,157.248002 91.768,156.832 L91.768,154.192 C90.967996,154.288 90.2960027,154.415999 89.752,154.576 C89.2079973,154.736001 88.7680017,154.915999 88.432,155.116 C88.0959983,155.316001 87.8560007,155.543999 87.712,155.8 C87.5679993,156.056001 87.496,156.327999 87.496,156.616 C87.496,157.144003 87.6559984,157.527999 87.976,157.768 C88.2960016,158.008001 88.7039975,158.128 89.2,158.128 Z M101.944,165.208 C101.239996,165.208 100.588003,165.144001 99.988,165.016 C99.387997,164.887999 98.8720022,164.696001 98.44,164.44 C98.0079978,164.183999 97.6680012,163.864002 97.42,163.48 C97.1719988,163.095998 97.048,162.648003 97.048,162.136 C97.048,161.639998 97.1919986,161.180002 97.48,160.756 C97.7680014,160.331998 98.1839973,159.952002 98.728,159.616 L98.728,159.52 C98.4239985,159.327999 98.172001,159.072002 97.972,158.752 C97.771999,158.431998 97.672,158.032002 97.672,157.552 C97.672,157.087998 97.8039987,156.668002 98.068,156.292 C98.3320013,155.915998 98.6319983,155.608001 98.968,155.368 L98.968,155.272 C98.567998,154.967998 98.2120016,154.548003 97.9,154.012 C97.5879984,153.475997 97.432,152.856004 97.432,152.152 C97.432,151.479997 97.5599987,150.880003 97.816,150.352 C98.0720013,149.823997 98.4119979,149.380002 98.836,149.02 C99.2600021,148.659998 99.7519972,148.388001 100.312,148.204 C100.872003,148.019999 101.463997,147.928 102.088,147.928 C102.408002,147.928 102.715999,147.956 103.012,148.012 C103.308001,148.068 103.575999,148.136 103.816,148.216 L108.04,148.216 L108.04,150.256 L105.88,150.256 C106.072001,150.480001 106.231999,150.763998 106.36,151.108 C106.488001,151.452002 106.552,151.831998 106.552,152.248 C106.552,152.904003 106.436001,153.479998 106.204,153.976 C105.971999,154.472002 105.656002,154.887998 105.256,155.224 C104.855998,155.560002 104.384003,155.815999 103.84,155.992 C103.295997,156.168001 102.712003,156.256 102.088,156.256 C101.831999,156.256 101.568001,156.232 101.296,156.184 C101.023999,156.136 100.752001,156.056001 100.48,155.944 C100.303999,156.104001 100.164001,156.263999 100.06,156.424 C99.9559995,156.584001 99.904,156.799999 99.904,157.072 C99.904,157.408002 100.043999,157.671999 100.324,157.864 C100.604001,158.056001 101.103996,158.152 101.824,158.152 L103.912,158.152 C105.336007,158.152 106.411996,158.379998 107.14,158.836 C107.868004,159.292002 108.232,160.031995 108.232,161.056 C108.232,161.632003 108.084001,162.175997 107.788,162.688 C107.491999,163.200003 107.072003,163.639998 106.528,164.008 C105.983997,164.376002 105.324004,164.667999 104.548,164.884 C103.771996,165.100001 102.904005,165.208 101.944,165.208 Z M102.088,154.528 C102.648003,154.528 103.127998,154.324 103.528,153.916 C103.928002,153.507998 104.128,152.920004 104.128,152.152 C104.128,151.415996 103.932002,150.844002 103.54,150.436 C103.147998,150.027998 102.664003,149.824 102.088,149.824 C101.511997,149.824 101.024,150.023998 100.624,150.424 C100.223998,150.824 100.024,151.399996 100.024,152.152 C100.024,152.920004 100.223998,153.507998 100.624,153.916 C101.024,154.324 101.511997,154.528 102.088,154.528 Z M102.376,163.408 C103.336005,163.408 104.107997,163.220002 104.692,162.844 C105.276003,162.467998 105.568,162.024003 105.568,161.512 C105.568,161.047998 105.388002,160.736001 105.028,160.576 C104.667998,160.415999 104.152003,160.336 103.48,160.336 L101.872,160.336 C101.231997,160.336 100.696002,160.280001 100.264,160.168 C99.655997,160.632002 99.352,161.151997 99.352,161.728 C99.352,162.256003 99.6199973,162.668 100.156,162.964 C100.692003,163.260001 101.431995,163.408 102.376,163.408 Z M110.32,160 L110.32,148.216 L113.08,148.216 L113.08,160 L110.32,160 Z M111.712,146.152 C111.215998,146.152 110.808002,146.008 110.488,145.72 C110.167998,145.431999 110.008,145.056002 110.008,144.592 C110.008,144.127998 110.167998,143.748001 110.488,143.452 C110.808002,143.155999 111.215998,143.008 111.712,143.008 C112.208002,143.008 112.615998,143.155999 112.936,143.452 C113.256002,143.748001 113.416,144.127998 113.416,144.592 C113.416,145.056002 113.256002,145.431999 112.936,145.72 C112.615998,146.008 112.208002,146.152 111.712,146.152 Z M116.608,160 L116.608,148.216 L118.888,148.216 L119.08,149.8 L119.176,149.8 C119.704003,149.287997 120.275997,148.848002 120.892,148.48 C121.508003,148.111998 122.223996,147.928 123.04,147.928 C124.304006,147.928 125.223997,148.331996 125.8,149.14 C126.376003,149.948004 126.664,151.103992 126.664,152.608 L126.664,160 L123.904,160 L123.904,152.968 C123.904,151.991995 123.760001,151.304002 123.472,150.904 C123.183999,150.503998 122.712003,150.304 122.056,150.304 C121.543997,150.304 121.092002,150.428 120.7,150.676 C120.307998,150.924001 119.864002,151.287998 119.368,151.768 L119.368,160 L116.608,160 Z M134.152,165.208 C133.447996,165.208 132.796003,165.144001 132.196,165.016 C131.595997,164.887999 131.080002,164.696001 130.648,164.44 C130.215998,164.183999 129.876001,163.864002 129.628,163.48 C129.379999,163.095998 129.256,162.648003 129.256,162.136 C129.256,161.639998 129.399999,161.180002 129.688,160.756 C129.976001,160.331998 130.391997,159.952002 130.936,159.616 L130.936,159.52 C130.631998,159.327999 130.380001,159.072002 130.18,158.752 C129.979999,158.431998 129.88,158.032002 129.88,157.552 C129.88,157.087998 130.011999,156.668002 130.276,156.292 C130.540001,155.915998 130.839998,155.608001 131.176,155.368 L131.176,155.272 C130.775998,154.967998 130.420002,154.548003 130.108,154.012 C129.795998,153.475997 129.64,152.856004 129.64,152.152 C129.64,151.479997 129.767999,150.880003 130.024,150.352 C130.280001,149.823997 130.619998,149.380002 131.044,149.02 C131.468002,148.659998 131.959997,148.388001 132.52,148.204 C133.080003,148.019999 133.671997,147.928 134.296,147.928 C134.616002,147.928 134.923999,147.956 135.22,148.012 C135.516001,148.068 135.783999,148.136 136.024,148.216 L140.248,148.216 L140.248,150.256 L138.088,150.256 C138.280001,150.480001 138.439999,150.763998 138.568,151.108 C138.696001,151.452002 138.76,151.831998 138.76,152.248 C138.76,152.904003 138.644001,153.479998 138.412,153.976 C138.179999,154.472002 137.864002,154.887998 137.464,155.224 C137.063998,155.560002 136.592003,155.815999 136.048,155.992 C135.503997,156.168001 134.920003,156.256 134.296,156.256 C134.039999,156.256 133.776001,156.232 133.504,156.184 C133.231999,156.136 132.960001,156.056001 132.688,155.944 C132.511999,156.104001 132.372001,156.263999 132.268,156.424 C132.163999,156.584001 132.112,156.799999 132.112,157.072 C132.112,157.408002 132.251999,157.671999 132.532,157.864 C132.812001,158.056001 133.311996,158.152 134.032,158.152 L136.12,158.152 C137.544007,158.152 138.619996,158.379998 139.348,158.836 C140.076004,159.292002 140.44,160.031995 140.44,161.056 C140.44,161.632003 140.292001,162.175997 139.996,162.688 C139.699999,163.200003 139.280003,163.639998 138.736,164.008 C138.191997,164.376002 137.532004,164.667999 136.756,164.884 C135.979996,165.100001 135.112005,165.208 134.152,165.208 Z M134.296,154.528 C134.856003,154.528 135.335998,154.324 135.736,153.916 C136.136002,153.507998 136.336,152.920004 136.336,152.152 C136.336,151.415996 136.140002,150.844002 135.748,150.436 C135.355998,150.027998 134.872003,149.824 134.296,149.824 C133.719997,149.824 133.232,150.023998 132.832,150.424 C132.431998,150.824 132.232,151.399996 132.232,152.152 C132.232,152.920004 132.431998,153.507998 132.832,153.916 C133.232,154.324 133.719997,154.528 134.296,154.528 Z M134.584,163.408 C135.544005,163.408 136.315997,163.220002 136.9,162.844 C137.484003,162.467998 137.776,162.024003 137.776,161.512 C137.776,161.047998 137.596002,160.736001 137.236,160.576 C136.875998,160.415999 136.360003,160.336 135.688,160.336 L134.08,160.336 C133.439997,160.336 132.904002,160.280001 132.472,160.168 C131.863997,160.632002 131.56,161.151997 131.56,161.728 C131.56,162.256003 131.827997,162.668 132.364,162.964 C132.900003,163.260001 133.639995,163.408 134.584,163.408 Z M148.12,164.848 C147.799998,164.848 147.520001,164.828 147.28,164.788 C147.039999,164.748 146.808001,164.688 146.584,164.608 L147.088,162.448 C147.200001,162.48 147.331999,162.516 147.484,162.556 C147.636001,162.596 147.783999,162.616 147.928,162.616 C148.552003,162.616 149.051998,162.428002 149.428,162.052 C149.804002,161.675998 150.087999,161.192003 150.28,160.6 L150.496,159.856 L145.864,148.216 L148.672,148.216 L150.712,154 C150.888001,154.512003 151.059999,155.051997 151.228,155.62 C151.396001,156.188003 151.567999,156.751997 151.744,157.312 L151.84,157.312 C151.984001,156.767997 152.131999,156.212003 152.284,155.644 C152.436001,155.075997 152.583999,154.528003 152.728,154 L154.504,148.216 L157.168,148.216 L152.896,160.528 C152.655999,161.200003 152.392001,161.799997 152.104,162.328 C151.815999,162.856003 151.484002,163.307998 151.108,163.684 C150.731998,164.060002 150.300002,164.347999 149.812,164.548 C149.323998,164.748001 148.760003,164.848 148.12,164.848 Z M164.032,160.288 C163.295996,160.288 162.592003,160.152001 161.92,159.88 C161.247997,159.607999 160.652003,159.208003 160.132,158.68 C159.611997,158.151997 159.200002,157.504004 158.896,156.736 C158.591998,155.967996 158.44,155.096005 158.44,154.12 C158.44,153.143995 158.591998,152.272004 158.896,151.504 C159.200002,150.735996 159.611997,150.088003 160.132,149.56 C160.652003,149.031997 161.247997,148.628001 161.92,148.348 C162.592003,148.067999 163.295996,147.928 164.032,147.928 C164.768004,147.928 165.475997,148.067999 166.156,148.348 C166.836003,148.628001 167.431997,149.031997 167.944,149.56 C168.456003,150.088003 168.867998,150.735996 169.18,151.504 C169.492002,152.272004 169.648,153.143995 169.648,154.12 C169.648,155.096005 169.492002,155.967996 169.18,156.736 C168.867998,157.504004 168.456003,158.151997 167.944,158.68 C167.431997,159.208003 166.836003,159.607999 166.156,159.88 C165.475997,160.152001 164.768004,160.288 164.032,160.288 Z M164.032,158.032 C164.896004,158.032 165.575998,157.676004 166.072,156.964 C166.568002,156.251996 166.816,155.304006 166.816,154.12 C166.816,152.919994 166.568002,151.964004 166.072,151.252 C165.575998,150.539996 164.896004,150.184 164.032,150.184 C163.167996,150.184 162.492002,150.539996 162.004,151.252 C161.515998,151.964004 161.272,152.919994 161.272,154.12 C161.272,155.304006 161.515998,156.251996 162.004,156.964 C162.492002,157.676004 163.167996,158.032 164.032,158.032 Z M175.888,160.288 C174.623994,160.288 173.704003,159.884004 173.128,159.076 C172.551997,158.267996 172.264,157.112008 172.264,155.608 L172.264,148.216 L175.024,148.216 L175.024,155.248 C175.024,156.224005 175.167999,156.911998 175.456,157.312 C175.744001,157.712002 176.207997,157.912 176.848,157.912 C177.360003,157.912 177.811998,157.784001 178.204,157.528 C178.596002,157.271999 179.015998,156.856003 179.464,156.28 L179.464,148.216 L182.224,148.216 L182.224,160 L179.968,160 L179.752,158.272 L179.68,158.272 C179.167997,158.880003 178.612003,159.367998 178.012,159.736 C177.411997,160.104002 176.704004,160.288 175.888,160.288 Z M185.728,160 L185.728,148.216 L188.008,148.216 L188.2,150.304 L188.296,150.304 C188.712002,149.535996 189.215997,148.948002 189.808,148.54 C190.400003,148.131998 191.007997,147.928 191.632,147.928 C192.192003,147.928 192.639998,148.007999 192.976,148.168 L192.496,150.568 C192.287999,150.504 192.096001,150.456 191.92,150.424 C191.743999,150.392 191.528001,150.376 191.272,150.376 C190.807998,150.376 190.320003,150.555998 189.808,150.916 C189.295997,151.276002 188.856002,151.903996 188.488,152.8 L188.488,160 L185.728,160 Z M204.4,160.288 C203.599996,160.288 202.852003,160.152001 202.156,159.88 C201.459997,159.607999 200.856003,159.208003 200.344,158.68 C199.831997,158.151997 199.432001,157.504004 199.144,156.736 C198.855999,155.967996 198.712,155.096005 198.712,154.12 C198.712,153.143995 198.871998,152.272004 199.192,151.504 C199.512002,150.735996 199.943997,150.088003 200.488,149.56 C201.032003,149.031997 201.659996,148.628001 202.372,148.348 C203.084004,148.067999 203.831996,147.928 204.616,147.928 C205.384004,147.928 206.043997,148.055999 206.596,148.312 C207.148003,148.568001 207.639998,148.879998 208.072,149.248 L206.728,151.048 C206.407998,150.775999 206.092002,150.564001 205.78,150.412 C205.467998,150.259999 205.128002,150.184 204.76,150.184 C203.799995,150.184 203.024003,150.539996 202.432,151.252 C201.839997,151.964004 201.544,152.919994 201.544,154.12 C201.544,155.304006 201.835997,156.251996 202.42,156.964 C203.004003,157.676004 203.759995,158.032 204.688,158.032 C205.152002,158.032 205.587998,157.932001 205.996,157.732 C206.404002,157.531999 206.775998,157.296001 207.112,157.024 L208.24,158.848 C207.679997,159.328002 207.068003,159.687999 206.404,159.928 C205.739997,160.168001 205.072003,160.288 204.4,160.288 Z M215.392,160.288 C214.655996,160.288 213.952003,160.152001 213.28,159.88 C212.607997,159.607999 212.012003,159.208003 211.492,158.68 C210.971997,158.151997 210.560002,157.504004 210.256,156.736 C209.951998,155.967996 209.8,155.096005 209.8,154.12 C209.8,153.143995 209.951998,152.272004 210.256,151.504 C210.560002,150.735996 210.971997,150.088003 211.492,149.56 C212.012003,149.031997 212.607997,148.628001 213.28,148.348 C213.952003,148.067999 214.655996,147.928 215.392,147.928 C216.128004,147.928 216.835997,148.067999 217.516,148.348 C218.196003,148.628001 218.791997,149.031997 219.304,149.56 C219.816003,150.088003 220.227998,150.735996 220.54,151.504 C220.852002,152.272004 221.008,153.143995 221.008,154.12 C221.008,155.096005 220.852002,155.967996 220.54,156.736 C220.227998,157.504004 219.816003,158.151997 219.304,158.68 C218.791997,159.208003 218.196003,159.607999 217.516,159.88 C216.835997,160.152001 216.128004,160.288 215.392,160.288 Z M215.392,158.032 C216.256004,158.032 216.935998,157.676004 217.432,156.964 C217.928002,156.251996 218.176,155.304006 218.176,154.12 C218.176,152.919994 217.928002,151.964004 217.432,151.252 C216.935998,150.539996 216.256004,150.184 215.392,150.184 C214.527996,150.184 213.852002,150.539996 213.364,151.252 C212.875998,151.964004 212.632,152.919994 212.632,154.12 C212.632,155.304006 212.875998,156.251996 213.364,156.964 C213.852002,157.676004 214.527996,158.032 215.392,158.032 Z M223.744,160 L223.744,148.216 L226.024,148.216 L226.216,149.8 L226.312,149.8 C226.840003,149.287997 227.411997,148.848002 228.028,148.48 C228.644003,148.111998 229.359996,147.928 230.176,147.928 C231.440006,147.928 232.359997,148.331996 232.936,149.14 C233.512003,149.948004 233.8,151.103992 233.8,152.608 L233.8,160 L231.04,160 L231.04,152.968 C231.04,151.991995 230.896001,151.304002 230.608,150.904 C230.319999,150.503998 229.848003,150.304 229.192,150.304 C228.679997,150.304 228.228002,150.428 227.836,150.676 C227.443998,150.924001 227.000002,151.287998 226.504,151.768 L226.504,160 L223.744,160 Z M241.336,160.288 C240.647997,160.288 240.068002,160.184001 239.596,159.976 C239.123998,159.767999 238.740001,159.476002 238.444,159.1 C238.147999,158.723998 237.932001,158.276003 237.796,157.756 C237.659999,157.235997 237.592,156.656003 237.592,156.016 L237.592,150.4 L235.912,150.4 L235.912,148.336 L237.736,148.216 L238.072,145 L240.376,145 L240.376,148.216 L243.376,148.216 L243.376,150.4 L240.376,150.4 L240.376,156.016 C240.376,157.392007 240.927994,158.08 242.032,158.08 C242.240001,158.08 242.451999,158.056 242.668,158.008 C242.884001,157.96 243.079999,157.896 243.256,157.816 L243.736,159.856 C243.415998,159.968001 243.052002,160.068 242.644,160.156 C242.235998,160.244 241.800002,160.288 241.336,160.288 Z M248.704,160.288 C247.663995,160.288 246.824003,159.972003 246.184,159.34 C245.543997,158.707997 245.224,157.872005 245.224,156.832 C245.224,156.207997 245.355999,155.652002 245.62,155.164 C245.884001,154.675998 246.299997,154.256002 246.868,153.904 C247.436003,153.551998 248.155996,153.256001 249.028,153.016 C249.900004,152.775999 250.943994,152.592001 252.16,152.464 C252.144,152.159998 252.1,151.868001 252.028,151.588 C251.956,151.307999 251.836001,151.060001 251.668,150.844 C251.499999,150.627999 251.280001,150.460001 251.008,150.34 C250.735999,150.219999 250.400002,150.16 250,150.16 C249.423997,150.16 248.860003,150.271999 248.308,150.496 C247.755997,150.720001 247.216003,150.991998 246.688,151.312 L245.68,149.464 C246.336003,149.047998 247.071996,148.688002 247.888,148.384 C248.704004,148.079998 249.583995,147.928 250.528,147.928 C252.000007,147.928 253.099996,148.363996 253.828,149.236 C254.556004,150.108004 254.92,151.367992 254.92,153.016 L254.92,160 L252.64,160 L252.448,158.704 L252.352,158.704 C251.823997,159.152002 251.260003,159.527998 250.66,159.832 C250.059997,160.136002 249.408004,160.288 248.704,160.288 Z M249.592,158.128 C250.072002,158.128 250.507998,158.016001 250.9,157.792 C251.292002,157.567999 251.711998,157.248002 252.16,156.832 L252.16,154.192 C251.359996,154.288 250.688003,154.415999 250.144,154.576 C249.599997,154.736001 249.160002,154.915999 248.824,155.116 C248.487998,155.316001 248.248001,155.543999 248.104,155.8 C247.959999,156.056001 247.888,156.327999 247.888,156.616 C247.888,157.144003 248.047998,157.527999 248.368,157.768 C248.688002,158.008001 249.095998,158.128 249.592,158.128 Z M263.152,160.288 C262.351996,160.288 261.604003,160.152001 260.908,159.88 C260.211997,159.607999 259.608003,159.208003 259.096,158.68 C258.583997,158.151997 258.184001,157.504004 257.896,156.736 C257.607999,155.967996 257.464,155.096005 257.464,154.12 C257.464,153.143995 257.623998,152.272004 257.944,151.504 C258.264002,150.735996 258.695997,150.088003 259.24,149.56 C259.784003,149.031997 260.411996,148.628001 261.124,148.348 C261.836004,148.067999 262.583996,147.928 263.368,147.928 C264.136004,147.928 264.795997,148.055999 265.348,148.312 C265.900003,148.568001 266.391998,148.879998 266.824,149.248 L265.48,151.048 C265.159998,150.775999 264.844002,150.564001 264.532,150.412 C264.219998,150.259999 263.880002,150.184 263.512,150.184 C262.551995,150.184 261.776003,150.539996 261.184,151.252 C260.591997,151.964004 260.296,152.919994 260.296,154.12 C260.296,155.304006 260.587997,156.251996 261.172,156.964 C261.756003,157.676004 262.511995,158.032 263.44,158.032 C263.904002,158.032 264.339998,157.932001 264.748,157.732 C265.156002,157.531999 265.527998,157.296001 265.864,157.024 L266.992,158.848 C266.431997,159.328002 265.820003,159.687999 265.156,159.928 C264.491997,160.168001 263.824003,160.288 263.152,160.288 Z M273.472,160.288 C272.783997,160.288 272.204002,160.184001 271.732,159.976 C271.259998,159.767999 270.876001,159.476002 270.58,159.1 C270.283999,158.723998 270.068001,158.276003 269.932,157.756 C269.795999,157.235997 269.728,156.656003 269.728,156.016 L269.728,150.4 L268.048,150.4 L268.048,148.336 L269.872,148.216 L270.208,145 L272.512,145 L272.512,148.216 L275.512,148.216 L275.512,150.4 L272.512,150.4 L272.512,156.016 C272.512,157.392007 273.063994,158.08 274.168,158.08 C274.376001,158.08 274.587999,158.056 274.804,158.008 C275.020001,157.96 275.215999,157.896 275.392,157.816 L275.872,159.856 C275.551998,159.968001 275.188002,160.068 274.78,160.156 C274.371998,160.244 273.936002,160.288 273.472,160.288 Z M281.272,160.288 C280.455996,160.288 279.652004,160.132002 278.86,159.82 C278.067996,159.507998 277.384003,159.120002 276.808,158.656 L278.104,156.88 C278.632003,157.296002 279.155997,157.619999 279.676,157.852 C280.196003,158.084001 280.759997,158.2 281.368,158.2 C282.008003,158.2 282.479998,158.068001 282.784,157.804 C283.088002,157.539999 283.24,157.200002 283.24,156.784 C283.24,156.543999 283.168001,156.332001 283.024,156.148 C282.879999,155.963999 282.688001,155.800001 282.448,155.656 C282.207999,155.511999 281.936002,155.380001 281.632,155.26 C281.327998,155.139999 281.024002,155.016001 280.72,154.888 C280.335998,154.743999 279.944002,154.576001 279.544,154.384 C279.143998,154.191999 278.788002,153.960001 278.476,153.688 C278.163998,153.415999 277.908001,153.100002 277.708,152.74 C277.507999,152.379998 277.408,151.952002 277.408,151.456 C277.408,150.415995 277.791996,149.568003 278.56,148.912 C279.328004,148.255997 280.375993,147.928 281.704,147.928 C282.520004,147.928 283.255997,148.071999 283.912,148.36 C284.568003,148.648001 285.135998,148.975998 285.616,149.344 L284.344,151.024 C283.927998,150.719998 283.508002,150.476001 283.084,150.292 C282.659998,150.107999 282.216002,150.016 281.752,150.016 C281.159997,150.016 280.724001,150.139999 280.444,150.388 C280.163999,150.636001 280.024,150.943998 280.024,151.312 C280.024,151.552001 280.091999,151.755999 280.228,151.924 C280.364001,152.092001 280.543999,152.239999 280.768,152.368 C280.992001,152.496001 281.251999,152.615999 281.548,152.728 C281.844001,152.840001 282.151998,152.951999 282.472,153.064 C282.872002,153.208001 283.271998,153.371999 283.672,153.556 C284.072002,153.740001 284.435998,153.967999 284.764,154.24 C285.092002,154.512001 285.355999,154.843998 285.556,155.236 C285.756001,155.628002 285.856,156.095997 285.856,156.64 C285.856,157.152003 285.756001,157.627998 285.556,158.068 C285.355999,158.508002 285.064002,158.891998 284.68,159.22 C284.295998,159.548002 283.816003,159.807999 283.24,160 C282.663997,160.192001 282.008004,160.288 281.272,160.288 Z M43.552,191 L40.432,175.304 L43.288,175.304 L44.656,183.224 C44.7840006,184.072004 44.9119994,184.911996 45.04,185.744 L45.424,188.24 L45.52,188.24 C45.6960009,187.407996 45.8679992,186.572004 46.036,185.732 C46.2040008,184.891996 46.3759991,184.056004 46.552,183.224 L48.472,175.304 L50.896,175.304 L52.816,183.224 C52.9920009,184.040004 53.1679991,184.867996 53.344,185.708 C53.5200009,186.548004 53.6959991,187.391996 53.872,188.24 L53.968,188.24 C54.0960006,187.391996 54.2199994,186.552004 54.34,185.72 C54.4600006,184.887996 54.5839994,184.056004 54.712,183.224 L56.08,175.304 L58.744,175.304 L55.744,191 L52.288,191 L50.344,182.744 C50.2159994,182.135997 50.0920006,181.532003 49.972,180.932 C49.8519994,180.331997 49.7440005,179.728003 49.648,179.12 L49.552,179.12 C49.4399994,179.728003 49.3240006,180.331997 49.204,180.932 C49.0839994,181.532003 48.9600006,182.135997 48.832,182.744 L46.936,191 L43.552,191 Z M65.776,191.288 C65.0399963,191.288 64.3360034,191.152001 63.664,190.88 C62.9919966,190.607999 62.3960026,190.208003 61.876,189.68 C61.3559974,189.151997 60.9440015,188.504004 60.64,187.736 C60.3359985,186.967996 60.184,186.096005 60.184,185.12 C60.184,184.143995 60.3359985,183.272004 60.64,182.504 C60.9440015,181.735996 61.3559974,181.088003 61.876,180.56 C62.3960026,180.031997 62.9919966,179.628001 63.664,179.348 C64.3360034,179.067999 65.0399963,178.928 65.776,178.928 C66.5120037,178.928 67.2199966,179.067999 67.9,179.348 C68.5800034,179.628001 69.1759974,180.031997 69.688,180.56 C70.2000026,181.088003 70.6119984,181.735996 70.924,182.504 C71.2360016,183.272004 71.392,184.143995 71.392,185.12 C71.392,186.096005 71.2360016,186.967996 70.924,187.736 C70.6119984,188.504004 70.2000026,189.151997 69.688,189.68 C69.1759974,190.208003 68.5800034,190.607999 67.9,190.88 C67.2199966,191.152001 66.5120037,191.288 65.776,191.288 Z M65.776,189.032 C66.6400043,189.032 67.3199975,188.676004 67.816,187.964 C68.3120025,187.251996 68.56,186.304006 68.56,185.12 C68.56,183.919994 68.3120025,182.964004 67.816,182.252 C67.3199975,181.539996 66.6400043,181.184 65.776,181.184 C64.9119957,181.184 64.2360024,181.539996 63.748,182.252 C63.2599976,182.964004 63.016,183.919994 63.016,185.12 C63.016,186.304006 63.2599976,187.251996 63.748,187.964 C64.2360024,188.676004 64.9119957,189.032 65.776,189.032 Z M74.128,191 L74.128,179.216 L76.408,179.216 L76.6,181.304 L76.696,181.304 C77.1120021,180.535996 77.615997,179.948002 78.208,179.54 C78.800003,179.131998 79.4079969,178.928 80.032,178.928 C80.5920028,178.928 81.0399983,179.007999 81.376,179.168 L80.896,181.568 C80.687999,181.504 80.4960009,181.456 80.32,181.424 C80.1439991,181.392 79.9280013,181.376 79.672,181.376 C79.2079977,181.376 78.7200026,181.555998 78.208,181.916 C77.6959974,182.276002 77.2560018,182.903996 76.888,183.8 L76.888,191 L74.128,191 Z M83.08,191 L83.08,174.056 L85.792,174.056 L85.792,184.64 L85.864,184.64 L90.232,179.216 L93.256,179.216 L89.224,184.016 L93.664,191 L90.664,191 L87.64,185.888 L85.792,188 L85.792,191 L83.08,191 Z M95.608,191 L95.608,179.216 L98.368,179.216 L98.368,191 L95.608,191 Z M97,177.152 C96.5039975,177.152 96.0960016,177.008 95.776,176.72 C95.4559984,176.431999 95.296,176.056002 95.296,175.592 C95.296,175.127998 95.4559984,174.748001 95.776,174.452 C96.0960016,174.155999 96.5039975,174.008 97,174.008 C97.4960025,174.008 97.9039984,174.155999 98.224,174.452 C98.5440016,174.748001 98.704,175.127998 98.704,175.592 C98.704,176.056002 98.5440016,176.431999 98.224,176.72 C97.9039984,177.008 97.4960025,177.152 97,177.152 Z M101.896,191 L101.896,179.216 L104.176,179.216 L104.368,180.8 L104.464,180.8 C104.992003,180.287997 105.563997,179.848002 106.18,179.48 C106.796003,179.111998 107.511996,178.928 108.328,178.928 C109.592006,178.928 110.511997,179.331996 111.088,180.14 C111.664003,180.948004 111.952,182.103992 111.952,183.608 L111.952,191 L109.192,191 L109.192,183.968 C109.192,182.991995 109.048001,182.304002 108.76,181.904 C108.471999,181.503998 108.000003,181.304 107.344,181.304 C106.831997,181.304 106.380002,181.428 105.988,181.676 C105.595998,181.924001 105.152002,182.287998 104.656,182.768 L104.656,191 L101.896,191 Z M119.44,196.208 C118.735996,196.208 118.084003,196.144001 117.484,196.016 C116.883997,195.887999 116.368002,195.696001 115.936,195.44 C115.503998,195.183999 115.164001,194.864002 114.916,194.48 C114.667999,194.095998 114.544,193.648003 114.544,193.136 C114.544,192.639998 114.687999,192.180002 114.976,191.756 C115.264001,191.331998 115.679997,190.952002 116.224,190.616 L116.224,190.52 C115.919998,190.327999 115.668001,190.072002 115.468,189.752 C115.267999,189.431998 115.168,189.032002 115.168,188.552 C115.168,188.087998 115.299999,187.668002 115.564,187.292 C115.828001,186.915998 116.127998,186.608001 116.464,186.368 L116.464,186.272 C116.063998,185.967998 115.708002,185.548003 115.396,185.012 C115.083998,184.475997 114.928,183.856004 114.928,183.152 C114.928,182.479997 115.055999,181.880003 115.312,181.352 C115.568001,180.823997 115.907998,180.380002 116.332,180.02 C116.756002,179.659998 117.247997,179.388001 117.808,179.204 C118.368003,179.019999 118.959997,178.928 119.584,178.928 C119.904002,178.928 120.211999,178.956 120.508,179.012 C120.804001,179.068 121.071999,179.136 121.312,179.216 L125.536,179.216 L125.536,181.256 L123.376,181.256 C123.568001,181.480001 123.727999,181.763998 123.856,182.108 C123.984001,182.452002 124.048,182.831998 124.048,183.248 C124.048,183.904003 123.932001,184.479998 123.7,184.976 C123.467999,185.472002 123.152002,185.887998 122.752,186.224 C122.351998,186.560002 121.880003,186.815999 121.336,186.992 C120.791997,187.168001 120.208003,187.256 119.584,187.256 C119.327999,187.256 119.064001,187.232 118.792,187.184 C118.519999,187.136 118.248001,187.056001 117.976,186.944 C117.799999,187.104001 117.660001,187.263999 117.556,187.424 C117.451999,187.584001 117.4,187.799999 117.4,188.072 C117.4,188.408002 117.539999,188.671999 117.82,188.864 C118.100001,189.056001 118.599996,189.152 119.32,189.152 L121.408,189.152 C122.832007,189.152 123.907996,189.379998 124.636,189.836 C125.364004,190.292002 125.728,191.031995 125.728,192.056 C125.728,192.632003 125.580001,193.175997 125.284,193.688 C124.987999,194.200003 124.568003,194.639998 124.024,195.008 C123.479997,195.376002 122.820004,195.667999 122.044,195.884 C121.267996,196.100001 120.400005,196.208 119.44,196.208 Z M119.584,185.528 C120.144003,185.528 120.623998,185.324 121.024,184.916 C121.424002,184.507998 121.624,183.920004 121.624,183.152 C121.624,182.415996 121.428002,181.844002 121.036,181.436 C120.643998,181.027998 120.160003,180.824 119.584,180.824 C119.007997,180.824 118.52,181.023998 118.12,181.424 C117.719998,181.824 117.52,182.399996 117.52,183.152 C117.52,183.920004 117.719998,184.507998 118.12,184.916 C118.52,185.324 119.007997,185.528 119.584,185.528 Z M119.872,194.408 C120.832005,194.408 121.603997,194.220002 122.188,193.844 C122.772003,193.467998 123.064,193.024003 123.064,192.512 C123.064,192.047998 122.884002,191.736001 122.524,191.576 C122.163998,191.415999 121.648003,191.336 120.976,191.336 L119.368,191.336 C118.727997,191.336 118.192002,191.280001 117.76,191.168 C117.151997,191.632002 116.848,192.151997 116.848,192.728 C116.848,193.256003 117.115997,193.668 117.652,193.964 C118.188003,194.260001 118.927995,194.408 119.872,194.408 Z M133.408,195.848 C133.087998,195.848 132.808001,195.828 132.568,195.788 C132.327999,195.748 132.096001,195.688 131.872,195.608 L132.376,193.448 C132.488001,193.48 132.619999,193.516 132.772,193.556 C132.924001,193.596 133.071999,193.616 133.216,193.616 C133.840003,193.616 134.339998,193.428002 134.716,193.052 C135.092002,192.675998 135.375999,192.192003 135.568,191.6 L135.784,190.856 L131.152,179.216 L133.96,179.216 L136,185 C136.176001,185.512003 136.347999,186.051997 136.516,186.62 C136.684001,187.188003 136.855999,187.751997 137.032,188.312 L137.128,188.312 C137.272001,187.767997 137.419999,187.212003 137.572,186.644 C137.724001,186.075997 137.871999,185.528003 138.016,185 L139.792,179.216 L142.456,179.216 L138.184,191.528 C137.943999,192.200003 137.680001,192.799997 137.392,193.328 C137.103999,193.856003 136.772002,194.307998 136.396,194.684 C136.019998,195.060002 135.588002,195.347999 135.1,195.548 C134.611998,195.748001 134.048003,195.848 133.408,195.848 Z M149.32,191.288 C148.583996,191.288 147.880003,191.152001 147.208,190.88 C146.535997,190.607999 145.940003,190.208003 145.42,189.68 C144.899997,189.151997 144.488002,188.504004 144.184,187.736 C143.879998,186.967996 143.728,186.096005 143.728,185.12 C143.728,184.143995 143.879998,183.272004 144.184,182.504 C144.488002,181.735996 144.899997,181.088003 145.42,180.56 C145.940003,180.031997 146.535997,179.628001 147.208,179.348 C147.880003,179.067999 148.583996,178.928 149.32,178.928 C150.056004,178.928 150.763997,179.067999 151.444,179.348 C152.124003,179.628001 152.719997,180.031997 153.232,180.56 C153.744003,181.088003 154.155998,181.735996 154.468,182.504 C154.780002,183.272004 154.936,184.143995 154.936,185.12 C154.936,186.096005 154.780002,186.967996 154.468,187.736 C154.155998,188.504004 153.744003,189.151997 153.232,189.68 C152.719997,190.208003 152.124003,190.607999 151.444,190.88 C150.763997,191.152001 150.056004,191.288 149.32,191.288 Z M149.32,189.032 C150.184004,189.032 150.863998,188.676004 151.36,187.964 C151.856002,187.251996 152.104,186.304006 152.104,185.12 C152.104,183.919994 151.856002,182.964004 151.36,182.252 C150.863998,181.539996 150.184004,181.184 149.32,181.184 C148.455996,181.184 147.780002,181.539996 147.292,182.252 C146.803998,182.964004 146.56,183.919994 146.56,185.12 C146.56,186.304006 146.803998,187.251996 147.292,187.964 C147.780002,188.676004 148.455996,189.032 149.32,189.032 Z M161.176,191.288 C159.911994,191.288 158.992003,190.884004 158.416,190.076 C157.839997,189.267996 157.552,188.112008 157.552,186.608 L157.552,179.216 L160.312,179.216 L160.312,186.248 C160.312,187.224005 160.455999,187.911998 160.744,188.312 C161.032001,188.712002 161.495997,188.912 162.136,188.912 C162.648003,188.912 163.099998,188.784001 163.492,188.528 C163.884002,188.271999 164.303998,187.856003 164.752,187.28 L164.752,179.216 L167.512,179.216 L167.512,191 L165.256,191 L165.04,189.272 L164.968,189.272 C164.455997,189.880003 163.900003,190.367998 163.3,190.736 C162.699997,191.104002 161.992004,191.288 161.176,191.288 Z M171.016,191 L171.016,179.216 L173.296,179.216 L173.488,181.304 L173.584,181.304 C174.000002,180.535996 174.503997,179.948002 175.096,179.54 C175.688003,179.131998 176.295997,178.928 176.92,178.928 C177.480003,178.928 177.927998,179.007999 178.264,179.168 L177.784,181.568 C177.575999,181.504 177.384001,181.456 177.208,181.424 C177.031999,181.392 176.816001,181.376 176.56,181.376 C176.095998,181.376 175.608003,181.555998 175.096,181.916 C174.583997,182.276002 174.144002,182.903996 173.776,183.8 L173.776,191 L171.016,191 Z M189.592,191.288 C188.855996,191.288 188.152003,191.152001 187.48,190.88 C186.807997,190.607999 186.212003,190.208003 185.692,189.68 C185.171997,189.151997 184.760002,188.504004 184.456,187.736 C184.151998,186.967996 184,186.096005 184,185.12 C184,184.143995 184.151998,183.272004 184.456,182.504 C184.760002,181.735996 185.171997,181.088003 185.692,180.56 C186.212003,180.031997 186.807997,179.628001 187.48,179.348 C188.152003,179.067999 188.855996,178.928 189.592,178.928 C190.328004,178.928 191.035997,179.067999 191.716,179.348 C192.396003,179.628001 192.991997,180.031997 193.504,180.56 C194.016003,181.088003 194.427998,181.735996 194.74,182.504 C195.052002,183.272004 195.208,184.143995 195.208,185.12 C195.208,186.096005 195.052002,186.967996 194.74,187.736 C194.427998,188.504004 194.016003,189.151997 193.504,189.68 C192.991997,190.208003 192.396003,190.607999 191.716,190.88 C191.035997,191.152001 190.328004,191.288 189.592,191.288 Z M189.592,189.032 C190.456004,189.032 191.135998,188.676004 191.632,187.964 C192.128002,187.251996 192.376,186.304006 192.376,185.12 C192.376,183.919994 192.128002,182.964004 191.632,182.252 C191.135998,181.539996 190.456004,181.184 189.592,181.184 C188.727996,181.184 188.052002,181.539996 187.564,182.252 C187.075998,182.964004 186.832,183.919994 186.832,185.12 C186.832,186.304006 187.075998,187.251996 187.564,187.964 C188.052002,188.676004 188.727996,189.032 189.592,189.032 Z M197.944,191 L197.944,179.216 L200.224,179.216 L200.416,180.8 L200.512,180.8 C201.040003,180.287997 201.611997,179.848002 202.228,179.48 C202.844003,179.111998 203.559996,178.928 204.376,178.928 C205.640006,178.928 206.559997,179.331996 207.136,180.14 C207.712003,180.948004 208,182.103992 208,183.608 L208,191 L205.24,191 L205.24,183.968 C205.24,182.991995 205.096001,182.304002 204.808,181.904 C204.519999,181.503998 204.048003,181.304 203.392,181.304 C202.879997,181.304 202.428002,181.428 202.036,181.676 C201.643998,181.924001 201.200002,182.287998 200.704,182.768 L200.704,191 L197.944,191 Z M214.072,191.288 C213.079995,191.288 212.384,190.992003 211.984,190.4 C211.583998,189.807997 211.384,189.000005 211.384,187.976 L211.384,174.056 L214.144,174.056 L214.144,188.12 C214.144,188.456002 214.207999,188.691999 214.336,188.828 C214.464001,188.964001 214.599999,189.032 214.744,189.032 L214.924,189.032 C214.98,189.032 215.063999,189.016 215.176,188.984 L215.536,191.048 C215.167998,191.208001 214.680003,191.288 214.072,191.288 Z M217.888,191 L217.888,179.216 L220.648,179.216 L220.648,191 L217.888,191 Z M219.28,177.152 C218.783998,177.152 218.376002,177.008 218.056,176.72 C217.735998,176.431999 217.576,176.056002 217.576,175.592 C217.576,175.127998 217.735998,174.748001 218.056,174.452 C218.376002,174.155999 218.783998,174.008 219.28,174.008 C219.776002,174.008 220.183998,174.155999 220.504,174.452 C220.824002,174.748001 220.984,175.127998 220.984,175.592 C220.984,176.056002 220.824002,176.431999 220.504,176.72 C220.183998,177.008 219.776002,177.152 219.28,177.152 Z M224.176,191 L224.176,179.216 L226.456,179.216 L226.648,180.8 L226.744,180.8 C227.272003,180.287997 227.843997,179.848002 228.46,179.48 C229.076003,179.111998 229.791996,178.928 230.608,178.928 C231.872006,178.928 232.791997,179.331996 233.368,180.14 C233.944003,180.948004 234.232,182.103992 234.232,183.608 L234.232,191 L231.472,191 L231.472,183.968 C231.472,182.991995 231.328001,182.304002 231.04,181.904 C230.751999,181.503998 230.280003,181.304 229.624,181.304 C229.111997,181.304 228.660002,181.428 228.268,181.676 C227.875998,181.924001 227.432002,182.287998 226.936,182.768 L226.936,191 L224.176,191 Z M242.656,191.288 C241.839996,191.288 241.080004,191.148001 240.376,190.868 C239.671996,190.587999 239.056003,190.184003 238.528,189.656 C237.999997,189.127997 237.588001,188.484004 237.292,187.724 C236.995999,186.963996 236.848,186.096005 236.848,185.12 C236.848,184.159995 236.999998,183.296004 237.304,182.528 C237.608002,181.759996 238.011997,181.112003 238.516,180.584 C239.020003,180.055997 239.599997,179.648001 240.256,179.36 C240.912003,179.071999 241.583997,178.928 242.272,178.928 C243.072004,178.928 243.775997,179.063999 244.384,179.336 C244.992003,179.608001 245.499998,179.991998 245.908,180.488 C246.316002,180.984002 246.623999,181.575997 246.832,182.264 C247.040001,182.952003 247.144,183.703996 247.144,184.52 C247.144,184.792001 247.132,185.047999 247.108,185.288 C247.084,185.528001 247.056,185.719999 247.024,185.864 L239.536,185.864 C239.664001,186.920005 240.035997,187.731997 240.652,188.3 C241.268003,188.868003 242.055995,189.152 243.016,189.152 C243.528003,189.152 244.003998,189.076001 244.444,188.924 C244.884002,188.771999 245.319998,188.560001 245.752,188.288 L246.688,190.016 C246.127997,190.384002 245.504003,190.687999 244.816,190.928 C244.127997,191.168001 243.408004,191.288 242.656,191.288 Z M239.512,183.992 L244.744,183.992 C244.744,183.079995 244.548002,182.364003 244.156,181.844 C243.763998,181.323997 243.160004,181.064 242.344,181.064 C241.639996,181.064 241.024003,181.311998 240.496,181.808 C239.967997,182.304002 239.640001,183.031995 239.512,183.992 Z M257.272,191.288 C256.279995,191.288 255.584,190.992003 255.184,190.4 C254.783998,189.807997 254.584,189.000005 254.584,187.976 L254.584,174.056 L257.344,174.056 L257.344,188.12 C257.344,188.456002 257.407999,188.691999 257.536,188.828 C257.664001,188.964001 257.799999,189.032 257.944,189.032 L258.124,189.032 C258.18,189.032 258.263999,189.016 258.376,188.984 L258.736,191.048 C258.367998,191.208001 257.880003,191.288 257.272,191.288 Z M266.128,191.288 C265.311996,191.288 264.552004,191.148001 263.848,190.868 C263.143996,190.587999 262.528003,190.184003 262,189.656 C261.471997,189.127997 261.060001,188.484004 260.764,187.724 C260.467999,186.963996 260.32,186.096005 260.32,185.12 C260.32,184.159995 260.471998,183.296004 260.776,182.528 C261.080002,181.759996 261.483997,181.112003 261.988,180.584 C262.492003,180.055997 263.071997,179.648001 263.728,179.36 C264.384003,179.071999 265.055997,178.928 265.744,178.928 C266.544004,178.928 267.247997,179.063999 267.856,179.336 C268.464003,179.608001 268.971998,179.991998 269.38,180.488 C269.788002,180.984002 270.095999,181.575997 270.304,182.264 C270.512001,182.952003 270.616,183.703996 270.616,184.52 C270.616,184.792001 270.604,185.047999 270.58,185.288 C270.556,185.528001 270.528,185.719999 270.496,185.864 L263.008,185.864 C263.136001,186.920005 263.507997,187.731997 264.124,188.3 C264.740003,188.868003 265.527995,189.152 266.488,189.152 C267.000003,189.152 267.475998,189.076001 267.916,188.924 C268.356002,188.771999 268.791998,188.560001 269.224,188.288 L270.16,190.016 C269.599997,190.384002 268.976003,190.687999 268.288,190.928 C267.599997,191.168001 266.880004,191.288 266.128,191.288 Z M262.984,183.992 L268.216,183.992 C268.216,183.079995 268.020002,182.364003 267.628,181.844 C267.235998,181.323997 266.632004,181.064 265.816,181.064 C265.111996,181.064 264.496003,181.311998 263.968,181.808 C263.439997,182.304002 263.112001,183.031995 262.984,183.992 Z M276.112,191.288 C275.071995,191.288 274.232003,190.972003 273.592,190.34 C272.951997,189.707997 272.632,188.872005 272.632,187.832 C272.632,187.207997 272.763999,186.652002 273.028,186.164 C273.292001,185.675998 273.707997,185.256002 274.276,184.904 C274.844003,184.551998 275.563996,184.256001 276.436,184.016 C277.308004,183.775999 278.351994,183.592001 279.568,183.464 C279.552,183.159998 279.508,182.868001 279.436,182.588 C279.364,182.307999 279.244001,182.060001 279.076,181.844 C278.907999,181.627999 278.688001,181.460001 278.416,181.34 C278.143999,181.219999 277.808002,181.16 277.408,181.16 C276.831997,181.16 276.268003,181.271999 275.716,181.496 C275.163997,181.720001 274.624003,181.991998 274.096,182.312 L273.088,180.464 C273.744003,180.047998 274.479996,179.688002 275.296,179.384 C276.112004,179.079998 276.991995,178.928 277.936,178.928 C279.408007,178.928 280.507996,179.363996 281.236,180.236 C281.964004,181.108004 282.328,182.367992 282.328,184.016 L282.328,191 L280.048,191 L279.856,189.704 L279.76,189.704 C279.231997,190.152002 278.668003,190.527998 278.068,190.832 C277.467997,191.136002 276.816004,191.288 276.112,191.288 Z M277,189.128 C277.480002,189.128 277.915998,189.016001 278.308,188.792 C278.700002,188.567999 279.119998,188.248002 279.568,187.832 L279.568,185.192 C278.767996,185.288 278.096003,185.415999 277.552,185.576 C277.007997,185.736001 276.568002,185.915999 276.232,186.116 C275.895998,186.316001 275.656001,186.543999 275.512,186.8 C275.367999,187.056001 275.296,187.327999 275.296,187.616 C275.296,188.144003 275.455998,188.527999 275.776,188.768 C276.096002,189.008001 276.503998,189.128 277,189.128 Z M289.768,191.288 C288.279993,191.288 287.100004,190.748005 286.228,189.668 C285.355996,188.587995 284.92,187.07201 284.92,185.12 C284.92,184.159995 285.059999,183.296004 285.34,182.528 C285.620001,181.759996 285.991998,181.112003 286.456,180.584 C286.92,180.056 287.451997,179.648001 288.052,179.36 C288.652003,179.071999 289.271997,178.928 289.912,178.928 C290.584003,178.928 291.151998,179.043999 291.616,179.276 C292.080002,179.508001 292.543998,179.823998 293.008,180.224 L292.912,178.328 L292.912,174.056 L295.672,174.056 L295.672,191 L293.392,191 L293.2,189.728 L293.104,189.728 C292.671998,190.160002 292.168003,190.527998 291.592,190.832 C291.015997,191.136002 290.408003,191.288 289.768,191.288 Z M290.44,189.008 C291.320004,189.008 292.143996,188.568004 292.912,187.688 L292.912,182.192 C292.495998,181.823998 292.092002,181.568001 291.7,181.424 C291.307998,181.279999 290.912002,181.208 290.512,181.208 C289.743996,181.208 289.096003,181.543997 288.568,182.216 C288.039997,182.888003 287.776,183.847994 287.776,185.096 C287.776,186.376006 288.003998,187.347997 288.46,188.012 C288.916002,188.676003 289.575996,189.008 290.44,189.008 Z M302.464,191.288 C301.647996,191.288 300.844004,191.132002 300.052,190.82 C299.259996,190.507998 298.576003,190.120002 298,189.656 L299.296,187.88 C299.824003,188.296002 300.347997,188.619999 300.868,188.852 C301.388003,189.084001 301.951997,189.2 302.56,189.2 C303.200003,189.2 303.671998,189.068001 303.976,188.804 C304.280002,188.539999 304.432,188.200002 304.432,187.784 C304.432,187.543999 304.360001,187.332001 304.216,187.148 C304.071999,186.963999 303.880001,186.800001 303.64,186.656 C303.399999,186.511999 303.128002,186.380001 302.824,186.26 C302.519998,186.139999 302.216002,186.016001 301.912,185.888 C301.527998,185.743999 301.136002,185.576001 300.736,185.384 C300.335998,185.191999 299.980002,184.960001 299.668,184.688 C299.355998,184.415999 299.100001,184.100002 298.9,183.74 C298.699999,183.379998 298.6,182.952002 298.6,182.456 C298.6,181.415995 298.983996,180.568003 299.752,179.912 C300.520004,179.255997 301.567993,178.928 302.896,178.928 C303.712004,178.928 304.447997,179.071999 305.104,179.36 C305.760003,179.648001 306.327998,179.975998 306.808,180.344 L305.536,182.024 C305.119998,181.719998 304.700002,181.476001 304.276,181.292 C303.851998,181.107999 303.408002,181.016 302.944,181.016 C302.351997,181.016 301.916001,181.139999 301.636,181.388 C301.355999,181.636001 301.216,181.943998 301.216,182.312 C301.216,182.552001 301.283999,182.755999 301.42,182.924 C301.556001,183.092001 301.735999,183.239999 301.96,183.368 C302.184001,183.496001 302.443999,183.615999 302.74,183.728 C303.036001,183.840001 303.343998,183.951999 303.664,184.064 C304.064002,184.208001 304.463998,184.371999 304.864,184.556 C305.264002,184.740001 305.627998,184.967999 305.956,185.24 C306.284002,185.512001 306.547999,185.843998 306.748,186.236 C306.948001,186.628002 307.048,187.095997 307.048,187.64 C307.048,188.152003 306.948001,188.627998 306.748,189.068 C306.547999,189.508002 306.256002,189.891998 305.872,190.22 C305.487998,190.548002 305.008003,190.807999 304.432,191 C303.855997,191.192001 303.200004,191.288 302.464,191.288 Z" id="SettingupyouraccountManagingyourcontactsWorkingyouronlineleads" fill="#FFFFFF" fill-rule="nonzero" mask="url(#mask-2)"></path>
            </g>
        </g>
    </g>
</svg>