<?xml version="1.0" encoding="UTF-8"?>
<svg width="373px" height="302px" viewBox="0 0 373 302" version="1.1" xmlns="http://www.w3.org/2000/svg" xmlns:xlink="http://www.w3.org/1999/xlink">
    <!-- Generator: Sketch 55.1 (78136) - https://sketchapp.com -->
    <title>featureFocusedHeadings</title>
    <desc>Created with Sketch.</desc>
    <defs>
        <rect id="path-1" x="0" y="0" width="373" height="302"></rect>
    </defs>
    <g id="KB-Case-Study" stroke="none" stroke-width="1" fill="none" fill-rule="evenodd">
        <g id="1024-Desktop" transform="translate(-119.000000, -3454.000000)">
            <g id="featureFocusedHeadings" transform="translate(119.000000, 3454.000000)">
                <mask id="mask-2" fill="white">
                    <use xlink:href="#path-1"></use>
                </mask>
                <use id="Mask" fill="#E1EBFC" xlink:href="#path-1"></use>
                <path d="M36.992,129 L36.992,113.304 L40.136,113.304 L42.92,120.984 C43.0960009,121.480002 43.2639992,121.987997 43.424,122.508 C43.5840008,123.028003 43.7519991,123.543997 43.928,124.056 L44.024,124.056 C44.2000009,123.543997 44.3639992,123.028003 44.516,122.508 C44.6680008,121.987997 44.8319991,121.480002 45.008,120.984 L47.72,113.304 L50.888,113.304 L50.888,129 L48.32,129 L48.32,121.824 C48.32,121.455998 48.3319999,121.056002 48.356,120.624 C48.3800001,120.191998 48.4079998,119.756002 48.44,119.316 C48.4720002,118.875998 48.5119998,118.444002 48.56,118.02 C48.6080002,117.595998 48.6479998,117.200002 48.68,116.832 L48.584,116.832 L47.312,120.48 L44.744,127.536 L43.088,127.536 L40.496,120.48 L39.248,116.832 L39.152,116.832 C39.1840002,117.200002 39.2199998,117.595998 39.26,118.02 C39.3000002,118.444002 39.3399998,118.875998 39.38,119.316 C39.4200002,119.756002 39.4519999,120.191998 39.476,120.624 C39.5000001,121.056002 39.512,121.455998 39.512,121.824 L39.512,129 L36.992,129 Z M55.424,133.848 C55.1039984,133.848 54.8240012,133.828 54.584,133.788 C54.3439988,133.748 54.1120011,133.688 53.888,133.608 L54.392,131.448 C54.5040006,131.48 54.6359992,131.516 54.788,131.556 C54.9400008,131.596 55.0879993,131.616 55.232,131.616 C55.8560031,131.616 56.3559981,131.428002 56.732,131.052 C57.1080019,130.675998 57.391999,130.192003 57.584,129.6 L57.8,128.856 L53.168,117.216 L55.976,117.216 L58.016,123 C58.1920009,123.512003 58.3639992,124.051997 58.532,124.62 C58.7000008,125.188003 58.8719991,125.751997 59.048,126.312 L59.144,126.312 C59.2880007,125.767997 59.4359992,125.212003 59.588,124.644 C59.7400008,124.075997 59.8879993,123.528003 60.032,123 L61.808,117.216 L64.472,117.216 L60.2,129.528 C59.9599988,130.200003 59.6960014,130.799997 59.408,131.328 C59.1199986,131.856003 58.7880019,132.307998 58.412,132.684 C58.0359981,133.060002 57.6040024,133.347999 57.116,133.548 C56.6279976,133.748001 56.0640032,133.848 55.424,133.848 Z M74.768,120.648 L74.216,122.568 L78.224,122.568 L77.672,120.648 C77.4159987,119.815996 77.1720012,118.960004 76.94,118.08 C76.7079988,117.199996 76.4800011,116.328004 76.256,115.464 L76.16,115.464 C75.9359989,116.344004 75.7120011,117.219996 75.488,118.092 C75.2639989,118.964 75.0240013,119.815996 74.768,120.648 Z M69.512,129 L74.624,113.304 L77.888,113.304 L83,129 L80.072,129 L78.848,124.752 L73.568,124.752 L72.344,129 L69.512,129 Z M89.624,129.288 C88.823996,129.288 88.0760035,129.152001 87.38,128.88 C86.6839965,128.607999 86.0800026,128.208003 85.568,127.68 C85.0559974,127.151997 84.6560014,126.504004 84.368,125.736 C84.0799986,124.967996 83.936,124.096005 83.936,123.12 C83.936,122.143995 84.0959984,121.272004 84.416,120.504 C84.7360016,119.735996 85.1679973,119.088003 85.712,118.56 C86.2560027,118.031997 86.8839964,117.628001 87.596,117.348 C88.3080036,117.067999 89.0559961,116.928 89.84,116.928 C90.6080038,116.928 91.2679972,117.055999 91.82,117.312 C92.3720028,117.568001 92.8639978,117.879998 93.296,118.248 L91.952,120.048 C91.6319984,119.775999 91.3160016,119.564001 91.004,119.412 C90.6919984,119.259999 90.3520018,119.184 89.984,119.184 C89.0239952,119.184 88.248003,119.539996 87.656,120.252 C87.063997,120.964004 86.768,121.919994 86.768,123.12 C86.768,124.304006 87.0599971,125.251996 87.644,125.964 C88.2280029,126.676004 88.9839954,127.032 89.912,127.032 C90.3760023,127.032 90.811998,126.932001 91.22,126.732 C91.628002,126.531999 91.9999983,126.296001 92.336,126.024 L93.464,127.848 C92.9039972,128.328002 92.2920033,128.687999 91.628,128.928 C90.9639967,129.168001 90.2960034,129.288 89.624,129.288 Z M100.712,129.288 C99.911996,129.288 99.1640035,129.152001 98.468,128.88 C97.7719965,128.607999 97.1680026,128.208003 96.656,127.68 C96.1439974,127.151997 95.7440014,126.504004 95.456,125.736 C95.1679986,124.967996 95.024,124.096005 95.024,123.12 C95.024,122.143995 95.1839984,121.272004 95.504,120.504 C95.8240016,119.735996 96.2559973,119.088003 96.8,118.56 C97.3440027,118.031997 97.9719964,117.628001 98.684,117.348 C99.3960036,117.067999 100.143996,116.928 100.928,116.928 C101.696004,116.928 102.355997,117.055999 102.908,117.312 C103.460003,117.568001 103.951998,117.879998 104.384,118.248 L103.04,120.048 C102.719998,119.775999 102.404002,119.564001 102.092,119.412 C101.779998,119.259999 101.440002,119.184 101.072,119.184 C100.111995,119.184 99.336003,119.539996 98.744,120.252 C98.151997,120.964004 97.856,121.919994 97.856,123.12 C97.856,124.304006 98.1479971,125.251996 98.732,125.964 C99.3160029,126.676004 100.071995,127.032 101,127.032 C101.464002,127.032 101.899998,126.932001 102.308,126.732 C102.716002,126.531999 103.087998,126.296001 103.424,126.024 L104.552,127.848 C103.991997,128.328002 103.380003,128.687999 102.716,128.928 C102.051997,129.168001 101.384003,129.288 100.712,129.288 Z M111.704,129.288 C110.967996,129.288 110.264003,129.152001 109.592,128.88 C108.919997,128.607999 108.324003,128.208003 107.804,127.68 C107.283997,127.151997 106.872002,126.504004 106.568,125.736 C106.263998,124.967996 106.112,124.096005 106.112,123.12 C106.112,122.143995 106.263998,121.272004 106.568,120.504 C106.872002,119.735996 107.283997,119.088003 107.804,118.56 C108.324003,118.031997 108.919997,117.628001 109.592,117.348 C110.264003,117.067999 110.967996,116.928 111.704,116.928 C112.440004,116.928 113.147997,117.067999 113.828,117.348 C114.508003,117.628001 115.103997,118.031997 115.616,118.56 C116.128003,119.088003 116.539998,119.735996 116.852,120.504 C117.164002,121.272004 117.32,122.143995 117.32,123.12 C117.32,124.096005 117.164002,124.967996 116.852,125.736 C116.539998,126.504004 116.128003,127.151997 115.616,127.68 C115.103997,128.208003 114.508003,128.607999 113.828,128.88 C113.147997,129.152001 112.440004,129.288 111.704,129.288 Z M111.704,127.032 C112.568004,127.032 113.247998,126.676004 113.744,125.964 C114.240002,125.251996 114.488,124.304006 114.488,123.12 C114.488,121.919994 114.240002,120.964004 113.744,120.252 C113.247998,119.539996 112.568004,119.184 111.704,119.184 C110.839996,119.184 110.164002,119.539996 109.676,120.252 C109.187998,120.964004 108.944,121.919994 108.944,123.12 C108.944,124.304006 109.187998,125.251996 109.676,125.964 C110.164002,126.676004 110.839996,127.032 111.704,127.032 Z M123.56,129.288 C122.295994,129.288 121.376003,128.884004 120.8,128.076 C120.223997,127.267996 119.936,126.112008 119.936,124.608 L119.936,117.216 L122.696,117.216 L122.696,124.248 C122.696,125.224005 122.839999,125.911998 123.128,126.312 C123.416001,126.712002 123.879997,126.912 124.52,126.912 C125.032003,126.912 125.483998,126.784001 125.876,126.528 C126.268002,126.271999 126.687998,125.856003 127.136,125.28 L127.136,117.216 L129.896,117.216 L129.896,129 L127.64,129 L127.424,127.272 L127.352,127.272 C126.839997,127.880003 126.284003,128.367998 125.684,128.736 C125.083997,129.104002 124.376004,129.288 123.56,129.288 Z M133.4,129 L133.4,117.216 L135.68,117.216 L135.872,118.8 L135.968,118.8 C136.496003,118.287997 137.067997,117.848002 137.684,117.48 C138.300003,117.111998 139.015996,116.928 139.832,116.928 C141.096006,116.928 142.015997,117.331996 142.592,118.14 C143.168003,118.948004 143.456,120.103992 143.456,121.608 L143.456,129 L140.696,129 L140.696,121.968 C140.696,120.991995 140.552001,120.304002 140.264,119.904 C139.975999,119.503998 139.504003,119.304 138.848,119.304 C138.335997,119.304 137.884002,119.428 137.492,119.676 C137.099998,119.924001 136.656002,120.287998 136.16,120.768 L136.16,129 L133.4,129 Z M150.992,129.288 C150.303997,129.288 149.724002,129.184001 149.252,128.976 C148.779998,128.767999 148.396001,128.476002 148.1,128.1 C147.803999,127.723998 147.588001,127.276003 147.452,126.756 C147.315999,126.235997 147.248,125.656003 147.248,125.016 L147.248,119.4 L145.568,119.4 L145.568,117.336 L147.392,117.216 L147.728,114 L150.032,114 L150.032,117.216 L153.032,117.216 L153.032,119.4 L150.032,119.4 L150.032,125.016 C150.032,126.392007 150.583994,127.08 151.688,127.08 C151.896001,127.08 152.107999,127.056 152.324,127.008 C152.540001,126.96 152.735999,126.896 152.912,126.816 L153.392,128.856 C153.071998,128.968001 152.708002,129.068 152.3,129.156 C151.891998,129.244 151.456002,129.288 150.992,129.288 Z M43.256,160.288 C42.263995,160.288 41.3360043,160.112002 40.472,159.76 C39.6079957,159.407998 38.8600032,158.888003 38.228,158.2 C37.5959968,157.511997 37.0960018,156.664005 36.728,155.656 C36.3599982,154.647995 36.176,153.496006 36.176,152.2 C36.176,150.919994 36.3639981,149.772005 36.74,148.756 C37.1160019,147.739995 37.6279968,146.880004 38.276,146.176 C38.9240032,145.471996 39.6839956,144.936002 40.556,144.568 C41.4280044,144.199998 42.359995,144.016 43.352,144.016 C44.344005,144.016 45.2239962,144.215998 45.992,144.616 C46.7600038,145.016 47.3919975,145.479997 47.888,146.008 L46.4,147.808 C45.9839979,147.391998 45.5360024,147.060001 45.056,146.812 C44.5759976,146.563999 44.032003,146.44 43.424,146.44 C42.7839968,146.44 42.1960027,146.571999 41.66,146.836 C41.1239973,147.100001 40.660002,147.475998 40.268,147.964 C39.875998,148.452002 39.5720011,149.047996 39.356,149.752 C39.1399989,150.456004 39.032,151.247996 39.032,152.128 C39.032,153.920009 39.4199961,155.323995 40.196,156.34 C40.9720039,157.356005 42.0239934,157.864 43.352,157.864 C44.0560035,157.864 44.6799973,157.716001 45.224,157.42 C45.7680027,157.123999 46.2639978,156.736002 46.712,156.256 L48.2,158.008 C47.5599968,158.744004 46.8280041,159.307998 46.004,159.7 C45.1799959,160.092002 44.264005,160.288 43.256,160.288 Z M55.4,160.288 C54.6639963,160.288 53.9600034,160.152001 53.288,159.88 C52.6159966,159.607999 52.0200026,159.208003 51.5,158.68 C50.9799974,158.151997 50.5680015,157.504004 50.264,156.736 C49.9599985,155.967996 49.808,155.096005 49.808,154.12 C49.808,153.143995 49.9599985,152.272004 50.264,151.504 C50.5680015,150.735996 50.9799974,150.088003 51.5,149.56 C52.0200026,149.031997 52.6159966,148.628001 53.288,148.348 C53.9600034,148.067999 54.6639963,147.928 55.4,147.928 C56.1360037,147.928 56.8439966,148.067999 57.524,148.348 C58.2040034,148.628001 58.7999974,149.031997 59.312,149.56 C59.8240026,150.088003 60.2359984,150.735996 60.548,151.504 C60.8600016,152.272004 61.016,153.143995 61.016,154.12 C61.016,155.096005 60.8600016,155.967996 60.548,156.736 C60.2359984,157.504004 59.8240026,158.151997 59.312,158.68 C58.7999974,159.208003 58.2040034,159.607999 57.524,159.88 C56.8439966,160.152001 56.1360037,160.288 55.4,160.288 Z M55.4,158.032 C56.2640043,158.032 56.9439975,157.676004 57.44,156.964 C57.9360025,156.251996 58.184,155.304006 58.184,154.12 C58.184,152.919994 57.9360025,151.964004 57.44,151.252 C56.9439975,150.539996 56.2640043,150.184 55.4,150.184 C54.5359957,150.184 53.8600024,150.539996 53.372,151.252 C52.8839976,151.964004 52.64,152.919994 52.64,154.12 C52.64,155.304006 52.8839976,156.251996 53.372,156.964 C53.8600024,157.676004 54.5359957,158.032 55.4,158.032 Z M63.752,160 L63.752,148.216 L66.032,148.216 L66.224,149.8 L66.32,149.8 C66.8480026,149.287997 67.4199969,148.848002 68.036,148.48 C68.6520031,148.111998 69.3679959,147.928 70.184,147.928 C71.4480063,147.928 72.3679971,148.331996 72.944,149.14 C73.5200029,149.948004 73.808,151.103992 73.808,152.608 L73.808,160 L71.048,160 L71.048,152.968 C71.048,151.991995 70.9040014,151.304002 70.616,150.904 C70.3279986,150.503998 69.8560033,150.304 69.2,150.304 C68.6879974,150.304 68.236002,150.428 67.844,150.676 C67.451998,150.924001 67.0080025,151.287998 66.512,151.768 L66.512,160 L63.752,160 Z M81.344,160.288 C80.6559966,160.288 80.0760024,160.184001 79.604,159.976 C79.1319976,159.767999 78.7480015,159.476002 78.452,159.1 C78.1559985,158.723998 77.9400007,158.276003 77.804,157.756 C77.6679993,157.235997 77.6,156.656003 77.6,156.016 L77.6,150.4 L75.92,150.4 L75.92,148.336 L77.744,148.216 L78.08,145 L80.384,145 L80.384,148.216 L83.384,148.216 L83.384,150.4 L80.384,150.4 L80.384,156.016 C80.384,157.392007 80.9359945,158.08 82.04,158.08 C82.248001,158.08 82.4599989,158.056 82.676,158.008 C82.8920011,157.96 83.0879991,157.896 83.264,157.816 L83.744,159.856 C83.4239984,159.968001 83.060002,160.068 82.652,160.156 C82.243998,160.244 81.8080023,160.288 81.344,160.288 Z M88.712,160.288 C87.6719948,160.288 86.8320032,159.972003 86.192,159.34 C85.5519968,158.707997 85.232,157.872005 85.232,156.832 C85.232,156.207997 85.3639987,155.652002 85.628,155.164 C85.8920013,154.675998 86.3079972,154.256002 86.876,153.904 C87.4440028,153.551998 88.1639956,153.256001 89.036,153.016 C89.9080044,152.775999 90.9519939,152.592001 92.168,152.464 C92.1519999,152.159998 92.1080004,151.868001 92.036,151.588 C91.9639996,151.307999 91.8440008,151.060001 91.676,150.844 C91.5079992,150.627999 91.2880014,150.460001 91.016,150.34 C90.7439986,150.219999 90.408002,150.16 90.008,150.16 C89.4319971,150.16 88.8680028,150.271999 88.316,150.496 C87.7639972,150.720001 87.2240026,150.991998 86.696,151.312 L85.688,149.464 C86.3440033,149.047998 87.0799959,148.688002 87.896,148.384 C88.7120041,148.079998 89.5919953,147.928 90.536,147.928 C92.0080074,147.928 93.1079964,148.363996 93.836,149.236 C94.5640036,150.108004 94.928,151.367992 94.928,153.016 L94.928,160 L92.648,160 L92.456,158.704 L92.36,158.704 C91.8319974,159.152002 91.268003,159.527998 90.668,159.832 C90.067997,160.136002 89.4160035,160.288 88.712,160.288 Z M89.6,158.128 C90.0800024,158.128 90.515998,158.016001 90.908,157.792 C91.300002,157.567999 91.7199978,157.248002 92.168,156.832 L92.168,154.192 C91.367996,154.288 90.6960027,154.415999 90.152,154.576 C89.6079973,154.736001 89.1680017,154.915999 88.832,155.116 C88.4959983,155.316001 88.2560007,155.543999 88.112,155.8 C87.9679993,156.056001 87.896,156.327999 87.896,156.616 C87.896,157.144003 88.0559984,157.527999 88.376,157.768 C88.6960016,158.008001 89.1039975,158.128 89.6,158.128 Z M103.16,160.288 C102.359996,160.288 101.612003,160.152001 100.916,159.88 C100.219997,159.607999 99.6160026,159.208003 99.104,158.68 C98.5919974,158.151997 98.1920014,157.504004 97.904,156.736 C97.6159986,155.967996 97.472,155.096005 97.472,154.12 C97.472,153.143995 97.6319984,152.272004 97.952,151.504 C98.2720016,150.735996 98.7039973,150.088003 99.248,149.56 C99.7920027,149.031997 100.419996,148.628001 101.132,148.348 C101.844004,148.067999 102.591996,147.928 103.376,147.928 C104.144004,147.928 104.803997,148.055999 105.356,148.312 C105.908003,148.568001 106.399998,148.879998 106.832,149.248 L105.488,151.048 C105.167998,150.775999 104.852002,150.564001 104.54,150.412 C104.227998,150.259999 103.888002,150.184 103.52,150.184 C102.559995,150.184 101.784003,150.539996 101.192,151.252 C100.599997,151.964004 100.304,152.919994 100.304,154.12 C100.304,155.304006 100.595997,156.251996 101.18,156.964 C101.764003,157.676004 102.519995,158.032 103.448,158.032 C103.912002,158.032 104.347998,157.932001 104.756,157.732 C105.164002,157.531999 105.535998,157.296001 105.872,157.024 L107,158.848 C106.439997,159.328002 105.828003,159.687999 105.164,159.928 C104.499997,160.168001 103.832003,160.288 103.16,160.288 Z M113.48,160.288 C112.791997,160.288 112.212002,160.184001 111.74,159.976 C111.267998,159.767999 110.884001,159.476002 110.588,159.1 C110.291999,158.723998 110.076001,158.276003 109.94,157.756 C109.803999,157.235997 109.736,156.656003 109.736,156.016 L109.736,150.4 L108.056,150.4 L108.056,148.336 L109.88,148.216 L110.216,145 L112.52,145 L112.52,148.216 L115.52,148.216 L115.52,150.4 L112.52,150.4 L112.52,156.016 C112.52,157.392007 113.071994,158.08 114.176,158.08 C114.384001,158.08 114.595999,158.056 114.812,158.008 C115.028001,157.96 115.223999,157.896 115.4,157.816 L115.88,159.856 C115.559998,159.968001 115.196002,160.068 114.788,160.156 C114.379998,160.244 113.944002,160.288 113.48,160.288 Z M121.28,160.288 C120.463996,160.288 119.660004,160.132002 118.868,159.82 C118.075996,159.507998 117.392003,159.120002 116.816,158.656 L118.112,156.88 C118.640003,157.296002 119.163997,157.619999 119.684,157.852 C120.204003,158.084001 120.767997,158.2 121.376,158.2 C122.016003,158.2 122.487998,158.068001 122.792,157.804 C123.096002,157.539999 123.248,157.200002 123.248,156.784 C123.248,156.543999 123.176001,156.332001 123.032,156.148 C122.887999,155.963999 122.696001,155.800001 122.456,155.656 C122.215999,155.511999 121.944002,155.380001 121.64,155.26 C121.335998,155.139999 121.032002,155.016001 120.728,154.888 C120.343998,154.743999 119.952002,154.576001 119.552,154.384 C119.151998,154.191999 118.796002,153.960001 118.484,153.688 C118.171998,153.415999 117.916001,153.100002 117.716,152.74 C117.515999,152.379998 117.416,151.952002 117.416,151.456 C117.416,150.415995 117.799996,149.568003 118.568,148.912 C119.336004,148.255997 120.383993,147.928 121.712,147.928 C122.528004,147.928 123.263997,148.071999 123.92,148.36 C124.576003,148.648001 125.143998,148.975998 125.624,149.344 L124.352,151.024 C123.935998,150.719998 123.516002,150.476001 123.092,150.292 C122.667998,150.107999 122.224002,150.016 121.76,150.016 C121.167997,150.016 120.732001,150.139999 120.452,150.388 C120.171999,150.636001 120.032,150.943998 120.032,151.312 C120.032,151.552001 120.099999,151.755999 120.236,151.924 C120.372001,152.092001 120.551999,152.239999 120.776,152.368 C121.000001,152.496001 121.259999,152.615999 121.556,152.728 C121.852001,152.840001 122.159998,152.951999 122.48,153.064 C122.880002,153.208001 123.279998,153.371999 123.68,153.556 C124.080002,153.740001 124.443998,153.967999 124.772,154.24 C125.100002,154.512001 125.363999,154.843998 125.564,155.236 C125.764001,155.628002 125.864,156.095997 125.864,156.64 C125.864,157.152003 125.764001,157.627998 125.564,158.068 C125.363999,158.508002 125.072002,158.891998 124.688,159.22 C124.303998,159.548002 123.824003,159.807999 123.248,160 C122.671997,160.192001 122.016004,160.288 121.28,160.288 Z M135.992,160.288 C134.951995,160.288 134.112003,159.972003 133.472,159.34 C132.831997,158.707997 132.512,157.872005 132.512,156.832 C132.512,156.207997 132.643999,155.652002 132.908,155.164 C133.172001,154.675998 133.587997,154.256002 134.156,153.904 C134.724003,153.551998 135.443996,153.256001 136.316,153.016 C137.188004,152.775999 138.231994,152.592001 139.448,152.464 C139.432,152.159998 139.388,151.868001 139.316,151.588 C139.244,151.307999 139.124001,151.060001 138.956,150.844 C138.787999,150.627999 138.568001,150.460001 138.296,150.34 C138.023999,150.219999 137.688002,150.16 137.288,150.16 C136.711997,150.16 136.148003,150.271999 135.596,150.496 C135.043997,150.720001 134.504003,150.991998 133.976,151.312 L132.968,149.464 C133.624003,149.047998 134.359996,148.688002 135.176,148.384 C135.992004,148.079998 136.871995,147.928 137.816,147.928 C139.288007,147.928 140.387996,148.363996 141.116,149.236 C141.844004,150.108004 142.208,151.367992 142.208,153.016 L142.208,160 L139.928,160 L139.736,158.704 L139.64,158.704 C139.111997,159.152002 138.548003,159.527998 137.948,159.832 C137.347997,160.136002 136.696004,160.288 135.992,160.288 Z M136.88,158.128 C137.360002,158.128 137.795998,158.016001 138.188,157.792 C138.580002,157.567999 138.999998,157.248002 139.448,156.832 L139.448,154.192 C138.647996,154.288 137.976003,154.415999 137.432,154.576 C136.887997,154.736001 136.448002,154.915999 136.112,155.116 C135.775998,155.316001 135.536001,155.543999 135.392,155.8 C135.247999,156.056001 135.176,156.327999 135.176,156.616 C135.176,157.144003 135.335998,157.527999 135.656,157.768 C135.976002,158.008001 136.383998,158.128 136.88,158.128 Z M145.52,160 L145.52,148.216 L147.8,148.216 L147.992,149.8 L148.088,149.8 C148.616003,149.287997 149.187997,148.848002 149.804,148.48 C150.420003,148.111998 151.135996,147.928 151.952,147.928 C153.216006,147.928 154.135997,148.331996 154.712,149.14 C155.288003,149.948004 155.576,151.103992 155.576,152.608 L155.576,160 L152.816,160 L152.816,152.968 C152.816,151.991995 152.672001,151.304002 152.384,150.904 C152.095999,150.503998 151.624003,150.304 150.968,150.304 C150.455997,150.304 150.004002,150.428 149.612,150.676 C149.219998,150.924001 148.776002,151.287998 148.28,151.768 L148.28,160 L145.52,160 Z M163.088,160.288 C161.599993,160.288 160.420004,159.748005 159.548,158.668 C158.675996,157.587995 158.24,156.07201 158.24,154.12 C158.24,153.159995 158.379999,152.296004 158.66,151.528 C158.940001,150.759996 159.311998,150.112003 159.776,149.584 C160.24,149.056 160.771997,148.648001 161.372,148.36 C161.972003,148.071999 162.591997,147.928 163.232,147.928 C163.904003,147.928 164.471998,148.043999 164.936,148.276 C165.400002,148.508001 165.863998,148.823998 166.328,149.224 L166.232,147.328 L166.232,143.056 L168.992,143.056 L168.992,160 L166.712,160 L166.52,158.728 L166.424,158.728 C165.991998,159.160002 165.488003,159.527998 164.912,159.832 C164.335997,160.136002 163.728003,160.288 163.088,160.288 Z M163.76,158.008 C164.640004,158.008 165.463996,157.568004 166.232,156.688 L166.232,151.192 C165.815998,150.823998 165.412002,150.568001 165.02,150.424 C164.627998,150.279999 164.232002,150.208 163.832,150.208 C163.063996,150.208 162.416003,150.543997 161.888,151.216 C161.359997,151.888003 161.096,152.847994 161.096,154.096 C161.096,155.376006 161.323998,156.347997 161.78,157.012 C162.236002,157.676003 162.895996,158.008 163.76,158.008 Z M177.536,160 L177.536,144.304 L187.016,144.304 L187.016,146.656 L180.32,146.656 L180.32,151.096 L186.032,151.096 L186.032,153.448 L180.32,153.448 L180.32,160 L177.536,160 Z M194.36,160.288 C193.623996,160.288 192.920003,160.152001 192.248,159.88 C191.575997,159.607999 190.980003,159.208003 190.46,158.68 C189.939997,158.151997 189.528002,157.504004 189.224,156.736 C188.919998,155.967996 188.768,155.096005 188.768,154.12 C188.768,153.143995 188.919998,152.272004 189.224,151.504 C189.528002,150.735996 189.939997,150.088003 190.46,149.56 C190.980003,149.031997 191.575997,148.628001 192.248,148.348 C192.920003,148.067999 193.623996,147.928 194.36,147.928 C195.096004,147.928 195.803997,148.067999 196.484,148.348 C197.164003,148.628001 197.759997,149.031997 198.272,149.56 C198.784003,150.088003 199.195998,150.735996 199.508,151.504 C199.820002,152.272004 199.976,153.143995 199.976,154.12 C199.976,155.096005 199.820002,155.967996 199.508,156.736 C199.195998,157.504004 198.784003,158.151997 198.272,158.68 C197.759997,159.208003 197.164003,159.607999 196.484,159.88 C195.803997,160.152001 195.096004,160.288 194.36,160.288 Z M194.36,158.032 C195.224004,158.032 195.903998,157.676004 196.4,156.964 C196.896002,156.251996 197.144,155.304006 197.144,154.12 C197.144,152.919994 196.896002,151.964004 196.4,151.252 C195.903998,150.539996 195.224004,150.184 194.36,150.184 C193.495996,150.184 192.820002,150.539996 192.332,151.252 C191.843998,151.964004 191.6,152.919994 191.6,154.12 C191.6,155.304006 191.843998,156.251996 192.332,156.964 C192.820002,157.676004 193.495996,158.032 194.36,158.032 Z M205.4,160.288 C204.407995,160.288 203.712,159.992003 203.312,159.4 C202.911998,158.807997 202.712,158.000005 202.712,156.976 L202.712,143.056 L205.472,143.056 L205.472,157.12 C205.472,157.456002 205.535999,157.691999 205.664,157.828 C205.792001,157.964001 205.927999,158.032 206.072,158.032 L206.252,158.032 C206.308,158.032 206.391999,158.016 206.504,157.984 L206.864,160.048 C206.495998,160.208001 206.008003,160.288 205.4,160.288 Z M211.904,160.288 C210.911995,160.288 210.216,159.992003 209.816,159.4 C209.415998,158.807997 209.216,158.000005 209.216,156.976 L209.216,143.056 L211.976,143.056 L211.976,157.12 C211.976,157.456002 212.039999,157.691999 212.168,157.828 C212.296001,157.964001 212.431999,158.032 212.576,158.032 L212.756,158.032 C212.812,158.032 212.895999,158.016 213.008,157.984 L213.368,160.048 C212.999998,160.208001 212.512003,160.288 211.904,160.288 Z M220.544,160.288 C219.807996,160.288 219.104003,160.152001 218.432,159.88 C217.759997,159.607999 217.164003,159.208003 216.644,158.68 C216.123997,158.151997 215.712002,157.504004 215.408,156.736 C215.103998,155.967996 214.952,155.096005 214.952,154.12 C214.952,153.143995 215.103998,152.272004 215.408,151.504 C215.712002,150.735996 216.123997,150.088003 216.644,149.56 C217.164003,149.031997 217.759997,148.628001 218.432,148.348 C219.104003,148.067999 219.807996,147.928 220.544,147.928 C221.280004,147.928 221.987997,148.067999 222.668,148.348 C223.348003,148.628001 223.943997,149.031997 224.456,149.56 C224.968003,150.088003 225.379998,150.735996 225.692,151.504 C226.004002,152.272004 226.16,153.143995 226.16,154.12 C226.16,155.096005 226.004002,155.967996 225.692,156.736 C225.379998,157.504004 224.968003,158.151997 224.456,158.68 C223.943997,159.208003 223.348003,159.607999 222.668,159.88 C221.987997,160.152001 221.280004,160.288 220.544,160.288 Z M220.544,158.032 C221.408004,158.032 222.087998,157.676004 222.584,156.964 C223.080002,156.251996 223.328,155.304006 223.328,154.12 C223.328,152.919994 223.080002,151.964004 222.584,151.252 C222.087998,150.539996 221.408004,150.184 220.544,150.184 C219.679996,150.184 219.004002,150.539996 218.516,151.252 C218.027998,151.964004 217.784,152.919994 217.784,154.12 C217.784,155.304006 218.027998,156.251996 218.516,156.964 C219.004002,157.676004 219.679996,158.032 220.544,158.032 Z M230.84,160 L227.72,148.216 L230.504,148.216 L231.92,154.336 C232.048001,154.896003 232.156,155.455997 232.244,156.016 C232.332,156.576003 232.431999,157.143997 232.544,157.72 L232.64,157.72 C232.752001,157.143997 232.867999,156.576003 232.988,156.016 C233.108001,155.455997 233.239999,154.896003 233.384,154.336 L234.92,148.216 L237.44,148.216 L239,154.336 C239.144001,154.896003 239.279999,155.455997 239.408,156.016 C239.536001,156.576003 239.663999,157.143997 239.792,157.72 L239.888,157.72 C240.000001,157.143997 240.104,156.576003 240.2,156.016 C240.296,155.455997 240.399999,154.896003 240.512,154.336 L241.928,148.216 L244.52,148.216 L241.52,160 L238.232,160 L236.864,154.504 C236.735999,153.943997 236.616001,153.388003 236.504,152.836 C236.391999,152.283997 236.272001,151.696003 236.144,151.072 L236.048,151.072 C235.935999,151.696003 235.824001,152.287997 235.712,152.848 C235.599999,153.408003 235.480001,153.967997 235.352,154.528 L234.008,160 L230.84,160 Z M246.104,154.96 L246.104,152.944 L251.816,152.944 L251.816,154.96 L246.104,154.96 Z M258.08,160.288 C256.815994,160.288 255.896003,159.884004 255.32,159.076 C254.743997,158.267996 254.456,157.112008 254.456,155.608 L254.456,148.216 L257.216,148.216 L257.216,155.248 C257.216,156.224005 257.359999,156.911998 257.648,157.312 C257.936001,157.712002 258.399997,157.912 259.04,157.912 C259.552003,157.912 260.003998,157.784001 260.396,157.528 C260.788002,157.271999 261.207998,156.856003 261.656,156.28 L261.656,148.216 L264.416,148.216 L264.416,160 L262.16,160 L261.944,158.272 L261.872,158.272 C261.359997,158.880003 260.804003,159.367998 260.204,159.736 C259.603997,160.104002 258.896004,160.288 258.08,160.288 Z M267.92,164.656 L267.92,148.216 L270.2,148.216 L270.392,149.464 L270.488,149.464 C270.984002,149.047998 271.535997,148.688002 272.144,148.384 C272.752003,148.079998 273.383997,147.928 274.04,147.928 C274.776004,147.928 275.427997,148.067999 275.996,148.348 C276.564003,148.628001 277.047998,149.031997 277.448,149.56 C277.848002,150.088003 278.151999,150.719996 278.36,151.456 C278.568001,152.192004 278.672,153.015995 278.672,153.928 C278.672,154.936005 278.532001,155.835996 278.252,156.628 C277.971999,157.420004 277.600002,158.083997 277.136,158.62 C276.671998,159.156003 276.136003,159.567999 275.528,159.856 C274.92,160.144001 274.288003,160.288 273.632,160.288 C273.119997,160.288 272.608003,160.176001 272.096,159.952 C271.583997,159.727999 271.088002,159.408002 270.608,158.992 L270.68,160.96 L270.68,164.656 L267.92,164.656 Z M273.056,158.008 C273.840004,158.008 274.495997,157.668003 275.024,156.988 C275.552003,156.307997 275.816,155.296007 275.816,153.952 C275.816,152.767994 275.616002,151.848003 275.216,151.192 C274.815998,150.535997 274.168004,150.208 273.272,150.208 C272.439996,150.208 271.576004,150.647996 270.68,151.528 L270.68,157.024 C271.112002,157.392002 271.527998,157.647999 271.928,157.792 C272.328002,157.936001 272.703998,158.008 273.056,158.008 Z M284.744,160.288 C283.927996,160.288 283.124004,160.132002 282.332,159.82 C281.539996,159.507998 280.856003,159.120002 280.28,158.656 L281.576,156.88 C282.104003,157.296002 282.627997,157.619999 283.148,157.852 C283.668003,158.084001 284.231997,158.2 284.84,158.2 C285.480003,158.2 285.951998,158.068001 286.256,157.804 C286.560002,157.539999 286.712,157.200002 286.712,156.784 C286.712,156.543999 286.640001,156.332001 286.496,156.148 C286.351999,155.963999 286.160001,155.800001 285.92,155.656 C285.679999,155.511999 285.408002,155.380001 285.104,155.26 C284.799998,155.139999 284.496002,155.016001 284.192,154.888 C283.807998,154.743999 283.416002,154.576001 283.016,154.384 C282.615998,154.191999 282.260002,153.960001 281.948,153.688 C281.635998,153.415999 281.380001,153.100002 281.18,152.74 C280.979999,152.379998 280.88,151.952002 280.88,151.456 C280.88,150.415995 281.263996,149.568003 282.032,148.912 C282.800004,148.255997 283.847993,147.928 285.176,147.928 C285.992004,147.928 286.727997,148.071999 287.384,148.36 C288.040003,148.648001 288.607998,148.975998 289.088,149.344 L287.816,151.024 C287.399998,150.719998 286.980002,150.476001 286.556,150.292 C286.131998,150.107999 285.688002,150.016 285.224,150.016 C284.631997,150.016 284.196001,150.139999 283.916,150.388 C283.635999,150.636001 283.496,150.943998 283.496,151.312 C283.496,151.552001 283.563999,151.755999 283.7,151.924 C283.836001,152.092001 284.015999,152.239999 284.24,152.368 C284.464001,152.496001 284.723999,152.615999 285.02,152.728 C285.316001,152.840001 285.623998,152.951999 285.944,153.064 C286.344002,153.208001 286.743998,153.371999 287.144,153.556 C287.544002,153.740001 287.907998,153.967999 288.236,154.24 C288.564002,154.512001 288.827999,154.843998 289.028,155.236 C289.228001,155.628002 289.328,156.095997 289.328,156.64 C289.328,157.152003 289.228001,157.627998 289.028,158.068 C288.827999,158.508002 288.536002,158.891998 288.152,159.22 C287.767998,159.548002 287.288003,159.807999 286.712,160 C286.135997,160.192001 285.480004,160.288 284.744,160.288 Z M36.992,191 L36.992,175.304 L42.296,175.304 C43.1120041,175.304 43.8719965,175.383999 44.576,175.544 C45.2800035,175.704001 45.8879974,175.963998 46.4,176.324 C46.9120026,176.684002 47.3159985,177.159997 47.612,177.752 C47.9080015,178.344003 48.056,179.079996 48.056,179.96 C48.056,181.160006 47.7720028,182.127996 47.204,182.864 C46.6359972,183.600004 45.8800047,184.127998 44.936,184.448 L48.68,191 L45.56,191 L42.176,184.856 L39.776,184.856 L39.776,191 L36.992,191 Z M39.776,182.648 L42.008,182.648 C43.0800054,182.648 43.8999972,182.424002 44.468,181.976 C45.0360028,181.527998 45.32,180.856004 45.32,179.96 C45.32,179.047995 45.0360028,178.416002 44.468,178.064 C43.8999972,177.711998 43.0800054,177.536 42.008,177.536 L39.776,177.536 L39.776,182.648 Z M56,191.288 C55.1839959,191.288 54.4240035,191.148001 53.72,190.868 C53.0159965,190.587999 52.4000026,190.184003 51.872,189.656 C51.3439974,189.127997 50.9320015,188.484004 50.636,187.724 C50.3399985,186.963996 50.192,186.096005 50.192,185.12 C50.192,184.159995 50.3439985,183.296004 50.648,182.528 C50.9520015,181.759996 51.3559975,181.112003 51.86,180.584 C52.3640025,180.055997 52.9439967,179.648001 53.6,179.36 C54.2560033,179.071999 54.9279966,178.928 55.616,178.928 C56.416004,178.928 57.119997,179.063999 57.728,179.336 C58.336003,179.608001 58.843998,179.991998 59.252,180.488 C59.660002,180.984002 59.967999,181.575997 60.176,182.264 C60.384001,182.952003 60.488,183.703996 60.488,184.52 C60.488,184.792001 60.4760001,185.047999 60.452,185.288 C60.4279999,185.528001 60.4000002,185.719999 60.368,185.864 L52.88,185.864 C53.0080006,186.920005 53.3799969,187.731997 53.996,188.3 C54.6120031,188.868003 55.3999952,189.152 56.36,189.152 C56.8720026,189.152 57.3479978,189.076001 57.788,188.924 C58.2280022,188.771999 58.6639978,188.560001 59.096,188.288 L60.032,190.016 C59.4719972,190.384002 58.8480034,190.687999 58.16,190.928 C57.4719966,191.168001 56.7520038,191.288 56,191.288 Z M52.856,183.992 L58.088,183.992 C58.088,183.079995 57.892002,182.364003 57.5,181.844 C57.107998,181.323997 56.5040041,181.064 55.688,181.064 C54.9839965,181.064 54.3680026,181.311998 53.84,181.808 C53.3119974,182.304002 52.9840006,183.031995 52.856,183.992 Z M70.4,195.656 L70.4,191.792 L70.496,189.824 C70.0639978,190.240002 69.5680028,190.587999 69.008,190.868 C68.4479972,191.148001 67.864003,191.288 67.256,191.288 C65.7679926,191.288 64.5880044,190.748005 63.716,189.668 C62.8439956,188.587995 62.408,187.07201 62.408,185.12 C62.408,184.159995 62.5479986,183.296004 62.828,182.528 C63.1080014,181.759996 63.4799977,181.112003 63.944,180.584 C64.408,180.055997 64.939997,179.648001 65.54,179.36 C66.140003,179.071999 66.7599968,178.928 67.4,178.928 C68.0720034,178.928 68.6599975,179.043999 69.164,179.276 C69.6680025,179.508001 70.1679975,179.863998 70.664,180.344 L70.736,180.344 L70.976,179.216 L73.16,179.216 L73.16,195.656 L70.4,195.656 Z M67.928,189.008 C68.8080044,189.008 69.6319962,188.568004 70.4,187.688 L70.4,182.192 C69.9839979,181.823998 69.580002,181.568001 69.188,181.424 C68.795998,181.279999 68.400002,181.208 68,181.208 C67.2319962,181.208 66.5840026,181.543997 66.056,182.216 C65.5279974,182.888003 65.264,183.847994 65.264,185.096 C65.264,186.376006 65.4919977,187.347997 65.948,188.012 C66.4040023,188.676003 67.0639957,189.008 67.928,189.008 Z M80.168,191.288 C78.9039937,191.288 77.9840029,190.884004 77.408,190.076 C76.8319971,189.267996 76.544,188.112008 76.544,186.608 L76.544,179.216 L79.304,179.216 L79.304,186.248 C79.304,187.224005 79.4479986,187.911998 79.736,188.312 C80.0240014,188.712002 80.4879968,188.912 81.128,188.912 C81.6400026,188.912 82.091998,188.784001 82.484,188.528 C82.876002,188.271999 83.2959978,187.856003 83.744,187.28 L83.744,179.216 L86.504,179.216 L86.504,191 L84.248,191 L84.032,189.272 L83.96,189.272 C83.4479974,189.880003 82.892003,190.367998 82.292,190.736 C81.691997,191.104002 80.9840041,191.288 80.168,191.288 Z M95.048,191.288 C94.2319959,191.288 93.4720035,191.148001 92.768,190.868 C92.0639965,190.587999 91.4480026,190.184003 90.92,189.656 C90.3919974,189.127997 89.9800015,188.484004 89.684,187.724 C89.3879985,186.963996 89.24,186.096005 89.24,185.12 C89.24,184.159995 89.3919985,183.296004 89.696,182.528 C90.0000015,181.759996 90.4039975,181.112003 90.908,180.584 C91.4120025,180.055997 91.9919967,179.648001 92.648,179.36 C93.3040033,179.071999 93.9759966,178.928 94.664,178.928 C95.464004,178.928 96.167997,179.063999 96.776,179.336 C97.384003,179.608001 97.891998,179.991998 98.3,180.488 C98.708002,180.984002 99.015999,181.575997 99.224,182.264 C99.432001,182.952003 99.536,183.703996 99.536,184.52 C99.536,184.792001 99.5240001,185.047999 99.5,185.288 C99.4759999,185.528001 99.4480002,185.719999 99.416,185.864 L91.928,185.864 C92.0560006,186.920005 92.4279969,187.731997 93.044,188.3 C93.6600031,188.868003 94.4479952,189.152 95.408,189.152 C95.9200026,189.152 96.3959978,189.076001 96.836,188.924 C97.2760022,188.771999 97.7119978,188.560001 98.144,188.288 L99.08,190.016 C98.5199972,190.384002 97.8960034,190.687999 97.208,190.928 C96.5199966,191.168001 95.8000038,191.288 95.048,191.288 Z M91.904,183.992 L97.136,183.992 C97.136,183.079995 96.940002,182.364003 96.548,181.844 C96.155998,181.323997 95.5520041,181.064 94.736,181.064 C94.0319965,181.064 93.4160026,181.311998 92.888,181.808 C92.3599974,182.304002 92.0320006,183.031995 91.904,183.992 Z M105.464,191.288 C104.647996,191.288 103.844004,191.132002 103.052,190.82 C102.259996,190.507998 101.576003,190.120002 101,189.656 L102.296,187.88 C102.824003,188.296002 103.347997,188.619999 103.868,188.852 C104.388003,189.084001 104.951997,189.2 105.56,189.2 C106.200003,189.2 106.671998,189.068001 106.976,188.804 C107.280002,188.539999 107.432,188.200002 107.432,187.784 C107.432,187.543999 107.360001,187.332001 107.216,187.148 C107.071999,186.963999 106.880001,186.800001 106.64,186.656 C106.399999,186.511999 106.128002,186.380001 105.824,186.26 C105.519998,186.139999 105.216002,186.016001 104.912,185.888 C104.527998,185.743999 104.136002,185.576001 103.736,185.384 C103.335998,185.191999 102.980002,184.960001 102.668,184.688 C102.355998,184.415999 102.100001,184.100002 101.9,183.74 C101.699999,183.379998 101.6,182.952002 101.6,182.456 C101.6,181.415995 101.983996,180.568003 102.752,179.912 C103.520004,179.255997 104.567993,178.928 105.896,178.928 C106.712004,178.928 107.447997,179.071999 108.104,179.36 C108.760003,179.648001 109.327998,179.975998 109.808,180.344 L108.536,182.024 C108.119998,181.719998 107.700002,181.476001 107.276,181.292 C106.851998,181.107999 106.408002,181.016 105.944,181.016 C105.351997,181.016 104.916001,181.139999 104.636,181.388 C104.355999,181.636001 104.216,181.943998 104.216,182.312 C104.216,182.552001 104.283999,182.755999 104.42,182.924 C104.556001,183.092001 104.735999,183.239999 104.96,183.368 C105.184001,183.496001 105.443999,183.615999 105.74,183.728 C106.036001,183.840001 106.343998,183.951999 106.664,184.064 C107.064002,184.208001 107.463998,184.371999 107.864,184.556 C108.264002,184.740001 108.627998,184.967999 108.956,185.24 C109.284002,185.512001 109.547999,185.843998 109.748,186.236 C109.948001,186.628002 110.048,187.095997 110.048,187.64 C110.048,188.152003 109.948001,188.627998 109.748,189.068 C109.547999,189.508002 109.256002,189.891998 108.872,190.22 C108.487998,190.548002 108.008003,190.807999 107.432,191 C106.855997,191.192001 106.200004,191.288 105.464,191.288 Z M116.672,191.288 C115.983997,191.288 115.404002,191.184001 114.932,190.976 C114.459998,190.767999 114.076001,190.476002 113.78,190.1 C113.483999,189.723998 113.268001,189.276003 113.132,188.756 C112.995999,188.235997 112.928,187.656003 112.928,187.016 L112.928,181.4 L111.248,181.4 L111.248,179.336 L113.072,179.216 L113.408,176 L115.712,176 L115.712,179.216 L118.712,179.216 L118.712,181.4 L115.712,181.4 L115.712,187.016 C115.712,188.392007 116.263994,189.08 117.368,189.08 C117.576001,189.08 117.787999,189.056 118.004,189.008 C118.220001,188.96 118.415999,188.896 118.592,188.816 L119.072,190.856 C118.751998,190.968001 118.388002,191.068 117.98,191.156 C117.571998,191.244 117.136002,191.288 116.672,191.288 Z M124.472,191.288 C123.655996,191.288 122.852004,191.132002 122.06,190.82 C121.267996,190.507998 120.584003,190.120002 120.008,189.656 L121.304,187.88 C121.832003,188.296002 122.355997,188.619999 122.876,188.852 C123.396003,189.084001 123.959997,189.2 124.568,189.2 C125.208003,189.2 125.679998,189.068001 125.984,188.804 C126.288002,188.539999 126.44,188.200002 126.44,187.784 C126.44,187.543999 126.368001,187.332001 126.224,187.148 C126.079999,186.963999 125.888001,186.800001 125.648,186.656 C125.407999,186.511999 125.136002,186.380001 124.832,186.26 C124.527998,186.139999 124.224002,186.016001 123.92,185.888 C123.535998,185.743999 123.144002,185.576001 122.744,185.384 C122.343998,185.191999 121.988002,184.960001 121.676,184.688 C121.363998,184.415999 121.108001,184.100002 120.908,183.74 C120.707999,183.379998 120.608,182.952002 120.608,182.456 C120.608,181.415995 120.991996,180.568003 121.76,179.912 C122.528004,179.255997 123.575993,178.928 124.904,178.928 C125.720004,178.928 126.455997,179.071999 127.112,179.36 C127.768003,179.648001 128.335998,179.975998 128.816,180.344 L127.544,182.024 C127.127998,181.719998 126.708002,181.476001 126.284,181.292 C125.859998,181.107999 125.416002,181.016 124.952,181.016 C124.359997,181.016 123.924001,181.139999 123.644,181.388 C123.363999,181.636001 123.224,181.943998 123.224,182.312 C123.224,182.552001 123.291999,182.755999 123.428,182.924 C123.564001,183.092001 123.743999,183.239999 123.968,183.368 C124.192001,183.496001 124.451999,183.615999 124.748,183.728 C125.044001,183.840001 125.351998,183.951999 125.672,184.064 C126.072002,184.208001 126.471998,184.371999 126.872,184.556 C127.272002,184.740001 127.635998,184.967999 127.964,185.24 C128.292002,185.512001 128.555999,185.843998 128.756,186.236 C128.956001,186.628002 129.056,187.095997 129.056,187.64 C129.056,188.152003 128.956001,188.627998 128.756,189.068 C128.555999,189.508002 128.264002,189.891998 127.88,190.22 C127.495998,190.548002 127.016003,190.807999 126.44,191 C125.863997,191.192001 125.208004,191.288 124.472,191.288 Z M139.184,191.288 C138.143995,191.288 137.304003,190.972003 136.664,190.34 C136.023997,189.707997 135.704,188.872005 135.704,187.832 C135.704,187.207997 135.835999,186.652002 136.1,186.164 C136.364001,185.675998 136.779997,185.256002 137.348,184.904 C137.916003,184.551998 138.635996,184.256001 139.508,184.016 C140.380004,183.775999 141.423994,183.592001 142.64,183.464 C142.624,183.159998 142.58,182.868001 142.508,182.588 C142.436,182.307999 142.316001,182.060001 142.148,181.844 C141.979999,181.627999 141.760001,181.460001 141.488,181.34 C141.215999,181.219999 140.880002,181.16 140.48,181.16 C139.903997,181.16 139.340003,181.271999 138.788,181.496 C138.235997,181.720001 137.696003,181.991998 137.168,182.312 L136.16,180.464 C136.816003,180.047998 137.551996,179.688002 138.368,179.384 C139.184004,179.079998 140.063995,178.928 141.008,178.928 C142.480007,178.928 143.579996,179.363996 144.308,180.236 C145.036004,181.108004 145.4,182.367992 145.4,184.016 L145.4,191 L143.12,191 L142.928,189.704 L142.832,189.704 C142.303997,190.152002 141.740003,190.527998 141.14,190.832 C140.539997,191.136002 139.888004,191.288 139.184,191.288 Z M140.072,189.128 C140.552002,189.128 140.987998,189.016001 141.38,188.792 C141.772002,188.567999 142.191998,188.248002 142.64,187.832 L142.64,185.192 C141.839996,185.288 141.168003,185.415999 140.624,185.576 C140.079997,185.736001 139.640002,185.915999 139.304,186.116 C138.967998,186.316001 138.728001,186.543999 138.584,186.8 C138.439999,187.056001 138.368,187.327999 138.368,187.616 C138.368,188.144003 138.527998,188.527999 138.848,188.768 C139.168002,189.008001 139.575998,189.128 140.072,189.128 Z M148.712,191 L148.712,179.216 L150.992,179.216 L151.184,180.8 L151.28,180.8 C151.808003,180.287997 152.379997,179.848002 152.996,179.48 C153.612003,179.111998 154.327996,178.928 155.144,178.928 C156.408006,178.928 157.327997,179.331996 157.904,180.14 C158.480003,180.948004 158.768,182.103992 158.768,183.608 L158.768,191 L156.008,191 L156.008,183.968 C156.008,182.991995 155.864001,182.304002 155.576,181.904 C155.287999,181.503998 154.816003,181.304 154.16,181.304 C153.647997,181.304 153.196002,181.428 152.804,181.676 C152.411998,181.924001 151.968002,182.287998 151.472,182.768 L151.472,191 L148.712,191 Z M166.28,191.288 C164.791993,191.288 163.612004,190.748005 162.74,189.668 C161.867996,188.587995 161.432,187.07201 161.432,185.12 C161.432,184.159995 161.571999,183.296004 161.852,182.528 C162.132001,181.759996 162.503998,181.112003 162.968,180.584 C163.432,180.056 163.963997,179.648001 164.564,179.36 C165.164003,179.071999 165.783997,178.928 166.424,178.928 C167.096003,178.928 167.663998,179.043999 168.128,179.276 C168.592002,179.508001 169.055998,179.823998 169.52,180.224 L169.424,178.328 L169.424,174.056 L172.184,174.056 L172.184,191 L169.904,191 L169.712,189.728 L169.616,189.728 C169.183998,190.160002 168.680003,190.527998 168.104,190.832 C167.527997,191.136002 166.920003,191.288 166.28,191.288 Z M166.952,189.008 C167.832004,189.008 168.655996,188.568004 169.424,187.688 L169.424,182.192 C169.007998,181.823998 168.604002,181.568001 168.212,181.424 C167.819998,181.279999 167.424002,181.208 167.024,181.208 C166.255996,181.208 165.608003,181.543997 165.08,182.216 C164.551997,182.888003 164.288,183.847994 164.288,185.096 C164.288,186.376006 164.515998,187.347997 164.972,188.012 C165.428002,188.676003 166.087996,189.008 166.952,189.008 Z M183.896,191 L183.896,177.656 L179.36,177.656 L179.36,175.304 L191.216,175.304 L191.216,177.656 L186.68,177.656 L186.68,191 L183.896,191 Z M196.448,191.288 C195.407995,191.288 194.568003,190.972003 193.928,190.34 C193.287997,189.707997 192.968,188.872005 192.968,187.832 C192.968,187.207997 193.099999,186.652002 193.364,186.164 C193.628001,185.675998 194.043997,185.256002 194.612,184.904 C195.180003,184.551998 195.899996,184.256001 196.772,184.016 C197.644004,183.775999 198.687994,183.592001 199.904,183.464 C199.888,183.159998 199.844,182.868001 199.772,182.588 C199.7,182.307999 199.580001,182.060001 199.412,181.844 C199.243999,181.627999 199.024001,181.460001 198.752,181.34 C198.479999,181.219999 198.144002,181.16 197.744,181.16 C197.167997,181.16 196.604003,181.271999 196.052,181.496 C195.499997,181.720001 194.960003,181.991998 194.432,182.312 L193.424,180.464 C194.080003,180.047998 194.815996,179.688002 195.632,179.384 C196.448004,179.079998 197.327995,178.928 198.272,178.928 C199.744007,178.928 200.843996,179.363996 201.572,180.236 C202.300004,181.108004 202.664,182.367992 202.664,184.016 L202.664,191 L200.384,191 L200.192,189.704 L200.096,189.704 C199.567997,190.152002 199.004003,190.527998 198.404,190.832 C197.803997,191.136002 197.152004,191.288 196.448,191.288 Z M197.336,189.128 C197.816002,189.128 198.251998,189.016001 198.644,188.792 C199.036002,188.567999 199.455998,188.248002 199.904,187.832 L199.904,185.192 C199.103996,185.288 198.432003,185.415999 197.888,185.576 C197.343997,185.736001 196.904002,185.915999 196.568,186.116 C196.231998,186.316001 195.992001,186.543999 195.848,186.8 C195.703999,187.056001 195.632,187.327999 195.632,187.616 C195.632,188.144003 195.791998,188.527999 196.112,188.768 C196.432002,189.008001 196.839998,189.128 197.336,189.128 Z M209.264,191.288 C208.447996,191.288 207.644004,191.132002 206.852,190.82 C206.059996,190.507998 205.376003,190.120002 204.8,189.656 L206.096,187.88 C206.624003,188.296002 207.147997,188.619999 207.668,188.852 C208.188003,189.084001 208.751997,189.2 209.36,189.2 C210.000003,189.2 210.471998,189.068001 210.776,188.804 C211.080002,188.539999 211.232,188.200002 211.232,187.784 C211.232,187.543999 211.160001,187.332001 211.016,187.148 C210.871999,186.963999 210.680001,186.800001 210.44,186.656 C210.199999,186.511999 209.928002,186.380001 209.624,186.26 C209.319998,186.139999 209.016002,186.016001 208.712,185.888 C208.327998,185.743999 207.936002,185.576001 207.536,185.384 C207.135998,185.191999 206.780002,184.960001 206.468,184.688 C206.155998,184.415999 205.900001,184.100002 205.7,183.74 C205.499999,183.379998 205.4,182.952002 205.4,182.456 C205.4,181.415995 205.783996,180.568003 206.552,179.912 C207.320004,179.255997 208.367993,178.928 209.696,178.928 C210.512004,178.928 211.247997,179.071999 211.904,179.36 C212.560003,179.648001 213.127998,179.975998 213.608,180.344 L212.336,182.024 C211.919998,181.719998 211.500002,181.476001 211.076,181.292 C210.651998,181.107999 210.208002,181.016 209.744,181.016 C209.151997,181.016 208.716001,181.139999 208.436,181.388 C208.155999,181.636001 208.016,181.943998 208.016,182.312 C208.016,182.552001 208.083999,182.755999 208.22,182.924 C208.356001,183.092001 208.535999,183.239999 208.76,183.368 C208.984001,183.496001 209.243999,183.615999 209.54,183.728 C209.836001,183.840001 210.143998,183.951999 210.464,184.064 C210.864002,184.208001 211.263998,184.371999 211.664,184.556 C212.064002,184.740001 212.427998,184.967999 212.756,185.24 C213.084002,185.512001 213.347999,185.843998 213.548,186.236 C213.748001,186.628002 213.848,187.095997 213.848,187.64 C213.848,188.152003 213.748001,188.627998 213.548,189.068 C213.347999,189.508002 213.056002,189.891998 212.672,190.22 C212.287998,190.548002 211.808003,190.807999 211.232,191 C210.655997,191.192001 210.000004,191.288 209.264,191.288 Z M216.32,191 L216.32,174.056 L219.032,174.056 L219.032,184.64 L219.104,184.64 L223.472,179.216 L226.496,179.216 L222.464,184.016 L226.904,191 L223.904,191 L220.88,185.888 L219.032,188 L219.032,191 L216.32,191 Z M232.136,191.288 C231.319996,191.288 230.516004,191.132002 229.724,190.82 C228.931996,190.507998 228.248003,190.120002 227.672,189.656 L228.968,187.88 C229.496003,188.296002 230.019997,188.619999 230.54,188.852 C231.060003,189.084001 231.623997,189.2 232.232,189.2 C232.872003,189.2 233.343998,189.068001 233.648,188.804 C233.952002,188.539999 234.104,188.200002 234.104,187.784 C234.104,187.543999 234.032001,187.332001 233.888,187.148 C233.743999,186.963999 233.552001,186.800001 233.312,186.656 C233.071999,186.511999 232.800002,186.380001 232.496,186.26 C232.191998,186.139999 231.888002,186.016001 231.584,185.888 C231.199998,185.743999 230.808002,185.576001 230.408,185.384 C230.007998,185.191999 229.652002,184.960001 229.34,184.688 C229.027998,184.415999 228.772001,184.100002 228.572,183.74 C228.371999,183.379998 228.272,182.952002 228.272,182.456 C228.272,181.415995 228.655996,180.568003 229.424,179.912 C230.192004,179.255997 231.239993,178.928 232.568,178.928 C233.384004,178.928 234.119997,179.071999 234.776,179.36 C235.432003,179.648001 235.999998,179.975998 236.48,180.344 L235.208,182.024 C234.791998,181.719998 234.372002,181.476001 233.948,181.292 C233.523998,181.107999 233.080002,181.016 232.616,181.016 C232.023997,181.016 231.588001,181.139999 231.308,181.388 C231.027999,181.636001 230.888,181.943998 230.888,182.312 C230.888,182.552001 230.955999,182.755999 231.092,182.924 C231.228001,183.092001 231.407999,183.239999 231.632,183.368 C231.856001,183.496001 232.115999,183.615999 232.412,183.728 C232.708001,183.840001 233.015998,183.951999 233.336,184.064 C233.736002,184.208001 234.135998,184.371999 234.536,184.556 C234.936002,184.740001 235.299998,184.967999 235.628,185.24 C235.956002,185.512001 236.219999,185.843998 236.42,186.236 C236.620001,186.628002 236.72,187.095997 236.72,187.64 C236.72,188.152003 236.620001,188.627998 236.42,189.068 C236.219999,189.508002 235.928002,189.891998 235.544,190.22 C235.159998,190.548002 234.680003,190.807999 234.104,191 C233.527997,191.192001 232.872004,191.288 232.136,191.288 Z" id="MyAccountContactsandFollow-upsRequestsandTasks" fill="#000000" fill-rule="nonzero" mask="url(#mask-2)"></path>
            </g>
        </g>
    </g>
</svg>