<?xml version="1.0" encoding="UTF-8"?>
<svg width="376px" height="305px" viewBox="0 0 376 305" version="1.1" xmlns="http://www.w3.org/2000/svg" xmlns:xlink="http://www.w3.org/1999/xlink">
    <!-- Generator: Sketch 55.1 (78136) - https://sketchapp.com -->
    <title>shorterArticles</title>
    <desc>Created with Sketch.</desc>
    <defs>
        <rect id="path-1" x="0" y="0" width="376" height="305"></rect>
    </defs>
    <g id="KB-Case-Study" stroke="none" stroke-width="1" fill="none" fill-rule="evenodd">
        <g id="1024-Desktop" transform="translate(-530.000000, -4237.000000)">
            <g id="shorterArticles" transform="translate(530.000000, 4237.000000)">
                <mask id="mask-2" fill="white">
                    <use xlink:href="#path-1"></use>
                </mask>
                <use id="Mask" fill="#5E83C8" xlink:href="#path-1"></use>
                <path d="M41.62,136 L41.62,124.192 L43.114,124.192 L43.114,134.722 L48.28,134.722 L48.28,136 L41.62,136 Z M53.626,136.216 C53.0859973,136.216 52.5730024,136.114001 52.087,135.91 C51.6009976,135.705999 51.1720019,135.409002 50.8,135.019 C50.4279981,134.628998 50.1310011,134.149003 49.909,133.579 C49.6869989,133.008997 49.576,132.364004 49.576,131.644 C49.576,130.911996 49.6869989,130.261003 49.909,129.691 C50.1310011,129.120997 50.4279981,128.638002 50.8,128.242 C51.1720019,127.845998 51.6009976,127.546001 52.087,127.342 C52.5730024,127.137999 53.0859973,127.036 53.626,127.036 C54.1660027,127.036 54.6789976,127.137999 55.165,127.342 C55.6510024,127.546001 56.0799981,127.845998 56.452,128.242 C56.8240019,128.638002 57.1209989,129.120997 57.343,129.691 C57.5650011,130.261003 57.676,130.911996 57.676,131.644 C57.676,132.364004 57.5650011,133.008997 57.343,133.579 C57.1209989,134.149003 56.8240019,134.628998 56.452,135.019 C56.0799981,135.409002 55.6510024,135.705999 55.165,135.91 C54.6789976,136.114001 54.1660027,136.216 53.626,136.216 Z M53.626,134.992 C53.9980019,134.992 54.3399984,134.911001 54.652,134.749 C54.9640016,134.586999 55.2309989,134.359001 55.453,134.065 C55.6750011,133.770999 55.8459994,133.420002 55.966,133.012 C56.0860006,132.603998 56.146,132.148003 56.146,131.644 C56.146,131.139997 56.0860006,130.681002 55.966,130.267 C55.8459994,129.852998 55.6750011,129.496001 55.453,129.196 C55.2309989,128.895999 54.9640016,128.665001 54.652,128.503 C54.3399984,128.340999 53.9980019,128.26 53.626,128.26 C53.2539981,128.26 52.9120016,128.340999 52.6,128.503 C52.2879984,128.665001 52.0210011,128.895999 51.799,129.196 C51.5769989,129.496001 51.4060006,129.852998 51.286,130.267 C51.1659994,130.681002 51.106,131.139997 51.106,131.644 C51.106,132.148003 51.1659994,132.603998 51.286,133.012 C51.4060006,133.420002 51.5769989,133.770999 51.799,134.065 C52.0210011,134.359001 52.2879984,134.586999 52.6,134.749 C52.9120016,134.911001 53.2539981,134.992 53.626,134.992 Z M63.436,136.216 C62.8599971,136.216 62.3200025,136.114001 61.816,135.91 C61.3119975,135.705999 60.8770018,135.409002 60.511,135.019 C60.1449982,134.628998 59.8570011,134.149003 59.647,133.579 C59.436999,133.008997 59.332,132.364004 59.332,131.644 C59.332,130.911996 59.4459989,130.261003 59.674,129.691 C59.9020011,129.120997 60.2079981,128.638002 60.592,128.242 C60.9760019,127.845998 61.4229975,127.546001 61.933,127.342 C62.4430026,127.137999 62.9799972,127.036 63.544,127.036 C64.1200029,127.036 64.611998,127.137999 65.02,127.342 C65.428002,127.546001 65.7879984,127.785999 66.1,128.062 L65.344,129.034 C65.0919987,128.805999 64.8250014,128.620001 64.543,128.476 C64.2609986,128.331999 63.9460017,128.26 63.598,128.26 C63.201998,128.26 62.8360017,128.340999 62.5,128.503 C62.1639983,128.665001 61.8760012,128.895999 61.636,129.196 C61.3959988,129.496001 61.2070007,129.852998 61.069,130.267 C60.9309993,130.681002 60.862,131.139997 60.862,131.644 C60.862,132.148003 60.9279993,132.603998 61.06,133.012 C61.1920007,133.420002 61.3749988,133.770999 61.609,134.065 C61.8430012,134.359001 62.1279983,134.586999 62.464,134.749 C62.8000017,134.911001 63.165998,134.992 63.562,134.992 C63.970002,134.992 64.3449983,134.905001 64.687,134.731 C65.0290017,134.556999 65.3379986,134.350001 65.614,134.11 L66.262,135.1 C65.865998,135.448002 65.4280024,135.720999 64.948,135.919 C64.4679976,136.117001 63.9640026,136.216 63.436,136.216 Z M70.204,136.216 C69.4719963,136.216 68.8630024,136.000002 68.377,135.568 C67.8909976,135.135998 67.648,134.524004 67.648,133.732 C67.648,132.771995 68.0739957,132.037003 68.926,131.527 C69.7780043,131.016997 71.1399906,130.660001 73.012,130.456 C73.012,130.179999 72.9850003,129.910001 72.931,129.646 C72.8769997,129.381999 72.7840007,129.148001 72.652,128.944 C72.5199993,128.739999 72.3370012,128.575001 72.103,128.449 C71.8689988,128.322999 71.5720018,128.26 71.212,128.26 C70.7079975,128.26 70.2340022,128.355999 69.79,128.548 C69.3459978,128.740001 68.9500017,128.955999 68.602,129.196 L68.026,128.17 C68.434002,127.905999 68.9319971,127.651001 69.52,127.405 C70.1080029,127.158999 70.7559965,127.036 71.464,127.036 C72.5320053,127.036 73.3059976,127.362997 73.786,128.017 C74.2660024,128.671003 74.506,129.543995 74.506,130.636 L74.506,136 L73.282,136 L73.156,134.956 L73.102,134.956 C72.6819979,135.304002 72.2320024,135.600999 71.752,135.847 C71.2719976,136.093001 70.7560028,136.216 70.204,136.216 Z M70.636,135.028 C71.0560021,135.028 71.4519981,134.929001 71.824,134.731 C72.1960019,134.532999 72.5919979,134.242002 73.012,133.858 L73.012,131.428 C72.2799963,131.524 71.6650025,131.637999 71.167,131.77 C70.6689975,131.902001 70.2670015,132.057999 69.961,132.238 C69.6549985,132.418001 69.4330007,132.624999 69.295,132.859 C69.1569993,133.093001 69.088,133.347999 69.088,133.624 C69.088,134.128003 69.2379985,134.487999 69.538,134.704 C69.8380015,134.920001 70.2039978,135.028 70.636,135.028 Z M80.014,136.216 C79.5459977,136.216 79.1530016,136.144001 78.835,136 C78.5169984,135.855999 78.259001,135.658001 78.061,135.406 C77.862999,135.153999 77.7220004,134.848002 77.638,134.488 C77.5539996,134.127998 77.512,133.732002 77.512,133.3 L77.512,128.458 L76.216,128.458 L76.216,127.342 L77.584,127.252 L77.764,124.804 L79.006,124.804 L79.006,127.252 L81.364,127.252 L81.364,128.458 L79.006,128.458 L79.006,133.318 C79.006,133.858003 79.104999,134.274999 79.303,134.569 C79.501001,134.863001 79.8519975,135.01 80.356,135.01 C80.5120008,135.01 80.6799991,134.986 80.86,134.938 C81.0400009,134.89 81.2019993,134.836 81.346,134.776 L81.634,135.892 C81.3939988,135.976 81.1330014,136.051 80.851,136.117 C80.5689986,136.183 80.2900014,136.216 80.014,136.216 Z M86.89,136.216 C86.3019971,136.216 85.7530026,136.111001 85.243,135.901 C84.7329974,135.690999 84.2890019,135.391002 83.911,135.001 C83.5329981,134.610998 83.2360011,134.134003 83.02,133.57 C82.8039989,133.005997 82.696,132.364004 82.696,131.644 C82.696,130.923996 82.8069989,130.279003 83.029,129.709 C83.2510011,129.138997 83.5449982,128.656002 83.911,128.26 C84.2770018,127.863998 84.6939977,127.561001 85.162,127.351 C85.6300023,127.140999 86.1159975,127.036 86.62,127.036 C87.1720028,127.036 87.6669978,127.131999 88.105,127.324 C88.5430022,127.516001 88.9089985,127.791998 89.203,128.152 C89.4970015,128.512002 89.7219992,128.943997 89.878,129.448 C90.0340008,129.952003 90.112,130.515997 90.112,131.14 C90.112,131.296001 90.109,131.448999 90.103,131.599 C90.097,131.749001 90.0820001,131.877999 90.058,131.986 L84.154,131.986 C84.2140003,132.922005 84.5049974,133.662997 85.027,134.209 C85.5490026,134.755003 86.2299958,135.028 87.07,135.028 C87.4900021,135.028 87.8769982,134.965001 88.231,134.839 C88.5850018,134.712999 88.9239984,134.548001 89.248,134.344 L89.77,135.316 C89.3859981,135.556001 88.9600023,135.765999 88.492,135.946 C88.0239977,136.126001 87.490003,136.216 86.89,136.216 Z M84.136,130.924 L88.816,130.924 C88.816,130.035996 88.6270019,129.361002 88.249,128.899 C87.8709981,128.436998 87.3400034,128.206 86.656,128.206 C86.3439984,128.206 86.0470014,128.265999 85.765,128.386 C85.4829986,128.506001 85.2280011,128.682999 85,128.917 C84.7719989,129.151001 84.5830008,129.435998 84.433,129.772 C84.2829993,130.108002 84.1840002,130.491998 84.136,130.924 Z M98.626,136.216 C98.1579977,136.216 97.7650016,136.144001 97.447,136 C97.1289984,135.855999 96.871001,135.658001 96.673,135.406 C96.474999,135.153999 96.3340004,134.848002 96.25,134.488 C96.1659996,134.127998 96.124,133.732002 96.124,133.3 L96.124,128.458 L94.828,128.458 L94.828,127.342 L96.196,127.252 L96.376,124.804 L97.618,124.804 L97.618,127.252 L99.976,127.252 L99.976,128.458 L97.618,128.458 L97.618,133.318 C97.618,133.858003 97.716999,134.274999 97.915,134.569 C98.113001,134.863001 98.4639975,135.01 98.968,135.01 C99.1240008,135.01 99.2919991,134.986 99.472,134.938 C99.6520009,134.89 99.8139993,134.836 99.958,134.776 L100.246,135.892 C100.005999,135.976 99.7450014,136.051 99.463,136.117 C99.1809986,136.183 98.9020014,136.216 98.626,136.216 Z M101.956,136 L101.956,123.184 L103.432,123.184 L103.432,126.676 L103.378,128.476 C103.798002,128.079998 104.235998,127.741001 104.692,127.459 C105.148002,127.176999 105.681997,127.036 106.294,127.036 C107.218005,127.036 107.892998,127.323997 108.319,127.9 C108.745002,128.476003 108.958,129.327994 108.958,130.456 L108.958,136 L107.482,136 L107.482,130.654 C107.482,129.825996 107.350001,129.229002 107.086,128.863 C106.821999,128.496998 106.402003,128.314 105.826,128.314 C105.369998,128.314 104.968002,128.427999 104.62,128.656 C104.271998,128.884001 103.876002,129.219998 103.432,129.664 L103.432,136 L101.956,136 Z M115.294,136.216 C114.705997,136.216 114.157003,136.111001 113.647,135.901 C113.136997,135.690999 112.693002,135.391002 112.315,135.001 C111.936998,134.610998 111.640001,134.134003 111.424,133.57 C111.207999,133.005997 111.1,132.364004 111.1,131.644 C111.1,130.923996 111.210999,130.279003 111.433,129.709 C111.655001,129.138997 111.948998,128.656002 112.315,128.26 C112.681002,127.863998 113.097998,127.561001 113.566,127.351 C114.034002,127.140999 114.519997,127.036 115.024,127.036 C115.576003,127.036 116.070998,127.131999 116.509,127.324 C116.947002,127.516001 117.312999,127.791998 117.607,128.152 C117.901001,128.512002 118.125999,128.943997 118.282,129.448 C118.438001,129.952003 118.516,130.515997 118.516,131.14 C118.516,131.296001 118.513,131.448999 118.507,131.599 C118.501,131.749001 118.486,131.877999 118.462,131.986 L112.558,131.986 C112.618,132.922005 112.908997,133.662997 113.431,134.209 C113.953003,134.755003 114.633996,135.028 115.474,135.028 C115.894002,135.028 116.280998,134.965001 116.635,134.839 C116.989002,134.712999 117.327998,134.548001 117.652,134.344 L118.174,135.316 C117.789998,135.556001 117.364002,135.765999 116.896,135.946 C116.427998,136.126001 115.894003,136.216 115.294,136.216 Z M112.54,130.924 L117.22,130.924 C117.22,130.035996 117.031002,129.361002 116.653,128.899 C116.274998,128.436998 115.744003,128.206 115.06,128.206 C114.747998,128.206 114.451001,128.265999 114.169,128.386 C113.886999,128.506001 113.632001,128.682999 113.404,128.917 C113.175999,129.151001 112.987001,129.435998 112.837,129.772 C112.686999,130.108002 112.588,130.491998 112.54,130.924 Z M126.562,136.216 C125.937997,136.216 125.344003,136.102001 124.78,135.874 C124.215997,135.645999 123.724002,135.358002 123.304,135.01 L124.042,134.02 C124.426002,134.332002 124.818998,134.583999 125.221,134.776 C125.623002,134.968001 126.087997,135.064 126.616,135.064 C127.192003,135.064 127.623999,134.932001 127.912,134.668 C128.200001,134.403999 128.344,134.080002 128.344,133.696 C128.344,133.467999 128.284001,133.270001 128.164,133.102 C128.043999,132.933999 127.891001,132.787001 127.705,132.661 C127.518999,132.534999 127.306001,132.424 127.066,132.328 L126.346,132.04 C126.033998,131.931999 125.722002,131.809001 125.41,131.671 C125.097998,131.532999 124.819001,131.365001 124.573,131.167 C124.326999,130.968999 124.126001,130.738001 123.97,130.474 C123.813999,130.209999 123.736,129.892002 123.736,129.52 C123.736,129.171998 123.804999,128.845002 123.943,128.539 C124.081001,128.232998 124.278999,127.969001 124.537,127.747 C124.795001,127.524999 125.109998,127.351001 125.482,127.225 C125.854002,127.098999 126.273998,127.036 126.742,127.036 C127.294003,127.036 127.800998,127.131999 128.263,127.324 C128.725002,127.516001 129.123998,127.749999 129.46,128.026 L128.758,128.962 C128.457999,128.733999 128.146002,128.548001 127.822,128.404 C127.497998,128.259999 127.144002,128.188 126.76,128.188 C126.207997,128.188 125.803001,128.313999 125.545,128.566 C125.286999,128.818001 125.158,129.111998 125.158,129.448 C125.158,129.652001 125.211999,129.828999 125.32,129.979 C125.428001,130.129001 125.571999,130.260999 125.752,130.375 C125.932001,130.489001 126.138999,130.591 126.373,130.681 C126.607001,130.771 126.849999,130.864 127.102,130.96 C127.414002,131.080001 127.728998,131.205999 128.047,131.338 C128.365002,131.470001 128.649999,131.634999 128.902,131.833 C129.154001,132.031001 129.360999,132.273999 129.523,132.562 C129.685001,132.850001 129.766,133.197998 129.766,133.606 C129.766,133.966002 129.697001,134.301998 129.559,134.614 C129.420999,134.926002 129.217001,135.201999 128.947,135.442 C128.676999,135.682001 128.341002,135.870999 127.939,136.009 C127.536998,136.147001 127.078003,136.216 126.562,136.216 Z M135.364,136.216 C134.775997,136.216 134.227003,136.111001 133.717,135.901 C133.206997,135.690999 132.763002,135.391002 132.385,135.001 C132.006998,134.610998 131.710001,134.134003 131.494,133.57 C131.277999,133.005997 131.17,132.364004 131.17,131.644 C131.17,130.923996 131.280999,130.279003 131.503,129.709 C131.725001,129.138997 132.018998,128.656002 132.385,128.26 C132.751002,127.863998 133.167998,127.561001 133.636,127.351 C134.104002,127.140999 134.589997,127.036 135.094,127.036 C135.646003,127.036 136.140998,127.131999 136.579,127.324 C137.017002,127.516001 137.382999,127.791998 137.677,128.152 C137.971001,128.512002 138.195999,128.943997 138.352,129.448 C138.508001,129.952003 138.586,130.515997 138.586,131.14 C138.586,131.296001 138.583,131.448999 138.577,131.599 C138.571,131.749001 138.556,131.877999 138.532,131.986 L132.628,131.986 C132.688,132.922005 132.978997,133.662997 133.501,134.209 C134.023003,134.755003 134.703996,135.028 135.544,135.028 C135.964002,135.028 136.350998,134.965001 136.705,134.839 C137.059002,134.712999 137.397998,134.548001 137.722,134.344 L138.244,135.316 C137.859998,135.556001 137.434002,135.765999 136.966,135.946 C136.497998,136.126001 135.964003,136.216 135.364,136.216 Z M132.61,130.924 L137.29,130.924 C137.29,130.035996 137.101002,129.361002 136.723,128.899 C136.344998,128.436998 135.814003,128.206 135.13,128.206 C134.817998,128.206 134.521001,128.265999 134.239,128.386 C133.956999,128.506001 133.702001,128.682999 133.474,128.917 C133.245999,129.151001 133.057001,129.435998 132.907,129.772 C132.756999,130.108002 132.658,130.491998 132.61,130.924 Z M142.762,136.216 C142.029996,136.216 141.421002,136.000002 140.935,135.568 C140.448998,135.135998 140.206,134.524004 140.206,133.732 C140.206,132.771995 140.631996,132.037003 141.484,131.527 C142.336004,131.016997 143.697991,130.660001 145.57,130.456 C145.57,130.179999 145.543,129.910001 145.489,129.646 C145.435,129.381999 145.342001,129.148001 145.21,128.944 C145.077999,128.739999 144.895001,128.575001 144.661,128.449 C144.426999,128.322999 144.130002,128.26 143.77,128.26 C143.265997,128.26 142.792002,128.355999 142.348,128.548 C141.903998,128.740001 141.508002,128.955999 141.16,129.196 L140.584,128.17 C140.992002,127.905999 141.489997,127.651001 142.078,127.405 C142.666003,127.158999 143.313996,127.036 144.022,127.036 C145.090005,127.036 145.863998,127.362997 146.344,128.017 C146.824002,128.671003 147.064,129.543995 147.064,130.636 L147.064,136 L145.84,136 L145.714,134.956 L145.66,134.956 C145.239998,135.304002 144.790002,135.600999 144.31,135.847 C143.829998,136.093001 143.314003,136.216 142.762,136.216 Z M143.194,135.028 C143.614002,135.028 144.009998,134.929001 144.382,134.731 C144.754002,134.532999 145.149998,134.242002 145.57,133.858 L145.57,131.428 C144.837996,131.524 144.223002,131.637999 143.725,131.77 C143.226998,131.902001 142.825002,132.057999 142.519,132.238 C142.212998,132.418001 141.991001,132.624999 141.853,132.859 C141.714999,133.093001 141.646,133.347999 141.646,133.624 C141.646,134.128003 141.795998,134.487999 142.096,134.704 C142.396002,134.920001 142.761998,135.028 143.194,135.028 Z M149.818,136 L149.818,127.252 L151.042,127.252 L151.168,128.836 L151.222,128.836 C151.522002,128.283997 151.884998,127.846002 152.311,127.522 C152.737002,127.197998 153.201997,127.036 153.706,127.036 C154.054002,127.036 154.365999,127.095999 154.642,127.216 L154.354,128.512 C154.209999,128.464 154.078001,128.428 153.958,128.404 C153.837999,128.38 153.688001,128.368 153.508,128.368 C153.135998,128.368 152.749002,128.517998 152.347,128.818 C151.944998,129.118001 151.594002,129.639996 151.294,130.384 L151.294,136 L149.818,136 Z M159.52,136.216 C158.943997,136.216 158.404003,136.114001 157.9,135.91 C157.395997,135.705999 156.961002,135.409002 156.595,135.019 C156.228998,134.628998 155.941001,134.149003 155.731,133.579 C155.520999,133.008997 155.416,132.364004 155.416,131.644 C155.416,130.911996 155.529999,130.261003 155.758,129.691 C155.986001,129.120997 156.291998,128.638002 156.676,128.242 C157.060002,127.845998 157.506997,127.546001 158.017,127.342 C158.527003,127.137999 159.063997,127.036 159.628,127.036 C160.204003,127.036 160.695998,127.137999 161.104,127.342 C161.512002,127.546001 161.871998,127.785999 162.184,128.062 L161.428,129.034 C161.175999,128.805999 160.909001,128.620001 160.627,128.476 C160.344999,128.331999 160.030002,128.26 159.682,128.26 C159.285998,128.26 158.920002,128.340999 158.584,128.503 C158.247998,128.665001 157.960001,128.895999 157.72,129.196 C157.479999,129.496001 157.291001,129.852998 157.153,130.267 C157.014999,130.681002 156.946,131.139997 156.946,131.644 C156.946,132.148003 157.011999,132.603998 157.144,133.012 C157.276001,133.420002 157.458999,133.770999 157.693,134.065 C157.927001,134.359001 158.211998,134.586999 158.548,134.749 C158.884002,134.911001 159.249998,134.992 159.646,134.992 C160.054002,134.992 160.428998,134.905001 160.771,134.731 C161.113002,134.556999 161.421999,134.350001 161.698,134.11 L162.346,135.1 C161.949998,135.448002 161.512002,135.720999 161.032,135.919 C160.551998,136.117001 160.048003,136.216 159.52,136.216 Z M164.272,136 L164.272,123.184 L165.748,123.184 L165.748,126.676 L165.694,128.476 C166.114002,128.079998 166.551998,127.741001 167.008,127.459 C167.464002,127.176999 167.997997,127.036 168.61,127.036 C169.534005,127.036 170.208998,127.323997 170.635,127.9 C171.061002,128.476003 171.274,129.327994 171.274,130.456 L171.274,136 L169.798,136 L169.798,130.654 C169.798,129.825996 169.666001,129.229002 169.402,128.863 C169.137999,128.496998 168.718003,128.314 168.142,128.314 C167.685998,128.314 167.284002,128.427999 166.936,128.656 C166.587998,128.884001 166.192002,129.219998 165.748,129.664 L165.748,136 L164.272,136 Z M181.534,136.216 C181.125998,136.216 180.703002,136.117001 180.265,135.919 C179.826998,135.720999 179.416002,135.448002 179.032,135.1 L178.978,135.1 L178.852,136 L177.664,136 L177.664,123.184 L179.14,123.184 L179.14,126.676 L179.104,128.26 C179.500002,127.911998 179.931998,127.621001 180.4,127.387 C180.868002,127.152999 181.347998,127.036 181.84,127.036 C182.404003,127.036 182.901998,127.140999 183.334,127.351 C183.766002,127.561001 184.128999,127.860998 184.423,128.251 C184.717001,128.641002 184.938999,129.108997 185.089,129.655 C185.239001,130.201003 185.314,130.809997 185.314,131.482 C185.314,132.226004 185.212001,132.891997 185.008,133.48 C184.803999,134.068003 184.528002,134.565998 184.18,134.974 C183.831998,135.382002 183.430002,135.690999 182.974,135.901 C182.517998,136.111001 182.038003,136.216 181.534,136.216 Z M181.282,134.974 C181.642002,134.974 181.974998,134.893001 182.281,134.731 C182.587002,134.568999 182.850999,134.341001 183.073,134.047 C183.295001,133.752999 183.468999,133.390002 183.595,132.958 C183.721001,132.525998 183.784,132.040003 183.784,131.5 C183.784,131.019998 183.742,130.582002 183.658,130.186 C183.574,129.789998 183.439001,129.451001 183.253,129.169 C183.066999,128.886999 182.827001,128.668001 182.533,128.512 C182.238999,128.355999 181.888002,128.278 181.48,128.278 C180.771996,128.278 179.992004,128.673996 179.14,129.466 L179.14,134.056 C179.524002,134.392002 179.904998,134.628999 180.283,134.767 C180.661002,134.905001 180.993999,134.974 181.282,134.974 Z M189.634,136.216 C188.901996,136.216 188.293002,136.000002 187.807,135.568 C187.320998,135.135998 187.078,134.524004 187.078,133.732 C187.078,132.771995 187.503996,132.037003 188.356,131.527 C189.208004,131.016997 190.569991,130.660001 192.442,130.456 C192.442,130.179999 192.415,129.910001 192.361,129.646 C192.307,129.381999 192.214001,129.148001 192.082,128.944 C191.949999,128.739999 191.767001,128.575001 191.533,128.449 C191.298999,128.322999 191.002002,128.26 190.642,128.26 C190.137997,128.26 189.664002,128.355999 189.22,128.548 C188.775998,128.740001 188.380002,128.955999 188.032,129.196 L187.456,128.17 C187.864002,127.905999 188.361997,127.651001 188.95,127.405 C189.538003,127.158999 190.185996,127.036 190.894,127.036 C191.962005,127.036 192.735998,127.362997 193.216,128.017 C193.696002,128.671003 193.936,129.543995 193.936,130.636 L193.936,136 L192.712,136 L192.586,134.956 L192.532,134.956 C192.111998,135.304002 191.662002,135.600999 191.182,135.847 C190.701998,136.093001 190.186003,136.216 189.634,136.216 Z M190.066,135.028 C190.486002,135.028 190.881998,134.929001 191.254,134.731 C191.626002,134.532999 192.021998,134.242002 192.442,133.858 L192.442,131.428 C191.709996,131.524 191.095002,131.637999 190.597,131.77 C190.098998,131.902001 189.697002,132.057999 189.391,132.238 C189.084998,132.418001 188.863001,132.624999 188.725,132.859 C188.586999,133.093001 188.518,133.347999 188.518,133.624 C188.518,134.128003 188.667999,134.487999 188.968,134.704 C189.268002,134.920001 189.633998,135.028 190.066,135.028 Z M196.69,136 L196.69,127.252 L197.914,127.252 L198.04,128.836 L198.094,128.836 C198.394002,128.283997 198.756998,127.846002 199.183,127.522 C199.609002,127.197998 200.073997,127.036 200.578,127.036 C200.926002,127.036 201.237999,127.095999 201.514,127.216 L201.226,128.512 C201.081999,128.464 200.950001,128.428 200.83,128.404 C200.709999,128.38 200.560001,128.368 200.38,128.368 C200.007998,128.368 199.621002,128.517998 199.219,128.818 C198.816998,129.118001 198.466002,129.639996 198.166,130.384 L198.166,136 L196.69,136 Z M203.71,136.216 C203.409999,136.216 203.155001,136.111001 202.945,135.901 C202.734999,135.690999 202.63,135.424002 202.63,135.1 C202.63,134.751998 202.734999,134.473001 202.945,134.263 C203.155001,134.052999 203.409999,133.948 203.71,133.948 C203.998001,133.948 204.246999,134.052999 204.457,134.263 C204.667001,134.473001 204.772,134.751998 204.772,135.1 C204.772,135.424002 204.667001,135.690999 204.457,135.901 C204.246999,136.111001 203.998001,136.216 203.71,136.216 Z M213.61,136 L213.61,125.452 L210.046,125.452 L210.046,124.192 L218.686,124.192 L218.686,125.452 L215.122,125.452 L215.122,136 L213.61,136 Z M220.81,139.762 C220.605999,139.762 220.420001,139.747 220.252,139.717 C220.083999,139.687 219.928001,139.642 219.784,139.582 L220.072,138.412 L220.396,138.493 C220.516001,138.523 220.629999,138.538 220.738,138.538 C221.242003,138.538 221.652998,138.361002 221.971,138.007 C222.289002,137.652998 222.537999,137.206003 222.718,136.666 L222.916,136.018 L219.406,127.252 L220.936,127.252 L222.718,132.094 C222.850001,132.478002 222.990999,132.882998 223.141,133.309 C223.291001,133.735002 223.431999,134.151998 223.564,134.56 L223.636,134.56 C223.768001,134.163998 223.893999,133.750002 224.014,133.318 C224.134001,132.885998 224.253999,132.478002 224.374,132.094 L225.94,127.252 L227.38,127.252 L224.086,136.72 C223.929999,137.152002 223.756001,137.553998 223.564,137.926 C223.371999,138.298002 223.144001,138.618999 222.88,138.889 C222.615999,139.159001 222.316002,139.371999 221.98,139.528 C221.643998,139.684001 221.254002,139.762 220.81,139.762 Z M229.072,139.69 L229.072,127.252 L230.296,127.252 L230.422,128.26 L230.476,128.26 C230.872002,127.923998 231.306998,127.636001 231.781,127.396 C232.255002,127.155999 232.749997,127.036 233.266,127.036 C233.830003,127.036 234.327998,127.140999 234.76,127.351 C235.192002,127.561001 235.551999,127.860998 235.84,128.251 C236.128001,128.641002 236.346999,129.108997 236.497,129.655 C236.647001,130.201003 236.722,130.815997 236.722,131.5 C236.722,132.244004 236.620001,132.906997 236.416,133.489 C236.211999,134.071003 235.936002,134.565998 235.588,134.974 C235.239998,135.382002 234.838002,135.690999 234.382,135.901 C233.925998,136.111001 233.446003,136.216 232.942,136.216 C232.533998,136.216 232.129002,136.126001 231.727,135.946 C231.324998,135.765999 230.920002,135.520002 230.512,135.208 L230.548,136.738 L230.548,139.69 L229.072,139.69 Z M232.69,134.974 C233.050002,134.974 233.382998,134.893001 233.689,134.731 C233.995002,134.568999 234.258999,134.341001 234.481,134.047 C234.703001,133.752999 234.876999,133.390002 235.003,132.958 C235.129001,132.525998 235.192,132.040003 235.192,131.5 C235.192,131.019998 235.15,130.582002 235.066,130.186 C234.982,129.789998 234.847001,129.451001 234.661,129.169 C234.474999,128.886999 234.235001,128.668001 233.941,128.512 C233.646999,128.355999 233.296002,128.278 232.888,128.278 C232.515998,128.278 232.141002,128.379999 231.763,128.584 C231.384998,128.788001 230.980002,129.081998 230.548,129.466 L230.548,134.056 C230.944002,134.392002 231.327998,134.628999 231.7,134.767 C232.072002,134.905001 232.401999,134.974 232.69,134.974 Z M242.608,136.216 C242.019997,136.216 241.471003,136.111001 240.961,135.901 C240.450997,135.690999 240.007002,135.391002 239.629,135.001 C239.250998,134.610998 238.954001,134.134003 238.738,133.57 C238.521999,133.005997 238.414,132.364004 238.414,131.644 C238.414,130.923996 238.524999,130.279003 238.747,129.709 C238.969001,129.138997 239.262998,128.656002 239.629,128.26 C239.995002,127.863998 240.411998,127.561001 240.88,127.351 C241.348002,127.140999 241.833997,127.036 242.338,127.036 C242.890003,127.036 243.384998,127.131999 243.823,127.324 C244.261002,127.516001 244.626999,127.791998 244.921,128.152 C245.215001,128.512002 245.439999,128.943997 245.596,129.448 C245.752001,129.952003 245.83,130.515997 245.83,131.14 C245.83,131.296001 245.827,131.448999 245.821,131.599 C245.815,131.749001 245.8,131.877999 245.776,131.986 L239.872,131.986 C239.932,132.922005 240.222997,133.662997 240.745,134.209 C241.267003,134.755003 241.947996,135.028 242.788,135.028 C243.208002,135.028 243.594998,134.965001 243.949,134.839 C244.303002,134.712999 244.641998,134.548001 244.966,134.344 L245.488,135.316 C245.103998,135.556001 244.678002,135.765999 244.21,135.946 C243.741998,136.126001 243.208003,136.216 242.608,136.216 Z M239.854,130.924 L244.534,130.924 C244.534,130.035996 244.345002,129.361002 243.967,128.899 C243.588998,128.436998 243.058003,128.206 242.374,128.206 C242.061998,128.206 241.765001,128.265999 241.483,128.386 C241.200999,128.506001 240.946001,128.682999 240.718,128.917 C240.489999,129.151001 240.301001,129.435998 240.151,129.772 C240.000999,130.108002 239.902,130.491998 239.854,130.924 Z M254.344,136.216 C253.875998,136.216 253.483002,136.144001 253.165,136 C252.846998,135.855999 252.589001,135.658001 252.391,135.406 C252.192999,135.153999 252.052,134.848002 251.968,134.488 C251.884,134.127998 251.842,133.732002 251.842,133.3 L251.842,128.458 L250.546,128.458 L250.546,127.342 L251.914,127.252 L252.094,124.804 L253.336,124.804 L253.336,127.252 L255.694,127.252 L255.694,128.458 L253.336,128.458 L253.336,133.318 C253.336,133.858003 253.434999,134.274999 253.633,134.569 C253.831001,134.863001 254.181997,135.01 254.686,135.01 C254.842001,135.01 255.009999,134.986 255.19,134.938 C255.370001,134.89 255.531999,134.836 255.676,134.776 L255.964,135.892 C255.723999,135.976 255.463001,136.051 255.181,136.117 C254.898999,136.183 254.620001,136.216 254.344,136.216 Z M257.674,136 L257.674,123.184 L259.15,123.184 L259.15,126.676 L259.096,128.476 C259.516002,128.079998 259.953998,127.741001 260.41,127.459 C260.866002,127.176999 261.399997,127.036 262.012,127.036 C262.936005,127.036 263.610998,127.323997 264.037,127.9 C264.463002,128.476003 264.676,129.327994 264.676,130.456 L264.676,136 L263.2,136 L263.2,130.654 C263.2,129.825996 263.068001,129.229002 262.804,128.863 C262.539999,128.496998 262.120003,128.314 261.544,128.314 C261.087998,128.314 260.686002,128.427999 260.338,128.656 C259.989998,128.884001 259.594002,129.219998 259.15,129.664 L259.15,136 L257.674,136 Z M271.012,136.216 C270.423997,136.216 269.875003,136.111001 269.365,135.901 C268.854997,135.690999 268.411002,135.391002 268.033,135.001 C267.654998,134.610998 267.358001,134.134003 267.142,133.57 C266.925999,133.005997 266.818,132.364004 266.818,131.644 C266.818,130.923996 266.928999,130.279003 267.151,129.709 C267.373001,129.138997 267.666998,128.656002 268.033,128.26 C268.399002,127.863998 268.815998,127.561001 269.284,127.351 C269.752002,127.140999 270.237997,127.036 270.742,127.036 C271.294003,127.036 271.788998,127.131999 272.227,127.324 C272.665002,127.516001 273.030999,127.791998 273.325,128.152 C273.619001,128.512002 273.843999,128.943997 274,129.448 C274.156001,129.952003 274.234,130.515997 274.234,131.14 C274.234,131.296001 274.231,131.448999 274.225,131.599 C274.219,131.749001 274.204,131.877999 274.18,131.986 L268.276,131.986 C268.336,132.922005 268.626997,133.662997 269.149,134.209 C269.671003,134.755003 270.351996,135.028 271.192,135.028 C271.612002,135.028 271.998998,134.965001 272.353,134.839 C272.707002,134.712999 273.045998,134.548001 273.37,134.344 L273.892,135.316 C273.507998,135.556001 273.082002,135.765999 272.614,135.946 C272.145998,136.126001 271.612003,136.216 271.012,136.216 Z M268.258,130.924 L272.938,130.924 C272.938,130.035996 272.749002,129.361002 272.371,128.899 C271.992998,128.436998 271.462003,128.206 270.778,128.206 C270.465998,128.206 270.169001,128.265999 269.887,128.386 C269.604999,128.506001 269.350001,128.682999 269.122,128.917 C268.893999,129.151001 268.705001,129.435998 268.555,129.772 C268.404999,130.108002 268.306,130.491998 268.258,130.924 Z M279.994,136 L279.994,127.252 L281.218,127.252 L281.344,128.512 L281.398,128.512 C281.818002,128.091998 282.258998,127.741001 282.721,127.459 C283.183002,127.176999 283.719997,127.036 284.332,127.036 C285.256005,127.036 285.930998,127.323997 286.357,127.9 C286.783002,128.476003 286.996,129.327994 286.996,130.456 L286.996,136 L285.52,136 L285.52,130.654 C285.52,129.825996 285.388001,129.229002 285.124,128.863 C284.859999,128.496998 284.440003,128.314 283.864,128.314 C283.407998,128.314 283.006002,128.427999 282.658,128.656 C282.309998,128.884001 281.914002,129.219998 281.47,129.664 L281.47,136 L279.994,136 Z M291.856,136.216 C291.123996,136.216 290.515002,136.000002 290.029,135.568 C289.542998,135.135998 289.3,134.524004 289.3,133.732 C289.3,132.771995 289.725996,132.037003 290.578,131.527 C291.430004,131.016997 292.791991,130.660001 294.664,130.456 C294.664,130.179999 294.637,129.910001 294.583,129.646 C294.529,129.381999 294.436001,129.148001 294.304,128.944 C294.171999,128.739999 293.989001,128.575001 293.755,128.449 C293.520999,128.322999 293.224002,128.26 292.864,128.26 C292.359997,128.26 291.886002,128.355999 291.442,128.548 C290.997998,128.740001 290.602002,128.955999 290.254,129.196 L289.678,128.17 C290.086002,127.905999 290.583997,127.651001 291.172,127.405 C291.760003,127.158999 292.407996,127.036 293.116,127.036 C294.184005,127.036 294.957998,127.362997 295.438,128.017 C295.918002,128.671003 296.158,129.543995 296.158,130.636 L296.158,136 L294.934,136 L294.808,134.956 L294.754,134.956 C294.333998,135.304002 293.884002,135.600999 293.404,135.847 C292.923998,136.093001 292.408003,136.216 291.856,136.216 Z M292.288,135.028 C292.708002,135.028 293.103998,134.929001 293.476,134.731 C293.848002,134.532999 294.243998,134.242002 294.664,133.858 L294.664,131.428 C293.931996,131.524 293.317002,131.637999 292.819,131.77 C292.320998,131.902001 291.919002,132.057999 291.613,132.238 C291.306998,132.418001 291.085001,132.624999 290.947,132.859 C290.808999,133.093001 290.74,133.347999 290.74,133.624 C290.74,134.128003 290.889999,134.487999 291.19,134.704 C291.490002,134.920001 291.855998,135.028 292.288,135.028 Z M298.912,136 L298.912,127.252 L300.136,127.252 L300.262,128.512 L300.316,128.512 C300.700002,128.091998 301.116998,127.741001 301.567,127.459 C302.017002,127.176999 302.505997,127.036 303.034,127.036 C303.706003,127.036 304.230998,127.182999 304.609,127.477 C304.987002,127.771001 305.265999,128.181997 305.446,128.71 C305.902002,128.205997 306.360998,127.801002 306.823,127.495 C307.285002,127.188998 307.785997,127.036 308.326,127.036 C309.226005,127.036 309.894998,127.323997 310.333,127.9 C310.771002,128.476003 310.99,129.327994 310.99,130.456 L310.99,136 L309.514,136 L309.514,130.654 C309.514,129.825996 309.382001,129.229002 309.118,128.863 C308.853999,128.496998 308.446003,128.314 307.894,128.314 C307.233997,128.314 306.502004,128.763995 305.698,129.664 L305.698,136 L304.222,136 L304.222,130.654 C304.222,129.825996 304.090001,129.229002 303.826,128.863 C303.561999,128.496998 303.148003,128.314 302.584,128.314 C301.923997,128.314 301.192004,128.763995 300.388,129.664 L300.388,136 L298.912,136 Z M317.38,136.216 C316.791997,136.216 316.243003,136.111001 315.733,135.901 C315.222997,135.690999 314.779002,135.391002 314.401,135.001 C314.022998,134.610998 313.726001,134.134003 313.51,133.57 C313.293999,133.005997 313.186,132.364004 313.186,131.644 C313.186,130.923996 313.296999,130.279003 313.519,129.709 C313.741001,129.138997 314.034998,128.656002 314.401,128.26 C314.767002,127.863998 315.183998,127.561001 315.652,127.351 C316.120002,127.140999 316.605997,127.036 317.11,127.036 C317.662003,127.036 318.156998,127.131999 318.595,127.324 C319.033002,127.516001 319.398999,127.791998 319.693,128.152 C319.987001,128.512002 320.211999,128.943997 320.368,129.448 C320.524001,129.952003 320.602,130.515997 320.602,131.14 C320.602,131.296001 320.599,131.448999 320.593,131.599 C320.587,131.749001 320.572,131.877999 320.548,131.986 L314.644,131.986 C314.704,132.922005 314.994997,133.662997 315.517,134.209 C316.039003,134.755003 316.719996,135.028 317.56,135.028 C317.980002,135.028 318.366998,134.965001 318.721,134.839 C319.075002,134.712999 319.413998,134.548001 319.738,134.344 L320.26,135.316 C319.875998,135.556001 319.450002,135.765999 318.982,135.946 C318.513998,136.126001 317.980003,136.216 317.38,136.216 Z M314.626,130.924 L319.306,130.924 C319.306,130.035996 319.117002,129.361002 318.739,128.899 C318.360998,128.436998 317.830003,128.206 317.146,128.206 C316.833998,128.206 316.537001,128.265999 316.255,128.386 C315.972999,128.506001 315.718001,128.682999 315.49,128.917 C315.261999,129.151001 315.073001,129.435998 314.923,129.772 C314.772999,130.108002 314.674,130.491998 314.626,130.924 Z M329.764,136.216 C329.223997,136.216 328.711002,136.114001 328.225,135.91 C327.738998,135.705999 327.310002,135.409002 326.938,135.019 C326.565998,134.628998 326.269001,134.149003 326.047,133.579 C325.824999,133.008997 325.714,132.364004 325.714,131.644 C325.714,130.911996 325.824999,130.261003 326.047,129.691 C326.269001,129.120997 326.565998,128.638002 326.938,128.242 C327.310002,127.845998 327.738998,127.546001 328.225,127.342 C328.711002,127.137999 329.223997,127.036 329.764,127.036 C330.304003,127.036 330.816998,127.137999 331.303,127.342 C331.789002,127.546001 332.217998,127.845998 332.59,128.242 C332.962002,128.638002 333.258999,129.120997 333.481,129.691 C333.703001,130.261003 333.814,130.911996 333.814,131.644 C333.814,132.364004 333.703001,133.008997 333.481,133.579 C333.258999,134.149003 332.962002,134.628998 332.59,135.019 C332.217998,135.409002 331.789002,135.705999 331.303,135.91 C330.816998,136.114001 330.304003,136.216 329.764,136.216 Z M329.764,134.992 C330.136002,134.992 330.477998,134.911001 330.79,134.749 C331.102002,134.586999 331.368999,134.359001 331.591,134.065 C331.813001,133.770999 331.983999,133.420002 332.104,133.012 C332.224001,132.603998 332.284,132.148003 332.284,131.644 C332.284,131.139997 332.224001,130.681002 332.104,130.267 C331.983999,129.852998 331.813001,129.496001 331.591,129.196 C331.368999,128.895999 331.102002,128.665001 330.79,128.503 C330.477998,128.340999 330.136002,128.26 329.764,128.26 C329.391998,128.26 329.050002,128.340999 328.738,128.503 C328.425998,128.665001 328.159001,128.895999 327.937,129.196 C327.714999,129.496001 327.544001,129.852998 327.424,130.267 C327.303999,130.681002 327.244,131.139997 327.244,131.644 C327.244,132.148003 327.303999,132.603998 327.424,133.012 C327.544001,133.420002 327.714999,133.770999 327.937,134.065 C328.159001,134.359001 328.425998,134.586999 328.738,134.749 C329.050002,134.911001 329.391998,134.992 329.764,134.992 Z M336.37,136 L336.37,128.458 L335.182,128.458 L335.182,127.342 L336.37,127.252 L336.37,125.866 C336.37,124.965995 336.576998,124.258003 336.991,123.742 C337.405002,123.225997 338.049996,122.968 338.926,122.968 C339.202001,122.968 339.462999,122.995 339.709,123.049 C339.955001,123.103 340.179999,123.172 340.384,123.256 L340.06,124.39 C339.735998,124.245999 339.406002,124.174 339.07,124.174 C338.253996,124.174 337.846,124.737994 337.846,125.866 L337.846,127.252 L339.7,127.252 L339.7,128.458 L337.846,128.458 L337.846,136 L336.37,136 Z M43.492,159.216 C42.7599963,159.216 42.1510024,159.000002 41.665,158.568 C41.1789976,158.135998 40.936,157.524004 40.936,156.732 C40.936,155.771995 41.3619957,155.037003 42.214,154.527 C43.0660043,154.016997 44.4279906,153.660001 46.3,153.456 C46.3,153.179999 46.2730003,152.910001 46.219,152.646 C46.1649997,152.381999 46.0720007,152.148001 45.94,151.944 C45.8079993,151.739999 45.6250012,151.575001 45.391,151.449 C45.1569988,151.322999 44.8600018,151.26 44.5,151.26 C43.9959975,151.26 43.5220022,151.355999 43.078,151.548 C42.6339978,151.740001 42.2380017,151.955999 41.89,152.196 L41.314,151.17 C41.722002,150.905999 42.2199971,150.651001 42.808,150.405 C43.3960029,150.158999 44.0439965,150.036 44.752,150.036 C45.8200053,150.036 46.5939976,150.362997 47.074,151.017 C47.5540024,151.671003 47.794,152.543995 47.794,153.636 L47.794,159 L46.57,159 L46.444,157.956 L46.39,157.956 C45.9699979,158.304002 45.5200024,158.600999 45.04,158.847 C44.5599976,159.093001 44.0440028,159.216 43.492,159.216 Z M43.924,158.028 C44.3440021,158.028 44.7399981,157.929001 45.112,157.731 C45.4840019,157.532999 45.8799979,157.242002 46.3,156.858 L46.3,154.428 C45.5679963,154.524 44.9530025,154.637999 44.455,154.77 C43.9569975,154.902001 43.5550015,155.057999 43.249,155.238 C42.9429985,155.418001 42.7210007,155.624999 42.583,155.859 C42.4449993,156.093001 42.376,156.347999 42.376,156.624 C42.376,157.128003 42.5259985,157.487999 42.826,157.704 C43.1260015,157.920001 43.4919978,158.028 43.924,158.028 Z M57.604,159.216 C57.0279971,159.216 56.4880025,159.114001 55.984,158.91 C55.4799975,158.705999 55.0450018,158.409002 54.679,158.019 C54.3129982,157.628998 54.0250011,157.149003 53.815,156.579 C53.604999,156.008997 53.5,155.364004 53.5,154.644 C53.5,153.911996 53.6139989,153.261003 53.842,152.691 C54.0700011,152.120997 54.3759981,151.638002 54.76,151.242 C55.1440019,150.845998 55.5909975,150.546001 56.101,150.342 C56.6110025,150.137999 57.1479972,150.036 57.712,150.036 C58.2880029,150.036 58.779998,150.137999 59.188,150.342 C59.596002,150.546001 59.9559984,150.785999 60.268,151.062 L59.512,152.034 C59.2599987,151.805999 58.9930014,151.620001 58.711,151.476 C58.4289986,151.331999 58.1140017,151.26 57.766,151.26 C57.369998,151.26 57.0040017,151.340999 56.668,151.503 C56.3319983,151.665001 56.0440012,151.895999 55.804,152.196 C55.5639988,152.496002 55.3750007,152.852998 55.237,153.267 C55.0989993,153.681002 55.03,154.139997 55.03,154.644 C55.03,155.148003 55.0959993,155.603998 55.228,156.012 C55.3600007,156.420002 55.5429988,156.770999 55.777,157.065 C56.0110012,157.359001 56.2959983,157.586999 56.632,157.749 C56.9680017,157.911001 57.333998,157.992 57.73,157.992 C58.138002,157.992 58.5129983,157.905001 58.855,157.731 C59.1970017,157.556999 59.5059986,157.350001 59.782,157.11 L60.43,158.1 C60.033998,158.448002 59.5960024,158.720999 59.116,158.919 C58.6359976,159.117001 58.1320026,159.216 57.604,159.216 Z M62.356,159 L62.356,150.252 L63.832,150.252 L63.832,159 L62.356,159 Z M63.112,148.452 C62.8239986,148.452 62.581001,148.362001 62.383,148.182 C62.184999,148.001999 62.086,147.774001 62.086,147.498 C62.086,147.209999 62.184999,146.979001 62.383,146.805 C62.581001,146.630999 62.8239986,146.544 63.112,146.544 C63.4000014,146.544 63.642999,146.630999 63.841,146.805 C64.039001,146.979001 64.138,147.209999 64.138,147.498 C64.138,147.774001 64.039001,148.001999 63.841,148.182 C63.642999,148.362001 63.4000014,148.452 63.112,148.452 Z M69.538,159.216 C69.0699977,159.216 68.6770016,159.144001 68.359,159 C68.0409984,158.855999 67.783001,158.658001 67.585,158.406 C67.386999,158.153999 67.2460004,157.848002 67.162,157.488 C67.0779996,157.127998 67.036,156.732002 67.036,156.3 L67.036,151.458 L65.74,151.458 L65.74,150.342 L67.108,150.252 L67.288,147.804 L68.53,147.804 L68.53,150.252 L70.888,150.252 L70.888,151.458 L68.53,151.458 L68.53,156.318 C68.53,156.858003 68.628999,157.274999 68.827,157.569 C69.025001,157.863001 69.3759975,158.01 69.88,158.01 C70.0360008,158.01 70.2039991,157.986 70.384,157.938 C70.5640009,157.89 70.7259993,157.836 70.87,157.776 L71.158,158.892 C70.9179988,158.976 70.6570014,159.051 70.375,159.117 C70.0929986,159.183 69.8140014,159.216 69.538,159.216 Z M73.012,162.762 C72.807999,162.762 72.6220008,162.747 72.454,162.717 C72.2859992,162.687 72.1300007,162.642 71.986,162.582 L72.274,161.412 L72.598,161.493 C72.7180006,161.523 72.8319995,161.538 72.94,161.538 C73.4440025,161.538 73.8549984,161.361002 74.173,161.007 C74.4910016,160.652998 74.7399991,160.206003 74.92,159.666 L75.118,159.018 L71.608,150.252 L73.138,150.252 L74.92,155.094 C75.0520007,155.478002 75.1929992,155.882998 75.343,156.309 C75.4930008,156.735002 75.6339993,157.151998 75.766,157.56 L75.838,157.56 C75.9700007,157.163998 76.0959994,156.750002 76.216,156.318 C76.3360006,155.885998 76.4559994,155.478002 76.576,155.094 L78.142,150.252 L79.582,150.252 L76.288,159.72 C76.1319992,160.152002 75.958001,160.553998 75.766,160.926 C75.573999,161.298002 75.3460013,161.618999 75.082,161.889 C74.8179987,162.159001 74.5180017,162.371999 74.182,162.528 C73.8459983,162.684001 73.4560022,162.762 73.012,162.762 Z M88.276,159.216 C87.7359973,159.216 87.2230024,159.114001 86.737,158.91 C86.2509976,158.705999 85.8220019,158.409002 85.45,158.019 C85.0779981,157.628998 84.7810011,157.149003 84.559,156.579 C84.3369989,156.008997 84.226,155.364004 84.226,154.644 C84.226,153.911996 84.3369989,153.261003 84.559,152.691 C84.7810011,152.120997 85.0779981,151.638002 85.45,151.242 C85.8220019,150.845998 86.2509976,150.546001 86.737,150.342 C87.2230024,150.137999 87.7359973,150.036 88.276,150.036 C88.8160027,150.036 89.3289976,150.137999 89.815,150.342 C90.3010024,150.546001 90.7299981,150.845998 91.102,151.242 C91.4740019,151.638002 91.7709989,152.120997 91.993,152.691 C92.2150011,153.261003 92.326,153.911996 92.326,154.644 C92.326,155.364004 92.2150011,156.008997 91.993,156.579 C91.7709989,157.149003 91.4740019,157.628998 91.102,158.019 C90.7299981,158.409002 90.3010024,158.705999 89.815,158.91 C89.3289976,159.114001 88.8160027,159.216 88.276,159.216 Z M88.276,157.992 C88.6480019,157.992 88.9899984,157.911001 89.302,157.749 C89.6140016,157.586999 89.8809989,157.359001 90.103,157.065 C90.3250011,156.770999 90.4959994,156.420002 90.616,156.012 C90.7360006,155.603998 90.796,155.148003 90.796,154.644 C90.796,154.139997 90.7360006,153.681002 90.616,153.267 C90.4959994,152.852998 90.3250011,152.496002 90.103,152.196 C89.8809989,151.895999 89.6140016,151.665001 89.302,151.503 C88.9899984,151.340999 88.6480019,151.26 88.276,151.26 C87.9039981,151.26 87.5620016,151.340999 87.25,151.503 C86.9379984,151.665001 86.6710011,151.895999 86.449,152.196 C86.2269989,152.496002 86.0560006,152.852998 85.936,153.267 C85.8159994,153.681002 85.756,154.139997 85.756,154.644 C85.756,155.148003 85.8159994,155.603998 85.936,156.012 C86.0560006,156.420002 86.2269989,156.770999 86.449,157.065 C86.6710011,157.359001 86.9379984,157.586999 87.25,157.749 C87.5620016,157.911001 87.9039981,157.992 88.276,157.992 Z M94.63,159 L94.63,150.252 L95.854,150.252 L95.98,151.836 L96.034,151.836 C96.3340015,151.283997 96.6969979,150.846002 97.123,150.522 C97.5490021,150.197998 98.0139975,150.036 98.518,150.036 C98.8660017,150.036 99.1779986,150.095999 99.454,150.216 L99.166,151.512 C99.0219993,151.464 98.8900006,151.428 98.77,151.404 C98.6499994,151.38 98.5000009,151.368 98.32,151.368 C97.9479981,151.368 97.561002,151.517999 97.159,151.818 C96.756998,152.118001 96.4060015,152.639996 96.106,153.384 L96.106,159 L94.63,159 Z M104.476,159 L104.476,150.252 L105.7,150.252 L105.826,151.512 L105.88,151.512 C106.300002,151.091998 106.740998,150.741001 107.203,150.459 C107.665002,150.176999 108.201997,150.036 108.814,150.036 C109.738005,150.036 110.412998,150.323997 110.839,150.9 C111.265002,151.476003 111.478,152.327994 111.478,153.456 L111.478,159 L110.002,159 L110.002,153.654 C110.002,152.825996 109.870001,152.229002 109.606,151.863 C109.341999,151.496998 108.922003,151.314 108.346,151.314 C107.889998,151.314 107.488002,151.427999 107.14,151.656 C106.791998,151.884001 106.396002,152.219998 105.952,152.664 L105.952,159 L104.476,159 Z M117.868,159.216 C117.279997,159.216 116.731003,159.111001 116.221,158.901 C115.710997,158.690999 115.267002,158.391002 114.889,158.001 C114.510998,157.610998 114.214001,157.134003 113.998,156.57 C113.781999,156.005997 113.674,155.364004 113.674,154.644 C113.674,153.923996 113.784999,153.279003 114.007,152.709 C114.229001,152.138997 114.522998,151.656002 114.889,151.26 C115.255002,150.863998 115.671998,150.561001 116.14,150.351 C116.608002,150.140999 117.093997,150.036 117.598,150.036 C118.150003,150.036 118.644998,150.131999 119.083,150.324 C119.521002,150.516001 119.886999,150.791998 120.181,151.152 C120.475001,151.512002 120.699999,151.943997 120.856,152.448 C121.012001,152.952003 121.09,153.515997 121.09,154.14 C121.09,154.296001 121.087,154.448999 121.081,154.599 C121.075,154.749001 121.06,154.877999 121.036,154.986 L115.132,154.986 C115.192,155.922005 115.482997,156.662997 116.005,157.209 C116.527003,157.755003 117.207996,158.028 118.048,158.028 C118.468002,158.028 118.854998,157.965001 119.209,157.839 C119.563002,157.712999 119.901998,157.548001 120.226,157.344 L120.748,158.316 C120.363998,158.556001 119.938002,158.765999 119.47,158.946 C119.001998,159.126001 118.468003,159.216 117.868,159.216 Z M115.114,153.924 L119.794,153.924 C119.794,153.035996 119.605002,152.361002 119.227,151.899 C118.848998,151.436998 118.318003,151.206 117.634,151.206 C117.321998,151.206 117.025001,151.265999 116.743,151.386 C116.460999,151.506001 116.206001,151.682999 115.978,151.917 C115.749999,152.151001 115.561001,152.435998 115.411,152.772 C115.260999,153.108002 115.162,153.491998 115.114,153.924 Z M123.25,159 L123.25,150.252 L124.726,150.252 L124.726,159 L123.25,159 Z M124.006,148.452 C123.717999,148.452 123.475001,148.362001 123.277,148.182 C123.078999,148.001999 122.98,147.774001 122.98,147.498 C122.98,147.209999 123.078999,146.979001 123.277,146.805 C123.475001,146.630999 123.717999,146.544 124.006,146.544 C124.294001,146.544 124.536999,146.630999 124.735,146.805 C124.933001,146.979001 125.032,147.209999 125.032,147.498 C125.032,147.774001 124.933001,148.001999 124.735,148.182 C124.536999,148.362001 124.294001,148.452 124.006,148.452 Z M130.63,163.032 C130.089997,163.032 129.598002,162.981001 129.154,162.879 C128.709998,162.776999 128.329002,162.624001 128.011,162.42 C127.692998,162.215999 127.447001,161.970001 127.273,161.682 C127.098999,161.393999 127.012,161.058002 127.012,160.674 C127.012,160.301998 127.125999,159.948002 127.354,159.612 C127.582001,159.275998 127.893998,158.970001 128.29,158.694 L128.29,158.622 C128.073999,158.489999 127.891001,158.307001 127.741,158.073 C127.590999,157.838999 127.516,157.548002 127.516,157.2 C127.516,156.827998 127.617999,156.504001 127.822,156.228 C128.026001,155.951999 128.241999,155.736001 128.47,155.58 L128.47,155.508 C128.181999,155.267999 127.921001,154.947002 127.687,154.545 C127.452999,154.142998 127.336,153.678003 127.336,153.15 C127.336,152.669998 127.422999,152.238002 127.597,151.854 C127.771001,151.469998 128.007998,151.143001 128.308,150.873 C128.608002,150.602999 128.958998,150.396001 129.361,150.252 C129.763002,150.107999 130.185998,150.036 130.63,150.036 C130.870001,150.036 131.094999,150.057 131.305,150.099 C131.515001,150.141 131.703999,150.192 131.872,150.252 L134.914,150.252 L134.914,151.386 L133.114,151.386 C133.318001,151.590001 133.488999,151.847998 133.627,152.16 C133.765001,152.472002 133.834,152.813998 133.834,153.186 C133.834,153.654002 133.750001,154.076998 133.582,154.455 C133.413999,154.833002 133.186001,155.150999 132.898,155.409 C132.609999,155.667001 132.271002,155.867999 131.881,156.012 C131.490998,156.156001 131.074002,156.228 130.63,156.228 C130.413999,156.228 130.192001,156.201 129.964,156.147 C129.735999,156.093 129.520001,156.018 129.316,155.922 C129.159999,156.054001 129.028001,156.200999 128.92,156.363 C128.811999,156.525001 128.758,156.725999 128.758,156.966 C128.758,157.242001 128.865999,157.469999 129.082,157.65 C129.298001,157.830001 129.705997,157.92 130.306,157.92 L131.998,157.92 C133.018005,157.92 133.782997,158.084998 134.293,158.415 C134.803003,158.745002 135.058,159.275996 135.058,160.008 C135.058,160.416002 134.956001,160.802998 134.752,161.169 C134.547999,161.535002 134.254002,161.855999 133.87,162.132 C133.485998,162.408001 133.021003,162.626999 132.475,162.789 C131.928997,162.951001 131.314003,163.032 130.63,163.032 Z M130.63,155.238 C130.882001,155.238 131.118999,155.19 131.341,155.094 C131.563001,154.998 131.760999,154.860001 131.935,154.68 C132.109001,154.499999 132.244,154.281001 132.34,154.023 C132.436,153.764999 132.484,153.474002 132.484,153.15 C132.484,152.501997 132.304002,152.001002 131.944,151.647 C131.583998,151.292998 131.146003,151.116 130.63,151.116 C130.113997,151.116 129.676002,151.292998 129.316,151.647 C128.955998,152.001002 128.776,152.501997 128.776,153.15 C128.776,153.474002 128.824,153.764999 128.92,154.023 C129.016,154.281001 129.150999,154.499999 129.325,154.68 C129.499001,154.860001 129.696999,154.998 129.919,155.094 C130.141001,155.19 130.377999,155.238 130.63,155.238 Z M130.846,162.006 C131.266002,162.006 131.646998,161.955001 131.989,161.853 C132.331002,161.750999 132.621999,161.619001 132.862,161.457 C133.102001,161.294999 133.287999,161.106001 133.42,160.89 C133.552001,160.673999 133.618,160.452001 133.618,160.224 C133.618,159.815998 133.468002,159.534001 133.168,159.378 C132.867998,159.221999 132.430003,159.144 131.854,159.144 L130.342,159.144 C130.173999,159.144 129.991001,159.135 129.793,159.117 C129.594999,159.099 129.400001,159.06 129.208,159 C128.895998,159.228001 128.668001,159.467999 128.524,159.72 C128.379999,159.972001 128.308,160.223999 128.308,160.476 C128.308,160.944002 128.532998,161.315999 128.983,161.592 C129.433002,161.868001 130.053996,162.006 130.846,162.006 Z M136.75,159 L136.75,146.184 L138.226,146.184 L138.226,149.676 L138.172,151.476 C138.592002,151.079998 139.029998,150.741001 139.486,150.459 C139.942002,150.176999 140.475997,150.036 141.088,150.036 C142.012005,150.036 142.686998,150.323997 143.113,150.9 C143.539002,151.476003 143.752,152.327994 143.752,153.456 L143.752,159 L142.276,159 L142.276,153.654 C142.276,152.825996 142.144001,152.229002 141.88,151.863 C141.615999,151.496998 141.196003,151.314 140.62,151.314 C140.163998,151.314 139.762002,151.427999 139.414,151.656 C139.065998,151.884001 138.670002,152.219998 138.226,152.664 L138.226,159 L136.75,159 Z M150.412,159.216 C150.003998,159.216 149.581002,159.117001 149.143,158.919 C148.704998,158.720999 148.294002,158.448002 147.91,158.1 L147.856,158.1 L147.73,159 L146.542,159 L146.542,146.184 L148.018,146.184 L148.018,149.676 L147.982,151.26 C148.378002,150.911998 148.809998,150.621001 149.278,150.387 C149.746002,150.152999 150.225998,150.036 150.718,150.036 C151.282003,150.036 151.779998,150.140999 152.212,150.351 C152.644002,150.561001 153.006999,150.860998 153.301,151.251 C153.595001,151.641002 153.816999,152.108997 153.967,152.655 C154.117001,153.201003 154.192,153.809997 154.192,154.482 C154.192,155.226004 154.090001,155.891997 153.886,156.48 C153.681999,157.068003 153.406002,157.565998 153.058,157.974 C152.709998,158.382002 152.308002,158.690999 151.852,158.901 C151.395998,159.111001 150.916003,159.216 150.412,159.216 Z M150.16,157.974 C150.520002,157.974 150.852998,157.893001 151.159,157.731 C151.465002,157.568999 151.728999,157.341001 151.951,157.047 C152.173001,156.752999 152.346999,156.390002 152.473,155.958 C152.599001,155.525998 152.662,155.040003 152.662,154.5 C152.662,154.019998 152.62,153.582002 152.536,153.186 C152.452,152.789998 152.317001,152.451001 152.131,152.169 C151.944999,151.886999 151.705001,151.668001 151.411,151.512 C151.116999,151.355999 150.766002,151.278 150.358,151.278 C149.649996,151.278 148.870004,151.673996 148.018,152.466 L148.018,157.056 C148.402002,157.392002 148.782998,157.628999 149.161,157.767 C149.539002,157.905001 149.871999,157.974 150.16,157.974 Z M159.898,159.216 C159.357997,159.216 158.845002,159.114001 158.359,158.91 C157.872998,158.705999 157.444002,158.409002 157.072,158.019 C156.699998,157.628998 156.403001,157.149003 156.181,156.579 C155.958999,156.008997 155.848,155.364004 155.848,154.644 C155.848,153.911996 155.958999,153.261003 156.181,152.691 C156.403001,152.120997 156.699998,151.638002 157.072,151.242 C157.444002,150.845998 157.872998,150.546001 158.359,150.342 C158.845002,150.137999 159.357997,150.036 159.898,150.036 C160.438003,150.036 160.950998,150.137999 161.437,150.342 C161.923002,150.546001 162.351998,150.845998 162.724,151.242 C163.096002,151.638002 163.392999,152.120997 163.615,152.691 C163.837001,153.261003 163.948,153.911996 163.948,154.644 C163.948,155.364004 163.837001,156.008997 163.615,156.579 C163.392999,157.149003 163.096002,157.628998 162.724,158.019 C162.351998,158.409002 161.923002,158.705999 161.437,158.91 C160.950998,159.114001 160.438003,159.216 159.898,159.216 Z M159.898,157.992 C160.270002,157.992 160.611998,157.911001 160.924,157.749 C161.236002,157.586999 161.502999,157.359001 161.725,157.065 C161.947001,156.770999 162.117999,156.420002 162.238,156.012 C162.358001,155.603998 162.418,155.148003 162.418,154.644 C162.418,154.139997 162.358001,153.681002 162.238,153.267 C162.117999,152.852998 161.947001,152.496002 161.725,152.196 C161.502999,151.895999 161.236002,151.665001 160.924,151.503 C160.611998,151.340999 160.270002,151.26 159.898,151.26 C159.525998,151.26 159.184002,151.340999 158.872,151.503 C158.559998,151.665001 158.293001,151.895999 158.071,152.196 C157.848999,152.496002 157.678001,152.852998 157.558,153.267 C157.437999,153.681002 157.378,154.139997 157.378,154.644 C157.378,155.148003 157.437999,155.603998 157.558,156.012 C157.678001,156.420002 157.848999,156.770999 158.071,157.065 C158.293001,157.359001 158.559998,157.586999 158.872,157.749 C159.184002,157.911001 159.525998,157.992 159.898,157.992 Z M166.252,159 L166.252,150.252 L167.476,150.252 L167.602,151.836 L167.656,151.836 C167.956002,151.283997 168.318998,150.846002 168.745,150.522 C169.171002,150.197998 169.635997,150.036 170.14,150.036 C170.488002,150.036 170.799999,150.095999 171.076,150.216 L170.788,151.512 C170.643999,151.464 170.512001,151.428 170.392,151.404 C170.271999,151.38 170.122001,151.368 169.942,151.368 C169.569998,151.368 169.183002,151.517999 168.781,151.818 C168.378998,152.118001 168.028001,152.639996 167.728,153.384 L167.728,159 L166.252,159 Z M172.498,159 L172.498,146.184 L173.974,146.184 L173.974,149.676 L173.92,151.476 C174.340002,151.079998 174.777998,150.741001 175.234,150.459 C175.690002,150.176999 176.223997,150.036 176.836,150.036 C177.760005,150.036 178.434998,150.323997 178.861,150.9 C179.287002,151.476003 179.5,152.327994 179.5,153.456 L179.5,159 L178.024,159 L178.024,153.654 C178.024,152.825996 177.892001,152.229002 177.628,151.863 C177.363999,151.496998 176.944003,151.314 176.368,151.314 C175.911998,151.314 175.510002,151.427999 175.162,151.656 C174.813998,151.884001 174.418002,152.219998 173.974,152.664 L173.974,159 L172.498,159 Z M185.692,159.216 C185.151997,159.216 184.639002,159.114001 184.153,158.91 C183.666998,158.705999 183.238002,158.409002 182.866,158.019 C182.493998,157.628998 182.197001,157.149003 181.975,156.579 C181.752999,156.008997 181.642,155.364004 181.642,154.644 C181.642,153.911996 181.752999,153.261003 181.975,152.691 C182.197001,152.120997 182.493998,151.638002 182.866,151.242 C183.238002,150.845998 183.666998,150.546001 184.153,150.342 C184.639002,150.137999 185.151997,150.036 185.692,150.036 C186.232003,150.036 186.744998,150.137999 187.231,150.342 C187.717002,150.546001 188.145998,150.845998 188.518,151.242 C188.890002,151.638002 189.186999,152.120997 189.409,152.691 C189.631001,153.261003 189.742,153.911996 189.742,154.644 C189.742,155.364004 189.631001,156.008997 189.409,156.579 C189.186999,157.149003 188.890002,157.628998 188.518,158.019 C188.145998,158.409002 187.717002,158.705999 187.231,158.91 C186.744998,159.114001 186.232003,159.216 185.692,159.216 Z M185.692,157.992 C186.064002,157.992 186.405998,157.911001 186.718,157.749 C187.030002,157.586999 187.296999,157.359001 187.519,157.065 C187.741001,156.770999 187.911999,156.420002 188.032,156.012 C188.152001,155.603998 188.212,155.148003 188.212,154.644 C188.212,154.139997 188.152001,153.681002 188.032,153.267 C187.911999,152.852998 187.741001,152.496002 187.519,152.196 C187.296999,151.895999 187.030002,151.665001 186.718,151.503 C186.405998,151.340999 186.064002,151.26 185.692,151.26 C185.319998,151.26 184.978002,151.340999 184.666,151.503 C184.353998,151.665001 184.087001,151.895999 183.865,152.196 C183.642999,152.496002 183.472001,152.852998 183.352,153.267 C183.231999,153.681002 183.172,154.139997 183.172,154.644 C183.172,155.148003 183.231999,155.603998 183.352,156.012 C183.472001,156.420002 183.642999,156.770999 183.865,157.065 C184.087001,157.359001 184.353998,157.586999 184.666,157.749 C184.978002,157.911001 185.319998,157.992 185.692,157.992 Z M195.448,159.216 C194.907997,159.216 194.395002,159.114001 193.909,158.91 C193.422998,158.705999 192.994002,158.409002 192.622,158.019 C192.249998,157.628998 191.953001,157.149003 191.731,156.579 C191.508999,156.008997 191.398,155.364004 191.398,154.644 C191.398,153.911996 191.508999,153.261003 191.731,152.691 C191.953001,152.120997 192.249998,151.638002 192.622,151.242 C192.994002,150.845998 193.422998,150.546001 193.909,150.342 C194.395002,150.137999 194.907997,150.036 195.448,150.036 C195.988003,150.036 196.500998,150.137999 196.987,150.342 C197.473002,150.546001 197.901998,150.845998 198.274,151.242 C198.646002,151.638002 198.942999,152.120997 199.165,152.691 C199.387001,153.261003 199.498,153.911996 199.498,154.644 C199.498,155.364004 199.387001,156.008997 199.165,156.579 C198.942999,157.149003 198.646002,157.628998 198.274,158.019 C197.901998,158.409002 197.473002,158.705999 196.987,158.91 C196.500998,159.114001 195.988003,159.216 195.448,159.216 Z M195.448,157.992 C195.820002,157.992 196.161998,157.911001 196.474,157.749 C196.786002,157.586999 197.052999,157.359001 197.275,157.065 C197.497001,156.770999 197.667999,156.420002 197.788,156.012 C197.908001,155.603998 197.968,155.148003 197.968,154.644 C197.968,154.139997 197.908001,153.681002 197.788,153.267 C197.667999,152.852998 197.497001,152.496002 197.275,152.196 C197.052999,151.895999 196.786002,151.665001 196.474,151.503 C196.161998,151.340999 195.820002,151.26 195.448,151.26 C195.075998,151.26 194.734002,151.340999 194.422,151.503 C194.109998,151.665001 193.843001,151.895999 193.621,152.196 C193.398999,152.496002 193.228001,152.852998 193.108,153.267 C192.987999,153.681002 192.928,154.139997 192.928,154.644 C192.928,155.148003 192.987999,155.603998 193.108,156.012 C193.228001,156.420002 193.398999,156.770999 193.621,157.065 C193.843001,157.359001 194.109998,157.586999 194.422,157.749 C194.734002,157.911001 195.075998,157.992 195.448,157.992 Z M204.79,159.216 C203.685994,159.216 202.807003,158.820004 202.153,158.028 C201.498997,157.235996 201.172,156.108007 201.172,154.644 C201.172,153.935996 201.276999,153.297003 201.487,152.727 C201.697001,152.156997 201.975998,151.674002 202.324,151.278 C202.672,150.881998 203.073998,150.576001 203.53,150.36 C203.986002,150.143999 204.465997,150.036 204.97,150.036 C205.474003,150.036 205.911998,150.125999 206.284,150.306 C206.656002,150.486001 207.033998,150.731998 207.418,151.044 L207.346,149.55 L207.346,146.184 L208.84,146.184 L208.84,159 L207.616,159 L207.49,157.974 L207.436,157.974 C207.087998,158.310002 206.689002,158.600999 206.239,158.847 C205.788998,159.093001 205.306003,159.216 204.79,159.216 Z M205.114,157.974 C205.522002,157.974 205.905998,157.875001 206.266,157.677 C206.626002,157.478999 206.985998,157.176002 207.346,156.768 L207.346,152.196 C206.973998,151.859998 206.617002,151.623001 206.275,151.485 C205.932998,151.346999 205.582002,151.278 205.222,151.278 C204.873998,151.278 204.547002,151.358999 204.241,151.521 C203.934998,151.683001 203.668001,151.910999 203.44,152.205 C203.211999,152.499001 203.032001,152.849998 202.9,153.258 C202.767999,153.666002 202.702,154.121997 202.702,154.626 C202.702,155.682005 202.911998,156.503997 203.332,157.092 C203.752002,157.680003 204.345996,157.974 205.114,157.974 Z M211.522,162.06 L211.162,161.196 C211.678003,160.967999 212.079999,160.665002 212.368,160.287 C212.656001,159.908998 212.794,159.480002 212.782,159 C212.746,159.012 212.686,159.018 212.602,159.018 C212.313999,159.018 212.065001,158.931001 211.855,158.757 C211.644999,158.582999 211.54,158.328002 211.54,157.992 C211.54,157.667998 211.647999,157.413001 211.864,157.227 C212.080001,157.040999 212.337999,156.948 212.638,156.948 C213.022002,156.948 213.324999,157.103998 213.547,157.416 C213.769001,157.728002 213.88,158.153997 213.88,158.694 C213.88,159.474004 213.670002,160.151997 213.25,160.728 C212.829998,161.304003 212.254004,161.747998 211.522,162.06 Z M221.89,159.216 C221.157996,159.216 220.549002,159.000002 220.063,158.568 C219.576998,158.135998 219.334,157.524004 219.334,156.732 C219.334,155.771995 219.759996,155.037003 220.612,154.527 C221.464004,154.016997 222.825991,153.660001 224.698,153.456 C224.698,153.179999 224.671,152.910001 224.617,152.646 C224.563,152.381999 224.470001,152.148001 224.338,151.944 C224.205999,151.739999 224.023001,151.575001 223.789,151.449 C223.554999,151.322999 223.258002,151.26 222.898,151.26 C222.393997,151.26 221.920002,151.355999 221.476,151.548 C221.031998,151.740001 220.636002,151.955999 220.288,152.196 L219.712,151.17 C220.120002,150.905999 220.617997,150.651001 221.206,150.405 C221.794003,150.158999 222.441996,150.036 223.15,150.036 C224.218005,150.036 224.991998,150.362997 225.472,151.017 C225.952002,151.671003 226.192,152.543995 226.192,153.636 L226.192,159 L224.968,159 L224.842,157.956 L224.788,157.956 C224.367998,158.304002 223.918002,158.600999 223.438,158.847 C222.957998,159.093001 222.442003,159.216 221.89,159.216 Z M222.322,158.028 C222.742002,158.028 223.137998,157.929001 223.51,157.731 C223.882002,157.532999 224.277998,157.242002 224.698,156.858 L224.698,154.428 C223.965996,154.524 223.351002,154.637999 222.853,154.77 C222.354998,154.902001 221.953002,155.057999 221.647,155.238 C221.340998,155.418001 221.119001,155.624999 220.981,155.859 C220.842999,156.093001 220.774,156.347999 220.774,156.624 C220.774,157.128003 220.923999,157.487999 221.224,157.704 C221.524002,157.920001 221.889998,158.028 222.322,158.028 Z M228.946,159 L228.946,150.252 L230.17,150.252 L230.296,151.512 L230.35,151.512 C230.770002,151.091998 231.210998,150.741001 231.673,150.459 C232.135002,150.176999 232.671997,150.036 233.284,150.036 C234.208005,150.036 234.882998,150.323997 235.309,150.9 C235.735002,151.476003 235.948,152.327994 235.948,153.456 L235.948,159 L234.472,159 L234.472,153.654 C234.472,152.825996 234.340001,152.229002 234.076,151.863 C233.811999,151.496998 233.392003,151.314 232.816,151.314 C232.359998,151.314 231.958002,151.427999 231.61,151.656 C231.261998,151.884001 230.866002,152.219998 230.422,152.664 L230.422,159 L228.946,159 Z M241.78,159.216 C240.675994,159.216 239.797003,158.820004 239.143,158.028 C238.488997,157.235996 238.162,156.108007 238.162,154.644 C238.162,153.935996 238.266999,153.297003 238.477,152.727 C238.687001,152.156997 238.965998,151.674002 239.314,151.278 C239.662,150.881998 240.063998,150.576001 240.52,150.36 C240.976002,150.143999 241.455997,150.036 241.96,150.036 C242.464003,150.036 242.901998,150.125999 243.274,150.306 C243.646002,150.486001 244.023998,150.731998 244.408,151.044 L244.336,149.55 L244.336,146.184 L245.83,146.184 L245.83,159 L244.606,159 L244.48,157.974 L244.426,157.974 C244.077998,158.310002 243.679002,158.600999 243.229,158.847 C242.778998,159.093001 242.296003,159.216 241.78,159.216 Z M242.104,157.974 C242.512002,157.974 242.895998,157.875001 243.256,157.677 C243.616002,157.478999 243.975998,157.176002 244.336,156.768 L244.336,152.196 C243.963998,151.859998 243.607002,151.623001 243.265,151.485 C242.922998,151.346999 242.572002,151.278 242.212,151.278 C241.863998,151.278 241.537002,151.358999 241.231,151.521 C240.924998,151.683001 240.658001,151.910999 240.43,152.205 C240.201999,152.499001 240.022001,152.849998 239.89,153.258 C239.757999,153.666002 239.692,154.121997 239.692,154.626 C239.692,155.682005 239.901998,156.503997 240.322,157.092 C240.742002,157.680003 241.335996,157.974 242.104,157.974 Z M254.668,159.216 C254.043997,159.216 253.450003,159.102001 252.886,158.874 C252.321997,158.645999 251.830002,158.358002 251.41,158.01 L252.148,157.02 C252.532002,157.332002 252.924998,157.583999 253.327,157.776 C253.729002,157.968001 254.193997,158.064 254.722,158.064 C255.298003,158.064 255.729999,157.932001 256.018,157.668 C256.306001,157.403999 256.45,157.080002 256.45,156.696 C256.45,156.467999 256.390001,156.270001 256.27,156.102 C256.149999,155.933999 255.997001,155.787001 255.811,155.661 C255.624999,155.534999 255.412001,155.424 255.172,155.328 L254.452,155.04 C254.139998,154.931999 253.828002,154.809001 253.516,154.671 C253.203998,154.532999 252.925001,154.365001 252.679,154.167 C252.432999,153.968999 252.232001,153.738001 252.076,153.474 C251.919999,153.209999 251.842,152.892002 251.842,152.52 C251.842,152.171998 251.910999,151.845002 252.049,151.539 C252.187001,151.232998 252.384999,150.969001 252.643,150.747 C252.901001,150.524999 253.215998,150.351001 253.588,150.225 C253.960002,150.098999 254.379998,150.036 254.848,150.036 C255.400003,150.036 255.906998,150.131999 256.369,150.324 C256.831002,150.516001 257.229998,150.749999 257.566,151.026 L256.864,151.962 C256.563999,151.733999 256.252002,151.548001 255.928,151.404 C255.603998,151.259999 255.250002,151.188 254.866,151.188 C254.313997,151.188 253.909001,151.313999 253.651,151.566 C253.392999,151.818001 253.264,152.111998 253.264,152.448 C253.264,152.652001 253.317999,152.828999 253.426,152.979 C253.534001,153.129001 253.677999,153.260999 253.858,153.375 C254.038001,153.489001 254.244999,153.591 254.479,153.681 C254.713001,153.771 254.955999,153.864 255.208,153.96 C255.520002,154.080001 255.834998,154.205999 256.153,154.338 C256.471002,154.470001 256.755999,154.634999 257.008,154.833 C257.260001,155.031001 257.466999,155.273999 257.629,155.562 C257.791001,155.850001 257.872,156.197998 257.872,156.606 C257.872,156.966002 257.803001,157.301998 257.665,157.614 C257.526999,157.926002 257.323001,158.201999 257.053,158.442 C256.782999,158.682001 256.447002,158.870999 256.045,159.009 C255.642998,159.147001 255.184003,159.216 254.668,159.216 Z M263.47,159.216 C262.881997,159.216 262.333003,159.111001 261.823,158.901 C261.312997,158.690999 260.869002,158.391002 260.491,158.001 C260.112998,157.610998 259.816001,157.134003 259.6,156.57 C259.383999,156.005997 259.276,155.364004 259.276,154.644 C259.276,153.923996 259.386999,153.279003 259.609,152.709 C259.831001,152.138997 260.124998,151.656002 260.491,151.26 C260.857002,150.863998 261.273998,150.561001 261.742,150.351 C262.210002,150.140999 262.695997,150.036 263.2,150.036 C263.752003,150.036 264.246998,150.131999 264.685,150.324 C265.123002,150.516001 265.488999,150.791998 265.783,151.152 C266.077001,151.512002 266.301999,151.943997 266.458,152.448 C266.614001,152.952003 266.692,153.515997 266.692,154.14 C266.692,154.296001 266.689,154.448999 266.683,154.599 C266.677,154.749001 266.662,154.877999 266.638,154.986 L260.734,154.986 C260.794,155.922005 261.084997,156.662997 261.607,157.209 C262.129003,157.755003 262.809996,158.028 263.65,158.028 C264.070002,158.028 264.456998,157.965001 264.811,157.839 C265.165002,157.712999 265.503998,157.548001 265.828,157.344 L266.35,158.316 C265.965998,158.556001 265.540002,158.765999 265.072,158.946 C264.603998,159.126001 264.070003,159.216 263.47,159.216 Z M260.716,153.924 L265.396,153.924 C265.396,153.035996 265.207002,152.361002 264.829,151.899 C264.450998,151.436998 263.920003,151.206 263.236,151.206 C262.923998,151.206 262.627001,151.265999 262.345,151.386 C262.062999,151.506001 261.808001,151.682999 261.58,151.917 C261.351999,152.151001 261.163001,152.435998 261.013,152.772 C260.862999,153.108002 260.764,153.491998 260.716,153.924 Z M270.418,159.216 C269.853997,159.216 269.452001,159.048002 269.212,158.712 C268.971999,158.375998 268.852,157.884003 268.852,157.236 L268.852,146.184 L270.328,146.184 L270.328,157.344 C270.328,157.584001 270.37,157.752 270.454,157.848 C270.538,157.944 270.633999,157.992 270.742,157.992 L270.877,157.992 C270.919,157.992 270.982,157.98 271.066,157.956 L271.264,159.072 C271.168,159.12 271.054001,159.156 270.922,159.18 C270.789999,159.204 270.622001,159.216 270.418,159.216 Z M276.988,159.216 C276.399997,159.216 275.851003,159.111001 275.341,158.901 C274.830997,158.690999 274.387002,158.391002 274.009,158.001 C273.630998,157.610998 273.334001,157.134003 273.118,156.57 C272.901999,156.005997 272.794,155.364004 272.794,154.644 C272.794,153.923996 272.904999,153.279003 273.127,152.709 C273.349001,152.138997 273.642998,151.656002 274.009,151.26 C274.375002,150.863998 274.791998,150.561001 275.26,150.351 C275.728002,150.140999 276.213997,150.036 276.718,150.036 C277.270003,150.036 277.764998,150.131999 278.203,150.324 C278.641002,150.516001 279.006999,150.791998 279.301,151.152 C279.595001,151.512002 279.819999,151.943997 279.976,152.448 C280.132001,152.952003 280.21,153.515997 280.21,154.14 C280.21,154.296001 280.207,154.448999 280.201,154.599 C280.195,154.749001 280.18,154.877999 280.156,154.986 L274.252,154.986 C274.312,155.922005 274.602997,156.662997 275.125,157.209 C275.647003,157.755003 276.327996,158.028 277.168,158.028 C277.588002,158.028 277.974998,157.965001 278.329,157.839 C278.683002,157.712999 279.021998,157.548001 279.346,157.344 L279.868,158.316 C279.483998,158.556001 279.058002,158.765999 278.59,158.946 C278.121998,159.126001 277.588003,159.216 276.988,159.216 Z M274.234,153.924 L278.914,153.924 C278.914,153.035996 278.725002,152.361002 278.347,151.899 C277.968998,151.436998 277.438003,151.206 276.754,151.206 C276.441998,151.206 276.145001,151.265999 275.863,151.386 C275.580999,151.506001 275.326001,151.682999 275.098,151.917 C274.869999,152.151001 274.681001,152.435998 274.531,152.772 C274.380999,153.108002 274.282,153.491998 274.234,153.924 Z M285.826,159.216 C285.249997,159.216 284.710003,159.114001 284.206,158.91 C283.701997,158.705999 283.267002,158.409002 282.901,158.019 C282.534998,157.628998 282.247001,157.149003 282.037,156.579 C281.826999,156.008997 281.722,155.364004 281.722,154.644 C281.722,153.911996 281.835999,153.261003 282.064,152.691 C282.292001,152.120997 282.597998,151.638002 282.982,151.242 C283.366002,150.845998 283.812997,150.546001 284.323,150.342 C284.833003,150.137999 285.369997,150.036 285.934,150.036 C286.510003,150.036 287.001998,150.137999 287.41,150.342 C287.818002,150.546001 288.177998,150.785999 288.49,151.062 L287.734,152.034 C287.481999,151.805999 287.215001,151.620001 286.933,151.476 C286.650999,151.331999 286.336002,151.26 285.988,151.26 C285.591998,151.26 285.226002,151.340999 284.89,151.503 C284.553998,151.665001 284.266001,151.895999 284.026,152.196 C283.785999,152.496002 283.597001,152.852998 283.459,153.267 C283.320999,153.681002 283.252,154.139997 283.252,154.644 C283.252,155.148003 283.317999,155.603998 283.45,156.012 C283.582001,156.420002 283.764999,156.770999 283.999,157.065 C284.233001,157.359001 284.517998,157.586999 284.854,157.749 C285.190002,157.911001 285.555998,157.992 285.952,157.992 C286.360002,157.992 286.734998,157.905001 287.077,157.731 C287.419002,157.556999 287.727999,157.350001 288.004,157.11 L288.652,158.1 C288.255998,158.448002 287.818002,158.720999 287.338,158.919 C286.857998,159.117001 286.354003,159.216 285.826,159.216 Z M293.332,159.216 C292.863998,159.216 292.471002,159.144001 292.153,159 C291.834998,158.855999 291.577001,158.658001 291.379,158.406 C291.180999,158.153999 291.04,157.848002 290.956,157.488 C290.872,157.127998 290.83,156.732002 290.83,156.3 L290.83,151.458 L289.534,151.458 L289.534,150.342 L290.902,150.252 L291.082,147.804 L292.324,147.804 L292.324,150.252 L294.682,150.252 L294.682,151.458 L292.324,151.458 L292.324,156.318 C292.324,156.858003 292.422999,157.274999 292.621,157.569 C292.819001,157.863001 293.169997,158.01 293.674,158.01 C293.830001,158.01 293.997999,157.986 294.178,157.938 C294.358001,157.89 294.519999,157.836 294.664,157.776 L294.952,158.892 C294.711999,158.976 294.451001,159.051 294.169,159.117 C293.886999,159.183 293.608001,159.216 293.332,159.216 Z M303.664,159.216 C303.123997,159.216 302.611002,159.114001 302.125,158.91 C301.638998,158.705999 301.210002,158.409002 300.838,158.019 C300.465998,157.628998 300.169001,157.149003 299.947,156.579 C299.724999,156.008997 299.614,155.364004 299.614,154.644 C299.614,153.911996 299.724999,153.261003 299.947,152.691 C300.169001,152.120997 300.465998,151.638002 300.838,151.242 C301.210002,150.845998 301.638998,150.546001 302.125,150.342 C302.611002,150.137999 303.123997,150.036 303.664,150.036 C304.204003,150.036 304.716998,150.137999 305.203,150.342 C305.689002,150.546001 306.117998,150.845998 306.49,151.242 C306.862002,151.638002 307.158999,152.120997 307.381,152.691 C307.603001,153.261003 307.714,153.911996 307.714,154.644 C307.714,155.364004 307.603001,156.008997 307.381,156.579 C307.158999,157.149003 306.862002,157.628998 306.49,158.019 C306.117998,158.409002 305.689002,158.705999 305.203,158.91 C304.716998,159.114001 304.204003,159.216 303.664,159.216 Z M303.664,157.992 C304.036002,157.992 304.377998,157.911001 304.69,157.749 C305.002002,157.586999 305.268999,157.359001 305.491,157.065 C305.713001,156.770999 305.883999,156.420002 306.004,156.012 C306.124001,155.603998 306.184,155.148003 306.184,154.644 C306.184,154.139997 306.124001,153.681002 306.004,153.267 C305.883999,152.852998 305.713001,152.496002 305.491,152.196 C305.268999,151.895999 305.002002,151.665001 304.69,151.503 C304.377998,151.340999 304.036002,151.26 303.664,151.26 C303.291998,151.26 302.950002,151.340999 302.638,151.503 C302.325998,151.665001 302.059001,151.895999 301.837,152.196 C301.614999,152.496002 301.444001,152.852998 301.324,153.267 C301.203999,153.681002 301.144,154.139997 301.144,154.644 C301.144,155.148003 301.203999,155.603998 301.324,156.012 C301.444001,156.420002 301.614999,156.770999 301.837,157.065 C302.059001,157.359001 302.325998,157.586999 302.638,157.749 C302.950002,157.911001 303.291998,157.992 303.664,157.992 Z M310.018,159 L310.018,150.252 L311.242,150.252 L311.368,151.512 L311.422,151.512 C311.842002,151.091998 312.282998,150.741001 312.745,150.459 C313.207002,150.176999 313.743997,150.036 314.356,150.036 C315.280005,150.036 315.954998,150.323997 316.381,150.9 C316.807002,151.476003 317.02,152.327994 317.02,153.456 L317.02,159 L315.544,159 L315.544,153.654 C315.544,152.825996 315.412001,152.229002 315.148,151.863 C314.883999,151.496998 314.464003,151.314 313.888,151.314 C313.431998,151.314 313.030002,151.427999 312.682,151.656 C312.333998,151.884001 311.938002,152.219998 311.494,152.664 L311.494,159 L310.018,159 Z M323.41,159.216 C322.821997,159.216 322.273003,159.111001 321.763,158.901 C321.252997,158.690999 320.809002,158.391002 320.431,158.001 C320.052998,157.610998 319.756001,157.134003 319.54,156.57 C319.323999,156.005997 319.216,155.364004 319.216,154.644 C319.216,153.923996 319.326999,153.279003 319.549,152.709 C319.771001,152.138997 320.064998,151.656002 320.431,151.26 C320.797002,150.863998 321.213998,150.561001 321.682,150.351 C322.150002,150.140999 322.635997,150.036 323.14,150.036 C323.692003,150.036 324.186998,150.131999 324.625,150.324 C325.063002,150.516001 325.428999,150.791998 325.723,151.152 C326.017001,151.512002 326.241999,151.943997 326.398,152.448 C326.554001,152.952003 326.632,153.515997 326.632,154.14 C326.632,154.296001 326.629,154.448999 326.623,154.599 C326.617,154.749001 326.602,154.877999 326.578,154.986 L320.674,154.986 C320.734,155.922005 321.024997,156.662997 321.547,157.209 C322.069003,157.755003 322.749996,158.028 323.59,158.028 C324.010002,158.028 324.396998,157.965001 324.751,157.839 C325.105002,157.712999 325.443998,157.548001 325.768,157.344 L326.29,158.316 C325.905998,158.556001 325.480002,158.765999 325.012,158.946 C324.543998,159.126001 324.010003,159.216 323.41,159.216 Z M320.656,153.924 L325.336,153.924 C325.336,153.035996 325.147002,152.361002 324.769,151.899 C324.390998,151.436998 323.860003,151.206 323.176,151.206 C322.863998,151.206 322.567001,151.265999 322.285,151.386 C322.002999,151.506001 321.748001,151.682999 321.52,151.917 C321.291999,152.151001 321.103001,152.435998 320.953,152.772 C320.802999,153.108002 320.704,153.491998 320.656,153.924 Z M41.728,182 L41.728,174.458 L40.54,174.458 L40.54,173.342 L41.728,173.252 L41.728,171.866 C41.728,170.965995 41.9349979,170.258003 42.349,169.742 C42.7630021,169.225997 43.4079956,168.968 44.284,168.968 C44.5600014,168.968 44.8209988,168.995 45.067,169.049 C45.3130012,169.103 45.537999,169.172 45.742,169.256 L45.418,170.39 C45.0939984,170.245999 44.7640017,170.174 44.428,170.174 C43.6119959,170.174 43.204,170.737994 43.204,171.866 L43.204,173.252 L45.058,173.252 L45.058,174.458 L43.204,174.458 L43.204,182 L41.728,182 Z M46.732,182 L46.732,173.252 L47.956,173.252 L48.082,174.836 L48.136,174.836 C48.4360015,174.283997 48.7989979,173.846002 49.225,173.522 C49.6510021,173.197998 50.1159975,173.036 50.62,173.036 C50.9680017,173.036 51.2799986,173.095999 51.556,173.216 L51.268,174.512 C51.1239993,174.464 50.9920006,174.428 50.872,174.404 C50.7519994,174.38 50.6020009,174.368 50.422,174.368 C50.0499981,174.368 49.663002,174.517999 49.261,174.818 C48.858998,175.118001 48.5080015,175.639996 48.208,176.384 L48.208,182 L46.732,182 Z M56.38,182.216 C55.8399973,182.216 55.3270024,182.114001 54.841,181.91 C54.3549976,181.705999 53.9260019,181.409002 53.554,181.019 C53.1819981,180.628998 52.8850011,180.149003 52.663,179.579 C52.4409989,179.008997 52.33,178.364004 52.33,177.644 C52.33,176.911996 52.4409989,176.261003 52.663,175.691 C52.8850011,175.120997 53.1819981,174.638002 53.554,174.242 C53.9260019,173.845998 54.3549976,173.546001 54.841,173.342 C55.3270024,173.137999 55.8399973,173.036 56.38,173.036 C56.9200027,173.036 57.4329976,173.137999 57.919,173.342 C58.4050024,173.546001 58.8339981,173.845998 59.206,174.242 C59.5780019,174.638002 59.8749989,175.120997 60.097,175.691 C60.3190011,176.261003 60.43,176.911996 60.43,177.644 C60.43,178.364004 60.3190011,179.008997 60.097,179.579 C59.8749989,180.149003 59.5780019,180.628998 59.206,181.019 C58.8339981,181.409002 58.4050024,181.705999 57.919,181.91 C57.4329976,182.114001 56.9200027,182.216 56.38,182.216 Z M56.38,180.992 C56.7520019,180.992 57.0939984,180.911001 57.406,180.749 C57.7180016,180.586999 57.9849989,180.359001 58.207,180.065 C58.4290011,179.770999 58.5999994,179.420002 58.72,179.012 C58.8400006,178.603998 58.9,178.148003 58.9,177.644 C58.9,177.139997 58.8400006,176.681002 58.72,176.267 C58.5999994,175.852998 58.4290011,175.496001 58.207,175.196 C57.9849989,174.895999 57.7180016,174.665001 57.406,174.503 C57.0939984,174.340999 56.7520019,174.26 56.38,174.26 C56.0079981,174.26 55.6660016,174.340999 55.354,174.503 C55.0419984,174.665001 54.7750011,174.895999 54.553,175.196 C54.3309989,175.496001 54.1600006,175.852998 54.04,176.267 C53.9199994,176.681002 53.86,177.139997 53.86,177.644 C53.86,178.148003 53.9199994,178.603998 54.04,179.012 C54.1600006,179.420002 54.3309989,179.770999 54.553,180.065 C54.7750011,180.359001 55.0419984,180.586999 55.354,180.749 C55.6660016,180.911001 56.0079981,180.992 56.38,180.992 Z M62.734,182 L62.734,173.252 L63.958,173.252 L64.084,174.512 L64.138,174.512 C64.5220019,174.091998 64.9389977,173.741001 65.389,173.459 C65.8390023,173.176999 66.3279974,173.036 66.856,173.036 C67.5280034,173.036 68.0529981,173.182999 68.431,173.477 C68.8090019,173.771001 69.0879991,174.181997 69.268,174.71 C69.7240023,174.205997 70.1829977,173.801002 70.645,173.495 C71.1070023,173.188998 71.6079973,173.036 72.148,173.036 C73.0480045,173.036 73.7169978,173.323997 74.155,173.9 C74.5930022,174.476003 74.812,175.327994 74.812,176.456 L74.812,182 L73.336,182 L73.336,176.654 C73.336,175.825996 73.2040013,175.229002 72.94,174.863 C72.6759987,174.496998 72.2680028,174.314 71.716,174.314 C71.0559967,174.314 70.324004,174.763995 69.52,175.664 L69.52,182 L68.044,182 L68.044,176.654 C68.044,175.825996 67.9120013,175.229002 67.648,174.863 C67.3839987,174.496998 66.9700028,174.314 66.406,174.314 C65.7459967,174.314 65.014004,174.763995 64.21,175.664 L64.21,182 L62.734,182 Z M84.01,182.216 C83.5419977,182.216 83.1490016,182.144001 82.831,182 C82.5129984,181.855999 82.255001,181.658001 82.057,181.406 C81.858999,181.153999 81.7180004,180.848002 81.634,180.488 C81.5499996,180.127998 81.508,179.732002 81.508,179.3 L81.508,174.458 L80.212,174.458 L80.212,173.342 L81.58,173.252 L81.76,170.804 L83.002,170.804 L83.002,173.252 L85.36,173.252 L85.36,174.458 L83.002,174.458 L83.002,179.318 C83.002,179.858003 83.100999,180.274999 83.299,180.569 C83.497001,180.863001 83.8479975,181.01 84.352,181.01 C84.5080008,181.01 84.6759991,180.986 84.856,180.938 C85.0360009,180.89 85.1979993,180.836 85.342,180.776 L85.63,181.892 C85.3899988,181.976 85.1290014,182.051 84.847,182.117 C84.5649986,182.183 84.2860014,182.216 84.01,182.216 Z M87.34,182 L87.34,169.184 L88.816,169.184 L88.816,172.676 L88.762,174.476 C89.1820021,174.079998 89.6199977,173.741001 90.076,173.459 C90.5320023,173.176999 91.0659969,173.036 91.678,173.036 C92.6020046,173.036 93.2769979,173.323997 93.703,173.9 C94.1290021,174.476003 94.342,175.327994 94.342,176.456 L94.342,182 L92.866,182 L92.866,176.654 C92.866,175.825996 92.7340013,175.229002 92.47,174.863 C92.2059987,174.496998 91.7860029,174.314 91.21,174.314 C90.7539977,174.314 90.3520017,174.427999 90.004,174.656 C89.6559983,174.884001 89.2600022,175.219998 88.816,175.664 L88.816,182 L87.34,182 Z M100.678,182.216 C100.089997,182.216 99.5410026,182.111001 99.031,181.901 C98.5209975,181.690999 98.0770019,181.391002 97.699,181.001 C97.3209981,180.610998 97.0240011,180.134003 96.808,179.57 C96.5919989,179.005997 96.484,178.364004 96.484,177.644 C96.484,176.923996 96.5949989,176.279003 96.817,175.709 C97.0390011,175.138997 97.3329982,174.656002 97.699,174.26 C98.0650018,173.863998 98.4819977,173.561001 98.95,173.351 C99.4180023,173.140999 99.9039975,173.036 100.408,173.036 C100.960003,173.036 101.454998,173.131999 101.893,173.324 C102.331002,173.516001 102.696999,173.791998 102.991,174.152 C103.285001,174.512002 103.509999,174.943997 103.666,175.448 C103.822001,175.952003 103.9,176.515997 103.9,177.14 C103.9,177.296001 103.897,177.448999 103.891,177.599 C103.885,177.749001 103.87,177.877999 103.846,177.986 L97.942,177.986 C98.0020003,178.922005 98.2929974,179.662997 98.815,180.209 C99.3370026,180.755003 100.017996,181.028 100.858,181.028 C101.278002,181.028 101.664998,180.965001 102.019,180.839 C102.373002,180.712999 102.711998,180.548001 103.036,180.344 L103.558,181.316 C103.173998,181.556001 102.748002,181.765999 102.28,181.946 C101.811998,182.126001 101.278003,182.216 100.678,182.216 Z M97.924,176.924 L102.604,176.924 C102.604,176.035996 102.415002,175.361002 102.037,174.899 C101.658998,174.436998 101.128003,174.206 100.444,174.206 C100.131998,174.206 99.8350014,174.265999 99.553,174.386 C99.2709986,174.506001 99.0160011,174.682999 98.788,174.917 C98.5599989,175.151001 98.3710008,175.435998 98.221,175.772 C98.0709993,176.108002 97.9720002,176.491998 97.924,176.924 Z M112.648,182.216 C111.543994,182.216 110.665003,181.820004 110.011,181.028 C109.356997,180.235996 109.03,179.108007 109.03,177.644 C109.03,176.935996 109.134999,176.297003 109.345,175.727 C109.555001,175.156997 109.833998,174.674002 110.182,174.278 C110.53,173.881998 110.931998,173.576001 111.388,173.36 C111.844002,173.143999 112.323997,173.036 112.828,173.036 C113.332003,173.036 113.769998,173.125999 114.142,173.306 C114.514002,173.486001 114.891998,173.731998 115.276,174.044 L115.204,172.55 L115.204,169.184 L116.698,169.184 L116.698,182 L115.474,182 L115.348,180.974 L115.294,180.974 C114.945998,181.310002 114.547002,181.600999 114.097,181.847 C113.646998,182.093001 113.164003,182.216 112.648,182.216 Z M112.972,180.974 C113.380002,180.974 113.763998,180.875001 114.124,180.677 C114.484002,180.478999 114.843998,180.176002 115.204,179.768 L115.204,175.196 C114.831998,174.859998 114.475002,174.623001 114.133,174.485 C113.790998,174.346999 113.440002,174.278 113.08,174.278 C112.731998,174.278 112.405002,174.358999 112.099,174.521 C111.792998,174.683001 111.526001,174.910999 111.298,175.205 C111.069999,175.499001 110.890001,175.849998 110.758,176.258 C110.625999,176.666002 110.56,177.121997 110.56,177.626 C110.56,178.682005 110.769998,179.503997 111.19,180.092 C111.610002,180.680003 112.203996,180.974 112.972,180.974 Z M119.65,182 L119.65,173.252 L120.874,173.252 L121,174.836 L121.054,174.836 C121.354002,174.283997 121.716998,173.846002 122.143,173.522 C122.569002,173.197998 123.033997,173.036 123.538,173.036 C123.886002,173.036 124.197999,173.095999 124.474,173.216 L124.186,174.512 C124.041999,174.464 123.910001,174.428 123.79,174.404 C123.669999,174.38 123.520001,174.368 123.34,174.368 C122.967998,174.368 122.581002,174.517999 122.179,174.818 C121.776998,175.118001 121.426002,175.639996 121.126,176.384 L121.126,182 L119.65,182 Z M129.298,182.216 C128.757997,182.216 128.245002,182.114001 127.759,181.91 C127.272998,181.705999 126.844002,181.409002 126.472,181.019 C126.099998,180.628998 125.803001,180.149003 125.581,179.579 C125.358999,179.008997 125.248,178.364004 125.248,177.644 C125.248,176.911996 125.358999,176.261003 125.581,175.691 C125.803001,175.120997 126.099998,174.638002 126.472,174.242 C126.844002,173.845998 127.272998,173.546001 127.759,173.342 C128.245002,173.137999 128.757997,173.036 129.298,173.036 C129.838003,173.036 130.350998,173.137999 130.837,173.342 C131.323002,173.546001 131.751998,173.845998 132.124,174.242 C132.496002,174.638002 132.792999,175.120997 133.015,175.691 C133.237001,176.261003 133.348,176.911996 133.348,177.644 C133.348,178.364004 133.237001,179.008997 133.015,179.579 C132.792999,180.149003 132.496002,180.628998 132.124,181.019 C131.751998,181.409002 131.323002,181.705999 130.837,181.91 C130.350998,182.114001 129.838003,182.216 129.298,182.216 Z M129.298,180.992 C129.670002,180.992 130.011998,180.911001 130.324,180.749 C130.636002,180.586999 130.902999,180.359001 131.125,180.065 C131.347001,179.770999 131.517999,179.420002 131.638,179.012 C131.758001,178.603998 131.818,178.148003 131.818,177.644 C131.818,177.139997 131.758001,176.681002 131.638,176.267 C131.517999,175.852998 131.347001,175.496001 131.125,175.196 C130.902999,174.895999 130.636002,174.665001 130.324,174.503 C130.011998,174.340999 129.670002,174.26 129.298,174.26 C128.925998,174.26 128.584002,174.340999 128.272,174.503 C127.959998,174.665001 127.693001,174.895999 127.471,175.196 C127.248999,175.496001 127.078001,175.852998 126.958,176.267 C126.837999,176.681002 126.778,177.139997 126.778,177.644 C126.778,178.148003 126.837999,178.603998 126.958,179.012 C127.078001,179.420002 127.248999,179.770999 127.471,180.065 C127.693001,180.359001 127.959998,180.586999 128.272,180.749 C128.584002,180.911001 128.925998,180.992 129.298,180.992 Z M135.652,185.69 L135.652,173.252 L136.876,173.252 L137.002,174.26 L137.056,174.26 C137.452002,173.923998 137.886998,173.636001 138.361,173.396 C138.835002,173.155999 139.329997,173.036 139.846,173.036 C140.410003,173.036 140.907998,173.140999 141.34,173.351 C141.772002,173.561001 142.131999,173.860998 142.42,174.251 C142.708001,174.641002 142.926999,175.108997 143.077,175.655 C143.227001,176.201003 143.302,176.815997 143.302,177.5 C143.302,178.244004 143.200001,178.906997 142.996,179.489 C142.791999,180.071003 142.516002,180.565998 142.168,180.974 C141.819998,181.382002 141.418002,181.690999 140.962,181.901 C140.505998,182.111001 140.026003,182.216 139.522,182.216 C139.113998,182.216 138.709002,182.126001 138.307,181.946 C137.904998,181.765999 137.500002,181.520002 137.092,181.208 L137.128,182.738 L137.128,185.69 L135.652,185.69 Z M139.27,180.974 C139.630002,180.974 139.962998,180.893001 140.269,180.731 C140.575002,180.568999 140.838999,180.341001 141.061,180.047 C141.283001,179.752999 141.456999,179.390002 141.583,178.958 C141.709001,178.525998 141.772,178.040003 141.772,177.5 C141.772,177.019998 141.73,176.582002 141.646,176.186 C141.562,175.789998 141.427001,175.451001 141.241,175.169 C141.054999,174.886999 140.815001,174.668001 140.521,174.512 C140.226999,174.355999 139.876002,174.278 139.468,174.278 C139.095998,174.278 138.721002,174.379999 138.343,174.584 C137.964998,174.788001 137.560002,175.081998 137.128,175.466 L137.128,180.056 C137.524002,180.392002 137.907998,180.628999 138.28,180.767 C138.652002,180.905001 138.981999,180.974 139.27,180.974 Z M148.63,182.216 C147.525994,182.216 146.647003,181.820004 145.993,181.028 C145.338997,180.235996 145.012,179.108007 145.012,177.644 C145.012,176.935996 145.116999,176.297003 145.327,175.727 C145.537001,175.156997 145.815998,174.674002 146.164,174.278 C146.512,173.881998 146.913998,173.576001 147.37,173.36 C147.826002,173.143999 148.305997,173.036 148.81,173.036 C149.314003,173.036 149.751998,173.125999 150.124,173.306 C150.496002,173.486001 150.873998,173.731998 151.258,174.044 L151.186,172.55 L151.186,169.184 L152.68,169.184 L152.68,182 L151.456,182 L151.33,180.974 L151.276,180.974 C150.927998,181.310002 150.529002,181.600999 150.079,181.847 C149.628998,182.093001 149.146003,182.216 148.63,182.216 Z M148.954,180.974 C149.362002,180.974 149.745998,180.875001 150.106,180.677 C150.466002,180.478999 150.825998,180.176002 151.186,179.768 L151.186,175.196 C150.813998,174.859998 150.457002,174.623001 150.115,174.485 C149.772998,174.346999 149.422002,174.278 149.062,174.278 C148.713998,174.278 148.387002,174.358999 148.081,174.521 C147.774998,174.683001 147.508001,174.910999 147.28,175.205 C147.051999,175.499001 146.872001,175.849998 146.74,176.258 C146.607999,176.666002 146.542,177.121997 146.542,177.626 C146.542,178.682005 146.751998,179.503997 147.172,180.092 C147.592002,180.680003 148.185996,180.974 148.954,180.974 Z M159.034,182.216 C158.493997,182.216 157.981002,182.114001 157.495,181.91 C157.008998,181.705999 156.580002,181.409002 156.208,181.019 C155.835998,180.628998 155.539001,180.149003 155.317,179.579 C155.094999,179.008997 154.984,178.364004 154.984,177.644 C154.984,176.911996 155.094999,176.261003 155.317,175.691 C155.539001,175.120997 155.835998,174.638002 156.208,174.242 C156.580002,173.845998 157.008998,173.546001 157.495,173.342 C157.981002,173.137999 158.493997,173.036 159.034,173.036 C159.574003,173.036 160.086998,173.137999 160.573,173.342 C161.059002,173.546001 161.487998,173.845998 161.86,174.242 C162.232002,174.638002 162.528999,175.120997 162.751,175.691 C162.973001,176.261003 163.084,176.911996 163.084,177.644 C163.084,178.364004 162.973001,179.008997 162.751,179.579 C162.528999,180.149003 162.232002,180.628998 161.86,181.019 C161.487998,181.409002 161.059002,181.705999 160.573,181.91 C160.086998,182.114001 159.574003,182.216 159.034,182.216 Z M159.034,180.992 C159.406002,180.992 159.747998,180.911001 160.06,180.749 C160.372002,180.586999 160.638999,180.359001 160.861,180.065 C161.083001,179.770999 161.253999,179.420002 161.374,179.012 C161.494001,178.603998 161.554,178.148003 161.554,177.644 C161.554,177.139997 161.494001,176.681002 161.374,176.267 C161.253999,175.852998 161.083001,175.496001 160.861,175.196 C160.638999,174.895999 160.372002,174.665001 160.06,174.503 C159.747998,174.340999 159.406002,174.26 159.034,174.26 C158.661998,174.26 158.320002,174.340999 158.008,174.503 C157.695998,174.665001 157.429001,174.895999 157.207,175.196 C156.984999,175.496001 156.814001,175.852998 156.694,176.267 C156.573999,176.681002 156.514,177.139997 156.514,177.644 C156.514,178.148003 156.573999,178.603998 156.694,179.012 C156.814001,179.420002 156.984999,179.770999 157.207,180.065 C157.429001,180.359001 157.695998,180.586999 158.008,180.749 C158.320002,180.911001 158.661998,180.992 159.034,180.992 Z M166.774,182 L164.344,173.252 L165.856,173.252 L167.152,178.31 C167.248,178.730002 167.338,179.137998 167.422,179.534 C167.506,179.930002 167.59,180.331998 167.674,180.74 L167.746,180.74 C167.842,180.331998 167.938,179.927002 168.034,179.525 C168.13,179.122998 168.231999,178.718002 168.34,178.31 L169.69,173.252 L171.13,173.252 L172.498,178.31 C172.606001,178.730002 172.710999,179.137998 172.813,179.534 C172.915001,179.930002 173.014,180.331998 173.11,180.74 L173.182,180.74 C173.278,180.331998 173.368,179.930002 173.452,179.534 C173.536,179.137998 173.626,178.730002 173.722,178.31 L175,173.252 L176.404,173.252 L174.064,182 L172.264,182 L171.004,177.302 C170.895999,176.881998 170.797,176.468002 170.707,176.06 C170.617,175.651998 170.518001,175.226002 170.41,174.782 L170.338,174.782 C170.242,175.226002 170.146,175.654998 170.05,176.069 C169.954,176.483002 169.846001,176.899998 169.726,177.32 L168.502,182 L166.774,182 Z M178.312,182 L178.312,173.252 L179.536,173.252 L179.662,174.512 L179.716,174.512 C180.136002,174.091998 180.576998,173.741001 181.039,173.459 C181.501002,173.176999 182.037997,173.036 182.65,173.036 C183.574005,173.036 184.248998,173.323997 184.675,173.9 C185.101002,174.476003 185.314,175.327994 185.314,176.456 L185.314,182 L183.838,182 L183.838,176.654 C183.838,175.825996 183.706001,175.229002 183.442,174.863 C183.177999,174.496998 182.758003,174.314 182.182,174.314 C181.725998,174.314 181.324002,174.427999 180.976,174.656 C180.627998,174.884001 180.232002,175.219998 179.788,175.664 L179.788,182 L178.312,182 Z M188.932,182.216 C188.631999,182.216 188.377001,182.111001 188.167,181.901 C187.956999,181.690999 187.852,181.424002 187.852,181.1 C187.852,180.751998 187.956999,180.473001 188.167,180.263 C188.377001,180.052999 188.631999,179.948 188.932,179.948 C189.220001,179.948 189.468999,180.052999 189.679,180.263 C189.889001,180.473001 189.994,180.751998 189.994,181.1 C189.994,181.424002 189.889001,181.690999 189.679,181.901 C189.468999,182.111001 189.220001,182.216 188.932,182.216 Z" id="Locatethesearchbar.Typethenameofacityorneighborhood,andselectonefromthedropdown." fill="#FFFFFF" fill-rule="nonzero" mask="url(#mask-2)"></path>
            </g>
        </g>
    </g>
</svg>