<svg xmlns="http://www.w3.org/2000/svg" viewBox="0 0 1305 924" width="1305" height="924"><g transform="translate(240, 496)"><g><g transform="translate(-220,-102)"><g><path d="M55 34 L110 34 L165 34 C184 34 199 49 199 68 L199 68 L199 68 C199 87 184 102 165 102 L110 102 L55 102 C36 102 21 87 21 68 L21 68 L21 68 C21 49 36 34 55 34 Z" fill="#ffffff" stroke="#52565F" stroke-width="2"/><g transform="translate( 40, 49 )"><text x="70" y="24" text-anchor="middle" font-family="Roboto,sans-serif" font-size="14" fill="#52565f">LANDING PAGE</text></g></g></g><g transform="translate(0,-340)"><g><path d="M65.5 44.5 L108 23 A4.340425531914893 4.340425531914893 0 0 1 112 23 L154.5 44.5 L197 66 A2.2921348314606744 2.2921348314606744 0 0 1 197 70 L154.5 91.5 L112 113 A4.340425531914893 4.340425531914893 0 0 1 108 113 L65.5 91.5 L23 70 A2.2921348314606744 2.2921348314606744 0 0 1 23 66 Z" fill="#ffffff" stroke="#52565F" stroke-width="2"/><g transform="translate( 65.5, 44.5 )"><text x="44.5" y="28.5" text-anchor="middle" font-family="Roboto,sans-serif" font-size="14" fill="#52565f">LOG IN</text></g></g></g><g transform="translate(0,136)"><g><path d="M65.5 44.5 L108 23 A4.340425531914893 4.340425531914893 0 0 1 112 23 L154.5 44.5 L197 66 A2.2921348314606744 2.2921348314606744 0 0 1 197 70 L154.5 91.5 L112 113 A4.340425531914893 4.340425531914893 0 0 1 108 113 L65.5 91.5 L23 70 A2.2921348314606744 2.2921348314606744 0 0 1 23 66 Z" fill="#ffffff" stroke="#52565F" stroke-width="2"/><g transform="translate( 65.5, 44.5 )"><text x="44.5" y="28.5" text-anchor="middle" font-family="Roboto,sans-serif" font-size="14" fill="#52565f">SIGN UP</text></g></g></g><g transform="translate(275,-476)"><g><path d="M24.5 34 L110 34 L195.5 34 C197.5 34 199 35.5 199 37.5 L199 68 L199 98.5 C199 100.5 197.5 102 195.5 102 L110 102 L24.5 102 C22.5 102 21 100.5 21 98.5 L21 68 L21 37.5 C21 35.5 22.5 34 24.5 34 Z" fill="#ffffff" stroke="#52565F" stroke-width="2"/><g transform="translate( 36, 49 )"><text x="74" y="24" text-anchor="middle" font-family="Roboto,sans-serif" font-size="14" fill="#52565f">GOOGLE</text></g></g></g><g transform="translate(275,-340)"><g><path d="M24.5 34 L110 34 L195.5 34 C197.5 34 199 35.5 199 37.5 L199 68 L199 98.5 C199 100.5 197.5 102 195.5 102 L110 102 L24.5 102 C22.5 102 21 100.5 21 98.5 L21 68 L21 37.5 C21 35.5 22.5 34 24.5 34 Z" fill="#ffffff" stroke="#52565F" stroke-width="2"/><g transform="translate( 36, 49 )"><text x="74" y="24" text-anchor="middle" font-family="Roboto,sans-serif" font-size="14" fill="#52565f">FACEBOOK</text></g></g></g><g transform="translate(275,-204)"><g><path d="M24.5 34 L110 34 L195.5 34 C197.5 34 199 35.5 199 37.5 L199 68 L199 98.5 C199 100.5 197.5 102 195.5 102 L110 102 L24.5 102 C22.5 102 21 100.5 21 98.5 L21 68 L21 37.5 C21 35.5 22.5 34 24.5 34 Z" fill="#ffffff" stroke="#52565F" stroke-width="2"/><g transform="translate( 36, 49 )"><text x="74" y="24" text-anchor="middle" font-family="Roboto,sans-serif" font-size="14" fill="#52565f">EMAIL AND PW</text></g></g></g><g transform="translate(275,136)"><g><path d="M24.5 34 L110 34 L195.5 34 C197.5 34 199 35.5 199 37.5 L199 68 L199 98.5 C199 100.5 197.5 102 195.5 102 L110 102 L24.5 102 C22.5 102 21 100.5 21 98.5 L21 68 L21 37.5 C21 35.5 22.5 34 24.5 34 Z" fill="#ffffff" stroke="#52565F" stroke-width="2"/><g transform="translate( 36, 49 )"><text x="74" y="24" text-anchor="middle" font-family="Roboto,sans-serif" font-size="14" fill="#52565f">FACEBOOK</text></g></g></g><g transform="translate(275,0)"><g><path d="M24.5 34 L110 34 L195.5 34 C197.5 34 199 35.5 199 37.5 L199 68 L199 98.5 C199 100.5 197.5 102 195.5 102 L110 102 L24.5 102 C22.5 102 21 100.5 21 98.5 L21 68 L21 37.5 C21 35.5 22.5 34 24.5 34 Z" fill="#ffffff" stroke="#52565F" stroke-width="2"/><g transform="translate( 36, 49 )"><text x="74" y="24" text-anchor="middle" font-family="Roboto,sans-serif" font-size="14" fill="#52565f">GOOGLE</text></g></g></g><g transform="translate(275,272)"><g><path d="M24.5 34 L110 34 L195.5 34 C197.5 34 199 35.5 199 37.5 L199 68 L199 98.5 C199 100.5 197.5 102 195.5 102 L110 102 L24.5 102 C22.5 102 21 100.5 21 98.5 L21 68 L21 37.5 C21 35.5 22.5 34 24.5 34 Z" fill="#ffffff" stroke="#52565F" stroke-width="2"/><g transform="translate( 36, 49 )"><text x="74" y="24" text-anchor="middle" font-family="Roboto,sans-serif" font-size="14" fill="#52565f">EMAIL</text></g></g></g><g transform="translate(550,272)"><g><path d="M24.5 34 L110 34 L195.5 34 C197.5 34 199 35.5 199 37.5 L199 68 L199 98.5 C199 100.5 197.5 102 195.5 102 L110 102 L24.5 102 C22.5 102 21 100.5 21 98.5 L21 68 L21 37.5 C21 35.5 22.5 34 24.5 34 Z" fill="#ffffff" stroke="#52565F" stroke-width="2"/><g transform="translate( 36, 49 )"><text x="74" y="24" text-anchor="middle" font-family="Roboto,sans-serif" font-size="14" fill="#52565f">ENTER CREDENTIALS</text></g></g></g><g transform="translate(825,-102)"><g><path d="M55 34 L110 34 L165 34 C184 34 199 49 199 68 L199 68 L199 68 C199 87 184 102 165 102 L110 102 L55 102 C36 102 21 87 21 68 L21 68 L21 68 C21 49 36 34 55 34 Z" fill="#ffffff" stroke="#52565F" stroke-width="2"/><g transform="translate( 40, 49 )"><text x="70" y="24" text-anchor="middle" font-family="Roboto,sans-serif" font-size="14" fill="#52565f">OPEN DASHBOARD</text></g></g></g></g><g><g><path d="M -110,-69L -110,-102L -110,-262Q-110,-272 -100,-272L 0,-272L 19,-272" fill="none" stroke-width="2" stroke="#52565F" stroke-dasharray="0px 0px" stroke-linecap="butt"/><path transform="translate( -113, -71 ) rotate( 360 )" d="M3 6C4.65685 6 6 4.65685 6 3C6 1.34315 4.65685 0 3 0C1.34315 0 0 1.34315 0 3C0 4.65685 1.34315 6 3 6Z" fill="#52565F"/><path transform="translate( 21, -279 ) rotate( 450 )" d="M6.34003 0.275664C6.70452 -0.0918881 7.29548 -0.0918881 7.65997 0.275664L13.7266 6.39331C14.0911 6.76086 14.0911 7.35678 13.7266 7.72434C13.3621 8.09189 12.7712 8.09189 12.4067 7.72434L7 2.2722L1.5933 7.72434C1.22881 8.09189 0.637856 8.09189 0.273367 7.72434C-0.0911224 7.35678 -0.0911224 6.76086 0.273367 6.39331L6.34003 0.275664Z" fill="#52565F"/></g><g><path d="M -110,1L -110,34L -110,194Q-110,204 -100,204L 0,204L 19,204" fill="none" stroke-width="2" stroke="#52565F" stroke-dasharray="0px 0px" stroke-linecap="butt"/><path transform="translate( -107, 3 ) rotate( 180 )" d="M3 6C4.65685 6 6 4.65685 6 3C6 1.34315 4.65685 0 3 0C1.34315 0 0 1.34315 0 3C0 4.65685 1.34315 6 3 6Z" fill="#52565F"/><path transform="translate( 21, 197 ) rotate( 450 )" d="M6.34003 0.275664C6.70452 -0.0918881 7.29548 -0.0918881 7.65997 0.275664L13.7266 6.39331C14.0911 6.76086 14.0911 7.35678 13.7266 7.72434C13.3621 8.09189 12.7712 8.09189 12.4067 7.72434L7 2.2722L1.5933 7.72434C1.22881 8.09189 0.637856 8.09189 0.273367 7.72434C-0.0911224 7.35678 -0.0911224 6.76086 0.273367 6.39331L6.34003 0.275664Z" fill="#52565F"/></g><g><path d="M 110,-318.5L 110,-340L 110,-398Q110,-408 120,-408L 275,-408L 293,-408" fill="none" stroke-width="2" stroke="#52565F" stroke-dasharray="0px 0px" stroke-linecap="butt"/><path transform="translate( 107, -320.5 ) rotate( 360 )" d="M3 6C4.65685 6 6 4.65685 6 3C6 1.34315 4.65685 0 3 0C1.34315 0 0 1.34315 0 3C0 4.65685 1.34315 6 3 6Z" fill="#52565F"/><path transform="translate( 295, -415 ) rotate( 450 )" d="M6.34003 0.275664C6.70452 -0.0918881 7.29548 -0.0918881 7.65997 0.275664L13.7266 6.39331C14.0911 6.76086 14.0911 7.35678 13.7266 7.72434C13.3621 8.09189 12.7712 8.09189 12.4067 7.72434L7 2.2722L1.5933 7.72434C1.22881 8.09189 0.637856 8.09189 0.273367 7.72434C-0.0911224 7.35678 -0.0911224 6.76086 0.273367 6.39331L6.34003 0.275664Z" fill="#52565F"/></g><g><path d="M 199,-272L 220,-272L 275,-272L 293,-272" fill="none" stroke-width="2" stroke="#52565F" stroke-dasharray="0px 0px" stroke-linecap="butt"/><path transform="translate( 201, -275 ) rotate( 450 )" d="M3 6C4.65685 6 6 4.65685 6 3C6 1.34315 4.65685 0 3 0C1.34315 0 0 1.34315 0 3C0 4.65685 1.34315 6 3 6Z" fill="#52565F"/><path transform="translate( 295, -279 ) rotate( 450 )" d="M6.34003 0.275664C6.70452 -0.0918881 7.29548 -0.0918881 7.65997 0.275664L13.7266 6.39331C14.0911 6.76086 14.0911 7.35678 13.7266 7.72434C13.3621 8.09189 12.7712 8.09189 12.4067 7.72434L7 2.2722L1.5933 7.72434C1.22881 8.09189 0.637856 8.09189 0.273367 7.72434C-0.0911224 7.35678 -0.0911224 6.76086 0.273367 6.39331L6.34003 0.275664Z" fill="#52565F"/></g><g><path d="M 110,-225.5L 110,-204L 110,-146Q110,-136 120,-136L 275,-136L 293,-136" fill="none" stroke-width="2" stroke="#52565F" stroke-dasharray="0px 0px" stroke-linecap="butt"/><path transform="translate( 113, -223.5 ) rotate( 180 )" d="M3 6C4.65685 6 6 4.65685 6 3C6 1.34315 4.65685 0 3 0C1.34315 0 0 1.34315 0 3C0 4.65685 1.34315 6 3 6Z" fill="#52565F"/><path transform="translate( 295, -143 ) rotate( 450 )" d="M6.34003 0.275664C6.70452 -0.0918881 7.29548 -0.0918881 7.65997 0.275664L13.7266 6.39331C14.0911 6.76086 14.0911 7.35678 13.7266 7.72434C13.3621 8.09189 12.7712 8.09189 12.4067 7.72434L7 2.2722L1.5933 7.72434C1.22881 8.09189 0.637856 8.09189 0.273367 7.72434C-0.0911224 7.35678 -0.0911224 6.76086 0.273367 6.39331L6.34003 0.275664Z" fill="#52565F"/></g><g><path d="M 110,157.5L 110,136L 110,78Q110,68 120,68L 275,68L 293,68" fill="none" stroke-width="2" stroke="#52565F" stroke-dasharray="0px 0px" stroke-linecap="butt"/><path transform="translate( 107, 155.5 ) rotate( 360 )" d="M3 6C4.65685 6 6 4.65685 6 3C6 1.34315 4.65685 0 3 0C1.34315 0 0 1.34315 0 3C0 4.65685 1.34315 6 3 6Z" fill="#52565F"/><path transform="translate( 295, 61 ) rotate( 450 )" d="M6.34003 0.275664C6.70452 -0.0918881 7.29548 -0.0918881 7.65997 0.275664L13.7266 6.39331C14.0911 6.76086 14.0911 7.35678 13.7266 7.72434C13.3621 8.09189 12.7712 8.09189 12.4067 7.72434L7 2.2722L1.5933 7.72434C1.22881 8.09189 0.637856 8.09189 0.273367 7.72434C-0.0911224 7.35678 -0.0911224 6.76086 0.273367 6.39331L6.34003 0.275664Z" fill="#52565F"/></g><g><path d="M 199,204L 220,204L 275,204L 293,204" fill="none" stroke-width="2" stroke="#52565F" stroke-dasharray="0px 0px" stroke-linecap="butt"/><path transform="translate( 201, 201 ) rotate( 450 )" d="M3 6C4.65685 6 6 4.65685 6 3C6 1.34315 4.65685 0 3 0C1.34315 0 0 1.34315 0 3C0 4.65685 1.34315 6 3 6Z" fill="#52565F"/><path transform="translate( 295, 197 ) rotate( 450 )" d="M6.34003 0.275664C6.70452 -0.0918881 7.29548 -0.0918881 7.65997 0.275664L13.7266 6.39331C14.0911 6.76086 14.0911 7.35678 13.7266 7.72434C13.3621 8.09189 12.7712 8.09189 12.4067 7.72434L7 2.2722L1.5933 7.72434C1.22881 8.09189 0.637856 8.09189 0.273367 7.72434C-0.0911224 7.35678 -0.0911224 6.76086 0.273367 6.39331L6.34003 0.275664Z" fill="#52565F"/></g><g><path d="M 110,250.5L 110,272L 110,330Q110,340 120,340L 275,340L 293,340" fill="none" stroke-width="2" stroke="#52565F" stroke-dasharray="0px 0px" stroke-linecap="butt"/><path transform="translate( 113, 252.5 ) rotate( 180 )" d="M3 6C4.65685 6 6 4.65685 6 3C6 1.34315 4.65685 0 3 0C1.34315 0 0 1.34315 0 3C0 4.65685 1.34315 6 3 6Z" fill="#52565F"/><path transform="translate( 295, 333 ) rotate( 450 )" d="M6.34003 0.275664C6.70452 -0.0918881 7.29548 -0.0918881 7.65997 0.275664L13.7266 6.39331C14.0911 6.76086 14.0911 7.35678 13.7266 7.72434C13.3621 8.09189 12.7712 8.09189 12.4067 7.72434L7 2.2722L1.5933 7.72434C1.22881 8.09189 0.637856 8.09189 0.273367 7.72434C-0.0911224 7.35678 -0.0911224 6.76086 0.273367 6.39331L6.34003 0.275664Z" fill="#52565F"/></g><g><path d="M 475,-408L 495,-408L 925,-408Q935,-408 935,-398L 935,-102L 935,-71" fill="none" stroke-width="2" stroke="#52565F" stroke-dasharray="0px 0px" stroke-linecap="butt"/><path transform="translate( 477, -411 ) rotate( 450 )" d="M3 6C4.65685 6 6 4.65685 6 3C6 1.34315 4.65685 0 3 0C1.34315 0 0 1.34315 0 3C0 4.65685 1.34315 6 3 6Z" fill="#52565F"/><path transform="translate( 942, -69 ) rotate( 540 )" d="M6.34003 0.275664C6.70452 -0.0918881 7.29548 -0.0918881 7.65997 0.275664L13.7266 6.39331C14.0911 6.76086 14.0911 7.35678 13.7266 7.72434C13.3621 8.09189 12.7712 8.09189 12.4067 7.72434L7 2.2722L1.5933 7.72434C1.22881 8.09189 0.637856 8.09189 0.273367 7.72434C-0.0911224 7.35678 -0.0911224 6.76086 0.273367 6.39331L6.34003 0.275664Z" fill="#52565F"/></g><g><path d="M 475,-272L 495,-272L 925,-272Q935,-272 935,-262L 935,-102L 935,-71" fill="none" stroke-width="2" stroke="#52565F" stroke-dasharray="0px 0px" stroke-linecap="butt"/><path transform="translate( 477, -275 ) rotate( 450 )" d="M3 6C4.65685 6 6 4.65685 6 3C6 1.34315 4.65685 0 3 0C1.34315 0 0 1.34315 0 3C0 4.65685 1.34315 6 3 6Z" fill="#52565F"/><path transform="translate( 942, -69 ) rotate( 540 )" d="M6.34003 0.275664C6.70452 -0.0918881 7.29548 -0.0918881 7.65997 0.275664L13.7266 6.39331C14.0911 6.76086 14.0911 7.35678 13.7266 7.72434C13.3621 8.09189 12.7712 8.09189 12.4067 7.72434L7 2.2722L1.5933 7.72434C1.22881 8.09189 0.637856 8.09189 0.273367 7.72434C-0.0911224 7.35678 -0.0911224 6.76086 0.273367 6.39331L6.34003 0.275664Z" fill="#52565F"/></g><g><path d="M 475,-136L 495,-136L 815,-136Q825,-136 825,-126L 825,-44Q825,-34 835,-34L 843,-34" fill="none" stroke-width="2" stroke="#52565F" stroke-dasharray="0px 0px" stroke-linecap="butt"/><path transform="translate( 477, -139 ) rotate( 450 )" d="M3 6C4.65685 6 6 4.65685 6 3C6 1.34315 4.65685 0 3 0C1.34315 0 0 1.34315 0 3C0 4.65685 1.34315 6 3 6Z" fill="#52565F"/><path transform="translate( 845, -41 ) rotate( 450 )" d="M6.34003 0.275664C6.70452 -0.0918881 7.29548 -0.0918881 7.65997 0.275664L13.7266 6.39331C14.0911 6.76086 14.0911 7.35678 13.7266 7.72434C13.3621 8.09189 12.7712 8.09189 12.4067 7.72434L7 2.2722L1.5933 7.72434C1.22881 8.09189 0.637856 8.09189 0.273367 7.72434C-0.0911224 7.35678 -0.0911224 6.76086 0.273367 6.39331L6.34003 0.275664Z" fill="#52565F"/></g><g><path d="M 475,204L 495,204L 925,204Q935,204 935,194L 935,34L 935,3" fill="none" stroke-width="2" stroke="#52565F" stroke-dasharray="0px 0px" stroke-linecap="butt"/><path transform="translate( 477, 201 ) rotate( 450 )" d="M3 6C4.65685 6 6 4.65685 6 3C6 1.34315 4.65685 0 3 0C1.34315 0 0 1.34315 0 3C0 4.65685 1.34315 6 3 6Z" fill="#52565F"/><path transform="translate( 928, 1 ) rotate( 360 )" d="M6.34003 0.275664C6.70452 -0.0918881 7.29548 -0.0918881 7.65997 0.275664L13.7266 6.39331C14.0911 6.76086 14.0911 7.35678 13.7266 7.72434C13.3621 8.09189 12.7712 8.09189 12.4067 7.72434L7 2.2722L1.5933 7.72434C1.22881 8.09189 0.637856 8.09189 0.273367 7.72434C-0.0911224 7.35678 -0.0911224 6.76086 0.273367 6.39331L6.34003 0.275664Z" fill="#52565F"/></g><g><path d="M 475,68L 495,68L 815,68Q825,68 825,58L 825,-24Q825,-34 835,-34L 843,-34" fill="none" stroke-width="2" stroke="#52565F" stroke-dasharray="0px 0px" stroke-linecap="butt"/><path transform="translate( 477, 65 ) rotate( 450 )" d="M3 6C4.65685 6 6 4.65685 6 3C6 1.34315 4.65685 0 3 0C1.34315 0 0 1.34315 0 3C0 4.65685 1.34315 6 3 6Z" fill="#52565F"/><path transform="translate( 845, -41 ) rotate( 450 )" d="M6.34003 0.275664C6.70452 -0.0918881 7.29548 -0.0918881 7.65997 0.275664L13.7266 6.39331C14.0911 6.76086 14.0911 7.35678 13.7266 7.72434C13.3621 8.09189 12.7712 8.09189 12.4067 7.72434L7 2.2722L1.5933 7.72434C1.22881 8.09189 0.637856 8.09189 0.273367 7.72434C-0.0911224 7.35678 -0.0911224 6.76086 0.273367 6.39331L6.34003 0.275664Z" fill="#52565F"/></g><g><path d="M 475,340L 495,340L 550,340L 568,340" fill="none" stroke-width="2" stroke="#52565F" stroke-dasharray="0px 0px" stroke-linecap="butt"/><path transform="translate( 477, 337 ) rotate( 450 )" d="M3 6C4.65685 6 6 4.65685 6 3C6 1.34315 4.65685 0 3 0C1.34315 0 0 1.34315 0 3C0 4.65685 1.34315 6 3 6Z" fill="#52565F"/><path transform="translate( 570, 333 ) rotate( 450 )" d="M6.34003 0.275664C6.70452 -0.0918881 7.29548 -0.0918881 7.65997 0.275664L13.7266 6.39331C14.0911 6.76086 14.0911 7.35678 13.7266 7.72434C13.3621 8.09189 12.7712 8.09189 12.4067 7.72434L7 2.2722L1.5933 7.72434C1.22881 8.09189 0.637856 8.09189 0.273367 7.72434C-0.0911224 7.35678 -0.0911224 6.76086 0.273367 6.39331L6.34003 0.275664Z" fill="#52565F"/></g><g><path d="M 750,340L 770,340L 925,340Q935,340 935,330L 935,34L 935,3" fill="none" stroke-width="2" stroke="#52565F" stroke-dasharray="0px 0px" stroke-linecap="butt"/><path transform="translate( 752, 337 ) rotate( 450 )" d="M3 6C4.65685 6 6 4.65685 6 3C6 1.34315 4.65685 0 3 0C1.34315 0 0 1.34315 0 3C0 4.65685 1.34315 6 3 6Z" fill="#52565F"/><path transform="translate( 928, 1 ) rotate( 360 )" d="M6.34003 0.275664C6.70452 -0.0918881 7.29548 -0.0918881 7.65997 0.275664L13.7266 6.39331C14.0911 6.76086 14.0911 7.35678 13.7266 7.72434C13.3621 8.09189 12.7712 8.09189 12.4067 7.72434L7 2.2722L1.5933 7.72434C1.22881 8.09189 0.637856 8.09189 0.273367 7.72434C-0.0911224 7.35678 -0.0911224 6.76086 0.273367 6.39331L6.34003 0.275664Z" fill="#52565F"/></g></g></g></svg>